<?xml version="1.0" encoding="utf-8"?>
<svg xmlns="http://www.w3.org/2000/svg" xmlns:xlink="http://www.w3.org/1999/xlink" width="600" height="400" viewBox="0 0 2400 1600">
<defs>
  <clipPath id="clip900">
    <rect x="0" y="0" width="2400" height="1600"/>
  </clipPath>
</defs>
<path clip-path="url(#clip900)" d="M0 1600 L2400 1600 L2400 8.88178e-14 L0 8.88178e-14  Z" fill="#ffffff" fill-rule="evenodd" fill-opacity="1"/>
<defs>
  <clipPath id="clip901">
    <rect x="317" y="47" width="2036" height="1370"/>
  </clipPath>
</defs>
<path clip-path="url(#clip900)" d="M317.528 1415.93 L2352.76 1415.93 L2352.76 47.2441 L317.528 47.2441  Z" fill="#ffffff" fill-rule="evenodd" fill-opacity="1"/>
<polyline clip-path="url(#clip901)" style="stroke:#000000; stroke-linecap:round; stroke-linejoin:round; stroke-width:2; stroke-opacity:0.1; fill:none" points="375.129,1415.93 375.129,47.2441 "/>
<polyline clip-path="url(#clip901)" style="stroke:#000000; stroke-linecap:round; stroke-linejoin:round; stroke-width:2; stroke-opacity:0.1; fill:none" points="989.537,1415.93 989.537,47.2441 "/>
<polyline clip-path="url(#clip901)" style="stroke:#000000; stroke-linecap:round; stroke-linejoin:round; stroke-width:2; stroke-opacity:0.1; fill:none" points="1603.95,1415.93 1603.95,47.2441 "/>
<polyline clip-path="url(#clip901)" style="stroke:#000000; stroke-linecap:round; stroke-linejoin:round; stroke-width:2; stroke-opacity:0.1; fill:none" points="2218.35,1415.93 2218.35,47.2441 "/>
<polyline clip-path="url(#clip901)" style="stroke:#000000; stroke-linecap:round; stroke-linejoin:round; stroke-width:2; stroke-opacity:0.1; fill:none" points="317.528,1190.29 2352.76,1190.29 "/>
<polyline clip-path="url(#clip901)" style="stroke:#000000; stroke-linecap:round; stroke-linejoin:round; stroke-width:2; stroke-opacity:0.1; fill:none" points="317.528,886.194 2352.76,886.194 "/>
<polyline clip-path="url(#clip901)" style="stroke:#000000; stroke-linecap:round; stroke-linejoin:round; stroke-width:2; stroke-opacity:0.1; fill:none" points="317.528,582.101 2352.76,582.101 "/>
<polyline clip-path="url(#clip901)" style="stroke:#000000; stroke-linecap:round; stroke-linejoin:round; stroke-width:2; stroke-opacity:0.1; fill:none" points="317.528,278.008 2352.76,278.008 "/>
<polyline clip-path="url(#clip900)" style="stroke:#000000; stroke-linecap:round; stroke-linejoin:round; stroke-width:4; stroke-opacity:1; fill:none" points="317.528,1415.93 2352.76,1415.93 "/>
<polyline clip-path="url(#clip900)" style="stroke:#000000; stroke-linecap:round; stroke-linejoin:round; stroke-width:4; stroke-opacity:1; fill:none" points="375.129,1415.93 375.129,1397.04 "/>
<polyline clip-path="url(#clip900)" style="stroke:#000000; stroke-linecap:round; stroke-linejoin:round; stroke-width:4; stroke-opacity:1; fill:none" points="989.537,1415.93 989.537,1397.04 "/>
<polyline clip-path="url(#clip900)" style="stroke:#000000; stroke-linecap:round; stroke-linejoin:round; stroke-width:4; stroke-opacity:1; fill:none" points="1603.95,1415.93 1603.95,1397.04 "/>
<polyline clip-path="url(#clip900)" style="stroke:#000000; stroke-linecap:round; stroke-linejoin:round; stroke-width:4; stroke-opacity:1; fill:none" points="2218.35,1415.93 2218.35,1397.04 "/>
<path clip-path="url(#clip900)" d="M322.351 1446.85 Q318.74 1446.85 316.911 1450.42 Q315.106 1453.96 315.106 1461.09 Q315.106 1468.19 316.911 1471.76 Q318.74 1475.3 322.351 1475.3 Q325.985 1475.3 327.791 1471.76 Q329.62 1468.19 329.62 1461.09 Q329.62 1453.96 327.791 1450.42 Q325.985 1446.85 322.351 1446.85 M322.351 1443.15 Q328.161 1443.15 331.217 1447.75 Q334.295 1452.34 334.295 1461.09 Q334.295 1469.81 331.217 1474.42 Q328.161 1479 322.351 1479 Q316.541 1479 313.462 1474.42 Q310.407 1469.81 310.407 1461.09 Q310.407 1452.34 313.462 1447.75 Q316.541 1443.15 322.351 1443.15 Z" fill="#000000" fill-rule="nonzero" fill-opacity="1" /><path clip-path="url(#clip900)" d="M342.513 1472.45 L347.397 1472.45 L347.397 1478.33 L342.513 1478.33 L342.513 1472.45 Z" fill="#000000" fill-rule="nonzero" fill-opacity="1" /><path clip-path="url(#clip900)" d="M367.582 1446.85 Q363.971 1446.85 362.143 1450.42 Q360.337 1453.96 360.337 1461.09 Q360.337 1468.19 362.143 1471.76 Q363.971 1475.3 367.582 1475.3 Q371.217 1475.3 373.022 1471.76 Q374.851 1468.19 374.851 1461.09 Q374.851 1453.96 373.022 1450.42 Q371.217 1446.85 367.582 1446.85 M367.582 1443.15 Q373.392 1443.15 376.448 1447.75 Q379.527 1452.34 379.527 1461.09 Q379.527 1469.81 376.448 1474.42 Q373.392 1479 367.582 1479 Q361.772 1479 358.693 1474.42 Q355.638 1469.81 355.638 1461.09 Q355.638 1452.34 358.693 1447.75 Q361.772 1443.15 367.582 1443.15 Z" fill="#000000" fill-rule="nonzero" fill-opacity="1" /><path clip-path="url(#clip900)" d="M397.744 1446.85 Q394.133 1446.85 392.304 1450.42 Q390.499 1453.96 390.499 1461.09 Q390.499 1468.19 392.304 1471.76 Q394.133 1475.3 397.744 1475.3 Q401.378 1475.3 403.184 1471.76 Q405.013 1468.19 405.013 1461.09 Q405.013 1453.96 403.184 1450.42 Q401.378 1446.85 397.744 1446.85 M397.744 1443.15 Q403.554 1443.15 406.61 1447.75 Q409.689 1452.34 409.689 1461.09 Q409.689 1469.81 406.61 1474.42 Q403.554 1479 397.744 1479 Q391.934 1479 388.855 1474.42 Q385.8 1469.81 385.8 1461.09 Q385.8 1452.34 388.855 1447.75 Q391.934 1443.15 397.744 1443.15 Z" fill="#000000" fill-rule="nonzero" fill-opacity="1" /><path clip-path="url(#clip900)" d="M427.906 1446.85 Q424.295 1446.85 422.466 1450.42 Q420.661 1453.96 420.661 1461.09 Q420.661 1468.19 422.466 1471.76 Q424.295 1475.3 427.906 1475.3 Q431.54 1475.3 433.346 1471.76 Q435.175 1468.19 435.175 1461.09 Q435.175 1453.96 433.346 1450.42 Q431.54 1446.85 427.906 1446.85 M427.906 1443.15 Q433.716 1443.15 436.772 1447.75 Q439.85 1452.34 439.85 1461.09 Q439.85 1469.81 436.772 1474.42 Q433.716 1479 427.906 1479 Q422.096 1479 419.017 1474.42 Q415.962 1469.81 415.962 1461.09 Q415.962 1452.34 419.017 1447.75 Q422.096 1443.15 427.906 1443.15 Z" fill="#000000" fill-rule="nonzero" fill-opacity="1" /><path clip-path="url(#clip900)" d="M937.257 1446.85 Q933.646 1446.85 931.817 1450.42 Q930.012 1453.96 930.012 1461.09 Q930.012 1468.19 931.817 1471.76 Q933.646 1475.3 937.257 1475.3 Q940.891 1475.3 942.697 1471.76 Q944.526 1468.19 944.526 1461.09 Q944.526 1453.96 942.697 1450.42 Q940.891 1446.85 937.257 1446.85 M937.257 1443.15 Q943.067 1443.15 946.123 1447.75 Q949.202 1452.34 949.202 1461.09 Q949.202 1469.81 946.123 1474.42 Q943.067 1479 937.257 1479 Q931.447 1479 928.368 1474.42 Q925.313 1469.81 925.313 1461.09 Q925.313 1452.34 928.368 1447.75 Q931.447 1443.15 937.257 1443.15 Z" fill="#000000" fill-rule="nonzero" fill-opacity="1" /><path clip-path="url(#clip900)" d="M957.419 1472.45 L962.303 1472.45 L962.303 1478.33 L957.419 1478.33 L957.419 1472.45 Z" fill="#000000" fill-rule="nonzero" fill-opacity="1" /><path clip-path="url(#clip900)" d="M982.488 1446.85 Q978.877 1446.85 977.049 1450.42 Q975.243 1453.96 975.243 1461.09 Q975.243 1468.19 977.049 1471.76 Q978.877 1475.3 982.488 1475.3 Q986.123 1475.3 987.928 1471.76 Q989.757 1468.19 989.757 1461.09 Q989.757 1453.96 987.928 1450.42 Q986.123 1446.85 982.488 1446.85 M982.488 1443.15 Q988.299 1443.15 991.354 1447.75 Q994.433 1452.34 994.433 1461.09 Q994.433 1469.81 991.354 1474.42 Q988.299 1479 982.488 1479 Q976.678 1479 973.6 1474.42 Q970.544 1469.81 970.544 1461.09 Q970.544 1452.34 973.6 1447.75 Q976.678 1443.15 982.488 1443.15 Z" fill="#000000" fill-rule="nonzero" fill-opacity="1" /><path clip-path="url(#clip900)" d="M1012.65 1446.85 Q1009.04 1446.85 1007.21 1450.42 Q1005.41 1453.96 1005.41 1461.09 Q1005.41 1468.19 1007.21 1471.76 Q1009.04 1475.3 1012.65 1475.3 Q1016.28 1475.3 1018.09 1471.76 Q1019.92 1468.19 1019.92 1461.09 Q1019.92 1453.96 1018.09 1450.42 Q1016.28 1446.85 1012.65 1446.85 M1012.65 1443.15 Q1018.46 1443.15 1021.52 1447.75 Q1024.59 1452.34 1024.59 1461.09 Q1024.59 1469.81 1021.52 1474.42 Q1018.46 1479 1012.65 1479 Q1006.84 1479 1003.76 1474.42 Q1000.71 1469.81 1000.71 1461.09 Q1000.71 1452.34 1003.76 1447.75 Q1006.84 1443.15 1012.65 1443.15 Z" fill="#000000" fill-rule="nonzero" fill-opacity="1" /><path clip-path="url(#clip900)" d="M1032.86 1443.77 L1051.21 1443.77 L1051.21 1447.71 L1037.14 1447.71 L1037.14 1456.18 Q1038.16 1455.83 1039.18 1455.67 Q1040.2 1455.49 1041.22 1455.49 Q1047 1455.49 1050.38 1458.66 Q1053.76 1461.83 1053.76 1467.24 Q1053.76 1472.82 1050.29 1475.93 Q1046.82 1479 1040.5 1479 Q1038.32 1479 1036.05 1478.63 Q1033.81 1478.26 1031.4 1477.52 L1031.4 1472.82 Q1033.48 1473.96 1035.71 1474.51 Q1037.93 1475.07 1040.4 1475.07 Q1044.41 1475.07 1046.75 1472.96 Q1049.09 1470.86 1049.09 1467.24 Q1049.09 1463.63 1046.75 1461.53 Q1044.41 1459.42 1040.4 1459.42 Q1038.53 1459.42 1036.65 1459.84 Q1034.8 1460.25 1032.86 1461.13 L1032.86 1443.77 Z" fill="#000000" fill-rule="nonzero" fill-opacity="1" /><path clip-path="url(#clip900)" d="M1551.17 1446.85 Q1547.56 1446.85 1545.73 1450.42 Q1543.92 1453.96 1543.92 1461.09 Q1543.92 1468.19 1545.73 1471.76 Q1547.56 1475.3 1551.17 1475.3 Q1554.8 1475.3 1556.61 1471.76 Q1558.44 1468.19 1558.44 1461.09 Q1558.44 1453.96 1556.61 1450.42 Q1554.8 1446.85 1551.17 1446.85 M1551.17 1443.15 Q1556.98 1443.15 1560.03 1447.75 Q1563.11 1452.34 1563.11 1461.09 Q1563.11 1469.81 1560.03 1474.42 Q1556.98 1479 1551.17 1479 Q1545.36 1479 1542.28 1474.42 Q1539.22 1469.81 1539.22 1461.09 Q1539.22 1452.34 1542.28 1447.75 Q1545.36 1443.15 1551.17 1443.15 Z" fill="#000000" fill-rule="nonzero" fill-opacity="1" /><path clip-path="url(#clip900)" d="M1571.33 1472.45 L1576.21 1472.45 L1576.21 1478.33 L1571.33 1478.33 L1571.33 1472.45 Z" fill="#000000" fill-rule="nonzero" fill-opacity="1" /><path clip-path="url(#clip900)" d="M1596.4 1446.85 Q1592.79 1446.85 1590.96 1450.42 Q1589.15 1453.96 1589.15 1461.09 Q1589.15 1468.19 1590.96 1471.76 Q1592.79 1475.3 1596.4 1475.3 Q1600.03 1475.3 1601.84 1471.76 Q1603.67 1468.19 1603.67 1461.09 Q1603.67 1453.96 1601.84 1450.42 Q1600.03 1446.85 1596.4 1446.85 M1596.4 1443.15 Q1602.21 1443.15 1605.26 1447.75 Q1608.34 1452.34 1608.34 1461.09 Q1608.34 1469.81 1605.26 1474.42 Q1602.21 1479 1596.4 1479 Q1590.59 1479 1587.51 1474.42 Q1584.45 1469.81 1584.45 1461.09 Q1584.45 1452.34 1587.51 1447.75 Q1590.59 1443.15 1596.4 1443.15 Z" fill="#000000" fill-rule="nonzero" fill-opacity="1" /><path clip-path="url(#clip900)" d="M1617.37 1474.4 L1625.01 1474.4 L1625.01 1448.03 L1616.7 1449.7 L1616.7 1445.44 L1624.96 1443.77 L1629.64 1443.77 L1629.64 1474.4 L1637.28 1474.4 L1637.28 1478.33 L1617.37 1478.33 L1617.37 1474.4 Z" fill="#000000" fill-rule="nonzero" fill-opacity="1" /><path clip-path="url(#clip900)" d="M1656.72 1446.85 Q1653.11 1446.85 1651.28 1450.42 Q1649.48 1453.96 1649.48 1461.09 Q1649.48 1468.19 1651.28 1471.76 Q1653.11 1475.3 1656.72 1475.3 Q1660.36 1475.3 1662.16 1471.76 Q1663.99 1468.19 1663.99 1461.09 Q1663.99 1453.96 1662.16 1450.42 Q1660.36 1446.85 1656.72 1446.85 M1656.72 1443.15 Q1662.53 1443.15 1665.59 1447.75 Q1668.67 1452.34 1668.67 1461.09 Q1668.67 1469.81 1665.59 1474.42 Q1662.53 1479 1656.72 1479 Q1650.91 1479 1647.83 1474.42 Q1644.78 1469.81 1644.78 1461.09 Q1644.78 1452.34 1647.83 1447.75 Q1650.91 1443.15 1656.72 1443.15 Z" fill="#000000" fill-rule="nonzero" fill-opacity="1" /><path clip-path="url(#clip900)" d="M2166.07 1446.85 Q2162.46 1446.85 2160.63 1450.42 Q2158.83 1453.96 2158.83 1461.09 Q2158.83 1468.19 2160.63 1471.76 Q2162.46 1475.3 2166.07 1475.3 Q2169.71 1475.3 2171.51 1471.76 Q2173.34 1468.19 2173.34 1461.09 Q2173.34 1453.96 2171.51 1450.42 Q2169.71 1446.85 2166.07 1446.85 M2166.07 1443.15 Q2171.88 1443.15 2174.94 1447.75 Q2178.02 1452.34 2178.02 1461.09 Q2178.02 1469.81 2174.94 1474.42 Q2171.88 1479 2166.07 1479 Q2160.26 1479 2157.19 1474.42 Q2154.13 1469.81 2154.13 1461.09 Q2154.13 1452.34 2157.19 1447.75 Q2160.26 1443.15 2166.07 1443.15 Z" fill="#000000" fill-rule="nonzero" fill-opacity="1" /><path clip-path="url(#clip900)" d="M2186.24 1472.45 L2191.12 1472.45 L2191.12 1478.33 L2186.24 1478.33 L2186.24 1472.45 Z" fill="#000000" fill-rule="nonzero" fill-opacity="1" /><path clip-path="url(#clip900)" d="M2211.31 1446.85 Q2207.69 1446.85 2205.87 1450.42 Q2204.06 1453.96 2204.06 1461.09 Q2204.06 1468.19 2205.87 1471.76 Q2207.69 1475.3 2211.31 1475.3 Q2214.94 1475.3 2216.75 1471.76 Q2218.57 1468.19 2218.57 1461.09 Q2218.57 1453.96 2216.75 1450.42 Q2214.94 1446.85 2211.31 1446.85 M2211.31 1443.15 Q2217.12 1443.15 2220.17 1447.75 Q2223.25 1452.34 2223.25 1461.09 Q2223.25 1469.81 2220.17 1474.42 Q2217.12 1479 2211.31 1479 Q2205.5 1479 2202.42 1474.42 Q2199.36 1469.81 2199.36 1461.09 Q2199.36 1452.34 2202.42 1447.75 Q2205.5 1443.15 2211.31 1443.15 Z" fill="#000000" fill-rule="nonzero" fill-opacity="1" /><path clip-path="url(#clip900)" d="M2232.28 1474.4 L2239.92 1474.4 L2239.92 1448.03 L2231.61 1449.7 L2231.61 1445.44 L2239.87 1443.77 L2244.55 1443.77 L2244.55 1474.4 L2252.18 1474.4 L2252.18 1478.33 L2232.28 1478.33 L2232.28 1474.4 Z" fill="#000000" fill-rule="nonzero" fill-opacity="1" /><path clip-path="url(#clip900)" d="M2261.68 1443.77 L2280.03 1443.77 L2280.03 1447.71 L2265.96 1447.71 L2265.96 1456.18 Q2266.98 1455.83 2267.99 1455.67 Q2269.01 1455.49 2270.03 1455.49 Q2275.82 1455.49 2279.2 1458.66 Q2282.58 1461.83 2282.58 1467.24 Q2282.58 1472.82 2279.11 1475.93 Q2275.63 1479 2269.31 1479 Q2267.14 1479 2264.87 1478.63 Q2262.62 1478.26 2260.22 1477.52 L2260.22 1472.82 Q2262.3 1473.96 2264.52 1474.51 Q2266.74 1475.07 2269.22 1475.07 Q2273.23 1475.07 2275.56 1472.96 Q2277.9 1470.86 2277.9 1467.24 Q2277.9 1463.63 2275.56 1461.53 Q2273.23 1459.42 2269.22 1459.42 Q2267.35 1459.42 2265.47 1459.84 Q2263.62 1460.25 2261.68 1461.13 L2261.68 1443.77 Z" fill="#000000" fill-rule="nonzero" fill-opacity="1" /><path clip-path="url(#clip900)" d="M1266.58 1523.86 L1266.58 1521.8 Q1274.51 1521.8 1278.6 1517.58 Q1279.72 1517.58 1279.92 1517.83 Q1280.11 1518.09 1280.11 1519.28 L1280.11 1556.29 Q1280.11 1558.25 1281.08 1558.86 Q1282.04 1559.48 1286.26 1559.48 L1288.36 1559.48 L1288.36 1561.51 Q1286.04 1561.31 1277.66 1561.31 Q1269.29 1561.31 1267 1561.51 L1267 1559.48 L1269.1 1559.48 Q1273.25 1559.48 1274.25 1558.9 Q1275.25 1558.28 1275.25 1556.29 L1275.25 1522.12 Q1271.8 1523.86 1266.58 1523.86 Z" fill="#000000" fill-rule="nonzero" fill-opacity="1" /><path clip-path="url(#clip900)" d="M1299.25 1577.06 Q1299.25 1576.74 1299.51 1576.03 L1322.79 1513.81 Q1322.79 1513.74 1322.95 1513.39 Q1323.11 1513.04 1323.21 1512.81 Q1323.31 1512.55 1323.5 1512.36 Q1323.72 1512.17 1323.98 1512.17 Q1324.63 1512.17 1324.63 1512.97 Q1324.63 1513.04 1324.43 1513.81 L1301.08 1576.09 Q1300.7 1577.22 1300.44 1577.54 Q1300.21 1577.87 1299.83 1577.87 Q1299.25 1577.87 1299.25 1577.06 Z" fill="#000000" fill-rule="nonzero" fill-opacity="1" /><path clip-path="url(#clip900)" d="M1371.75 1545.21 Q1371.75 1545.4 1371.49 1546.14 L1366.28 1560.38 Q1365.99 1561.22 1365.7 1561.38 Q1365.41 1561.51 1364.21 1561.51 L1333.68 1561.51 Q1332.94 1561.51 1332.65 1561.47 Q1332.36 1561.44 1332.14 1561.28 Q1331.91 1561.12 1331.91 1560.76 Q1331.91 1560.12 1332.14 1559.83 Q1332.4 1559.54 1332.68 1559.51 Q1332.97 1559.48 1333.68 1559.48 Q1335.29 1559.48 1336.26 1559.38 Q1337.23 1559.28 1337.84 1559.15 Q1338.48 1558.99 1338.8 1558.54 Q1339.16 1558.09 1339.32 1557.7 Q1339.48 1557.29 1339.71 1556.35 L1348.53 1520.93 Q1348.79 1519.86 1348.79 1519.7 Q1348.79 1519.09 1348.4 1518.93 Q1348.05 1518.74 1347.02 1518.64 L1344.5 1518.51 Q1343.73 1518.51 1343.41 1518.48 Q1343.12 1518.45 1342.89 1518.28 Q1342.67 1518.12 1342.67 1517.77 Q1342.67 1517.16 1342.89 1516.87 Q1343.15 1516.55 1343.35 1516.51 Q1343.57 1516.45 1343.92 1516.45 L1352.68 1516.64 L1362.44 1516.45 Q1363.51 1516.45 1363.51 1517.25 Q1363.51 1518.16 1363.06 1518.35 Q1362.6 1518.51 1360.99 1518.51 Q1357.9 1518.51 1356.49 1518.83 Q1355.1 1519.15 1354.71 1519.7 Q1354.36 1520.22 1354.01 1521.6 L1345.08 1557.22 Q1344.76 1558.41 1344.76 1558.74 Q1344.76 1559.09 1344.92 1559.22 Q1345.12 1559.32 1345.63 1559.38 Q1346.21 1559.48 1347.08 1559.48 L1353.26 1559.48 Q1355.13 1559.48 1356.77 1559.19 Q1358.42 1558.9 1359.67 1558.48 Q1360.96 1558.06 1362.12 1557.29 Q1363.28 1556.51 1364.09 1555.84 Q1364.92 1555.13 1365.73 1554.03 Q1366.57 1552.91 1367.05 1552.13 Q1367.56 1551.33 1368.14 1550.04 Q1368.72 1548.72 1369.01 1547.98 Q1369.34 1547.21 1369.82 1545.89 Q1370.11 1545.21 1370.2 1545.02 Q1370.3 1544.82 1370.46 1544.66 Q1370.66 1544.5 1370.95 1544.5 Q1371.33 1544.5 1371.53 1544.73 Q1371.75 1544.95 1371.75 1545.21 Z" fill="#000000" fill-rule="nonzero" fill-opacity="1" /><path clip-path="url(#clip900)" d="M1378.41 1526.02 Q1378.41 1525.18 1378.47 1524.94 Q1378.56 1524.69 1378.92 1524.31 L1387.78 1514.43 Q1392.63 1508.98 1392.63 1504.22 Q1392.63 1501.13 1391.01 1498.92 Q1389.41 1496.71 1386.45 1496.71 Q1384.42 1496.71 1382.71 1497.95 Q1381 1499.19 1380.21 1501.4 Q1380.34 1501.36 1380.82 1501.36 Q1381.97 1501.36 1382.6 1502.08 Q1383.25 1502.8 1383.25 1503.77 Q1383.25 1505.01 1382.44 1505.62 Q1381.65 1506.2 1380.86 1506.2 Q1380.55 1506.2 1380.12 1506.13 Q1379.71 1506.07 1379.06 1505.44 Q1378.41 1504.78 1378.41 1503.63 Q1378.41 1500.41 1380.84 1497.84 Q1383.3 1495.27 1387.04 1495.27 Q1391.28 1495.27 1394.05 1497.79 Q1396.85 1500.3 1396.85 1504.22 Q1396.85 1505.59 1396.42 1506.86 Q1396.01 1508.1 1395.45 1509.07 Q1394.91 1510.03 1393.42 1511.59 Q1391.93 1513.15 1390.74 1514.25 Q1389.54 1515.36 1386.86 1517.7 L1381.97 1522.46 L1390.29 1522.46 Q1394.34 1522.46 1394.66 1522.1 Q1395.11 1521.44 1395.67 1517.99 L1396.85 1517.99 L1395.54 1526.02 L1378.41 1526.02 Z" fill="#000000" fill-rule="nonzero" fill-opacity="1" /><polyline clip-path="url(#clip900)" style="stroke:#000000; stroke-linecap:round; stroke-linejoin:round; stroke-width:4; stroke-opacity:1; fill:none" points="317.528,1415.93 317.528,47.2441 "/>
<polyline clip-path="url(#clip900)" style="stroke:#000000; stroke-linecap:round; stroke-linejoin:round; stroke-width:4; stroke-opacity:1; fill:none" points="317.528,1190.29 336.425,1190.29 "/>
<polyline clip-path="url(#clip900)" style="stroke:#000000; stroke-linecap:round; stroke-linejoin:round; stroke-width:4; stroke-opacity:1; fill:none" points="317.528,886.194 336.425,886.194 "/>
<polyline clip-path="url(#clip900)" style="stroke:#000000; stroke-linecap:round; stroke-linejoin:round; stroke-width:4; stroke-opacity:1; fill:none" points="317.528,582.101 336.425,582.101 "/>
<polyline clip-path="url(#clip900)" style="stroke:#000000; stroke-linecap:round; stroke-linejoin:round; stroke-width:4; stroke-opacity:1; fill:none" points="317.528,278.008 336.425,278.008 "/>
<path clip-path="url(#clip900)" d="M115.857 1190.74 L145.533 1190.74 L145.533 1194.67 L115.857 1194.67 L115.857 1190.74 Z" fill="#000000" fill-rule="nonzero" fill-opacity="1" /><path clip-path="url(#clip900)" d="M165.626 1176.09 Q162.015 1176.09 160.186 1179.65 Q158.38 1183.19 158.38 1190.32 Q158.38 1197.43 160.186 1200.99 Q162.015 1204.54 165.626 1204.54 Q169.26 1204.54 171.065 1200.99 Q172.894 1197.43 172.894 1190.32 Q172.894 1183.19 171.065 1179.65 Q169.26 1176.09 165.626 1176.09 M165.626 1172.38 Q171.436 1172.38 174.491 1176.99 Q177.57 1181.57 177.57 1190.32 Q177.57 1199.05 174.491 1203.66 Q171.436 1208.24 165.626 1208.24 Q159.815 1208.24 156.737 1203.66 Q153.681 1199.05 153.681 1190.32 Q153.681 1181.57 156.737 1176.99 Q159.815 1172.38 165.626 1172.38 Z" fill="#000000" fill-rule="nonzero" fill-opacity="1" /><path clip-path="url(#clip900)" d="M185.788 1201.69 L190.672 1201.69 L190.672 1207.57 L185.788 1207.57 L185.788 1201.69 Z" fill="#000000" fill-rule="nonzero" fill-opacity="1" /><path clip-path="url(#clip900)" d="M210.857 1176.09 Q207.246 1176.09 205.417 1179.65 Q203.612 1183.19 203.612 1190.32 Q203.612 1197.43 205.417 1200.99 Q207.246 1204.54 210.857 1204.54 Q214.491 1204.54 216.297 1200.99 Q218.125 1197.43 218.125 1190.32 Q218.125 1183.19 216.297 1179.65 Q214.491 1176.09 210.857 1176.09 M210.857 1172.38 Q216.667 1172.38 219.723 1176.99 Q222.801 1181.57 222.801 1190.32 Q222.801 1199.05 219.723 1203.66 Q216.667 1208.24 210.857 1208.24 Q205.047 1208.24 201.968 1203.66 Q198.912 1199.05 198.912 1190.32 Q198.912 1181.57 201.968 1176.99 Q205.047 1172.38 210.857 1172.38 Z" fill="#000000" fill-rule="nonzero" fill-opacity="1" /><path clip-path="url(#clip900)" d="M231.065 1173.01 L249.421 1173.01 L249.421 1176.94 L235.347 1176.94 L235.347 1185.41 Q236.366 1185.07 237.384 1184.91 Q238.403 1184.72 239.422 1184.72 Q245.209 1184.72 248.588 1187.89 Q251.968 1191.06 251.968 1196.48 Q251.968 1202.06 248.496 1205.16 Q245.023 1208.24 238.704 1208.24 Q236.528 1208.24 234.26 1207.87 Q232.014 1207.5 229.607 1206.76 L229.607 1202.06 Q231.69 1203.19 233.912 1203.75 Q236.135 1204.3 238.611 1204.3 Q242.616 1204.3 244.954 1202.2 Q247.292 1200.09 247.292 1196.48 Q247.292 1192.87 244.954 1190.76 Q242.616 1188.66 238.611 1188.66 Q236.736 1188.66 234.861 1189.07 Q233.01 1189.49 231.065 1190.37 L231.065 1173.01 Z" fill="#000000" fill-rule="nonzero" fill-opacity="1" /><path clip-path="url(#clip900)" d="M265.208 1203.63 L281.528 1203.63 L281.528 1207.57 L259.583 1207.57 L259.583 1203.63 Q262.245 1200.88 266.829 1196.25 Q271.435 1191.6 272.616 1190.25 Q274.861 1187.73 275.741 1185.99 Q276.644 1184.23 276.644 1182.54 Q276.644 1179.79 274.699 1178.05 Q272.778 1176.32 269.676 1176.32 Q267.477 1176.32 265.023 1177.08 Q262.593 1177.85 259.815 1179.4 L259.815 1174.67 Q262.639 1173.54 265.093 1172.96 Q267.546 1172.38 269.583 1172.38 Q274.954 1172.38 278.148 1175.07 Q281.343 1177.75 281.343 1182.24 Q281.343 1184.37 280.532 1186.29 Q279.745 1188.19 277.639 1190.79 Q277.06 1191.46 273.958 1194.67 Q270.857 1197.87 265.208 1203.63 Z" fill="#000000" fill-rule="nonzero" fill-opacity="1" /><path clip-path="url(#clip900)" d="M115.487 886.646 L145.163 886.646 L145.163 890.581 L115.487 890.581 L115.487 886.646 Z" fill="#000000" fill-rule="nonzero" fill-opacity="1" /><path clip-path="url(#clip900)" d="M165.255 871.993 Q161.644 871.993 159.815 875.558 Q158.01 879.099 158.01 886.229 Q158.01 893.336 159.815 896.9 Q161.644 900.442 165.255 900.442 Q168.889 900.442 170.695 896.9 Q172.524 893.336 172.524 886.229 Q172.524 879.099 170.695 875.558 Q168.889 871.993 165.255 871.993 M165.255 868.289 Q171.065 868.289 174.121 872.896 Q177.2 877.479 177.2 886.229 Q177.2 894.956 174.121 899.562 Q171.065 904.146 165.255 904.146 Q159.445 904.146 156.366 899.562 Q153.311 894.956 153.311 886.229 Q153.311 877.479 156.366 872.896 Q159.445 868.289 165.255 868.289 Z" fill="#000000" fill-rule="nonzero" fill-opacity="1" /><path clip-path="url(#clip900)" d="M185.417 897.595 L190.301 897.595 L190.301 903.474 L185.417 903.474 L185.417 897.595 Z" fill="#000000" fill-rule="nonzero" fill-opacity="1" /><path clip-path="url(#clip900)" d="M210.486 871.993 Q206.875 871.993 205.047 875.558 Q203.241 879.099 203.241 886.229 Q203.241 893.336 205.047 896.9 Q206.875 900.442 210.486 900.442 Q214.121 900.442 215.926 896.9 Q217.755 893.336 217.755 886.229 Q217.755 879.099 215.926 875.558 Q214.121 871.993 210.486 871.993 M210.486 868.289 Q216.297 868.289 219.352 872.896 Q222.431 877.479 222.431 886.229 Q222.431 894.956 219.352 899.562 Q216.297 904.146 210.486 904.146 Q204.676 904.146 201.598 899.562 Q198.542 894.956 198.542 886.229 Q198.542 877.479 201.598 872.896 Q204.676 868.289 210.486 868.289 Z" fill="#000000" fill-rule="nonzero" fill-opacity="1" /><path clip-path="url(#clip900)" d="M230.695 868.914 L249.051 868.914 L249.051 872.85 L234.977 872.85 L234.977 881.322 Q235.996 880.974 237.014 880.812 Q238.033 880.627 239.051 880.627 Q244.838 880.627 248.218 883.799 Q251.597 886.97 251.597 892.386 Q251.597 897.965 248.125 901.067 Q244.653 904.146 238.334 904.146 Q236.158 904.146 233.889 903.775 Q231.644 903.405 229.236 902.664 L229.236 897.965 Q231.32 899.099 233.542 899.655 Q235.764 900.21 238.241 900.21 Q242.246 900.21 244.584 898.104 Q246.921 895.998 246.921 892.386 Q246.921 888.775 244.584 886.669 Q242.246 884.562 238.241 884.562 Q236.366 884.562 234.491 884.979 Q232.639 885.396 230.695 886.275 L230.695 868.914 Z" fill="#000000" fill-rule="nonzero" fill-opacity="1" /><path clip-path="url(#clip900)" d="M261.62 899.539 L269.259 899.539 L269.259 873.174 L260.949 874.84 L260.949 870.581 L269.213 868.914 L273.889 868.914 L273.889 899.539 L281.528 899.539 L281.528 903.474 L261.62 903.474 L261.62 899.539 Z" fill="#000000" fill-rule="nonzero" fill-opacity="1" /><path clip-path="url(#clip900)" d="M114.26 582.553 L143.936 582.553 L143.936 586.488 L114.26 586.488 L114.26 582.553 Z" fill="#000000" fill-rule="nonzero" fill-opacity="1" /><path clip-path="url(#clip900)" d="M164.028 567.9 Q160.417 567.9 158.589 571.465 Q156.783 575.006 156.783 582.136 Q156.783 589.242 158.589 592.807 Q160.417 596.349 164.028 596.349 Q167.663 596.349 169.468 592.807 Q171.297 589.242 171.297 582.136 Q171.297 575.006 169.468 571.465 Q167.663 567.9 164.028 567.9 M164.028 564.196 Q169.839 564.196 172.894 568.803 Q175.973 573.386 175.973 582.136 Q175.973 590.863 172.894 595.469 Q169.839 600.053 164.028 600.053 Q158.218 600.053 155.14 595.469 Q152.084 590.863 152.084 582.136 Q152.084 573.386 155.14 568.803 Q158.218 564.196 164.028 564.196 Z" fill="#000000" fill-rule="nonzero" fill-opacity="1" /><path clip-path="url(#clip900)" d="M184.19 593.502 L189.075 593.502 L189.075 599.381 L184.19 599.381 L184.19 593.502 Z" fill="#000000" fill-rule="nonzero" fill-opacity="1" /><path clip-path="url(#clip900)" d="M209.26 567.9 Q205.649 567.9 203.82 571.465 Q202.014 575.006 202.014 582.136 Q202.014 589.242 203.82 592.807 Q205.649 596.349 209.26 596.349 Q212.894 596.349 214.699 592.807 Q216.528 589.242 216.528 582.136 Q216.528 575.006 214.699 571.465 Q212.894 567.9 209.26 567.9 M209.26 564.196 Q215.07 564.196 218.125 568.803 Q221.204 573.386 221.204 582.136 Q221.204 590.863 218.125 595.469 Q215.07 600.053 209.26 600.053 Q203.449 600.053 200.371 595.469 Q197.315 590.863 197.315 582.136 Q197.315 573.386 200.371 568.803 Q203.449 564.196 209.26 564.196 Z" fill="#000000" fill-rule="nonzero" fill-opacity="1" /><path clip-path="url(#clip900)" d="M229.468 564.821 L247.824 564.821 L247.824 568.756 L233.75 568.756 L233.75 577.229 Q234.769 576.881 235.787 576.719 Q236.806 576.534 237.824 576.534 Q243.611 576.534 246.991 579.705 Q250.371 582.877 250.371 588.293 Q250.371 593.872 246.898 596.974 Q243.426 600.053 237.107 600.053 Q234.931 600.053 232.662 599.682 Q230.417 599.312 228.01 598.571 L228.01 593.872 Q230.093 595.006 232.315 595.562 Q234.537 596.117 237.014 596.117 Q241.019 596.117 243.357 594.011 Q245.695 591.904 245.695 588.293 Q245.695 584.682 243.357 582.576 Q241.019 580.469 237.014 580.469 Q235.139 580.469 233.264 580.886 Q231.412 581.303 229.468 582.182 L229.468 564.821 Z" fill="#000000" fill-rule="nonzero" fill-opacity="1" /><path clip-path="url(#clip900)" d="M269.583 567.9 Q265.972 567.9 264.144 571.465 Q262.338 575.006 262.338 582.136 Q262.338 589.242 264.144 592.807 Q265.972 596.349 269.583 596.349 Q273.218 596.349 275.023 592.807 Q276.852 589.242 276.852 582.136 Q276.852 575.006 275.023 571.465 Q273.218 567.9 269.583 567.9 M269.583 564.196 Q275.394 564.196 278.449 568.803 Q281.528 573.386 281.528 582.136 Q281.528 590.863 278.449 595.469 Q275.394 600.053 269.583 600.053 Q263.773 600.053 260.695 595.469 Q257.639 590.863 257.639 582.136 Q257.639 573.386 260.695 568.803 Q263.773 564.196 269.583 564.196 Z" fill="#000000" fill-rule="nonzero" fill-opacity="1" /><path clip-path="url(#clip900)" d="M114.445 278.46 L144.121 278.46 L144.121 282.395 L114.445 282.395 L114.445 278.46 Z" fill="#000000" fill-rule="nonzero" fill-opacity="1" /><path clip-path="url(#clip900)" d="M164.214 263.807 Q160.603 263.807 158.774 267.372 Q156.968 270.913 156.968 278.043 Q156.968 285.149 158.774 288.714 Q160.603 292.256 164.214 292.256 Q167.848 292.256 169.653 288.714 Q171.482 285.149 171.482 278.043 Q171.482 270.913 169.653 267.372 Q167.848 263.807 164.214 263.807 M164.214 260.103 Q170.024 260.103 173.079 264.71 Q176.158 269.293 176.158 278.043 Q176.158 286.77 173.079 291.376 Q170.024 295.96 164.214 295.96 Q158.403 295.96 155.325 291.376 Q152.269 286.77 152.269 278.043 Q152.269 269.293 155.325 264.71 Q158.403 260.103 164.214 260.103 Z" fill="#000000" fill-rule="nonzero" fill-opacity="1" /><path clip-path="url(#clip900)" d="M184.376 289.409 L189.26 289.409 L189.26 295.288 L184.376 295.288 L184.376 289.409 Z" fill="#000000" fill-rule="nonzero" fill-opacity="1" /><path clip-path="url(#clip900)" d="M209.445 263.807 Q205.834 263.807 204.005 267.372 Q202.2 270.913 202.2 278.043 Q202.2 285.149 204.005 288.714 Q205.834 292.256 209.445 292.256 Q213.079 292.256 214.885 288.714 Q216.713 285.149 216.713 278.043 Q216.713 270.913 214.885 267.372 Q213.079 263.807 209.445 263.807 M209.445 260.103 Q215.255 260.103 218.311 264.71 Q221.389 269.293 221.389 278.043 Q221.389 286.77 218.311 291.376 Q215.255 295.96 209.445 295.96 Q203.635 295.96 200.556 291.376 Q197.5 286.77 197.5 278.043 Q197.5 269.293 200.556 264.71 Q203.635 260.103 209.445 260.103 Z" fill="#000000" fill-rule="nonzero" fill-opacity="1" /><path clip-path="url(#clip900)" d="M242.454 264.802 L230.648 283.251 L242.454 283.251 L242.454 264.802 M241.227 260.728 L247.107 260.728 L247.107 283.251 L252.037 283.251 L252.037 287.14 L247.107 287.14 L247.107 295.288 L242.454 295.288 L242.454 287.14 L226.852 287.14 L226.852 282.626 L241.227 260.728 Z" fill="#000000" fill-rule="nonzero" fill-opacity="1" /><path clip-path="url(#clip900)" d="M259.908 294.571 L259.908 290.311 Q261.667 291.145 263.472 291.585 Q265.278 292.024 267.014 292.024 Q271.644 292.024 274.074 288.923 Q276.528 285.798 276.875 279.455 Q275.532 281.446 273.472 282.511 Q271.412 283.575 268.912 283.575 Q263.727 283.575 260.695 280.45 Q257.685 277.302 257.685 271.862 Q257.685 266.538 260.833 263.321 Q263.982 260.103 269.213 260.103 Q275.208 260.103 278.357 264.71 Q281.528 269.293 281.528 278.043 Q281.528 286.214 277.639 291.098 Q273.773 295.96 267.222 295.96 Q265.463 295.96 263.658 295.612 Q261.852 295.265 259.908 294.571 M269.213 279.918 Q272.361 279.918 274.19 277.765 Q276.042 275.612 276.042 271.862 Q276.042 268.136 274.19 265.983 Q272.361 263.807 269.213 263.807 Q266.065 263.807 264.213 265.983 Q262.384 268.136 262.384 271.862 Q262.384 275.612 264.213 277.765 Q266.065 279.918 269.213 279.918 Z" fill="#000000" fill-rule="nonzero" fill-opacity="1" /><path clip-path="url(#clip900)" d="M23.0249 833.013 L34.4257 834.334 Q35.4563 834.431 35.7784 834.592 Q36.0682 834.753 36.0682 835.268 Q36.0682 836.041 35.2953 836.041 Q34.9732 836.041 34.1037 835.912 Q32.3324 835.719 30.5288 835.719 Q28.4999 835.719 27.2438 836.105 Q25.9556 836.459 25.0216 837.49 Q24.0877 838.521 23.7012 840.421 Q23.2825 842.321 23.2825 845.348 L23.2825 854.044 Q23.2825 856.169 23.669 856.685 Q24.0554 857.168 25.859 857.619 L42.606 861.838 L42.606 855.847 Q42.606 851.661 41.3822 850.018 Q40.1584 848.376 36.2615 847.345 Q35.6496 847.184 35.4241 847.12 Q35.1665 847.023 35.0376 846.862 Q34.8766 846.669 34.8766 846.347 Q34.8766 846.057 35.0699 845.864 Q35.2309 845.67 35.4241 845.606 L35.6174 845.542 Q35.9394 845.542 36.6801 845.735 L50.9795 849.374 Q51.9457 849.632 52.1712 849.793 Q52.3644 849.922 52.3644 850.372 Q52.3644 850.694 52.139 850.92 Q51.9135 851.145 51.5593 851.145 Q51.1728 851.081 50.8507 850.952 Q48.8862 850.501 47.6301 850.501 Q46.825 850.501 46.3419 850.662 Q45.8588 850.823 45.4401 851.371 Q45.0215 851.918 44.8282 853.046 Q44.635 854.173 44.635 855.976 L44.635 862.353 L61.06 866.443 L62.5737 866.733 Q63.25 866.733 63.5076 866.379 Q63.7653 865.992 63.8941 864.607 Q64.0551 862.546 64.0551 861.194 Q64.0551 859.519 64.1195 859.326 Q64.3128 858.939 64.8281 858.939 Q65.4078 858.939 65.7298 859.197 Q66.0197 859.454 66.0519 859.68 Q66.0841 859.905 66.0841 860.324 L65.8909 870.147 L66.0841 878.842 Q66.0841 879.841 65.2789 879.841 Q64.667 879.841 64.4094 879.583 Q64.1195 879.325 64.0873 879.036 Q64.0551 878.746 64.0551 878.005 Q64.0551 876.395 63.9585 875.429 Q63.8619 874.462 63.7331 873.851 Q63.572 873.206 63.1212 872.884 Q62.6703 872.53 62.2838 872.369 Q61.8651 872.208 60.9312 871.983 L26.0522 863.287 Q24.8606 862.965 24.4741 862.965 Q24.0554 862.965 23.7978 863.255 Q23.5402 863.512 23.4435 864.221 Q23.3147 864.929 23.3147 865.509 Q23.2825 866.057 23.2825 867.248 Q23.2825 868.021 23.2503 868.343 Q23.2181 868.633 23.0571 868.859 Q22.896 869.084 22.5418 869.084 Q21.64 869.084 21.4468 868.698 Q21.2213 868.279 21.2213 867.119 L21.2213 834.785 Q21.2213 833.497 21.5112 833.207 Q21.7688 832.885 23.0249 833.013 Z" fill="#000000" fill-rule="nonzero" fill-opacity="1" /><path clip-path="url(#clip900)" d="M81.6395 837.862 Q81.3175 837.862 80.6089 837.605 L18.3872 814.32 Q18.3228 814.32 17.9685 814.159 Q17.6143 813.998 17.3888 813.901 Q17.1312 813.805 16.938 813.611 Q16.7447 813.386 16.7447 813.128 Q16.7447 812.484 17.5499 812.484 Q17.6143 812.484 18.3872 812.677 L80.6734 836.027 Q81.8006 836.413 82.1226 836.671 Q82.4447 836.896 82.4447 837.283 Q82.4447 837.862 81.6395 837.862 Z" fill="#000000" fill-rule="nonzero" fill-opacity="1" /><path clip-path="url(#clip900)" d="M49.5947 805.198 Q38.4515 805.198 29.466 801.044 Q25.6979 799.272 22.5418 796.793 Q19.3856 794.313 18.0007 792.67 Q16.6159 791.028 16.6159 790.577 Q16.6159 789.933 17.26 789.901 Q17.5821 789.901 18.3872 790.77 Q29.2084 801.398 49.5947 801.366 Q70.0454 801.366 80.4479 791.028 Q81.5751 789.901 81.9294 789.901 Q82.5735 789.901 82.5735 790.577 Q82.5735 791.028 81.2531 792.606 Q79.9326 794.184 76.9053 796.632 Q73.8779 799.079 70.1742 800.851 Q61.1888 805.198 49.5947 805.198 Z" fill="#000000" fill-rule="nonzero" fill-opacity="1" /><path clip-path="url(#clip900)" d="M49.7879 743.728 Q49.9812 743.728 50.7219 743.986 L64.9569 749.203 Q65.7942 749.493 65.9553 749.783 Q66.0841 750.073 66.0841 751.264 L66.0841 781.796 Q66.0841 782.536 66.0519 782.826 Q66.0197 783.116 65.8587 783.341 Q65.6976 783.567 65.3434 783.567 Q64.6992 783.567 64.4094 783.341 Q64.1195 783.084 64.0873 782.794 Q64.0551 782.504 64.0551 781.796 Q64.0551 780.185 63.9585 779.219 Q63.8619 778.253 63.7331 777.641 Q63.572 776.997 63.1212 776.675 Q62.6703 776.321 62.2838 776.16 Q61.8651 775.999 60.9312 775.773 L25.5047 766.949 Q24.4419 766.691 24.2809 766.691 Q23.669 766.691 23.5079 767.077 Q23.3147 767.432 23.2181 768.462 L23.0893 770.974 Q23.0893 771.747 23.0571 772.069 Q23.0249 772.359 22.8638 772.585 Q22.7028 772.81 22.3485 772.81 Q21.7366 772.81 21.4468 772.585 Q21.1247 772.327 21.0925 772.134 Q21.0281 771.908 21.0281 771.554 L21.2213 762.794 L21.0281 753.036 Q21.0281 751.973 21.8332 751.973 Q22.735 751.973 22.9282 752.424 Q23.0893 752.875 23.0893 754.485 Q23.0893 757.577 23.4113 758.994 Q23.7334 760.379 24.2809 760.765 Q24.7962 761.119 26.181 761.474 L61.8007 770.395 Q62.9923 770.717 63.3144 770.717 Q63.6687 770.717 63.7975 770.556 Q63.8941 770.362 63.9585 769.847 Q64.0551 769.267 64.0551 768.398 L64.0551 762.214 Q64.0551 760.346 63.7653 758.704 Q63.4754 757.061 63.0567 755.805 Q62.6381 754.517 61.8651 753.358 Q61.0922 752.198 60.4159 751.393 Q59.7073 750.556 58.6123 749.751 Q57.4851 748.913 56.7122 748.43 Q55.907 747.915 54.6188 747.335 Q53.2984 746.756 52.5576 746.466 Q51.7847 746.144 50.4643 745.661 Q49.7879 745.371 49.5947 745.274 Q49.4015 745.178 49.2404 745.016 Q49.0794 744.823 49.0794 744.533 Q49.0794 744.147 49.3048 743.954 Q49.5303 743.728 49.7879 743.728 Z" fill="#000000" fill-rule="nonzero" fill-opacity="1" /><path clip-path="url(#clip900)" d="M47.147 714.84 Q48.1776 713.809 49.5947 713.809 Q51.0118 713.809 52.0745 714.84 Q53.1051 715.87 53.1051 717.287 Q53.1051 718.704 52.0745 719.767 Q51.0118 720.798 49.5947 720.798 Q48.1776 720.798 47.147 719.767 Q46.0843 718.704 46.0843 717.287 Q46.0843 715.87 47.147 714.84 Z" fill="#000000" fill-rule="nonzero" fill-opacity="1" /><path clip-path="url(#clip900)" d="M49.7879 644.506 Q49.9812 644.506 50.7219 644.764 L64.9569 649.981 Q65.7942 650.271 65.9553 650.561 Q66.0841 650.851 66.0841 652.042 L66.0841 682.574 Q66.0841 683.314 66.0519 683.604 Q66.0197 683.894 65.8587 684.119 Q65.6976 684.345 65.3434 684.345 Q64.6992 684.345 64.4094 684.119 Q64.1195 683.862 64.0873 683.572 Q64.0551 683.282 64.0551 682.574 Q64.0551 680.963 63.9585 679.997 Q63.8619 679.031 63.7331 678.419 Q63.572 677.775 63.1212 677.453 Q62.6703 677.099 62.2838 676.938 Q61.8651 676.777 60.9312 676.551 L25.5047 667.727 Q24.4419 667.469 24.2809 667.469 Q23.669 667.469 23.5079 667.856 Q23.3147 668.21 23.2181 669.24 L23.0893 671.752 Q23.0893 672.525 23.0571 672.847 Q23.0249 673.137 22.8638 673.363 Q22.7028 673.588 22.3485 673.588 Q21.7366 673.588 21.4468 673.363 Q21.1247 673.105 21.0925 672.912 Q21.0281 672.686 21.0281 672.332 L21.2213 663.572 L21.0281 653.814 Q21.0281 652.751 21.8332 652.751 Q22.735 652.751 22.9282 653.202 Q23.0893 653.653 23.0893 655.263 Q23.0893 658.355 23.4113 659.772 Q23.7334 661.157 24.2809 661.543 Q24.7962 661.897 26.181 662.252 L61.8007 671.173 Q62.9923 671.495 63.3144 671.495 Q63.6687 671.495 63.7975 671.334 Q63.8941 671.141 63.9585 670.625 Q64.0551 670.046 64.0551 669.176 L64.0551 662.992 Q64.0551 661.125 63.7653 659.482 Q63.4754 657.84 63.0567 656.583 Q62.6381 655.295 61.8651 654.136 Q61.0922 652.976 60.4159 652.171 Q59.7073 651.334 58.6123 650.529 Q57.4851 649.691 56.7122 649.208 Q55.907 648.693 54.6188 648.113 Q53.2984 647.534 52.5576 647.244 Q51.7847 646.922 50.4643 646.439 Q49.7879 646.149 49.5947 646.052 Q49.4015 645.956 49.2404 645.795 Q49.0794 645.601 49.0794 645.311 Q49.0794 644.925 49.3048 644.732 Q49.5303 644.506 49.7879 644.506 Z" fill="#000000" fill-rule="nonzero" fill-opacity="1" /><path clip-path="url(#clip900)" d="M59.1145 615.488 Q60.6926 615.488 60.6926 617.765 L60.6926 625.52 L76.496 628.609 Q76.9018 628.676 77.1272 628.767 Q77.3527 628.834 77.7359 629.037 Q78.0966 629.217 78.277 629.601 Q78.4799 629.961 78.4799 630.502 Q78.4799 631.179 78.0741 631.517 Q77.6908 631.833 77.2174 631.833 Q76.9243 631.833 75.5266 631.382 L60.6926 626.85 L60.6926 630.683 Q60.6926 634.29 64.2546 636.544 Q64.728 636.905 64.7731 637.108 Q64.7956 637.198 64.7956 637.288 Q64.7956 637.536 64.6829 637.694 Q64.5702 637.829 64.4575 637.829 L64.3447 637.852 Q64.1869 637.852 63.5557 637.491 Q62.9019 637.108 61.9325 636.432 Q60.9631 635.733 60.1966 635.034 Q59.2047 634.109 58.6862 633.072 Q58.1451 632.035 58.0775 631.517 Q58.0098 630.976 58.0098 630.277 L58.0098 617.337 Q58.0098 616.751 58.0549 616.435 Q58.0775 616.119 58.348 615.804 Q58.596 615.488 59.1145 615.488 Z" fill="#000000" fill-rule="nonzero" fill-opacity="1" /><path clip-path="url(#clip900)" d="M81.9294 608.663 Q81.6073 608.663 80.8022 607.826 Q69.981 597.198 49.5947 597.198 Q29.144 597.198 18.8059 607.407 Q17.6143 608.663 17.26 608.663 Q16.6159 608.663 16.6159 608.019 Q16.6159 607.568 17.9363 605.99 Q19.2568 604.38 22.2841 601.965 Q25.3115 599.517 29.0151 597.713 Q38.0006 593.366 49.5947 593.366 Q60.7379 593.366 69.7234 597.52 Q73.4914 599.291 76.6476 601.771 Q79.8038 604.251 81.1886 605.894 Q82.5735 607.536 82.5735 608.019 Q82.5735 608.663 81.9294 608.663 Z" fill="#000000" fill-rule="nonzero" fill-opacity="1" /><circle clip-path="url(#clip901)" cx="2295.16" cy="1377.2" r="14.4" fill="#009af9" fill-rule="evenodd" fill-opacity="1" stroke="#000000" stroke-opacity="1" stroke-width="3.2"/>
<circle clip-path="url(#clip901)" cx="1892.19" cy="1106.01" r="14.4" fill="#009af9" fill-rule="evenodd" fill-opacity="1" stroke="#000000" stroke-opacity="1" stroke-width="3.2"/>
<circle clip-path="url(#clip901)" cx="1603.95" cy="912.26" r="14.4" fill="#009af9" fill-rule="evenodd" fill-opacity="1" stroke="#000000" stroke-opacity="1" stroke-width="3.2"/>
<circle clip-path="url(#clip901)" cx="1390.68" cy="768.929" r="14.4" fill="#009af9" fill-rule="evenodd" fill-opacity="1" stroke="#000000" stroke-opacity="1" stroke-width="3.2"/>
<circle clip-path="url(#clip901)" cx="1228.47" cy="659.858" r="14.4" fill="#009af9" fill-rule="evenodd" fill-opacity="1" stroke="#000000" stroke-opacity="1" stroke-width="3.2"/>
<polyline clip-path="url(#clip901)" style="stroke:#e26f46; stroke-linecap:round; stroke-linejoin:round; stroke-width:4; stroke-opacity:1; fill:none" stroke-dasharray="16, 10" points="375.129,85.9806 394.523,99.0223 413.917,112.064 433.311,125.106 452.705,138.147 472.1,151.189 491.494,164.231 510.888,177.272 530.282,190.314 549.676,203.356 569.071,216.398 588.465,229.439 607.859,242.481 627.253,255.523 646.647,268.564 666.042,281.606 685.436,294.648 704.83,307.689 724.224,320.731 743.619,333.773 763.013,346.815 782.407,359.856 801.801,372.898 821.195,385.94 840.59,398.981 859.984,412.023 879.378,425.065 898.772,438.106 918.166,451.148 937.561,464.19 956.955,477.231 976.349,490.273 995.743,503.315 1015.14,516.357 1034.53,529.398 1053.93,542.44 1073.32,555.482 1092.71,568.523 1112.11,581.565 1131.5,594.607 1150.9,607.648 1170.29,620.69 1189.69,633.732 1209.08,646.774 1228.47,659.815 1247.87,672.857 1267.26,685.899 1286.66,698.94 1306.05,711.982 1325.44,725.024 1344.84,738.065 1364.23,751.107 1383.63,764.149 1403.02,777.191 1422.42,790.232 1441.81,803.274 1461.2,816.316 1480.6,829.357 1499.99,842.399 1519.39,855.441 1538.78,868.482 1558.18,881.524 1577.57,894.566 1596.96,907.607 1616.36,920.649 1635.75,933.691 1655.15,946.733 1674.54,959.774 1693.93,972.816 1713.33,985.858 1732.72,998.899 1752.12,1011.94 1771.51,1024.98 1790.91,1038.02 1810.3,1051.07 1829.69,1064.11 1849.09,1077.15 1868.48,1090.19 1887.88,1103.23 1907.27,1116.27 1926.67,1129.32 1946.06,1142.36 1965.45,1155.4 1984.85,1168.44 2004.24,1181.48 2023.64,1194.52 2043.03,1207.57 2062.42,1220.61 2081.82,1233.65 2101.21,1246.69 2120.61,1259.73 2140,1272.78 2159.4,1285.82 2178.79,1298.86 2198.18,1311.9 2217.58,1324.94 2236.97,1337.98 2256.37,1351.03 2275.76,1364.07 2295.16,1377.11 "/>
<path clip-path="url(#clip900)" d="M1277.61 373.546 L2284.91 373.546 L2284.91 92.867 L1277.61 92.867  Z" fill="#ffffff" fill-rule="evenodd" fill-opacity="1"/>
<polyline clip-path="url(#clip900)" style="stroke:#000000; stroke-linecap:round; stroke-linejoin:round; stroke-width:4; stroke-opacity:1; fill:none" points="1277.61,373.546 2284.91,373.546 2284.91,92.867 1277.61,92.867 1277.61,373.546 "/>
<circle clip-path="url(#clip900)" cx="1368.07" cy="186.427" r="20.48" fill="#009af9" fill-rule="evenodd" fill-opacity="1" stroke="#000000" stroke-opacity="1" stroke-width="4.55111"/>
<path clip-path="url(#clip900)" d="M1458.52 169.147 L1478.38 169.147 L1478.38 173.082 L1463.2 173.082 L1463.2 183.267 L1476.9 183.267 L1476.9 187.202 L1463.2 187.202 L1463.2 203.707 L1458.52 203.707 L1458.52 169.147 Z" fill="#000000" fill-rule="nonzero" fill-opacity="1" /><path clip-path="url(#clip900)" d="M1497.18 181.762 Q1496.46 181.346 1495.61 181.16 Q1494.77 180.952 1493.75 180.952 Q1490.14 180.952 1488.2 183.313 Q1486.28 185.651 1486.28 190.049 L1486.28 203.707 L1481.99 203.707 L1481.99 177.781 L1486.28 177.781 L1486.28 181.809 Q1487.62 179.447 1489.77 178.313 Q1491.92 177.156 1495 177.156 Q1495.44 177.156 1495.98 177.225 Q1496.51 177.272 1497.16 177.387 L1497.18 181.762 Z" fill="#000000" fill-rule="nonzero" fill-opacity="1" /><path clip-path="url(#clip900)" d="M1522.78 189.679 L1522.78 191.762 L1503.2 191.762 Q1503.48 196.16 1505.84 198.475 Q1508.22 200.767 1512.46 200.767 Q1514.91 200.767 1517.2 200.165 Q1519.52 199.563 1521.79 198.359 L1521.79 202.387 Q1519.49 203.359 1517.09 203.869 Q1514.68 204.378 1512.2 204.378 Q1506 204.378 1502.36 200.767 Q1498.75 197.156 1498.75 190.998 Q1498.75 184.633 1502.18 180.906 Q1505.63 177.156 1511.46 177.156 Q1516.69 177.156 1519.73 180.535 Q1522.78 183.892 1522.78 189.679 M1518.52 188.429 Q1518.48 184.934 1516.55 182.85 Q1514.66 180.767 1511.51 180.767 Q1507.94 180.767 1505.79 182.781 Q1503.66 184.795 1503.34 188.452 L1518.52 188.429 Z" fill="#000000" fill-rule="nonzero" fill-opacity="1" /><path clip-path="url(#clip900)" d="M1551.95 189.679 L1551.95 191.762 L1532.36 191.762 Q1532.64 196.16 1535 198.475 Q1537.39 200.767 1541.62 200.767 Q1544.08 200.767 1546.37 200.165 Q1548.68 199.563 1550.95 198.359 L1550.95 202.387 Q1548.66 203.359 1546.25 203.869 Q1543.85 204.378 1541.37 204.378 Q1535.17 204.378 1531.53 200.767 Q1527.92 197.156 1527.92 190.998 Q1527.92 184.633 1531.35 180.906 Q1534.79 177.156 1540.63 177.156 Q1545.86 177.156 1548.89 180.535 Q1551.95 183.892 1551.95 189.679 M1547.69 188.429 Q1547.64 184.934 1545.72 182.85 Q1543.82 180.767 1540.67 180.767 Q1537.11 180.767 1534.96 182.781 Q1532.83 184.795 1532.5 188.452 L1547.69 188.429 Z" fill="#000000" fill-rule="nonzero" fill-opacity="1" /><path clip-path="url(#clip900)" d="M1596.18 189.679 L1596.18 191.762 L1576.6 191.762 Q1576.88 196.16 1579.24 198.475 Q1581.62 200.767 1585.86 200.767 Q1588.31 200.767 1590.6 200.165 Q1592.92 199.563 1595.19 198.359 L1595.19 202.387 Q1592.9 203.359 1590.49 203.869 Q1588.08 204.378 1585.6 204.378 Q1579.4 204.378 1575.77 200.767 Q1572.16 197.156 1572.16 190.998 Q1572.16 184.633 1575.58 180.906 Q1579.03 177.156 1584.86 177.156 Q1590.1 177.156 1593.13 180.535 Q1596.18 183.892 1596.18 189.679 M1591.92 188.429 Q1591.88 184.934 1589.96 182.85 Q1588.06 180.767 1584.91 180.767 Q1581.35 180.767 1579.19 182.781 Q1577.06 184.795 1576.74 188.452 L1591.92 188.429 Z" fill="#000000" fill-rule="nonzero" fill-opacity="1" /><path clip-path="url(#clip900)" d="M1624.73 188.059 L1624.73 203.707 L1620.47 203.707 L1620.47 188.197 Q1620.47 184.517 1619.03 182.688 Q1617.6 180.859 1614.73 180.859 Q1611.28 180.859 1609.29 183.059 Q1607.29 185.258 1607.29 189.054 L1607.29 203.707 L1603.01 203.707 L1603.01 177.781 L1607.29 177.781 L1607.29 181.809 Q1608.82 179.471 1610.88 178.313 Q1612.97 177.156 1615.67 177.156 Q1620.14 177.156 1622.43 179.934 Q1624.73 182.688 1624.73 188.059 Z" fill="#000000" fill-rule="nonzero" fill-opacity="1" /><path clip-path="url(#clip900)" d="M1655.4 189.679 L1655.4 191.762 L1635.81 191.762 Q1636.09 196.16 1638.45 198.475 Q1640.84 200.767 1645.07 200.767 Q1647.53 200.767 1649.82 200.165 Q1652.13 199.563 1654.4 198.359 L1654.4 202.387 Q1652.11 203.359 1649.7 203.869 Q1647.29 204.378 1644.82 204.378 Q1638.61 204.378 1634.98 200.767 Q1631.37 197.156 1631.37 190.998 Q1631.37 184.633 1634.79 180.906 Q1638.24 177.156 1644.08 177.156 Q1649.31 177.156 1652.34 180.535 Q1655.4 183.892 1655.4 189.679 M1651.14 188.429 Q1651.09 184.934 1649.17 182.85 Q1647.27 180.767 1644.12 180.767 Q1640.56 180.767 1638.41 182.781 Q1636.28 184.795 1635.95 188.452 L1651.14 188.429 Z" fill="#000000" fill-rule="nonzero" fill-opacity="1" /><path clip-path="url(#clip900)" d="M1677.41 181.762 Q1676.69 181.346 1675.84 181.16 Q1675 180.952 1673.98 180.952 Q1670.37 180.952 1668.43 183.313 Q1666.51 185.651 1666.51 190.049 L1666.51 203.707 L1662.22 203.707 L1662.22 177.781 L1666.51 177.781 L1666.51 181.809 Q1667.85 179.447 1670 178.313 Q1672.16 177.156 1675.23 177.156 Q1675.67 177.156 1676.21 177.225 Q1676.74 177.272 1677.39 177.387 L1677.41 181.762 Z" fill="#000000" fill-rule="nonzero" fill-opacity="1" /><path clip-path="url(#clip900)" d="M1698.1 190.443 Q1698.1 185.813 1696.18 183.267 Q1694.28 180.721 1690.84 180.721 Q1687.41 180.721 1685.49 183.267 Q1683.59 185.813 1683.59 190.443 Q1683.59 195.049 1685.49 197.595 Q1687.41 200.142 1690.84 200.142 Q1694.28 200.142 1696.18 197.595 Q1698.1 195.049 1698.1 190.443 M1702.36 200.489 Q1702.36 207.109 1699.42 210.327 Q1696.48 213.568 1690.42 213.568 Q1688.17 213.568 1686.18 213.22 Q1684.19 212.896 1682.32 212.202 L1682.32 208.058 Q1684.19 209.077 1686.02 209.563 Q1687.85 210.049 1689.75 210.049 Q1693.94 210.049 1696.02 207.85 Q1698.1 205.674 1698.1 201.253 L1698.1 199.146 Q1696.78 201.438 1694.72 202.572 Q1692.66 203.707 1689.79 203.707 Q1685.03 203.707 1682.11 200.072 Q1679.19 196.438 1679.19 190.443 Q1679.19 184.424 1682.11 180.79 Q1685.03 177.156 1689.79 177.156 Q1692.66 177.156 1694.72 178.29 Q1696.78 179.424 1698.1 181.716 L1698.1 177.781 L1702.36 177.781 L1702.36 200.489 Z" fill="#000000" fill-rule="nonzero" fill-opacity="1" /><path clip-path="url(#clip900)" d="M1721.92 206.114 Q1720.12 210.744 1718.41 212.156 Q1716.69 213.568 1713.82 213.568 L1710.42 213.568 L1710.42 210.003 L1712.92 210.003 Q1714.68 210.003 1715.65 209.17 Q1716.62 208.336 1717.8 205.234 L1718.57 203.29 L1708.08 177.781 L1712.59 177.781 L1720.7 198.058 L1728.8 177.781 L1733.31 177.781 L1721.92 206.114 Z" fill="#000000" fill-rule="nonzero" fill-opacity="1" /><path clip-path="url(#clip900)" d="M1771.32 181.716 L1771.32 167.688 L1775.58 167.688 L1775.58 203.707 L1771.32 203.707 L1771.32 199.818 Q1769.98 202.133 1767.92 203.267 Q1765.88 204.378 1763.01 204.378 Q1758.31 204.378 1755.35 200.628 Q1752.41 196.878 1752.41 190.767 Q1752.41 184.656 1755.35 180.906 Q1758.31 177.156 1763.01 177.156 Q1765.88 177.156 1767.92 178.29 Q1769.98 179.401 1771.32 181.716 M1756.81 190.767 Q1756.81 195.466 1758.73 198.151 Q1760.67 200.813 1764.05 200.813 Q1767.43 200.813 1769.38 198.151 Q1771.32 195.466 1771.32 190.767 Q1771.32 186.068 1769.38 183.406 Q1767.43 180.721 1764.05 180.721 Q1760.67 180.721 1758.73 183.406 Q1756.81 186.068 1756.81 190.767 Z" fill="#000000" fill-rule="nonzero" fill-opacity="1" /><path clip-path="url(#clip900)" d="M1806.53 189.679 L1806.53 191.762 L1786.95 191.762 Q1787.22 196.16 1789.59 198.475 Q1791.97 200.767 1796.21 200.767 Q1798.66 200.767 1800.95 200.165 Q1803.27 199.563 1805.53 198.359 L1805.53 202.387 Q1803.24 203.359 1800.84 203.869 Q1798.43 204.378 1795.95 204.378 Q1789.75 204.378 1786.11 200.767 Q1782.5 197.156 1782.5 190.998 Q1782.5 184.633 1785.93 180.906 Q1789.38 177.156 1795.21 177.156 Q1800.44 177.156 1803.47 180.535 Q1806.53 183.892 1806.53 189.679 M1802.27 188.429 Q1802.22 184.934 1800.3 182.85 Q1798.4 180.767 1795.26 180.767 Q1791.69 180.767 1789.54 182.781 Q1787.41 184.795 1787.09 188.452 L1802.27 188.429 Z" fill="#000000" fill-rule="nonzero" fill-opacity="1" /><path clip-path="url(#clip900)" d="M1835.07 188.059 L1835.07 203.707 L1830.81 203.707 L1830.81 188.197 Q1830.81 184.517 1829.38 182.688 Q1827.94 180.859 1825.07 180.859 Q1821.62 180.859 1819.63 183.059 Q1817.64 185.258 1817.64 189.054 L1817.64 203.707 L1813.36 203.707 L1813.36 177.781 L1817.64 177.781 L1817.64 181.809 Q1819.17 179.471 1821.23 178.313 Q1823.31 177.156 1826.02 177.156 Q1830.49 177.156 1832.78 179.934 Q1835.07 182.688 1835.07 188.059 Z" fill="#000000" fill-rule="nonzero" fill-opacity="1" /><path clip-path="url(#clip900)" d="M1860.09 178.545 L1860.09 182.572 Q1858.29 181.647 1856.34 181.184 Q1854.4 180.721 1852.32 180.721 Q1849.15 180.721 1847.55 181.693 Q1845.97 182.665 1845.97 184.609 Q1845.97 186.091 1847.11 186.947 Q1848.24 187.781 1851.67 188.545 L1853.13 188.869 Q1857.66 189.841 1859.56 191.623 Q1861.48 193.383 1861.48 196.554 Q1861.48 200.165 1858.61 202.271 Q1855.77 204.378 1850.77 204.378 Q1848.68 204.378 1846.41 203.961 Q1844.17 203.568 1841.67 202.758 L1841.67 198.359 Q1844.03 199.586 1846.32 200.211 Q1848.61 200.813 1850.86 200.813 Q1853.87 200.813 1855.49 199.795 Q1857.11 198.753 1857.11 196.878 Q1857.11 195.142 1855.93 194.216 Q1854.77 193.29 1850.81 192.433 L1849.33 192.086 Q1845.37 191.253 1843.61 189.54 Q1841.85 187.804 1841.85 184.795 Q1841.85 181.137 1844.45 179.147 Q1847.04 177.156 1851.81 177.156 Q1854.17 177.156 1856.25 177.503 Q1858.33 177.85 1860.09 178.545 Z" fill="#000000" fill-rule="nonzero" fill-opacity="1" /><path clip-path="url(#clip900)" d="M1868.27 177.781 L1872.52 177.781 L1872.52 203.707 L1868.27 203.707 L1868.27 177.781 M1868.27 167.688 L1872.52 167.688 L1872.52 173.082 L1868.27 173.082 L1868.27 167.688 Z" fill="#000000" fill-rule="nonzero" fill-opacity="1" /><path clip-path="url(#clip900)" d="M1885.65 170.42 L1885.65 177.781 L1894.42 177.781 L1894.42 181.091 L1885.65 181.091 L1885.65 195.165 Q1885.65 198.336 1886.51 199.239 Q1887.39 200.142 1890.05 200.142 L1894.42 200.142 L1894.42 203.707 L1890.05 203.707 Q1885.12 203.707 1883.24 201.878 Q1881.37 200.026 1881.37 195.165 L1881.37 181.091 L1878.24 181.091 L1878.24 177.781 L1881.37 177.781 L1881.37 170.42 L1885.65 170.42 Z" fill="#000000" fill-rule="nonzero" fill-opacity="1" /><path clip-path="url(#clip900)" d="M1910.81 206.114 Q1909.01 210.744 1907.29 212.156 Q1905.58 213.568 1902.71 213.568 L1899.31 213.568 L1899.31 210.003 L1901.81 210.003 Q1903.57 210.003 1904.54 209.17 Q1905.51 208.336 1906.69 205.234 L1907.45 203.29 L1896.97 177.781 L1901.48 177.781 L1909.58 198.058 L1917.69 177.781 L1922.2 177.781 L1910.81 206.114 Z" fill="#000000" fill-rule="nonzero" fill-opacity="1" /><polyline clip-path="url(#clip900)" style="stroke:#e26f46; stroke-linecap:round; stroke-linejoin:round; stroke-width:4; stroke-opacity:1; fill:none" stroke-dasharray="16, 10" points="1300.23,279.986 1435.91,279.986 "/>
<path clip-path="url(#clip900)" d="M1458.52 243.565 L1478.38 243.565 L1478.38 247.5 L1463.2 247.5 L1463.2 257.685 L1476.9 257.685 L1476.9 261.62 L1463.2 261.62 L1463.2 278.125 L1458.52 278.125 L1458.52 243.565 Z" fill="#000000" fill-rule="nonzero" fill-opacity="1" /><path clip-path="url(#clip900)" d="M1482.16 252.199 L1486.42 252.199 L1486.42 278.125 L1482.16 278.125 L1482.16 252.199 M1482.16 242.106 L1486.42 242.106 L1486.42 247.5 L1482.16 247.5 L1482.16 242.106 Z" fill="#000000" fill-rule="nonzero" fill-opacity="1" /><path clip-path="url(#clip900)" d="M1499.54 244.838 L1499.54 252.199 L1508.31 252.199 L1508.31 255.509 L1499.54 255.509 L1499.54 269.583 Q1499.54 272.754 1500.4 273.657 Q1501.28 274.56 1503.94 274.56 L1508.31 274.56 L1508.31 278.125 L1503.94 278.125 Q1499.01 278.125 1497.13 276.296 Q1495.26 274.444 1495.26 269.583 L1495.26 255.509 L1492.13 255.509 L1492.13 252.199 L1495.26 252.199 L1495.26 244.838 L1499.54 244.838 Z" fill="#000000" fill-rule="nonzero" fill-opacity="1" /><path clip-path="url(#clip900)" d="M1515 272.245 L1519.89 272.245 L1519.89 278.125 L1515 278.125 L1515 272.245 M1515 253.611 L1519.89 253.611 L1519.89 259.491 L1515 259.491 L1515 253.611 Z" fill="#000000" fill-rule="nonzero" fill-opacity="1" /><path clip-path="url(#clip900)" d="M1574.55 246.809 L1573.59 255.101 Q1573.51 255.85 1573.4 256.084 Q1573.28 256.295 1572.91 256.295 Q1572.34 256.295 1572.34 255.733 Q1572.34 255.499 1572.44 254.866 Q1572.58 253.578 1572.58 252.266 Q1572.58 250.791 1572.3 249.877 Q1572.04 248.94 1571.29 248.261 Q1570.54 247.582 1569.16 247.301 Q1567.78 246.996 1565.57 246.996 L1559.25 246.996 Q1557.7 246.996 1557.33 247.277 Q1556.98 247.558 1556.65 248.87 L1553.58 261.05 L1557.94 261.05 Q1560.98 261.05 1562.18 260.16 Q1563.37 259.27 1564.12 256.436 Q1564.24 255.991 1564.29 255.827 Q1564.36 255.639 1564.47 255.546 Q1564.61 255.428 1564.85 255.428 Q1565.06 255.428 1565.2 255.569 Q1565.34 255.686 1565.39 255.827 L1565.43 255.967 Q1565.43 256.201 1565.29 256.74 L1562.65 267.14 Q1562.46 267.842 1562.34 268.006 Q1562.25 268.147 1561.92 268.147 Q1561.69 268.147 1561.52 267.983 Q1561.36 267.819 1561.36 267.561 Q1561.41 267.28 1561.5 267.046 Q1561.83 265.617 1561.83 264.704 Q1561.83 264.118 1561.71 263.767 Q1561.59 263.415 1561.19 263.111 Q1560.8 262.807 1559.98 262.666 Q1559.16 262.525 1557.85 262.525 L1553.21 262.525 L1550.23 274.471 L1550.02 275.572 Q1550.02 276.064 1550.28 276.251 Q1550.56 276.438 1551.57 276.532 Q1553.07 276.649 1554.05 276.649 Q1555.27 276.649 1555.41 276.696 Q1555.69 276.837 1555.69 277.211 Q1555.69 277.633 1555.5 277.867 Q1555.32 278.078 1555.15 278.101 Q1554.99 278.125 1554.68 278.125 L1547.54 277.984 L1541.22 278.125 Q1540.49 278.125 1540.49 277.539 Q1540.49 277.094 1540.68 276.907 Q1540.86 276.696 1541.07 276.673 Q1541.29 276.649 1541.82 276.649 Q1543 276.649 1543.7 276.579 Q1544.4 276.509 1544.85 276.415 Q1545.31 276.298 1545.55 275.97 Q1545.81 275.642 1545.92 275.361 Q1546.04 275.056 1546.2 274.377 L1552.53 249.011 Q1552.76 248.144 1552.76 247.863 Q1552.76 247.558 1552.55 247.371 Q1552.36 247.184 1551.85 247.113 Q1551.33 247.02 1550.91 247.02 Q1550.51 246.996 1549.65 246.996 Q1549.09 246.996 1548.85 246.973 Q1548.64 246.95 1548.48 246.832 Q1548.31 246.715 1548.31 246.458 Q1548.31 245.802 1548.59 245.661 Q1548.9 245.497 1549.74 245.497 L1573.26 245.497 Q1574.19 245.497 1574.41 245.708 Q1574.64 245.895 1574.55 246.809 Z" fill="#000000" fill-rule="nonzero" fill-opacity="1" /><path clip-path="url(#clip900)" d="M1571.01 289.438 Q1571.01 289.204 1571.2 288.688 L1588.13 243.436 Q1588.13 243.389 1588.25 243.132 Q1588.37 242.874 1588.44 242.71 Q1588.51 242.523 1588.65 242.382 Q1588.81 242.242 1589 242.242 Q1589.47 242.242 1589.47 242.827 Q1589.47 242.874 1589.33 243.436 L1572.35 288.735 Q1572.07 289.555 1571.88 289.789 Q1571.71 290.023 1571.43 290.023 Q1571.01 290.023 1571.01 289.438 Z" fill="#000000" fill-rule="nonzero" fill-opacity="1" /><path clip-path="url(#clip900)" d="M1594.76 266.132 Q1594.76 258.028 1597.78 251.493 Q1599.07 248.753 1600.88 246.458 Q1602.68 244.162 1603.87 243.155 Q1605.07 242.148 1605.4 242.148 Q1605.86 242.148 1605.89 242.616 Q1605.89 242.851 1605.26 243.436 Q1597.53 251.306 1597.55 266.132 Q1597.55 281.006 1605.07 288.571 Q1605.89 289.391 1605.89 289.649 Q1605.89 290.117 1605.4 290.117 Q1605.07 290.117 1603.92 289.157 Q1602.77 288.196 1600.99 285.995 Q1599.21 283.793 1597.92 281.099 Q1594.76 274.565 1594.76 266.132 Z" fill="#000000" fill-rule="nonzero" fill-opacity="1" /><path clip-path="url(#clip900)" d="M1639.46 266.273 Q1639.46 266.414 1639.28 266.952 L1635.48 277.305 Q1635.27 277.914 1635.06 278.031 Q1634.85 278.125 1633.98 278.125 L1611.78 278.125 Q1611.24 278.125 1611.03 278.101 Q1610.82 278.078 1610.65 277.961 Q1610.49 277.844 1610.49 277.586 Q1610.49 277.118 1610.65 276.907 Q1610.84 276.696 1611.05 276.673 Q1611.26 276.649 1611.78 276.649 Q1612.95 276.649 1613.65 276.579 Q1614.35 276.509 1614.8 276.415 Q1615.27 276.298 1615.5 275.97 Q1615.76 275.642 1615.88 275.361 Q1615.99 275.056 1616.16 274.377 L1622.58 248.613 Q1622.76 247.84 1622.76 247.722 Q1622.76 247.277 1622.48 247.16 Q1622.22 247.02 1621.47 246.95 L1619.65 246.856 Q1619.09 246.856 1618.85 246.832 Q1618.64 246.809 1618.48 246.692 Q1618.31 246.575 1618.31 246.317 Q1618.31 245.872 1618.48 245.661 Q1618.66 245.427 1618.8 245.404 Q1618.97 245.357 1619.23 245.357 L1625.6 245.497 L1632.69 245.357 Q1633.47 245.357 1633.47 245.942 Q1633.47 246.598 1633.14 246.739 Q1632.81 246.856 1631.64 246.856 Q1629.39 246.856 1628.36 247.09 Q1627.35 247.324 1627.07 247.722 Q1626.81 248.097 1626.56 249.104 L1620.07 275.01 Q1619.83 275.876 1619.83 276.11 Q1619.83 276.368 1619.95 276.462 Q1620.09 276.532 1620.47 276.579 Q1620.89 276.649 1621.52 276.649 L1626.02 276.649 Q1627.38 276.649 1628.57 276.438 Q1629.77 276.228 1630.68 275.923 Q1631.62 275.619 1632.46 275.056 Q1633.3 274.494 1633.89 274.002 Q1634.5 273.487 1635.08 272.691 Q1635.69 271.871 1636.04 271.309 Q1636.42 270.723 1636.84 269.786 Q1637.26 268.826 1637.47 268.287 Q1637.71 267.725 1638.06 266.765 Q1638.27 266.273 1638.34 266.132 Q1638.41 265.992 1638.53 265.875 Q1638.67 265.758 1638.88 265.758 Q1639.16 265.758 1639.3 265.922 Q1639.46 266.086 1639.46 266.273 Z" fill="#000000" fill-rule="nonzero" fill-opacity="1" /><path clip-path="url(#clip900)" d="M1660.46 264.352 Q1661.21 265.102 1661.21 266.132 Q1661.21 267.163 1660.46 267.936 Q1659.71 268.686 1658.68 268.686 Q1657.65 268.686 1656.88 267.936 Q1656.13 267.163 1656.13 266.132 Q1656.13 265.102 1656.88 264.352 Q1657.65 263.579 1658.68 263.579 Q1659.71 263.579 1660.46 264.352 Z" fill="#000000" fill-rule="nonzero" fill-opacity="1" /><path clip-path="url(#clip900)" d="M1711.6 266.273 Q1711.6 266.414 1711.41 266.952 L1707.62 277.305 Q1707.41 277.914 1707.2 278.031 Q1706.99 278.125 1706.12 278.125 L1683.92 278.125 Q1683.38 278.125 1683.17 278.101 Q1682.96 278.078 1682.79 277.961 Q1682.63 277.844 1682.63 277.586 Q1682.63 277.118 1682.79 276.907 Q1682.98 276.696 1683.19 276.673 Q1683.4 276.649 1683.92 276.649 Q1685.09 276.649 1685.79 276.579 Q1686.49 276.509 1686.94 276.415 Q1687.41 276.298 1687.64 275.97 Q1687.9 275.642 1688.01 275.361 Q1688.13 275.056 1688.3 274.377 L1694.71 248.613 Q1694.9 247.84 1694.9 247.722 Q1694.9 247.277 1694.62 247.16 Q1694.36 247.02 1693.61 246.95 L1691.79 246.856 Q1691.22 246.856 1690.99 246.832 Q1690.78 246.809 1690.61 246.692 Q1690.45 246.575 1690.45 246.317 Q1690.45 245.872 1690.61 245.661 Q1690.8 245.427 1690.94 245.404 Q1691.11 245.357 1691.36 245.357 L1697.73 245.497 L1704.83 245.357 Q1705.6 245.357 1705.6 245.942 Q1705.6 246.598 1705.28 246.739 Q1704.95 246.856 1703.78 246.856 Q1701.53 246.856 1700.5 247.09 Q1699.49 247.324 1699.21 247.722 Q1698.95 248.097 1698.7 249.104 L1692.21 275.01 Q1691.97 275.876 1691.97 276.11 Q1691.97 276.368 1692.09 276.462 Q1692.23 276.532 1692.61 276.579 Q1693.03 276.649 1693.66 276.649 L1698.16 276.649 Q1699.51 276.649 1700.71 276.438 Q1701.9 276.228 1702.82 275.923 Q1703.75 275.619 1704.6 275.056 Q1705.44 274.494 1706.03 274.002 Q1706.64 273.487 1707.22 272.691 Q1707.83 271.871 1708.18 271.309 Q1708.56 270.723 1708.98 269.786 Q1709.4 268.826 1709.61 268.287 Q1709.84 267.725 1710.2 266.765 Q1710.41 266.273 1710.48 266.132 Q1710.55 265.992 1710.66 265.875 Q1710.8 265.758 1711.02 265.758 Q1711.3 265.758 1711.44 265.922 Q1711.6 266.086 1711.6 266.273 Z" fill="#000000" fill-rule="nonzero" fill-opacity="1" /><path clip-path="url(#clip900)" d="M1732.7 273.054 Q1732.7 274.202 1731.04 274.202 L1725.4 274.202 L1723.16 285.695 Q1723.11 285.99 1723.04 286.154 Q1722.99 286.318 1722.85 286.597 Q1722.71 286.859 1722.44 286.991 Q1722.17 287.138 1721.78 287.138 Q1721.29 287.138 1721.04 286.843 Q1720.81 286.564 1720.81 286.22 Q1720.81 286.007 1721.14 284.99 L1724.44 274.202 L1721.65 274.202 Q1719.03 274.202 1717.39 276.792 Q1717.12 277.137 1716.98 277.17 Q1716.91 277.186 1716.84 277.186 Q1716.66 277.186 1716.55 277.104 Q1716.45 277.022 1716.45 276.94 L1716.43 276.858 Q1716.43 276.743 1716.7 276.284 Q1716.98 275.809 1717.47 275.104 Q1717.98 274.399 1718.48 273.841 Q1719.16 273.12 1719.91 272.743 Q1720.66 272.349 1721.04 272.3 Q1721.44 272.251 1721.94 272.251 L1731.35 272.251 Q1731.78 272.251 1732.01 272.284 Q1732.24 272.3 1732.47 272.497 Q1732.7 272.677 1732.7 273.054 Z" fill="#000000" fill-rule="nonzero" fill-opacity="1" /><path clip-path="url(#clip900)" d="M1737.65 289.649 Q1737.65 289.414 1738.26 288.829 Q1745.99 280.959 1745.99 266.132 Q1745.99 251.259 1738.57 243.741 Q1737.65 242.874 1737.65 242.616 Q1737.65 242.148 1738.12 242.148 Q1738.45 242.148 1739.6 243.108 Q1740.77 244.069 1742.53 246.27 Q1744.31 248.472 1745.62 251.166 Q1748.78 257.7 1748.78 266.132 Q1748.78 274.237 1745.76 280.772 Q1744.47 283.512 1742.67 285.807 Q1740.86 288.103 1739.67 289.11 Q1738.47 290.117 1738.12 290.117 Q1737.65 290.117 1737.65 289.649 Z" fill="#000000" fill-rule="nonzero" fill-opacity="1" /><path clip-path="url(#clip900)" d="M1769.38 270.84 Q1769.42 270.255 1770.34 270.255 L1799.73 270.255 Q1801.11 270.255 1801.14 270.794 Q1801.14 271.379 1799.82 271.356 L1770.66 271.356 Q1769.38 271.379 1769.38 270.84 M1769.38 261.471 Q1769.38 260.886 1770.38 260.909 L1799.68 260.909 Q1801.11 260.909 1801.14 261.471 Q1801.14 262.01 1799.92 262.01 L1770.34 262.01 Q1769.38 262.01 1769.38 261.471 Z" fill="#000000" fill-rule="nonzero" fill-opacity="1" /><path clip-path="url(#clip900)" d="M1843.54 247.605 Q1843.54 248.894 1842.72 249.69 Q1841.92 250.486 1840.92 250.486 Q1840.19 250.486 1839.65 250.041 Q1839.14 249.596 1839.14 248.823 Q1839.14 248.027 1839.75 247.184 Q1840.36 246.341 1841.74 246.223 Q1840.82 245.357 1839.37 245.357 Q1838.65 245.357 1838.04 245.825 Q1837.45 246.27 1837.12 246.996 Q1836.77 247.746 1835.98 251.985 Q1835.72 253.367 1835.48 254.702 Q1835.25 256.037 1834.97 257.443 L1838.95 257.443 Q1839.47 257.443 1839.68 257.466 Q1839.89 257.49 1840.05 257.607 Q1840.24 257.724 1840.24 257.981 Q1840.24 258.637 1839.93 258.801 Q1839.65 258.942 1838.81 258.942 L1834.69 258.942 L1831.81 274.143 Q1831.74 274.588 1831.43 275.993 Q1831.15 277.375 1830.47 279.647 Q1829.79 281.943 1829.11 283.301 Q1828.74 284.074 1828.25 284.8 Q1827.78 285.55 1827.1 286.299 Q1826.42 287.049 1825.53 287.494 Q1824.64 287.962 1823.7 287.962 Q1822.11 287.962 1820.87 287.072 Q1819.63 286.182 1819.63 284.66 Q1819.63 283.371 1820.42 282.575 Q1821.24 281.779 1822.25 281.779 Q1822.98 281.779 1823.49 282.224 Q1824.03 282.669 1824.03 283.442 Q1824.03 283.77 1823.91 284.144 Q1823.8 284.519 1823.54 284.941 Q1823.28 285.386 1822.72 285.69 Q1822.16 285.995 1821.38 286.042 Q1822.3 286.908 1823.7 286.908 Q1824.15 286.908 1824.55 286.721 Q1824.94 286.557 1825.27 286.135 Q1825.62 285.714 1825.88 285.292 Q1826.14 284.894 1826.4 284.121 Q1826.65 283.371 1826.82 282.809 Q1826.98 282.247 1827.19 281.24 Q1827.43 280.233 1827.54 279.624 Q1827.66 279.038 1827.87 277.891 L1831.46 258.942 L1828.29 258.942 Q1827.73 258.942 1827.5 258.918 Q1827.29 258.895 1827.12 258.778 Q1826.96 258.637 1826.96 258.356 Q1826.96 257.911 1827.15 257.724 Q1827.36 257.513 1827.59 257.49 Q1827.82 257.443 1828.39 257.443 L1831.71 257.443 Q1832.84 251.517 1833.28 249.924 Q1833.8 248.238 1834.59 247.067 Q1835.39 245.872 1836.28 245.31 Q1837.17 244.748 1837.9 244.537 Q1838.65 244.303 1839.37 244.303 Q1841.01 244.303 1842.28 245.193 Q1843.54 246.059 1843.54 247.605 Z" fill="#000000" fill-rule="nonzero" fill-opacity="1" /><path clip-path="url(#clip900)" d="M1878.19 289.426 Q1878.19 291.426 1877.41 293.164 Q1876.64 294.885 1875.13 295.968 Q1873.64 297.05 1871.75 297.05 Q1868.83 297.05 1866.04 294.722 Q1865.49 294.246 1865.09 293.803 Q1864.7 293.361 1863.03 291.328 Q1862.75 291.803 1862.45 292.246 Q1862.16 292.672 1861.32 293.639 Q1860.49 294.607 1859.62 295.279 Q1858.76 295.951 1857.44 296.509 Q1856.12 297.05 1854.76 297.05 Q1853.32 297.05 1852.09 296.394 Q1850.88 295.722 1850.07 294.656 Q1849.29 293.574 1848.84 292.229 Q1848.42 290.869 1848.42 289.458 Q1848.42 287.458 1849.19 285.737 Q1849.98 283.999 1851.47 282.917 Q1852.98 281.834 1854.86 281.834 Q1857.8 281.834 1860.57 284.146 Q1861.13 284.622 1861.52 285.064 Q1861.91 285.507 1863.58 287.54 Q1863.8 287.179 1864.03 286.852 Q1864.26 286.507 1864.83 285.753 Q1865.4 284.999 1866.08 284.392 Q1866.77 283.786 1867.63 283.163 Q1868.5 282.539 1869.6 282.195 Q1870.7 281.834 1871.85 281.834 Q1873.29 281.834 1874.5 282.507 Q1875.73 283.163 1876.52 284.245 Q1877.32 285.31 1877.75 286.671 Q1878.19 288.016 1878.19 289.426 M1877.46 289.426 Q1877.46 288.262 1877.11 287.13 Q1876.77 285.999 1876.11 285.048 Q1875.47 284.081 1874.42 283.49 Q1873.37 282.9 1872.09 282.9 Q1870.75 282.9 1869.5 283.474 Q1868.27 284.032 1867.31 284.982 Q1866.36 285.933 1865.7 286.819 Q1865.04 287.704 1864.47 288.721 Q1864.77 289.081 1866.03 290.754 Q1867.31 292.426 1867.85 293.016 Q1870.06 295.427 1872.29 295.427 Q1874.42 295.427 1875.93 293.689 Q1877.46 291.934 1877.46 289.426 M1862.14 290.163 Q1861.86 289.819 1860.57 288.147 Q1859.29 286.458 1858.75 285.868 Q1856.52 283.441 1854.32 283.441 Q1852.19 283.441 1850.66 285.196 Q1849.16 286.95 1849.16 289.458 Q1849.16 290.623 1849.5 291.754 Q1849.85 292.885 1850.48 293.836 Q1851.14 294.787 1852.19 295.377 Q1853.24 295.968 1854.52 295.968 Q1855.6 295.968 1856.63 295.574 Q1857.68 295.181 1858.47 294.59 Q1859.26 294 1859.99 293.18 Q1860.73 292.361 1861.21 291.656 Q1861.7 290.95 1862.14 290.163 Z" fill="#000000" fill-rule="nonzero" fill-opacity="1" /><path clip-path="url(#clip900)" d="M1927.99 265.453 Q1928.27 265.734 1928.27 266.132 Q1928.27 266.531 1927.99 266.812 Q1927.71 267.093 1927.31 267.093 L1897.28 267.093 Q1896.88 267.093 1896.6 266.812 Q1896.32 266.531 1896.32 266.132 Q1896.32 265.734 1896.6 265.453 Q1896.88 265.172 1897.28 265.172 L1927.31 265.172 Q1927.71 265.172 1927.99 265.453 Z" fill="#000000" fill-rule="nonzero" fill-opacity="1" /><path clip-path="url(#clip900)" d="M1996.72 234.656 Q1996.72 236.296 1994.37 236.296 L1988.89 236.296 Q1988.05 240.184 1988.05 243.932 Q1988.05 248.405 1989.43 251.848 Q1989.71 252.528 1989.71 252.902 Q1989.71 253.605 1989.08 254.167 Q1988.47 254.729 1987.75 254.729 Q1987.14 254.729 1986.74 254.261 Q1986.36 253.793 1986.04 252.317 Q1985.64 250.584 1985.64 248.663 Q1985.64 246.368 1986.01 244.166 Q1986.39 241.941 1987.65 236.296 L1982.24 236.296 L1979.55 246.906 Q1978.59 250.49 1978.26 251.591 Q1978.05 252.247 1977.98 252.457 Q1977.91 252.668 1977.7 253.184 Q1977.51 253.675 1977.37 253.863 Q1977.23 254.027 1977 254.284 Q1976.76 254.565 1976.48 254.636 Q1976.2 254.729 1975.85 254.729 Q1975.31 254.729 1974.89 254.378 Q1974.47 254.05 1974.47 253.418 Q1974.47 252.996 1974.84 252.27 Q1979.29 242.667 1980.98 236.296 L1978.26 236.296 Q1974.51 236.296 1972.17 239.997 Q1971.8 240.489 1971.58 240.535 Q1971.49 240.559 1971.4 240.559 Q1971.14 240.559 1970.98 240.442 Q1970.84 240.325 1970.84 240.208 L1970.81 240.09 Q1970.81 239.95 1971.16 239.317 Q1971.54 238.662 1972.24 237.654 Q1972.97 236.647 1973.74 235.781 Q1974.49 234.984 1975.22 234.492 Q1975.96 233.977 1976.67 233.79 Q1977.37 233.602 1977.77 233.556 Q1978.17 233.509 1978.73 233.509 L1994.8 233.509 Q1995.41 233.509 1995.73 233.556 Q1996.06 233.579 1996.39 233.86 Q1996.72 234.118 1996.72 234.656 Z" fill="#000000" fill-rule="nonzero" fill-opacity="1" /><path clip-path="url(#clip900)" d="M2018.85 248.64 Q2019.04 248.85 2019.04 249.061 Q2019.04 249.272 2018.57 249.881 Q2018.13 250.49 2017.17 251.31 Q2016.21 252.13 2014.97 252.902 Q2013.73 253.675 2011.9 254.191 Q2010.07 254.729 2008.15 254.729 Q2004.57 254.729 2002.46 252.364 Q2000.37 249.998 2000.37 246.602 Q2000.37 243.299 2002.22 240.137 Q2004.07 236.952 2007.07 234.984 Q2010.07 232.993 2013.23 232.993 Q2015.74 232.993 2017.31 234.165 Q2018.88 235.336 2018.88 237.116 Q2018.88 238.498 2018.08 239.341 Q2017.29 240.184 2016.21 240.184 Q2015.46 240.184 2014.94 239.762 Q2014.43 239.317 2014.43 238.498 Q2014.43 237.444 2015.29 236.624 Q2015.62 236.296 2016 236.155 Q2016.4 235.991 2016.63 235.991 Q2016.86 235.968 2017.4 235.968 Q2016.91 235.055 2015.74 234.563 Q2014.59 234.047 2013.28 234.047 Q2011.34 234.047 2009.49 235.406 Q2007.64 236.741 2006.51 238.849 Q2005.39 240.91 2004.66 243.838 Q2003.93 246.742 2003.93 248.429 Q2003.93 250.748 2005.01 252.2 Q2006.09 253.652 2008.24 253.652 Q2008.67 253.652 2009.11 253.629 Q2009.58 253.605 2010.75 253.348 Q2011.94 253.09 2013 252.645 Q2014.05 252.2 2015.39 251.239 Q2016.75 250.256 2017.82 248.921 Q2018.2 248.429 2018.46 248.429 Q2018.67 248.429 2018.85 248.64 Z" fill="#000000" fill-rule="nonzero" fill-opacity="1" /><path clip-path="url(#clip900)" d="M1956.81 267.522 L2037.89 267.522 L2037.89 264.962 L1956.81 264.962  Z" fill="#000000" fill-rule="evenodd" fill-opacity="1"/>
<path clip-path="url(#clip900)" d="M1956.81 310.565 Q1956.81 303.023 1960.65 298.408 Q1964.49 293.771 1969.44 293.771 Q1972.32 293.771 1973.91 295.246 Q1975.53 296.699 1975.53 298.947 Q1975.53 300.189 1974.8 300.727 Q1974.07 301.266 1973.32 301.266 Q1972.46 301.266 1971.78 300.68 Q1971.1 300.095 1971.1 299.041 Q1971.1 296.886 1973.75 296.886 Q1972.5 294.965 1969.53 294.965 Q1968.62 294.965 1967.68 295.246 Q1966.74 295.504 1965.52 296.394 Q1964.31 297.284 1963.37 298.689 Q1962.43 300.095 1961.78 302.742 Q1961.12 305.388 1961.12 308.831 L1961.12 309.979 Q1963.09 305.224 1967.12 305.248 Q1971.15 305.248 1973.93 308.316 Q1976.72 311.384 1976.72 315.928 Q1976.72 320.589 1973.82 323.681 Q1970.91 326.773 1966.84 326.773 Q1965.01 326.773 1963.35 326 Q1961.71 325.251 1960.16 323.517 Q1958.64 321.784 1957.73 318.458 Q1956.81 315.132 1956.81 310.565 M1961.22 314.874 Q1961.22 319.582 1962.08 321.831 Q1962.22 322.206 1962.53 322.721 Q1962.85 323.236 1963.39 323.915 Q1963.96 324.571 1964.87 325.016 Q1965.78 325.438 1966.84 325.438 Q1970.05 325.438 1971.59 322.323 Q1972.41 320.589 1972.41 315.882 Q1972.41 311.08 1971.54 309.323 Q1970.07 306.349 1967.07 306.349 Q1965.06 306.349 1963.65 307.731 Q1962.27 309.112 1961.73 310.963 Q1961.22 312.813 1961.22 314.874 Z" fill="#000000" fill-rule="nonzero" fill-opacity="1" /><path clip-path="url(#clip900)" d="M2009.54 313.867 Q2009.54 314.008 2009.35 314.546 L2005.55 324.899 Q2005.34 325.508 2005.13 325.625 Q2004.92 325.719 2004.05 325.719 L1981.85 325.719 Q1981.31 325.719 1981.1 325.696 Q1980.89 325.672 1980.73 325.555 Q1980.56 325.438 1980.56 325.18 Q1980.56 324.712 1980.73 324.501 Q1980.91 324.29 1981.12 324.267 Q1981.33 324.243 1981.85 324.243 Q1983.02 324.243 1983.72 324.173 Q1984.43 324.103 1984.87 324.009 Q1985.34 323.892 1985.57 323.564 Q1985.83 323.236 1985.95 322.955 Q1986.07 322.651 1986.23 321.971 L1992.65 296.207 Q1992.83 295.434 1992.83 295.317 Q1992.83 294.872 1992.55 294.755 Q1992.3 294.614 1991.55 294.544 L1989.72 294.45 Q1989.16 294.45 1988.92 294.427 Q1988.71 294.403 1988.55 294.286 Q1988.38 294.169 1988.38 293.911 Q1988.38 293.466 1988.55 293.255 Q1988.74 293.021 1988.88 292.998 Q1989.04 292.951 1989.3 292.951 L1995.67 293.092 L2002.77 292.951 Q2003.54 292.951 2003.54 293.537 Q2003.54 294.192 2003.21 294.333 Q2002.88 294.45 2001.71 294.45 Q1999.46 294.45 1998.43 294.684 Q1997.43 294.918 1997.14 295.317 Q1996.89 295.691 1996.63 296.699 L1990.14 322.604 Q1989.91 323.47 1989.91 323.705 Q1989.91 323.962 1990.02 324.056 Q1990.16 324.126 1990.54 324.173 Q1990.96 324.243 1991.59 324.243 L1996.09 324.243 Q1997.45 324.243 1998.64 324.033 Q1999.84 323.822 2000.75 323.517 Q2001.69 323.213 2002.53 322.651 Q2003.38 322.089 2003.96 321.597 Q2004.57 321.081 2005.16 320.285 Q2005.76 319.465 2006.12 318.903 Q2006.49 318.318 2006.91 317.381 Q2007.33 316.42 2007.54 315.882 Q2007.78 315.319 2008.13 314.359 Q2008.34 313.867 2008.41 313.727 Q2008.48 313.586 2008.6 313.469 Q2008.74 313.352 2008.95 313.352 Q2009.23 313.352 2009.37 313.516 Q2009.54 313.68 2009.54 313.867 Z" fill="#000000" fill-rule="nonzero" fill-opacity="1" /><path clip-path="url(#clip900)" d="M2014.37 299.91 Q2014.37 299.304 2014.42 299.123 Q2014.48 298.943 2014.75 298.664 L2021.19 291.483 Q2024.71 287.515 2024.71 284.056 Q2024.71 281.81 2023.53 280.203 Q2022.37 278.596 2020.22 278.596 Q2018.75 278.596 2017.5 279.498 Q2016.25 280.4 2015.68 282.006 Q2015.78 281.973 2016.12 281.973 Q2016.96 281.973 2017.42 282.498 Q2017.89 283.023 2017.89 283.728 Q2017.89 284.63 2017.3 285.072 Q2016.73 285.499 2016.16 285.499 Q2015.93 285.499 2015.62 285.449 Q2015.32 285.4 2014.84 284.941 Q2014.37 284.466 2014.37 283.629 Q2014.37 281.285 2016.14 279.416 Q2017.93 277.547 2020.65 277.547 Q2023.73 277.547 2025.75 279.383 Q2027.78 281.203 2027.78 284.056 Q2027.78 285.056 2027.47 285.974 Q2027.17 286.876 2026.76 287.581 Q2026.37 288.286 2025.29 289.417 Q2024.21 290.548 2023.34 291.352 Q2022.47 292.155 2020.52 293.86 L2016.96 297.32 L2023.01 297.32 Q2025.96 297.32 2026.19 297.058 Q2026.52 296.582 2026.93 294.074 L2027.78 294.074 L2026.83 299.91 L2014.37 299.91 Z" fill="#000000" fill-rule="nonzero" fill-opacity="1" /><path clip-path="url(#clip900)" d="M2043.69 277.352 Q2043.01 276.579 2043.01 275.572 Q2043.01 274.565 2043.66 273.815 Q2044.34 273.042 2045.56 273.042 Q2046.99 273.042 2047.81 274.424 Q2048.63 275.783 2048.63 278.078 Q2048.63 280.561 2047.62 282.856 Q2046.61 285.175 2045.63 286.276 Q2044.65 287.377 2044.25 287.377 Q2043.78 287.377 2043.78 286.861 Q2043.78 286.674 2044.11 286.323 Q2047.55 282.622 2047.57 278.078 Q2047.57 277.352 2047.48 277.352 L2047.36 277.446 Q2046.54 278.125 2045.56 278.125 Q2044.37 278.125 2043.69 277.352 Z" fill="#000000" fill-rule="nonzero" fill-opacity="1" /><path clip-path="url(#clip900)" d="M2094.91 272.574 Q2095.1 272.784 2095.1 272.995 Q2095.1 273.206 2094.63 273.815 Q2094.19 274.424 2093.23 275.244 Q2092.27 276.064 2091.02 276.837 Q2089.78 277.609 2087.96 278.125 Q2086.13 278.663 2084.21 278.663 Q2080.62 278.663 2078.52 276.298 Q2076.43 273.932 2076.43 270.536 Q2076.43 267.233 2078.28 264.071 Q2080.13 260.886 2083.13 258.918 Q2086.13 256.927 2089.29 256.927 Q2091.8 256.927 2093.37 258.099 Q2094.94 259.27 2094.94 261.05 Q2094.94 262.432 2094.14 263.275 Q2093.34 264.118 2092.27 264.118 Q2091.52 264.118 2091 263.697 Q2090.49 263.252 2090.49 262.432 Q2090.49 261.378 2091.35 260.558 Q2091.68 260.23 2092.05 260.089 Q2092.45 259.926 2092.69 259.926 Q2092.92 259.902 2093.46 259.902 Q2092.97 258.989 2091.8 258.497 Q2090.65 257.981 2089.34 257.981 Q2087.39 257.981 2085.54 259.34 Q2083.69 260.675 2082.57 262.783 Q2081.44 264.844 2080.72 267.772 Q2079.99 270.676 2079.99 272.363 Q2079.99 274.682 2081.07 276.134 Q2082.15 277.586 2084.3 277.586 Q2084.72 277.586 2085.17 277.563 Q2085.64 277.539 2086.81 277.282 Q2088 277.024 2089.06 276.579 Q2090.11 276.134 2091.45 275.174 Q2092.8 274.19 2093.88 272.855 Q2094.26 272.363 2094.51 272.363 Q2094.72 272.363 2094.91 272.574 Z" fill="#000000" fill-rule="nonzero" fill-opacity="1" /><path clip-path="url(#clip900)" d="M2110.29 270.84 Q2110.33 270.255 2111.25 270.255 L2140.64 270.255 Q2142.02 270.255 2142.05 270.794 Q2142.05 271.379 2140.73 271.356 L2111.57 271.356 Q2110.29 271.379 2110.29 270.84 M2110.29 261.471 Q2110.29 260.886 2111.29 260.909 L2140.59 260.909 Q2142.02 260.909 2142.05 261.471 Q2142.05 262.01 2140.83 262.01 L2111.25 262.01 Q2110.29 262.01 2110.29 261.471 Z" fill="#000000" fill-rule="nonzero" fill-opacity="1" /><path clip-path="url(#clip900)" d="M2160.54 262.783 Q2160.54 255.733 2162.32 251.892 Q2164.8 246.177 2170.66 246.177 Q2171.9 246.177 2173.19 246.528 Q2174.5 246.856 2176.14 248.144 Q2177.8 249.432 2178.81 251.54 Q2180.73 255.616 2180.73 262.783 Q2180.73 269.786 2178.95 273.604 Q2176.35 279.179 2170.61 279.179 Q2168.45 279.179 2166.25 278.078 Q2164.07 276.977 2162.69 274.33 Q2160.54 270.372 2160.54 262.783 M2164.52 262.198 Q2164.52 269.435 2165.03 272.316 Q2165.62 275.431 2167.21 276.79 Q2168.83 278.125 2170.61 278.125 Q2172.53 278.125 2174.12 276.696 Q2175.74 275.244 2176.23 272.129 Q2176.77 269.06 2176.75 262.198 Q2176.75 255.522 2176.28 252.852 Q2175.64 249.737 2173.96 248.495 Q2172.3 247.231 2170.61 247.231 Q2169.98 247.231 2169.3 247.418 Q2168.64 247.605 2167.68 248.144 Q2166.72 248.683 2165.97 250.018 Q2165.25 251.353 2164.89 253.367 Q2164.52 255.967 2164.52 262.198 Z" fill="#000000" fill-rule="nonzero" fill-opacity="1" /><path clip-path="url(#clip900)" d="M2185.01 277.352 Q2184.29 276.579 2184.29 275.572 Q2184.29 274.565 2185.01 273.838 Q2185.74 273.089 2186.84 273.089 Q2187.89 273.089 2188.6 273.792 Q2189.32 274.471 2189.32 275.595 Q2189.32 276.696 2188.55 277.422 Q2187.8 278.125 2186.84 278.125 Q2185.74 278.125 2185.01 277.352 Z" fill="#000000" fill-rule="nonzero" fill-opacity="1" /><path clip-path="url(#clip900)" d="M2197.48 270.395 Q2197.48 268.967 2198.26 268.428 Q2199.03 267.866 2199.85 267.866 Q2200.95 267.866 2201.58 268.568 Q2202.24 269.248 2202.24 270.208 Q2202.24 271.168 2201.58 271.871 Q2200.95 272.55 2199.85 272.55 Q2199.31 272.55 2199.03 272.457 Q2199.66 274.658 2201.58 276.251 Q2203.53 277.844 2206.08 277.844 Q2209.29 277.844 2211.21 274.729 Q2212.36 272.714 2212.36 268.147 Q2212.36 264.118 2211.49 262.104 Q2210.16 259.035 2207.42 259.035 Q2203.53 259.035 2201.23 262.385 Q2200.95 262.807 2200.62 262.83 Q2200.15 262.83 2200.04 262.572 Q2199.94 262.291 2199.94 261.565 L2199.94 247.371 Q2199.94 246.223 2200.41 246.223 Q2200.6 246.223 2201 246.364 Q2204.02 247.699 2207.37 247.722 Q2210.81 247.722 2213.9 246.317 Q2214.14 246.177 2214.28 246.177 Q2214.75 246.177 2214.77 246.715 Q2214.77 246.903 2214.37 247.465 Q2214 248.004 2213.18 248.73 Q2212.36 249.432 2211.3 250.112 Q2210.25 250.791 2208.7 251.259 Q2207.18 251.704 2205.49 251.704 Q2203.48 251.704 2201.42 251.072 L2201.42 260.417 Q2203.9 257.981 2207.51 257.981 Q2211.35 257.981 2214 261.073 Q2216.64 264.165 2216.64 268.475 Q2216.64 272.995 2213.51 276.087 Q2210.39 279.179 2206.17 279.179 Q2202.33 279.179 2199.9 276.438 Q2197.48 273.698 2197.48 270.395 Z" fill="#000000" fill-rule="nonzero" fill-opacity="1" /><path clip-path="url(#clip900)" d="M2219.65 250.744 L2219.65 249.245 Q2225.42 249.245 2228.39 246.177 Q2229.21 246.177 2229.35 246.364 Q2229.49 246.551 2229.49 247.418 L2229.49 274.33 Q2229.49 275.759 2230.19 276.204 Q2230.9 276.649 2233.97 276.649 L2235.49 276.649 L2235.49 278.125 Q2233.8 277.984 2227.71 277.984 Q2221.62 277.984 2219.96 278.125 L2219.96 276.649 L2221.48 276.649 Q2224.5 276.649 2225.23 276.228 Q2225.95 275.783 2225.95 274.33 L2225.95 249.479 Q2223.45 250.744 2219.65 250.744 Z" fill="#000000" fill-rule="nonzero" fill-opacity="1" /><path clip-path="url(#clip900)" d="M2238.55 256.974 Q2238.55 254.421 2239.3 252.688 Q2240.05 250.931 2241.62 249.198 Q2244.5 246.177 2248.67 246.177 Q2250.45 246.177 2252.02 246.926 Q2253.61 247.676 2255.11 249.385 Q2256.63 251.072 2257.55 254.421 Q2258.46 257.747 2258.46 262.338 Q2258.46 269.763 2254.85 274.471 Q2251.27 279.179 2246.42 279.179 Q2243.35 279.179 2241.55 277.797 Q2239.75 276.392 2239.75 274.002 Q2239.75 272.761 2240.45 272.246 Q2241.15 271.707 2241.95 271.707 Q2242.81 271.707 2243.49 272.293 Q2244.17 272.855 2244.17 273.909 Q2244.17 274.775 2243.61 275.455 Q2243.07 276.11 2241.67 276.11 Q2243.05 277.844 2246.37 277.844 Q2247.57 277.844 2248.76 277.305 Q2249.96 276.743 2251.25 275.408 Q2252.56 274.049 2253.35 271.215 Q2254.15 268.381 2254.15 264.399 L2254.15 262.877 Q2252.23 267.678 2248.15 267.678 Q2244.13 267.678 2241.34 264.587 Q2238.55 261.495 2238.55 256.974 M2242.86 257.021 Q2242.86 261.776 2243.73 263.533 Q2245.2 266.554 2248.2 266.554 Q2251.13 266.554 2252.58 263.954 Q2254.06 261.331 2254.06 257.935 Q2254.06 253.227 2253.28 251.166 Q2251.86 247.371 2248.67 247.371 Q2245.51 247.371 2243.87 250.393 Q2242.86 252.173 2242.86 257.021 Z" fill="#000000" fill-rule="nonzero" fill-opacity="1" /></svg>
