<?xml version="1.0" encoding="utf-8"?>
<svg xmlns="http://www.w3.org/2000/svg" xmlns:xlink="http://www.w3.org/1999/xlink" width="600" height="400" viewBox="0 0 2400 1600">
<defs>
  <clipPath id="clip130">
    <rect x="0" y="0" width="2400" height="1600"/>
  </clipPath>
</defs>
<path clip-path="url(#clip130)" d="M0 1600 L2400 1600 L2400 8.88178e-14 L0 8.88178e-14  Z" fill="#ffffff" fill-rule="evenodd" fill-opacity="1"/>
<defs>
  <clipPath id="clip131">
    <rect x="317" y="47" width="2036" height="1336"/>
  </clipPath>
</defs>
<path clip-path="url(#clip130)" d="M317.69 1381.91 L2352.76 1381.91 L2352.76 47.2441 L317.69 47.2441  Z" fill="#ffffff" fill-rule="evenodd" fill-opacity="1"/>
<polyline clip-path="url(#clip131)" style="stroke:#000000; stroke-linecap:round; stroke-linejoin:round; stroke-width:2; stroke-opacity:0.1; fill:none" points="-97.2983,1381.91 -97.2983,47.2441 "/>
<polyline clip-path="url(#clip131)" style="stroke:#000000; stroke-linecap:round; stroke-linejoin:round; stroke-width:2; stroke-opacity:0.1; fill:none" points="2295.16,1381.91 2295.16,47.2441 "/>
<polyline clip-path="url(#clip131)" style="stroke:#000000; stroke-linecap:round; stroke-linejoin:round; stroke-width:2; stroke-opacity:0.1; fill:none" points="1433.87,1381.91 1433.87,47.2441 "/>
<polyline clip-path="url(#clip131)" style="stroke:#000000; stroke-linecap:round; stroke-linejoin:round; stroke-width:2; stroke-opacity:0.1; fill:none" points="966.016,1381.91 966.016,47.2441 "/>
<polyline clip-path="url(#clip131)" style="stroke:#000000; stroke-linecap:round; stroke-linejoin:round; stroke-width:2; stroke-opacity:0.1; fill:none" points="683.912,1381.91 683.912,47.2441 "/>
<polyline clip-path="url(#clip131)" style="stroke:#000000; stroke-linecap:round; stroke-linejoin:round; stroke-width:2; stroke-opacity:0.1; fill:none" points="500.816,1381.91 500.816,47.2441 "/>
<polyline clip-path="url(#clip131)" style="stroke:#000000; stroke-linecap:round; stroke-linejoin:round; stroke-width:2; stroke-opacity:0.1; fill:none" points="375.286,1381.91 375.286,47.2441 "/>
<polyline clip-path="url(#clip131)" style="stroke:#000000; stroke-linecap:round; stroke-linejoin:round; stroke-width:2; stroke-opacity:0.1; fill:none" points="317.69,1256.86 2352.76,1256.86 "/>
<polyline clip-path="url(#clip131)" style="stroke:#000000; stroke-linecap:round; stroke-linejoin:round; stroke-width:2; stroke-opacity:0.1; fill:none" points="317.69,1066.18 2352.76,1066.18 "/>
<polyline clip-path="url(#clip131)" style="stroke:#000000; stroke-linecap:round; stroke-linejoin:round; stroke-width:2; stroke-opacity:0.1; fill:none" points="317.69,875.499 2352.76,875.499 "/>
<polyline clip-path="url(#clip131)" style="stroke:#000000; stroke-linecap:round; stroke-linejoin:round; stroke-width:2; stroke-opacity:0.1; fill:none" points="317.69,684.819 2352.76,684.819 "/>
<polyline clip-path="url(#clip131)" style="stroke:#000000; stroke-linecap:round; stroke-linejoin:round; stroke-width:2; stroke-opacity:0.1; fill:none" points="317.69,494.139 2352.76,494.139 "/>
<polyline clip-path="url(#clip131)" style="stroke:#000000; stroke-linecap:round; stroke-linejoin:round; stroke-width:2; stroke-opacity:0.1; fill:none" points="317.69,303.458 2352.76,303.458 "/>
<polyline clip-path="url(#clip131)" style="stroke:#000000; stroke-linecap:round; stroke-linejoin:round; stroke-width:2; stroke-opacity:0.1; fill:none" points="317.69,112.778 2352.76,112.778 "/>
<polyline clip-path="url(#clip130)" style="stroke:#000000; stroke-linecap:round; stroke-linejoin:round; stroke-width:4; stroke-opacity:1; fill:none" points="317.69,1381.91 2352.76,1381.91 "/>
<polyline clip-path="url(#clip130)" style="stroke:#000000; stroke-linecap:round; stroke-linejoin:round; stroke-width:4; stroke-opacity:1; fill:none" points="-97.2983,1381.91 -97.2983,1363.01 "/>
<polyline clip-path="url(#clip130)" style="stroke:#000000; stroke-linecap:round; stroke-linejoin:round; stroke-width:4; stroke-opacity:1; fill:none" points="2295.16,1381.91 2295.16,1363.01 "/>
<polyline clip-path="url(#clip130)" style="stroke:#000000; stroke-linecap:round; stroke-linejoin:round; stroke-width:4; stroke-opacity:1; fill:none" points="1433.87,1381.91 1433.87,1363.01 "/>
<polyline clip-path="url(#clip130)" style="stroke:#000000; stroke-linecap:round; stroke-linejoin:round; stroke-width:4; stroke-opacity:1; fill:none" points="966.016,1381.91 966.016,1363.01 "/>
<polyline clip-path="url(#clip130)" style="stroke:#000000; stroke-linecap:round; stroke-linejoin:round; stroke-width:4; stroke-opacity:1; fill:none" points="683.912,1381.91 683.912,1363.01 "/>
<polyline clip-path="url(#clip130)" style="stroke:#000000; stroke-linecap:round; stroke-linejoin:round; stroke-width:4; stroke-opacity:1; fill:none" points="500.816,1381.91 500.816,1363.01 "/>
<polyline clip-path="url(#clip130)" style="stroke:#000000; stroke-linecap:round; stroke-linejoin:round; stroke-width:4; stroke-opacity:1; fill:none" points="375.286,1381.91 375.286,1363.01 "/>
<path clip-path="url(#clip130)" d="M-109.173 1426.99 Q-109.173 1419.94 -107.393 1416.1 Q-104.91 1410.38 -99.0548 1410.38 Q-97.8134 1410.38 -96.5251 1410.73 Q-95.2135 1411.06 -93.5739 1412.35 Q-91.9109 1413.64 -90.9038 1415.74 Q-88.9831 1419.82 -88.9831 1426.99 Q-88.9831 1433.99 -90.7632 1437.81 Q-93.3631 1443.38 -99.1016 1443.38 Q-101.256 1443.38 -103.458 1442.28 Q-105.636 1441.18 -107.018 1438.53 Q-109.173 1434.58 -109.173 1426.99 M-105.191 1426.4 Q-105.191 1433.64 -104.676 1436.52 Q-104.091 1439.63 -102.498 1440.99 Q-100.882 1442.33 -99.1016 1442.33 Q-97.181 1442.33 -95.5882 1440.9 Q-93.9721 1439.45 -93.4802 1436.33 Q-92.9415 1433.26 -92.9649 1426.4 Q-92.9649 1419.73 -93.4334 1417.06 Q-94.0658 1413.94 -95.7522 1412.7 Q-97.4152 1411.43 -99.1016 1411.43 Q-99.734 1411.43 -100.413 1411.62 Q-101.069 1411.81 -102.029 1412.35 Q-102.99 1412.89 -103.739 1414.22 Q-104.465 1415.56 -104.817 1417.57 Q-105.191 1420.17 -105.191 1426.4 Z" fill="#000000" fill-rule="nonzero" fill-opacity="1" /><path clip-path="url(#clip130)" d="M2287.55 1405.37 L2287.55 1403.87 Q2293.31 1403.87 2296.29 1400.8 Q2297.11 1400.8 2297.25 1400.99 Q2297.39 1401.18 2297.39 1402.05 L2297.39 1428.96 Q2297.39 1430.39 2298.09 1430.83 Q2298.79 1431.28 2301.86 1431.28 L2303.38 1431.28 L2303.38 1432.75 Q2301.7 1432.61 2295.61 1432.61 Q2289.52 1432.61 2287.85 1432.75 L2287.85 1431.28 L2289.38 1431.28 Q2292.4 1431.28 2293.12 1430.85 Q2293.85 1430.41 2293.85 1428.96 L2293.85 1404.11 Q2291.34 1405.37 2287.55 1405.37 Z" fill="#000000" fill-rule="nonzero" fill-opacity="1" /><path clip-path="url(#clip130)" d="M2273.55 1445.55 L2321.89 1445.55 L2321.89 1442.99 L2273.55 1442.99  Z" fill="#000000" fill-rule="evenodd" fill-opacity="1"/>
<path clip-path="url(#clip130)" d="M2273.55 1495.7 Q2273.55 1490.34 2280.46 1486.87 Q2277.48 1484.85 2276.95 1484.27 Q2274.84 1481.93 2274.84 1479 Q2274.84 1475.65 2277.37 1473.33 Q2279.92 1470.99 2283.53 1470.99 Q2286.97 1470.99 2289.57 1472.98 Q2292.17 1474.97 2292.17 1478.13 Q2292.17 1482.58 2286.36 1485.58 Q2290.2 1487.97 2291.12 1488.98 Q2293.46 1491.58 2293.46 1494.88 Q2293.46 1498.72 2290.51 1501.37 Q2287.56 1503.99 2283.48 1503.99 Q2279.5 1503.99 2276.52 1501.67 Q2273.55 1499.35 2273.55 1495.7 M2275.94 1495.7 Q2275.94 1498.67 2278.16 1500.66 Q2280.41 1502.66 2283.53 1502.66 Q2286.55 1502.66 2288.8 1500.92 Q2291.07 1499.19 2291.07 1496.61 Q2291.07 1495.61 2290.72 1494.74 Q2290.39 1493.87 2289.71 1493.19 Q2289.05 1492.49 2288.63 1492.19 Q2288.23 1491.86 2287.46 1491.32 L2281.56 1487.59 Q2275.94 1490.71 2275.94 1495.7 M2276.95 1477.12 Q2276.95 1479.42 2279.36 1481.01 L2285.31 1484.85 Q2290.06 1482.07 2290.06 1478.13 Q2290.06 1475.58 2288.12 1473.89 Q2286.17 1472.18 2283.48 1472.18 Q2280.83 1472.18 2278.89 1473.59 Q2276.95 1474.97 2276.95 1477.12 Z" fill="#000000" fill-rule="nonzero" fill-opacity="1" /><path clip-path="url(#clip130)" d="M2298.37 1477.94 Q2298.37 1477.33 2298.42 1477.15 Q2298.49 1476.97 2298.75 1476.69 L2305.19 1469.51 Q2308.72 1465.55 2308.72 1462.09 Q2308.72 1459.84 2307.54 1458.23 Q2306.37 1456.63 2304.23 1456.63 Q2302.75 1456.63 2301.5 1457.53 Q2300.26 1458.43 2299.68 1460.04 Q2299.78 1460 2300.13 1460 Q2300.96 1460 2301.42 1460.53 Q2301.9 1461.05 2301.9 1461.76 Q2301.9 1462.66 2301.31 1463.1 Q2300.73 1463.53 2300.16 1463.53 Q2299.93 1463.53 2299.62 1463.48 Q2299.32 1463.43 2298.85 1462.97 Q2298.37 1462.5 2298.37 1461.66 Q2298.37 1459.31 2300.14 1457.45 Q2301.93 1455.58 2304.65 1455.58 Q2307.73 1455.58 2309.75 1457.41 Q2311.78 1459.23 2311.78 1462.09 Q2311.78 1463.09 2311.47 1464 Q2311.18 1464.91 2310.77 1465.61 Q2310.37 1466.32 2309.29 1467.45 Q2308.21 1468.58 2307.34 1469.38 Q2306.47 1470.19 2304.52 1471.89 L2300.96 1475.35 L2307.01 1475.35 Q2309.96 1475.35 2310.19 1475.09 Q2310.52 1474.61 2310.93 1472.1 L2311.78 1472.1 L2310.83 1477.94 L2298.37 1477.94 Z" fill="#000000" fill-rule="nonzero" fill-opacity="1" /><path clip-path="url(#clip130)" d="M1426.25 1405.37 L1426.25 1403.87 Q1432.01 1403.87 1434.99 1400.8 Q1435.8 1400.8 1435.95 1400.99 Q1436.09 1401.18 1436.09 1402.05 L1436.09 1428.96 Q1436.09 1430.39 1436.79 1430.83 Q1437.49 1431.28 1440.56 1431.28 L1442.08 1431.28 L1442.08 1432.75 Q1440.4 1432.61 1434.31 1432.61 Q1428.22 1432.61 1426.55 1432.75 L1426.55 1431.28 L1428.08 1431.28 Q1431.1 1431.28 1431.82 1430.85 Q1432.55 1430.41 1432.55 1428.96 L1432.55 1404.11 Q1430.04 1405.37 1426.25 1405.37 Z" fill="#000000" fill-rule="nonzero" fill-opacity="1" /><path clip-path="url(#clip130)" d="M1400.25 1445.55 L1472.62 1445.55 L1472.62 1442.99 L1400.25 1442.99  Z" fill="#000000" fill-rule="evenodd" fill-opacity="1"/>
<path clip-path="url(#clip130)" d="M1400.25 1475.56 L1400.25 1474.06 Q1406.01 1474.06 1408.99 1470.99 Q1409.8 1470.99 1409.95 1471.18 Q1410.09 1471.36 1410.09 1472.23 L1410.09 1499.14 Q1410.09 1500.57 1410.79 1501.02 Q1411.49 1501.46 1414.56 1501.46 L1416.08 1501.46 L1416.08 1502.94 Q1414.4 1502.8 1408.31 1502.8 Q1402.22 1502.8 1400.55 1502.94 L1400.55 1501.46 L1402.08 1501.46 Q1405.1 1501.46 1405.82 1501.04 Q1406.55 1500.59 1406.55 1499.14 L1406.55 1474.29 Q1404.04 1475.56 1400.25 1475.56 Z" fill="#000000" fill-rule="nonzero" fill-opacity="1" /><path clip-path="url(#clip130)" d="M1424 1487.59 Q1424 1480.54 1425.78 1476.7 Q1428.26 1470.99 1434.12 1470.99 Q1435.36 1470.99 1436.65 1471.34 Q1437.96 1471.67 1439.6 1472.96 Q1441.26 1474.24 1442.27 1476.35 Q1444.19 1480.43 1444.19 1487.59 Q1444.19 1494.6 1442.41 1498.42 Q1439.81 1503.99 1434.07 1503.99 Q1431.92 1503.99 1429.71 1502.89 Q1427.54 1501.79 1426.15 1499.14 Q1424 1495.18 1424 1487.59 M1427.98 1487.01 Q1427.98 1494.25 1428.5 1497.13 Q1429.08 1500.24 1430.67 1501.6 Q1432.29 1502.94 1434.07 1502.94 Q1435.99 1502.94 1437.58 1501.51 Q1439.2 1500.06 1439.69 1496.94 Q1440.23 1493.87 1440.21 1487.01 Q1440.21 1480.33 1439.74 1477.66 Q1439.11 1474.55 1437.42 1473.31 Q1435.76 1472.04 1434.07 1472.04 Q1433.44 1472.04 1432.76 1472.23 Q1432.1 1472.42 1431.14 1472.96 Q1430.18 1473.49 1429.43 1474.83 Q1428.71 1476.16 1428.36 1478.18 Q1427.98 1480.78 1427.98 1487.01 Z" fill="#000000" fill-rule="nonzero" fill-opacity="1" /><path clip-path="url(#clip130)" d="M1449.1 1477.94 Q1449.1 1477.33 1449.15 1477.15 Q1449.22 1476.97 1449.48 1476.69 L1455.92 1469.51 Q1459.45 1465.55 1459.45 1462.09 Q1459.45 1459.84 1458.27 1458.23 Q1457.1 1456.63 1454.96 1456.63 Q1453.48 1456.63 1452.23 1457.53 Q1450.99 1458.43 1450.41 1460.04 Q1450.51 1460 1450.86 1460 Q1451.69 1460 1452.15 1460.53 Q1452.63 1461.05 1452.63 1461.76 Q1452.63 1462.66 1452.04 1463.1 Q1451.46 1463.53 1450.89 1463.53 Q1450.66 1463.53 1450.35 1463.48 Q1450.05 1463.43 1449.58 1462.97 Q1449.1 1462.5 1449.1 1461.66 Q1449.1 1459.31 1450.87 1457.45 Q1452.66 1455.58 1455.38 1455.58 Q1458.46 1455.58 1460.48 1457.41 Q1462.51 1459.23 1462.51 1462.09 Q1462.51 1463.09 1462.2 1464 Q1461.91 1464.91 1461.5 1465.61 Q1461.1 1466.32 1460.02 1467.45 Q1458.94 1468.58 1458.07 1469.38 Q1457.2 1470.19 1455.25 1471.89 L1451.69 1475.35 L1457.74 1475.35 Q1460.69 1475.35 1460.92 1475.09 Q1461.25 1474.61 1461.66 1472.1 L1462.51 1472.1 L1461.56 1477.94 L1449.1 1477.94 Z" fill="#000000" fill-rule="nonzero" fill-opacity="1" /><path clip-path="url(#clip130)" d="M957.898 1405.37 L957.898 1403.87 Q963.66 1403.87 966.635 1400.8 Q967.454 1400.8 967.595 1400.99 Q967.735 1401.18 967.735 1402.05 L967.735 1428.96 Q967.735 1430.39 968.438 1430.83 Q969.141 1431.28 972.209 1431.28 L973.732 1431.28 L973.732 1432.75 Q972.045 1432.61 965.955 1432.61 Q959.865 1432.61 958.202 1432.75 L958.202 1431.28 L959.725 1431.28 Q962.746 1431.28 963.472 1430.85 Q964.199 1430.41 964.199 1428.96 L964.199 1404.11 Q961.692 1405.37 957.898 1405.37 Z" fill="#000000" fill-rule="nonzero" fill-opacity="1" /><path clip-path="url(#clip130)" d="M932.898 1445.55 L1004.25 1445.55 L1004.25 1442.99 L932.898 1442.99  Z" fill="#000000" fill-rule="evenodd" fill-opacity="1"/>
<path clip-path="url(#clip130)" d="M932.898 1475.56 L932.898 1474.06 Q938.66 1474.06 941.635 1470.99 Q942.454 1470.99 942.595 1471.18 Q942.735 1471.36 942.735 1472.23 L942.735 1499.14 Q942.735 1500.57 943.438 1501.02 Q944.141 1501.46 947.209 1501.46 L948.732 1501.46 L948.732 1502.94 Q947.045 1502.8 940.955 1502.8 Q934.865 1502.8 933.202 1502.94 L933.202 1501.46 L934.725 1501.46 Q937.746 1501.46 938.472 1501.04 Q939.199 1500.59 939.199 1499.14 L939.199 1474.29 Q936.692 1475.56 932.898 1475.56 Z" fill="#000000" fill-rule="nonzero" fill-opacity="1" /><path clip-path="url(#clip130)" d="M956.648 1502.94 Q956.648 1502.07 956.718 1501.81 Q956.812 1501.55 957.187 1501.16 L966.392 1490.9 Q971.428 1485.23 971.428 1480.29 Q971.428 1477.08 969.741 1474.78 Q968.078 1472.49 965.01 1472.49 Q962.902 1472.49 961.122 1473.78 Q959.342 1475.06 958.522 1477.36 Q958.662 1477.31 959.154 1477.31 Q960.349 1477.31 961.005 1478.06 Q961.684 1478.81 961.684 1479.82 Q961.684 1481.11 960.841 1481.74 Q960.021 1482.35 959.201 1482.35 Q958.873 1482.35 958.428 1482.28 Q958.006 1482.21 957.327 1481.55 Q956.648 1480.87 956.648 1479.68 Q956.648 1476.33 959.178 1473.66 Q961.731 1470.99 965.619 1470.99 Q970.022 1470.99 972.903 1473.61 Q975.808 1476.21 975.808 1480.29 Q975.808 1481.72 975.362 1483.03 Q974.941 1484.32 974.355 1485.32 Q973.793 1486.33 972.247 1487.95 Q970.701 1489.56 969.46 1490.71 Q968.219 1491.86 965.431 1494.29 L960.349 1499.24 L968.992 1499.24 Q973.208 1499.24 973.536 1498.86 Q974.004 1498.18 974.59 1494.6 L975.808 1494.6 L974.449 1502.94 L956.648 1502.94 Z" fill="#000000" fill-rule="nonzero" fill-opacity="1" /><path clip-path="url(#clip130)" d="M980.737 1477.94 Q980.737 1477.33 980.786 1477.15 Q980.851 1476.97 981.114 1476.69 L987.557 1469.51 Q991.082 1465.55 991.082 1462.09 Q991.082 1459.84 989.902 1458.23 Q988.738 1456.63 986.59 1456.63 Q985.114 1456.63 983.868 1457.53 Q982.622 1458.43 982.048 1460.04 Q982.147 1460 982.491 1460 Q983.327 1460 983.786 1460.53 Q984.262 1461.05 984.262 1461.76 Q984.262 1462.66 983.672 1463.1 Q983.098 1463.53 982.524 1463.53 Q982.294 1463.53 981.983 1463.48 Q981.688 1463.43 981.212 1462.97 Q980.737 1462.5 980.737 1461.66 Q980.737 1459.31 982.507 1457.45 Q984.295 1455.58 987.016 1455.58 Q990.099 1455.58 992.115 1457.41 Q994.148 1459.23 994.148 1462.09 Q994.148 1463.09 993.837 1464 Q993.542 1464.91 993.132 1465.61 Q992.738 1466.32 991.656 1467.45 Q990.574 1468.58 989.705 1469.38 Q988.836 1470.19 986.885 1471.89 L983.327 1475.35 L989.377 1475.35 Q992.328 1475.35 992.558 1475.09 Q992.886 1474.61 993.296 1472.1 L994.148 1472.1 L993.197 1477.94 L980.737 1477.94 Z" fill="#000000" fill-rule="nonzero" fill-opacity="1" /><path clip-path="url(#clip130)" d="M675.755 1405.37 L675.755 1403.87 Q681.517 1403.87 684.492 1400.8 Q685.311 1400.8 685.452 1400.99 Q685.592 1401.18 685.592 1402.05 L685.592 1428.96 Q685.592 1430.39 686.295 1430.83 Q686.998 1431.28 690.066 1431.28 L691.589 1431.28 L691.589 1432.75 Q689.902 1432.61 683.812 1432.61 Q677.722 1432.61 676.059 1432.75 L676.059 1431.28 L677.582 1431.28 Q680.603 1431.28 681.33 1430.85 Q682.056 1430.41 682.056 1428.96 L682.056 1404.11 Q679.549 1405.37 675.755 1405.37 Z" fill="#000000" fill-rule="nonzero" fill-opacity="1" /><path clip-path="url(#clip130)" d="M649.755 1445.55 L723.19 1445.55 L723.19 1442.99 L649.755 1442.99  Z" fill="#000000" fill-rule="evenodd" fill-opacity="1"/>
<path clip-path="url(#clip130)" d="M649.755 1476.09 L649.755 1474.59 Q655.517 1474.59 658.492 1471.52 Q659.311 1471.52 659.452 1471.71 Q659.592 1471.89 659.592 1472.76 L659.592 1499.67 Q659.592 1501.1 660.295 1501.55 Q660.998 1501.99 664.066 1501.99 L665.589 1501.99 L665.589 1503.47 Q663.902 1503.33 657.812 1503.33 Q651.722 1503.33 650.059 1503.47 L650.059 1501.99 L651.582 1501.99 Q654.603 1501.99 655.33 1501.57 Q656.056 1501.13 656.056 1499.67 L656.056 1474.82 Q653.549 1476.09 649.755 1476.09 Z" fill="#000000" fill-rule="nonzero" fill-opacity="1" /><path clip-path="url(#clip130)" d="M673.505 1495.55 L673.505 1494.08 L688.238 1471.57 Q688.612 1470.98 689.198 1471 Q689.737 1471 689.854 1471.22 Q689.971 1471.43 689.971 1472.25 L689.971 1494.08 L694.773 1494.08 L694.773 1495.55 L689.971 1495.55 L689.971 1499.72 Q689.971 1501.1 690.533 1501.55 Q691.119 1501.99 693.601 1501.99 L694.609 1501.99 L694.609 1503.47 Q692.641 1503.33 688.097 1503.33 Q683.577 1503.33 681.609 1503.47 L681.609 1501.99 L682.616 1501.99 Q685.099 1501.99 685.685 1501.57 Q686.27 1501.13 686.27 1499.72 L686.27 1495.55 L673.505 1495.55 M674.864 1494.08 L686.551 1494.08 L686.551 1476.18 L674.864 1494.08 Z" fill="#000000" fill-rule="nonzero" fill-opacity="1" /><path clip-path="url(#clip130)" d="M699.672 1477.94 Q699.672 1477.33 699.721 1477.15 Q699.787 1476.97 700.049 1476.69 L706.492 1469.51 Q710.018 1465.55 710.018 1462.09 Q710.018 1459.84 708.837 1458.23 Q707.673 1456.63 705.525 1456.63 Q704.05 1456.63 702.803 1457.53 Q701.557 1458.43 700.984 1460.04 Q701.082 1460 701.426 1460 Q702.262 1460 702.721 1460.53 Q703.197 1461.05 703.197 1461.76 Q703.197 1462.66 702.607 1463.1 Q702.033 1463.53 701.459 1463.53 Q701.229 1463.53 700.918 1463.48 Q700.623 1463.43 700.147 1462.97 Q699.672 1462.5 699.672 1461.66 Q699.672 1459.31 701.443 1457.45 Q703.23 1455.58 705.951 1455.58 Q709.034 1455.58 711.05 1457.41 Q713.084 1459.23 713.084 1462.09 Q713.084 1463.09 712.772 1464 Q712.477 1464.91 712.067 1465.61 Q711.674 1466.32 710.591 1467.45 Q709.509 1468.58 708.64 1469.38 Q707.771 1470.19 705.82 1471.89 L702.262 1475.35 L708.312 1475.35 Q711.264 1475.35 711.493 1475.09 Q711.821 1474.61 712.231 1472.1 L713.084 1472.1 L712.133 1477.94 L699.672 1477.94 Z" fill="#000000" fill-rule="nonzero" fill-opacity="1" /><path clip-path="url(#clip130)" d="M493.331 1405.37 L493.331 1403.87 Q499.093 1403.87 502.067 1400.8 Q502.887 1400.8 503.027 1400.99 Q503.168 1401.18 503.168 1402.05 L503.168 1428.96 Q503.168 1430.39 503.871 1430.83 Q504.573 1431.28 507.642 1431.28 L509.164 1431.28 L509.164 1432.75 Q507.478 1432.61 501.388 1432.61 Q495.298 1432.61 493.635 1432.75 L493.635 1431.28 L495.158 1431.28 Q498.179 1431.28 498.905 1430.85 Q499.631 1430.41 499.631 1428.96 L499.631 1404.11 Q497.125 1405.37 493.331 1405.37 Z" fill="#000000" fill-rule="nonzero" fill-opacity="1" /><path clip-path="url(#clip130)" d="M467.331 1445.55 L539.422 1445.55 L539.422 1442.99 L467.331 1442.99  Z" fill="#000000" fill-rule="evenodd" fill-opacity="1"/>
<path clip-path="url(#clip130)" d="M467.331 1475.56 L467.331 1474.06 Q473.093 1474.06 476.067 1470.99 Q476.887 1470.99 477.027 1471.18 Q477.168 1471.36 477.168 1472.23 L477.168 1499.14 Q477.168 1500.57 477.871 1501.02 Q478.573 1501.46 481.642 1501.46 L483.164 1501.46 L483.164 1502.94 Q481.478 1502.8 475.388 1502.8 Q469.298 1502.8 467.635 1502.94 L467.635 1501.46 L469.158 1501.46 Q472.179 1501.46 472.905 1501.04 Q473.631 1500.59 473.631 1499.14 L473.631 1474.29 Q471.125 1475.56 467.331 1475.56 Z" fill="#000000" fill-rule="nonzero" fill-opacity="1" /><path clip-path="url(#clip130)" d="M491.081 1487.78 Q491.081 1480.24 494.922 1475.63 Q498.763 1470.99 503.705 1470.99 Q506.586 1470.99 508.179 1472.46 Q509.795 1473.92 509.795 1476.16 Q509.795 1477.41 509.069 1477.94 Q508.343 1478.48 507.593 1478.48 Q506.727 1478.48 506.048 1477.9 Q505.368 1477.31 505.368 1476.26 Q505.368 1474.1 508.015 1474.1 Q506.774 1472.18 503.799 1472.18 Q502.886 1472.18 501.949 1472.46 Q501.012 1472.72 499.794 1473.61 Q498.576 1474.5 497.639 1475.91 Q496.702 1477.31 496.046 1479.96 Q495.39 1482.61 495.39 1486.05 L495.39 1487.2 Q497.358 1482.44 501.386 1482.47 Q505.415 1482.47 508.202 1485.53 Q510.99 1488.6 510.99 1493.15 Q510.99 1497.81 508.085 1500.9 Q505.181 1503.99 501.105 1503.99 Q499.278 1503.99 497.615 1503.22 Q495.976 1502.47 494.43 1500.73 Q492.908 1499 491.994 1495.68 Q491.081 1492.35 491.081 1487.78 M495.484 1492.09 Q495.484 1496.8 496.351 1499.05 Q496.491 1499.42 496.796 1499.94 Q497.124 1500.45 497.662 1501.13 Q498.224 1501.79 499.138 1502.23 Q500.051 1502.66 501.105 1502.66 Q504.314 1502.66 505.86 1499.54 Q506.68 1497.81 506.68 1493.1 Q506.68 1488.3 505.813 1486.54 Q504.338 1483.57 501.34 1483.57 Q499.325 1483.57 497.92 1484.95 Q496.538 1486.33 495.999 1488.18 Q495.484 1490.03 495.484 1492.09 Z" fill="#000000" fill-rule="nonzero" fill-opacity="1" /><path clip-path="url(#clip130)" d="M515.904 1477.94 Q515.904 1477.33 515.953 1477.15 Q516.018 1476.97 516.281 1476.69 L522.724 1469.51 Q526.249 1465.55 526.249 1462.09 Q526.249 1459.84 525.069 1458.23 Q523.905 1456.63 521.757 1456.63 Q520.281 1456.63 519.035 1457.53 Q517.789 1458.43 517.215 1460.04 Q517.314 1460 517.658 1460 Q518.494 1460 518.953 1460.53 Q519.429 1461.05 519.429 1461.76 Q519.429 1462.66 518.839 1463.1 Q518.265 1463.53 517.691 1463.53 Q517.461 1463.53 517.15 1463.48 Q516.855 1463.43 516.379 1462.97 Q515.904 1462.5 515.904 1461.66 Q515.904 1459.31 517.674 1457.45 Q519.462 1455.58 522.183 1455.58 Q525.266 1455.58 527.282 1457.41 Q529.315 1459.23 529.315 1462.09 Q529.315 1463.09 529.004 1464 Q528.709 1464.91 528.299 1465.61 Q527.905 1466.32 526.823 1467.45 Q525.741 1468.58 524.872 1469.38 Q524.003 1470.19 522.052 1471.89 L518.494 1475.35 L524.544 1475.35 Q527.495 1475.35 527.725 1475.09 Q528.053 1474.61 528.463 1472.1 L529.315 1472.1 L528.364 1477.94 L515.904 1477.94 Z" fill="#000000" fill-rule="nonzero" fill-opacity="1" /><path clip-path="url(#clip130)" d="M367.8 1405.37 L367.8 1403.87 Q373.562 1403.87 376.537 1400.8 Q377.357 1400.8 377.497 1400.99 Q377.638 1401.18 377.638 1402.05 L377.638 1428.96 Q377.638 1430.39 378.341 1430.83 Q379.043 1431.28 382.112 1431.28 L383.634 1431.28 L383.634 1432.75 Q381.948 1432.61 375.858 1432.61 Q369.768 1432.61 368.105 1432.75 L368.105 1431.28 L369.627 1431.28 Q372.649 1431.28 373.375 1430.85 Q374.101 1430.41 374.101 1428.96 L374.101 1404.11 Q371.595 1405.37 367.8 1405.37 Z" fill="#000000" fill-rule="nonzero" fill-opacity="1" /><path clip-path="url(#clip130)" d="M341.8 1445.55 L413.892 1445.55 L413.892 1442.99 L341.8 1442.99  Z" fill="#000000" fill-rule="evenodd" fill-opacity="1"/>
<path clip-path="url(#clip130)" d="M341.8 1475.56 L341.8 1474.06 Q347.562 1474.06 350.537 1470.99 Q351.357 1470.99 351.497 1471.18 Q351.638 1471.36 351.638 1472.23 L351.638 1499.14 Q351.638 1500.57 352.341 1501.02 Q353.043 1501.46 356.112 1501.46 L357.634 1501.46 L357.634 1502.94 Q355.948 1502.8 349.858 1502.8 Q343.768 1502.8 342.105 1502.94 L342.105 1501.46 L343.627 1501.46 Q346.649 1501.46 347.375 1501.04 Q348.101 1500.59 348.101 1499.14 L348.101 1474.29 Q345.595 1475.56 341.8 1475.56 Z" fill="#000000" fill-rule="nonzero" fill-opacity="1" /><path clip-path="url(#clip130)" d="M365.55 1495.7 Q365.55 1490.34 372.46 1486.87 Q369.485 1484.85 368.947 1484.27 Q366.839 1481.93 366.839 1479 Q366.839 1475.65 369.368 1473.33 Q371.921 1470.99 375.528 1470.99 Q378.971 1470.99 381.571 1472.98 Q384.171 1474.97 384.171 1478.13 Q384.171 1482.58 378.362 1485.58 Q382.204 1487.97 383.117 1488.98 Q385.459 1491.58 385.459 1494.88 Q385.459 1498.72 382.508 1501.37 Q379.557 1503.99 375.482 1503.99 Q371.5 1503.99 368.525 1501.67 Q365.55 1499.35 365.55 1495.7 M367.939 1495.7 Q367.939 1498.67 370.165 1500.66 Q372.413 1502.66 375.528 1502.66 Q378.55 1502.66 380.798 1500.92 Q383.07 1499.19 383.07 1496.61 Q383.07 1495.61 382.719 1494.74 Q382.391 1493.87 381.712 1493.19 Q381.056 1492.49 380.634 1492.19 Q380.236 1491.86 379.463 1491.32 L373.561 1487.59 Q367.939 1490.71 367.939 1495.7 M368.947 1477.12 Q368.947 1479.42 371.359 1481.01 L377.308 1484.85 Q382.063 1482.07 382.063 1478.13 Q382.063 1475.58 380.119 1473.89 Q378.175 1472.18 375.482 1472.18 Q372.835 1472.18 370.891 1473.59 Q368.947 1474.97 368.947 1477.12 Z" fill="#000000" fill-rule="nonzero" fill-opacity="1" /><path clip-path="url(#clip130)" d="M390.374 1477.94 Q390.374 1477.33 390.423 1477.15 Q390.488 1476.97 390.751 1476.69 L397.194 1469.51 Q400.719 1465.55 400.719 1462.09 Q400.719 1459.84 399.539 1458.23 Q398.375 1456.63 396.227 1456.63 Q394.751 1456.63 393.505 1457.53 Q392.259 1458.43 391.685 1460.04 Q391.784 1460 392.128 1460 Q392.964 1460 393.423 1460.53 Q393.899 1461.05 393.899 1461.76 Q393.899 1462.66 393.308 1463.1 Q392.735 1463.53 392.161 1463.53 Q391.931 1463.53 391.62 1463.48 Q391.324 1463.43 390.849 1462.97 Q390.374 1462.5 390.374 1461.66 Q390.374 1459.31 392.144 1457.45 Q393.931 1455.58 396.653 1455.58 Q399.735 1455.58 401.752 1457.41 Q403.785 1459.23 403.785 1462.09 Q403.785 1463.09 403.474 1464 Q403.179 1464.91 402.769 1465.61 Q402.375 1466.32 401.293 1467.45 Q400.211 1468.58 399.342 1469.38 Q398.473 1470.19 396.522 1471.89 L392.964 1475.35 L399.014 1475.35 Q401.965 1475.35 402.195 1475.09 Q402.523 1474.61 402.933 1472.1 L403.785 1472.1 L402.834 1477.94 L390.374 1477.94 Z" fill="#000000" fill-rule="nonzero" fill-opacity="1" /><path clip-path="url(#clip130)" d="M1266.66 1540.87 L1266.66 1538.81 Q1274.59 1538.81 1278.68 1534.59 Q1279.8 1534.59 1280 1534.84 Q1280.19 1535.1 1280.19 1536.29 L1280.19 1573.3 Q1280.19 1575.26 1281.16 1575.88 Q1282.12 1576.49 1286.34 1576.49 L1288.44 1576.49 L1288.44 1578.52 Q1286.12 1578.32 1277.74 1578.32 Q1269.37 1578.32 1267.08 1578.52 L1267.08 1576.49 L1269.18 1576.49 Q1273.33 1576.49 1274.33 1575.91 Q1275.33 1575.3 1275.33 1573.3 L1275.33 1539.13 Q1271.88 1540.87 1266.66 1540.87 Z" fill="#000000" fill-rule="nonzero" fill-opacity="1" /><path clip-path="url(#clip130)" d="M1299.33 1594.07 Q1299.33 1593.75 1299.59 1593.04 L1322.87 1530.82 Q1322.87 1530.75 1323.03 1530.4 Q1323.19 1530.05 1323.29 1529.82 Q1323.39 1529.56 1323.58 1529.37 Q1323.81 1529.18 1324.06 1529.18 Q1324.71 1529.18 1324.71 1529.98 Q1324.71 1530.05 1324.51 1530.82 L1301.16 1593.11 Q1300.78 1594.23 1300.52 1594.55 Q1300.3 1594.88 1299.91 1594.88 Q1299.33 1594.88 1299.33 1594.07 Z" fill="#000000" fill-rule="nonzero" fill-opacity="1" /><path clip-path="url(#clip130)" d="M1371.83 1562.22 Q1371.83 1562.41 1371.57 1563.15 L1366.36 1577.39 Q1366.07 1578.23 1365.78 1578.39 Q1365.49 1578.52 1364.3 1578.52 L1333.76 1578.52 Q1333.02 1578.52 1332.73 1578.48 Q1332.44 1578.45 1332.22 1578.29 Q1331.99 1578.13 1331.99 1577.78 Q1331.99 1577.13 1332.22 1576.84 Q1332.48 1576.55 1332.77 1576.52 Q1333.06 1576.49 1333.76 1576.49 Q1335.37 1576.49 1336.34 1576.39 Q1337.31 1576.29 1337.92 1576.16 Q1338.56 1576 1338.89 1575.55 Q1339.24 1575.1 1339.4 1574.72 Q1339.56 1574.3 1339.79 1573.36 L1348.61 1537.94 Q1348.87 1536.87 1348.87 1536.71 Q1348.87 1536.1 1348.48 1535.94 Q1348.13 1535.75 1347.1 1535.65 L1344.59 1535.52 Q1343.81 1535.52 1343.49 1535.49 Q1343.2 1535.46 1342.98 1535.3 Q1342.75 1535.13 1342.75 1534.78 Q1342.75 1534.17 1342.98 1533.88 Q1343.23 1533.56 1343.43 1533.52 Q1343.65 1533.46 1344.01 1533.46 L1352.77 1533.65 L1362.52 1533.46 Q1363.59 1533.46 1363.59 1534.27 Q1363.59 1535.17 1363.14 1535.36 Q1362.69 1535.52 1361.07 1535.52 Q1357.98 1535.52 1356.57 1535.84 Q1355.18 1536.17 1354.79 1536.71 Q1354.44 1537.23 1354.09 1538.61 L1345.17 1574.23 Q1344.84 1575.42 1344.84 1575.75 Q1344.84 1576.1 1345 1576.23 Q1345.2 1576.33 1345.71 1576.39 Q1346.29 1576.49 1347.16 1576.49 L1353.35 1576.49 Q1355.21 1576.49 1356.86 1576.2 Q1358.5 1575.91 1359.75 1575.49 Q1361.04 1575.07 1362.2 1574.3 Q1363.36 1573.52 1364.17 1572.85 Q1365 1572.14 1365.81 1571.04 Q1366.65 1569.92 1367.13 1569.14 Q1367.64 1568.34 1368.22 1567.05 Q1368.8 1565.73 1369.09 1564.99 Q1369.42 1564.22 1369.9 1562.9 Q1370.19 1562.22 1370.29 1562.03 Q1370.38 1561.83 1370.54 1561.67 Q1370.74 1561.51 1371.03 1561.51 Q1371.41 1561.51 1371.61 1561.74 Q1371.83 1561.96 1371.83 1562.22 Z" fill="#000000" fill-rule="nonzero" fill-opacity="1" /><path clip-path="url(#clip130)" d="M1378.49 1543.03 Q1378.49 1542.2 1378.55 1541.95 Q1378.64 1541.7 1379 1541.32 L1387.86 1531.44 Q1392.71 1525.99 1392.71 1521.23 Q1392.71 1518.14 1391.09 1515.93 Q1389.49 1513.72 1386.53 1513.72 Q1384.51 1513.72 1382.79 1514.96 Q1381.08 1516.2 1380.29 1518.41 Q1380.42 1518.37 1380.9 1518.37 Q1382.05 1518.37 1382.68 1519.09 Q1383.33 1519.81 1383.33 1520.78 Q1383.33 1522.02 1382.52 1522.63 Q1381.73 1523.21 1380.94 1523.21 Q1380.63 1523.21 1380.2 1523.15 Q1379.79 1523.08 1379.14 1522.45 Q1378.49 1521.79 1378.49 1520.64 Q1378.49 1517.42 1380.92 1514.85 Q1383.38 1512.28 1387.12 1512.28 Q1391.36 1512.28 1394.13 1514.8 Q1396.93 1517.31 1396.93 1521.23 Q1396.93 1522.6 1396.5 1523.87 Q1396.09 1525.11 1395.53 1526.08 Q1394.99 1527.05 1393.5 1528.6 Q1392.01 1530.16 1390.82 1531.26 Q1389.62 1532.37 1386.94 1534.71 L1382.05 1539.47 L1390.37 1539.47 Q1394.42 1539.47 1394.74 1539.11 Q1395.19 1538.45 1395.75 1535 L1396.93 1535 L1395.62 1543.03 L1378.49 1543.03 Z" fill="#000000" fill-rule="nonzero" fill-opacity="1" /><polyline clip-path="url(#clip130)" style="stroke:#000000; stroke-linecap:round; stroke-linejoin:round; stroke-width:4; stroke-opacity:1; fill:none" points="317.69,1381.91 317.69,47.2441 "/>
<polyline clip-path="url(#clip130)" style="stroke:#000000; stroke-linecap:round; stroke-linejoin:round; stroke-width:4; stroke-opacity:1; fill:none" points="317.69,1256.86 336.587,1256.86 "/>
<polyline clip-path="url(#clip130)" style="stroke:#000000; stroke-linecap:round; stroke-linejoin:round; stroke-width:4; stroke-opacity:1; fill:none" points="317.69,1066.18 336.587,1066.18 "/>
<polyline clip-path="url(#clip130)" style="stroke:#000000; stroke-linecap:round; stroke-linejoin:round; stroke-width:4; stroke-opacity:1; fill:none" points="317.69,875.499 336.587,875.499 "/>
<polyline clip-path="url(#clip130)" style="stroke:#000000; stroke-linecap:round; stroke-linejoin:round; stroke-width:4; stroke-opacity:1; fill:none" points="317.69,684.819 336.587,684.819 "/>
<polyline clip-path="url(#clip130)" style="stroke:#000000; stroke-linecap:round; stroke-linejoin:round; stroke-width:4; stroke-opacity:1; fill:none" points="317.69,494.139 336.587,494.139 "/>
<polyline clip-path="url(#clip130)" style="stroke:#000000; stroke-linecap:round; stroke-linejoin:round; stroke-width:4; stroke-opacity:1; fill:none" points="317.69,303.458 336.587,303.458 "/>
<polyline clip-path="url(#clip130)" style="stroke:#000000; stroke-linecap:round; stroke-linejoin:round; stroke-width:4; stroke-opacity:1; fill:none" points="317.69,112.778 336.587,112.778 "/>
<path clip-path="url(#clip130)" d="M115.649 1257.31 L145.325 1257.31 L145.325 1261.25 L115.649 1261.25 L115.649 1257.31 Z" fill="#000000" fill-rule="nonzero" fill-opacity="1" /><path clip-path="url(#clip130)" d="M156.228 1270.2 L163.866 1270.2 L163.866 1243.84 L155.556 1245.5 L155.556 1241.25 L163.82 1239.58 L168.496 1239.58 L168.496 1270.2 L176.135 1270.2 L176.135 1274.14 L156.228 1274.14 L156.228 1270.2 Z" fill="#000000" fill-rule="nonzero" fill-opacity="1" /><path clip-path="url(#clip130)" d="M185.579 1268.26 L190.463 1268.26 L190.463 1274.14 L185.579 1274.14 L185.579 1268.26 Z" fill="#000000" fill-rule="nonzero" fill-opacity="1" /><path clip-path="url(#clip130)" d="M204.676 1270.2 L220.996 1270.2 L220.996 1274.14 L199.051 1274.14 L199.051 1270.2 Q201.713 1267.45 206.297 1262.82 Q210.903 1258.17 212.084 1256.82 Q214.329 1254.3 215.209 1252.56 Q216.111 1250.81 216.111 1249.12 Q216.111 1246.36 214.167 1244.63 Q212.246 1242.89 209.144 1242.89 Q206.945 1242.89 204.491 1243.65 Q202.061 1244.42 199.283 1245.97 L199.283 1241.25 Q202.107 1240.11 204.561 1239.53 Q207.014 1238.95 209.051 1238.95 Q214.422 1238.95 217.616 1241.64 Q220.811 1244.32 220.811 1248.81 Q220.811 1250.94 220 1252.87 Q219.213 1254.76 217.107 1257.36 Q216.528 1258.03 213.426 1261.25 Q210.324 1264.44 204.676 1270.2 Z" fill="#000000" fill-rule="nonzero" fill-opacity="1" /><path clip-path="url(#clip130)" d="M240.81 1257.73 Q237.477 1257.73 235.556 1259.51 Q233.658 1261.29 233.658 1264.42 Q233.658 1267.54 235.556 1269.32 Q237.477 1271.11 240.81 1271.11 Q244.144 1271.11 246.065 1269.32 Q247.986 1267.52 247.986 1264.42 Q247.986 1261.29 246.065 1259.51 Q244.167 1257.73 240.81 1257.73 M236.135 1255.74 Q233.125 1255 231.435 1252.94 Q229.769 1250.88 229.769 1247.91 Q229.769 1243.77 232.709 1241.36 Q235.672 1238.95 240.81 1238.95 Q245.972 1238.95 248.912 1241.36 Q251.852 1243.77 251.852 1247.91 Q251.852 1250.88 250.162 1252.94 Q248.496 1255 245.509 1255.74 Q248.889 1256.52 250.764 1258.81 Q252.662 1261.11 252.662 1264.42 Q252.662 1269.44 249.584 1272.12 Q246.528 1274.81 240.81 1274.81 Q235.093 1274.81 232.014 1272.12 Q228.959 1269.44 228.959 1264.42 Q228.959 1261.11 230.857 1258.81 Q232.755 1256.52 236.135 1255.74 M234.422 1248.35 Q234.422 1251.04 236.088 1252.54 Q237.778 1254.05 240.81 1254.05 Q243.82 1254.05 245.509 1252.54 Q247.222 1251.04 247.222 1248.35 Q247.222 1245.67 245.509 1244.16 Q243.82 1242.66 240.81 1242.66 Q237.778 1242.66 236.088 1244.16 Q234.422 1245.67 234.422 1248.35 Z" fill="#000000" fill-rule="nonzero" fill-opacity="1" /><path clip-path="url(#clip130)" d="M261.783 1270.2 L269.421 1270.2 L269.421 1243.84 L261.111 1245.5 L261.111 1241.25 L269.375 1239.58 L274.051 1239.58 L274.051 1270.2 L281.69 1270.2 L281.69 1274.14 L261.783 1274.14 L261.783 1270.2 Z" fill="#000000" fill-rule="nonzero" fill-opacity="1" /><path clip-path="url(#clip130)" d="M114.422 1066.63 L144.098 1066.63 L144.098 1070.57 L114.422 1070.57 L114.422 1066.63 Z" fill="#000000" fill-rule="nonzero" fill-opacity="1" /><path clip-path="url(#clip130)" d="M155.001 1079.52 L162.64 1079.52 L162.64 1053.16 L154.329 1054.82 L154.329 1050.57 L162.593 1048.9 L167.269 1048.9 L167.269 1079.52 L174.908 1079.52 L174.908 1083.46 L155.001 1083.46 L155.001 1079.52 Z" fill="#000000" fill-rule="nonzero" fill-opacity="1" /><path clip-path="url(#clip130)" d="M184.352 1077.58 L189.237 1077.58 L189.237 1083.46 L184.352 1083.46 L184.352 1077.58 Z" fill="#000000" fill-rule="nonzero" fill-opacity="1" /><path clip-path="url(#clip130)" d="M203.449 1079.52 L219.769 1079.52 L219.769 1083.46 L197.825 1083.46 L197.825 1079.52 Q200.487 1076.77 205.07 1072.14 Q209.676 1067.49 210.857 1066.14 Q213.102 1063.62 213.982 1061.88 Q214.885 1060.13 214.885 1058.44 Q214.885 1055.68 212.94 1053.95 Q211.019 1052.21 207.917 1052.21 Q205.718 1052.21 203.264 1052.97 Q200.834 1053.74 198.056 1055.29 L198.056 1050.57 Q200.88 1049.43 203.334 1048.85 Q205.787 1048.27 207.824 1048.27 Q213.195 1048.27 216.389 1050.96 Q219.584 1053.64 219.584 1058.13 Q219.584 1060.26 218.773 1062.19 Q217.986 1064.08 215.88 1066.68 Q215.301 1067.35 212.199 1070.57 Q209.098 1073.76 203.449 1079.52 Z" fill="#000000" fill-rule="nonzero" fill-opacity="1" /><path clip-path="url(#clip130)" d="M239.584 1067.05 Q236.25 1067.05 234.329 1068.83 Q232.431 1070.61 232.431 1073.74 Q232.431 1076.86 234.329 1078.64 Q236.25 1080.43 239.584 1080.43 Q242.917 1080.43 244.838 1078.64 Q246.759 1076.84 246.759 1073.74 Q246.759 1070.61 244.838 1068.83 Q242.94 1067.05 239.584 1067.05 M234.908 1065.06 Q231.898 1064.32 230.209 1062.26 Q228.542 1060.2 228.542 1057.23 Q228.542 1053.09 231.482 1050.68 Q234.445 1048.27 239.584 1048.27 Q244.746 1048.27 247.685 1050.68 Q250.625 1053.09 250.625 1057.23 Q250.625 1060.2 248.935 1062.26 Q247.269 1064.32 244.283 1065.06 Q247.662 1065.84 249.537 1068.13 Q251.435 1070.43 251.435 1073.74 Q251.435 1078.76 248.357 1081.44 Q245.301 1084.13 239.584 1084.13 Q233.866 1084.13 230.787 1081.44 Q227.732 1078.76 227.732 1073.74 Q227.732 1070.43 229.63 1068.13 Q231.528 1065.84 234.908 1065.06 M233.195 1057.67 Q233.195 1060.36 234.861 1061.86 Q236.551 1063.37 239.584 1063.37 Q242.593 1063.37 244.283 1061.86 Q245.996 1060.36 245.996 1057.67 Q245.996 1054.99 244.283 1053.48 Q242.593 1051.98 239.584 1051.98 Q236.551 1051.98 234.861 1053.48 Q233.195 1054.99 233.195 1057.67 Z" fill="#000000" fill-rule="nonzero" fill-opacity="1" /><path clip-path="url(#clip130)" d="M269.745 1051.98 Q266.134 1051.98 264.306 1055.54 Q262.5 1059.08 262.5 1066.21 Q262.5 1073.32 264.306 1076.88 Q266.134 1080.43 269.745 1080.43 Q273.38 1080.43 275.185 1076.88 Q277.014 1073.32 277.014 1066.21 Q277.014 1059.08 275.185 1055.54 Q273.38 1051.98 269.745 1051.98 M269.745 1048.27 Q275.556 1048.27 278.611 1052.88 Q281.69 1057.46 281.69 1066.21 Q281.69 1074.94 278.611 1079.55 Q275.556 1084.13 269.745 1084.13 Q263.935 1084.13 260.857 1079.55 Q257.801 1074.94 257.801 1066.21 Q257.801 1057.46 260.857 1052.88 Q263.935 1048.27 269.745 1048.27 Z" fill="#000000" fill-rule="nonzero" fill-opacity="1" /><path clip-path="url(#clip130)" d="M114.607 875.95 L144.283 875.95 L144.283 879.885 L114.607 879.885 L114.607 875.95 Z" fill="#000000" fill-rule="nonzero" fill-opacity="1" /><path clip-path="url(#clip130)" d="M155.186 888.844 L162.825 888.844 L162.825 862.478 L154.515 864.145 L154.515 859.885 L162.778 858.219 L167.454 858.219 L167.454 888.844 L175.093 888.844 L175.093 892.779 L155.186 892.779 L155.186 888.844 Z" fill="#000000" fill-rule="nonzero" fill-opacity="1" /><path clip-path="url(#clip130)" d="M184.538 886.899 L189.422 886.899 L189.422 892.779 L184.538 892.779 L184.538 886.899 Z" fill="#000000" fill-rule="nonzero" fill-opacity="1" /><path clip-path="url(#clip130)" d="M203.635 888.844 L219.954 888.844 L219.954 892.779 L198.01 892.779 L198.01 888.844 Q200.672 886.089 205.255 881.459 Q209.861 876.807 211.042 875.464 Q213.287 872.941 214.167 871.205 Q215.07 869.446 215.07 867.756 Q215.07 865.001 213.125 863.265 Q211.204 861.529 208.102 861.529 Q205.903 861.529 203.449 862.293 Q201.019 863.057 198.241 864.608 L198.241 859.885 Q201.065 858.751 203.519 858.172 Q205.973 857.594 208.01 857.594 Q213.38 857.594 216.574 860.279 Q219.769 862.964 219.769 867.455 Q219.769 869.584 218.959 871.506 Q218.172 873.404 216.065 875.996 Q215.486 876.668 212.385 879.885 Q209.283 883.08 203.635 888.844 Z" fill="#000000" fill-rule="nonzero" fill-opacity="1" /><path clip-path="url(#clip130)" d="M228.588 858.219 L250.81 858.219 L250.81 860.209 L238.264 892.779 L233.38 892.779 L245.185 862.154 L228.588 862.154 L228.588 858.219 Z" fill="#000000" fill-rule="nonzero" fill-opacity="1" /><path clip-path="url(#clip130)" d="M260.07 892.061 L260.07 887.802 Q261.829 888.635 263.634 889.075 Q265.44 889.515 267.176 889.515 Q271.806 889.515 274.236 886.413 Q276.69 883.288 277.037 876.945 Q275.694 878.936 273.634 880.001 Q271.574 881.066 269.074 881.066 Q263.889 881.066 260.857 877.941 Q257.847 874.793 257.847 869.353 Q257.847 864.029 260.995 860.811 Q264.144 857.594 269.375 857.594 Q275.37 857.594 278.519 862.2 Q281.69 866.783 281.69 875.533 Q281.69 883.705 277.801 888.589 Q273.935 893.45 267.384 893.45 Q265.625 893.45 263.82 893.103 Q262.014 892.756 260.07 892.061 M269.375 877.408 Q272.523 877.408 274.352 875.256 Q276.204 873.103 276.204 869.353 Q276.204 865.626 274.352 863.473 Q272.523 861.297 269.375 861.297 Q266.227 861.297 264.375 863.473 Q262.546 865.626 262.546 869.353 Q262.546 873.103 264.375 875.256 Q266.227 877.408 269.375 877.408 Z" fill="#000000" fill-rule="nonzero" fill-opacity="1" /><path clip-path="url(#clip130)" d="M114.515 685.27 L144.191 685.27 L144.191 689.205 L114.515 689.205 L114.515 685.27 Z" fill="#000000" fill-rule="nonzero" fill-opacity="1" /><path clip-path="url(#clip130)" d="M155.093 698.163 L162.732 698.163 L162.732 671.798 L154.422 673.465 L154.422 669.205 L162.686 667.539 L167.362 667.539 L167.362 698.163 L175.001 698.163 L175.001 702.099 L155.093 702.099 L155.093 698.163 Z" fill="#000000" fill-rule="nonzero" fill-opacity="1" /><path clip-path="url(#clip130)" d="M184.445 696.219 L189.329 696.219 L189.329 702.099 L184.445 702.099 L184.445 696.219 Z" fill="#000000" fill-rule="nonzero" fill-opacity="1" /><path clip-path="url(#clip130)" d="M203.542 698.163 L219.861 698.163 L219.861 702.099 L197.917 702.099 L197.917 698.163 Q200.579 695.409 205.162 690.779 Q209.769 686.127 210.949 684.784 Q213.195 682.261 214.074 680.525 Q214.977 678.765 214.977 677.076 Q214.977 674.321 213.033 672.585 Q211.111 670.849 208.01 670.849 Q205.811 670.849 203.357 671.613 Q200.926 672.377 198.149 673.928 L198.149 669.205 Q200.973 668.071 203.426 667.492 Q205.88 666.914 207.917 666.914 Q213.287 666.914 216.482 669.599 Q219.676 672.284 219.676 676.775 Q219.676 678.904 218.866 680.826 Q218.079 682.724 215.973 685.316 Q215.394 685.988 212.292 689.205 Q209.19 692.4 203.542 698.163 Z" fill="#000000" fill-rule="nonzero" fill-opacity="1" /><path clip-path="url(#clip130)" d="M228.496 667.539 L250.718 667.539 L250.718 669.529 L238.172 702.099 L233.287 702.099 L245.093 671.474 L228.496 671.474 L228.496 667.539 Z" fill="#000000" fill-rule="nonzero" fill-opacity="1" /><path clip-path="url(#clip130)" d="M269.838 685.687 Q266.505 685.687 264.583 687.469 Q262.685 689.251 262.685 692.376 Q262.685 695.501 264.583 697.284 Q266.505 699.066 269.838 699.066 Q273.171 699.066 275.093 697.284 Q277.014 695.478 277.014 692.376 Q277.014 689.251 275.093 687.469 Q273.194 685.687 269.838 685.687 M265.162 683.696 Q262.153 682.955 260.463 680.895 Q258.796 678.835 258.796 675.872 Q258.796 671.728 261.736 669.321 Q264.699 666.914 269.838 666.914 Q275 666.914 277.94 669.321 Q280.88 671.728 280.88 675.872 Q280.88 678.835 279.19 680.895 Q277.523 682.955 274.537 683.696 Q277.917 684.483 279.792 686.775 Q281.69 689.066 281.69 692.376 Q281.69 697.4 278.611 700.085 Q275.556 702.77 269.838 702.77 Q264.12 702.77 261.042 700.085 Q257.986 697.4 257.986 692.376 Q257.986 689.066 259.884 686.775 Q261.783 684.483 265.162 683.696 M263.449 676.312 Q263.449 678.997 265.116 680.502 Q266.806 682.006 269.838 682.006 Q272.847 682.006 274.537 680.502 Q276.25 678.997 276.25 676.312 Q276.25 673.627 274.537 672.122 Q272.847 670.617 269.838 670.617 Q266.806 670.617 265.116 672.122 Q263.449 673.627 263.449 676.312 Z" fill="#000000" fill-rule="nonzero" fill-opacity="1" /><path clip-path="url(#clip130)" d="M115.325 494.59 L145.001 494.59 L145.001 498.525 L115.325 498.525 L115.325 494.59 Z" fill="#000000" fill-rule="nonzero" fill-opacity="1" /><path clip-path="url(#clip130)" d="M155.903 507.483 L163.542 507.483 L163.542 481.118 L155.232 482.784 L155.232 478.525 L163.496 476.859 L168.172 476.859 L168.172 507.483 L175.811 507.483 L175.811 511.419 L155.903 511.419 L155.903 507.483 Z" fill="#000000" fill-rule="nonzero" fill-opacity="1" /><path clip-path="url(#clip130)" d="M185.255 505.539 L190.139 505.539 L190.139 511.419 L185.255 511.419 L185.255 505.539 Z" fill="#000000" fill-rule="nonzero" fill-opacity="1" /><path clip-path="url(#clip130)" d="M204.352 507.483 L220.672 507.483 L220.672 511.419 L198.727 511.419 L198.727 507.483 Q201.389 504.729 205.973 500.099 Q210.579 495.446 211.76 494.104 Q214.005 491.581 214.885 489.845 Q215.787 488.085 215.787 486.396 Q215.787 483.641 213.843 481.905 Q211.922 480.169 208.82 480.169 Q206.621 480.169 204.167 480.933 Q201.737 481.697 198.959 483.247 L198.959 478.525 Q201.783 477.391 204.237 476.812 Q206.69 476.234 208.727 476.234 Q214.098 476.234 217.292 478.919 Q220.486 481.604 220.486 486.095 Q220.486 488.224 219.676 490.146 Q218.889 492.044 216.783 494.636 Q216.204 495.308 213.102 498.525 Q210 501.72 204.352 507.483 Z" fill="#000000" fill-rule="nonzero" fill-opacity="1" /><path clip-path="url(#clip130)" d="M229.306 476.859 L251.528 476.859 L251.528 478.849 L238.982 511.419 L234.097 511.419 L245.903 480.794 L229.306 480.794 L229.306 476.859 Z" fill="#000000" fill-rule="nonzero" fill-opacity="1" /><path clip-path="url(#clip130)" d="M259.468 476.859 L281.69 476.859 L281.69 478.849 L269.144 511.419 L264.259 511.419 L276.065 480.794 L259.468 480.794 L259.468 476.859 Z" fill="#000000" fill-rule="nonzero" fill-opacity="1" /><path clip-path="url(#clip130)" d="M114.26 303.91 L143.936 303.91 L143.936 307.845 L114.26 307.845 L114.26 303.91 Z" fill="#000000" fill-rule="nonzero" fill-opacity="1" /><path clip-path="url(#clip130)" d="M154.839 316.803 L162.477 316.803 L162.477 290.438 L154.167 292.104 L154.167 287.845 L162.431 286.178 L167.107 286.178 L167.107 316.803 L174.746 316.803 L174.746 320.738 L154.839 320.738 L154.839 316.803 Z" fill="#000000" fill-rule="nonzero" fill-opacity="1" /><path clip-path="url(#clip130)" d="M184.19 314.859 L189.075 314.859 L189.075 320.738 L184.19 320.738 L184.19 314.859 Z" fill="#000000" fill-rule="nonzero" fill-opacity="1" /><path clip-path="url(#clip130)" d="M203.287 316.803 L219.607 316.803 L219.607 320.738 L197.662 320.738 L197.662 316.803 Q200.325 314.049 204.908 309.419 Q209.514 304.766 210.695 303.424 Q212.94 300.901 213.82 299.165 Q214.723 297.405 214.723 295.715 Q214.723 292.961 212.778 291.225 Q210.857 289.489 207.755 289.489 Q205.556 289.489 203.102 290.253 Q200.672 291.016 197.894 292.567 L197.894 287.845 Q200.718 286.711 203.172 286.132 Q205.625 285.553 207.662 285.553 Q213.033 285.553 216.227 288.239 Q219.422 290.924 219.422 295.415 Q219.422 297.544 218.611 299.465 Q217.824 301.364 215.718 303.956 Q215.139 304.627 212.037 307.845 Q208.936 311.039 203.287 316.803 Z" fill="#000000" fill-rule="nonzero" fill-opacity="1" /><path clip-path="url(#clip130)" d="M228.241 286.178 L250.463 286.178 L250.463 288.169 L237.917 320.738 L233.033 320.738 L244.838 290.114 L228.241 290.114 L228.241 286.178 Z" fill="#000000" fill-rule="nonzero" fill-opacity="1" /><path clip-path="url(#clip130)" d="M270.162 301.595 Q267.014 301.595 265.162 303.748 Q263.333 305.901 263.333 309.651 Q263.333 313.377 265.162 315.553 Q267.014 317.706 270.162 317.706 Q273.31 317.706 275.139 315.553 Q276.991 313.377 276.991 309.651 Q276.991 305.901 275.139 303.748 Q273.31 301.595 270.162 301.595 M279.444 286.942 L279.444 291.202 Q277.685 290.368 275.88 289.928 Q274.097 289.489 272.338 289.489 Q267.708 289.489 265.255 292.614 Q262.824 295.739 262.477 302.058 Q263.843 300.044 265.903 298.979 Q267.963 297.891 270.44 297.891 Q275.648 297.891 278.657 301.063 Q281.69 304.211 281.69 309.651 Q281.69 314.975 278.542 318.192 Q275.394 321.41 270.162 321.41 Q264.167 321.41 260.995 316.826 Q257.824 312.22 257.824 303.493 Q257.824 295.299 261.713 290.438 Q265.602 285.553 272.153 285.553 Q273.912 285.553 275.694 285.901 Q277.5 286.248 279.444 286.942 Z" fill="#000000" fill-rule="nonzero" fill-opacity="1" /><path clip-path="url(#clip130)" d="M115.418 113.23 L145.093 113.23 L145.093 117.165 L115.418 117.165 L115.418 113.23 Z" fill="#000000" fill-rule="nonzero" fill-opacity="1" /><path clip-path="url(#clip130)" d="M155.996 126.123 L163.635 126.123 L163.635 99.7577 L155.325 101.424 L155.325 97.1651 L163.589 95.4984 L168.264 95.4984 L168.264 126.123 L175.903 126.123 L175.903 130.058 L155.996 130.058 L155.996 126.123 Z" fill="#000000" fill-rule="nonzero" fill-opacity="1" /><path clip-path="url(#clip130)" d="M185.348 124.179 L190.232 124.179 L190.232 130.058 L185.348 130.058 L185.348 124.179 Z" fill="#000000" fill-rule="nonzero" fill-opacity="1" /><path clip-path="url(#clip130)" d="M204.445 126.123 L220.764 126.123 L220.764 130.058 L198.82 130.058 L198.82 126.123 Q201.482 123.369 206.065 118.739 Q210.672 114.086 211.852 112.744 Q214.098 110.221 214.977 108.484 Q215.88 106.725 215.88 105.035 Q215.88 102.281 213.936 100.545 Q212.014 98.8086 208.912 98.8086 Q206.713 98.8086 204.26 99.5725 Q201.829 100.336 199.051 101.887 L199.051 97.1651 Q201.875 96.0308 204.329 95.4521 Q206.783 94.8734 208.82 94.8734 Q214.19 94.8734 217.385 97.5586 Q220.579 100.244 220.579 104.734 Q220.579 106.864 219.769 108.785 Q218.982 110.684 216.875 113.276 Q216.297 113.947 213.195 117.165 Q210.093 120.359 204.445 126.123 Z" fill="#000000" fill-rule="nonzero" fill-opacity="1" /><path clip-path="url(#clip130)" d="M229.398 95.4984 L251.621 95.4984 L251.621 97.4892 L239.074 130.058 L234.19 130.058 L245.996 99.4336 L229.398 99.4336 L229.398 95.4984 Z" fill="#000000" fill-rule="nonzero" fill-opacity="1" /><path clip-path="url(#clip130)" d="M260.787 95.4984 L279.144 95.4984 L279.144 99.4336 L265.07 99.4336 L265.07 107.906 Q266.088 107.559 267.107 107.397 Q268.125 107.211 269.144 107.211 Q274.931 107.211 278.31 110.383 Q281.69 113.554 281.69 118.971 Q281.69 124.549 278.218 127.651 Q274.745 130.73 268.426 130.73 Q266.25 130.73 263.982 130.359 Q261.736 129.989 259.329 129.248 L259.329 124.549 Q261.412 125.683 263.634 126.239 Q265.857 126.795 268.333 126.795 Q272.338 126.795 274.676 124.688 Q277.014 122.582 277.014 118.971 Q277.014 115.359 274.676 113.253 Q272.338 111.146 268.333 111.146 Q266.458 111.146 264.583 111.563 Q262.732 111.98 260.787 112.859 L260.787 95.4984 Z" fill="#000000" fill-rule="nonzero" fill-opacity="1" /><path clip-path="url(#clip130)" d="M23.0249 729.417 L34.4257 730.737 Q35.4563 730.834 35.7784 730.995 Q36.0682 731.156 36.0682 731.671 Q36.0682 732.057 35.8428 732.283 Q35.5851 732.476 35.2953 732.476 Q35.1343 732.476 34.7156 732.444 Q34.2969 732.412 34.1037 732.412 Q32.1069 732.122 30.5932 732.122 Q27.7913 732.122 26.2777 732.959 Q24.7318 733.797 24.0232 735.954 Q23.2825 738.112 23.2825 742.17 L23.2825 751.445 Q23.2825 753.571 23.669 754.086 Q24.0554 754.569 25.859 755.02 L41.7365 758.982 L41.7365 752.766 Q41.7365 750.447 41.4466 749.062 Q41.1568 747.645 40.3516 746.711 Q39.5143 745.745 38.3871 745.23 Q37.2598 744.682 35.2309 744.135 Q34.5546 743.974 34.2969 743.813 Q34.0393 743.619 34.0393 743.201 Q34.0393 742.879 34.2647 742.653 Q34.4579 742.428 34.7478 742.428 L50.1744 746.196 Q50.9473 746.389 51.2372 746.582 Q51.4948 746.776 51.4948 747.162 Q51.4948 747.581 51.2694 747.806 Q51.044 748.032 50.7863 748.032 Q50.5287 748.032 50.0456 747.838 Q47.9522 747.355 46.825 747.355 Q46.1809 747.355 45.8588 747.42 Q45.5368 747.452 45.0859 747.742 Q44.6028 747.999 44.3773 748.579 Q44.1519 749.159 43.9909 750.254 Q43.7976 751.349 43.7976 752.991 L43.7976 759.497 L61.8007 764.006 Q62.9923 764.328 63.3144 764.328 Q63.6687 764.328 63.7975 764.167 Q63.8941 763.973 63.9585 763.458 Q64.0551 762.878 64.0551 762.009 L64.0551 752.379 Q64.0551 750.254 63.8619 748.547 Q63.6687 746.84 63.1856 745.423 Q62.7025 743.974 62.155 742.879 Q61.6075 741.784 60.6091 740.753 Q59.5785 739.722 58.6767 739.014 Q57.7428 738.273 56.1647 737.404 Q54.5866 736.534 53.2984 735.922 Q51.9779 735.31 49.8523 734.376 Q49.0794 734.119 49.0794 733.507 Q49.0794 733.152 49.2726 732.959 Q49.4337 732.766 49.5947 732.734 L49.7879 732.734 Q50.3998 732.927 50.7219 733.056 L64.9569 739.111 Q65.762 739.465 65.9231 739.755 Q66.0841 740.045 66.0841 741.172 L66.0841 775.407 Q66.0841 776.18 66.0519 776.502 Q66.0197 776.791 65.8587 777.017 Q65.6654 777.242 65.2789 777.242 Q64.667 777.242 64.4094 776.985 Q64.1195 776.727 64.0873 776.437 Q64.0551 776.147 64.0551 775.407 Q64.0551 773.796 63.9585 772.83 Q63.8619 771.864 63.7331 771.252 Q63.572 770.608 63.1212 770.286 Q62.6703 769.932 62.2838 769.771 Q61.8651 769.61 60.9312 769.384 L26.0522 760.688 Q24.8606 760.366 24.4741 760.366 Q24.0554 760.366 23.7978 760.656 Q23.5402 760.914 23.4435 761.622 Q23.3147 762.331 23.3147 762.911 Q23.2825 763.458 23.2825 764.65 Q23.2825 765.423 23.2503 765.745 Q23.2181 766.035 23.0571 766.26 Q22.896 766.486 22.5418 766.486 Q21.64 766.486 21.4468 766.099 Q21.2213 765.68 21.2213 764.521 L21.2213 731.22 Q21.2213 729.9 21.5112 729.61 Q21.7688 729.288 23.0249 729.417 Z" fill="#000000" fill-rule="nonzero" fill-opacity="1" /><path clip-path="url(#clip130)" d="M81.6395 729.044 Q81.3175 729.044 80.6089 728.786 L18.3872 705.501 Q18.3228 705.501 17.9685 705.34 Q17.6143 705.179 17.3888 705.083 Q17.1312 704.986 16.938 704.793 Q16.7447 704.567 16.7447 704.31 Q16.7447 703.665 17.5499 703.665 Q17.6143 703.665 18.3872 703.859 L80.6734 727.208 Q81.8006 727.594 82.1226 727.852 Q82.4447 728.077 82.4447 728.464 Q82.4447 729.044 81.6395 729.044 Z" fill="#000000" fill-rule="nonzero" fill-opacity="1" /><path clip-path="url(#clip130)" d="M49.7879 656.541 Q49.9812 656.541 50.7219 656.799 L64.9569 662.016 Q65.7942 662.306 65.9553 662.596 Q66.0841 662.886 66.0841 664.077 L66.0841 694.608 Q66.0841 695.349 66.0519 695.639 Q66.0197 695.929 65.8587 696.154 Q65.6976 696.38 65.3434 696.38 Q64.6992 696.38 64.4094 696.154 Q64.1195 695.897 64.0873 695.607 Q64.0551 695.317 64.0551 694.608 Q64.0551 692.998 63.9585 692.032 Q63.8619 691.066 63.7331 690.454 Q63.572 689.81 63.1212 689.488 Q62.6703 689.133 62.2838 688.972 Q61.8651 688.811 60.9312 688.586 L25.5047 679.761 Q24.4419 679.504 24.2809 679.504 Q23.669 679.504 23.5079 679.89 Q23.3147 680.244 23.2181 681.275 L23.0893 683.787 Q23.0893 684.56 23.0571 684.882 Q23.0249 685.172 22.8638 685.397 Q22.7028 685.623 22.3485 685.623 Q21.7366 685.623 21.4468 685.397 Q21.1247 685.14 21.0925 684.947 Q21.0281 684.721 21.0281 684.367 L21.2213 675.607 L21.0281 665.848 Q21.0281 664.786 21.8332 664.786 Q22.735 664.786 22.9282 665.237 Q23.0893 665.687 23.0893 667.298 Q23.0893 670.389 23.4113 671.807 Q23.7334 673.191 24.2809 673.578 Q24.7962 673.932 26.181 674.286 L61.8007 683.207 Q62.9923 683.529 63.3144 683.529 Q63.6687 683.529 63.7975 683.368 Q63.8941 683.175 63.9585 682.66 Q64.0551 682.08 64.0551 681.211 L64.0551 675.027 Q64.0551 673.159 63.7653 671.517 Q63.4754 669.874 63.0567 668.618 Q62.6381 667.33 61.8651 666.171 Q61.0922 665.011 60.4159 664.206 Q59.7073 663.369 58.6123 662.563 Q57.4851 661.726 56.7122 661.243 Q55.907 660.728 54.6188 660.148 Q53.2984 659.568 52.5576 659.278 Q51.7847 658.956 50.4643 658.473 Q49.7879 658.183 49.5947 658.087 Q49.4015 657.99 49.2404 657.829 Q49.0794 657.636 49.0794 657.346 Q49.0794 656.96 49.3048 656.766 Q49.5303 656.541 49.7879 656.541 Z" fill="#000000" fill-rule="nonzero" fill-opacity="1" /><polyline clip-path="url(#clip131)" style="stroke:#009af9; stroke-linecap:round; stroke-linejoin:round; stroke-width:4; stroke-opacity:1; fill:none" stroke-dasharray="16, 10" points="2295.16,1343.64 1433.87,779.004 966.016,472.287 683.912,287.346 500.816,167.312 375.286,85.0177 "/>
<circle clip-path="url(#clip131)" cx="2295.16" cy="1344.14" r="14.4" fill="#e26f46" fill-rule="evenodd" fill-opacity="1" stroke="#000000" stroke-opacity="1" stroke-width="3.2"/>
<circle clip-path="url(#clip131)" cx="1433.87" cy="778.375" r="14.4" fill="#e26f46" fill-rule="evenodd" fill-opacity="1" stroke="#000000" stroke-opacity="1" stroke-width="3.2"/>
<circle clip-path="url(#clip131)" cx="966.016" cy="471.816" r="14.4" fill="#e26f46" fill-rule="evenodd" fill-opacity="1" stroke="#000000" stroke-opacity="1" stroke-width="3.2"/>
<circle clip-path="url(#clip131)" cx="683.912" cy="287.231" r="14.4" fill="#e26f46" fill-rule="evenodd" fill-opacity="1" stroke="#000000" stroke-opacity="1" stroke-width="3.2"/>
<circle clip-path="url(#clip131)" cx="500.816" cy="167.533" r="14.4" fill="#e26f46" fill-rule="evenodd" fill-opacity="1" stroke="#000000" stroke-opacity="1" stroke-width="3.2"/>
<circle clip-path="url(#clip131)" cx="375.286" cy="85.5164" r="14.4" fill="#e26f46" fill-rule="evenodd" fill-opacity="1" stroke="#000000" stroke-opacity="1" stroke-width="3.2"/>
<path clip-path="url(#clip130)" d="M1406.81 325.9 L2284.92 325.9 L2284.92 91.733 L1406.81 91.733  Z" fill="#000000" fill-rule="evenodd" fill-opacity="0"/>
<polyline clip-path="url(#clip130)" style="stroke:#000000; stroke-linecap:round; stroke-linejoin:round; stroke-width:4; stroke-opacity:0; fill:none" points="1406.81,325.9 2284.92,325.9 2284.92,91.733 1406.81,91.733 1406.81,325.9 "/>
<polyline clip-path="url(#clip130)" style="stroke:#009af9; stroke-linecap:round; stroke-linejoin:round; stroke-width:4; stroke-opacity:1; fill:none" stroke-dasharray="16, 10" points="1429.42,169.789 1565.09,169.789 "/>
<path clip-path="url(#clip130)" d="M1587.71 141.119 L1607.57 141.119 L1607.57 145.054 L1592.38 145.054 L1592.38 155.24 L1606.09 155.24 L1606.09 159.175 L1592.38 159.175 L1592.38 175.679 L1587.71 175.679 L1587.71 141.119 Z" fill="#000000" fill-rule="nonzero" fill-opacity="1" /><path clip-path="url(#clip130)" d="M1611.34 149.753 L1615.6 149.753 L1615.6 175.679 L1611.34 175.679 L1611.34 149.753 M1611.34 139.661 L1615.6 139.661 L1615.6 145.054 L1611.34 145.054 L1611.34 139.661 Z" fill="#000000" fill-rule="nonzero" fill-opacity="1" /><path clip-path="url(#clip130)" d="M1628.72 142.392 L1628.72 149.753 L1637.5 149.753 L1637.5 153.064 L1628.72 153.064 L1628.72 167.138 Q1628.72 170.309 1629.58 171.212 Q1630.46 172.114 1633.12 172.114 L1637.5 172.114 L1637.5 175.679 L1633.12 175.679 Q1628.19 175.679 1626.32 173.851 Q1624.44 171.999 1624.44 167.138 L1624.44 153.064 L1621.32 153.064 L1621.32 149.753 L1624.44 149.753 L1624.44 142.392 L1628.72 142.392 Z" fill="#000000" fill-rule="nonzero" fill-opacity="1" /><path clip-path="url(#clip130)" d="M1644.19 169.8 L1649.07 169.8 L1649.07 175.679 L1644.19 175.679 L1644.19 169.8 M1644.19 151.165 L1649.07 151.165 L1649.07 157.045 L1644.19 157.045 L1644.19 151.165 Z" fill="#000000" fill-rule="nonzero" fill-opacity="1" /><path clip-path="url(#clip130)" d="M1704.46 144.363 L1703.49 152.655 Q1703.42 153.405 1703.31 153.639 Q1703.19 153.85 1702.82 153.85 Q1702.53 153.85 1702.37 153.686 Q1702.23 153.498 1702.23 153.287 Q1702.23 153.17 1702.25 152.866 Q1702.28 152.561 1702.28 152.421 Q1702.49 150.969 1702.49 149.868 Q1702.49 147.83 1701.88 146.729 Q1701.27 145.605 1699.7 145.09 Q1698.13 144.551 1695.18 144.551 L1688.43 144.551 Q1686.89 144.551 1686.51 144.832 Q1686.16 145.113 1685.83 146.425 L1682.95 157.972 L1687.47 157.972 Q1689.16 157.972 1690.17 157.761 Q1691.2 157.55 1691.88 156.965 Q1692.58 156.356 1692.95 155.536 Q1693.35 154.716 1693.75 153.241 Q1693.87 152.749 1693.99 152.561 Q1694.13 152.374 1694.43 152.374 Q1694.66 152.374 1694.83 152.538 Q1694.99 152.678 1694.99 152.889 L1692.25 164.109 Q1692.11 164.671 1691.97 164.882 Q1691.83 165.069 1691.55 165.069 Q1691.24 165.069 1691.08 164.905 Q1690.92 164.741 1690.92 164.554 Q1690.92 164.366 1691.06 164.015 Q1691.41 162.492 1691.41 161.673 Q1691.41 161.204 1691.36 160.97 Q1691.34 160.736 1691.13 160.408 Q1690.94 160.056 1690.52 159.893 Q1690.1 159.729 1689.3 159.611 Q1688.5 159.471 1687.31 159.471 L1682.58 159.471 L1679.3 172.564 Q1679.07 173.431 1679.07 173.665 Q1679.07 173.923 1679.18 174.016 Q1679.32 174.087 1679.7 174.133 Q1680.12 174.204 1680.75 174.204 L1687.75 174.204 Q1689.3 174.204 1690.54 174.063 Q1691.78 173.923 1692.81 173.571 Q1693.87 173.22 1694.66 172.822 Q1695.46 172.424 1696.21 171.697 Q1696.96 170.948 1697.48 170.292 Q1698.01 169.613 1698.65 168.465 Q1699.28 167.317 1699.72 166.381 Q1700.17 165.42 1700.85 163.874 Q1701.04 163.312 1701.48 163.312 Q1701.74 163.312 1701.88 163.453 Q1702.02 163.57 1702.04 163.687 L1702.04 163.827 Q1701.9 164.273 1701.81 164.507 L1697.4 174.859 Q1697.15 175.445 1696.94 175.562 Q1696.73 175.679 1695.91 175.679 L1671.01 175.679 Q1670.45 175.679 1670.21 175.656 Q1670 175.632 1669.84 175.515 Q1669.67 175.375 1669.67 175.094 Q1669.67 174.649 1669.86 174.461 Q1670.05 174.25 1670.26 174.227 Q1670.47 174.204 1671.01 174.204 Q1672.18 174.204 1672.88 174.133 Q1673.58 174.063 1674.03 173.969 Q1674.5 173.852 1674.73 173.524 Q1674.99 173.196 1675.11 172.915 Q1675.22 172.611 1675.39 171.932 L1681.71 146.565 Q1681.95 145.699 1681.95 145.417 Q1681.95 145.113 1681.74 144.926 Q1681.55 144.738 1681.03 144.668 Q1680.52 144.574 1680.1 144.574 Q1679.7 144.551 1678.83 144.551 Q1678.27 144.551 1678.03 144.527 Q1677.82 144.504 1677.66 144.387 Q1677.5 144.27 1677.5 144.012 Q1677.5 143.356 1677.78 143.216 Q1678.08 143.052 1678.92 143.052 L1703.14 143.052 Q1704.1 143.052 1704.31 143.263 Q1704.55 143.45 1704.46 144.363 Z" fill="#000000" fill-rule="nonzero" fill-opacity="1" /><path clip-path="url(#clip130)" d="M1704.72 186.992 Q1704.72 186.758 1704.91 186.243 L1721.84 140.991 Q1721.84 140.944 1721.96 140.686 Q1722.07 140.428 1722.14 140.265 Q1722.21 140.077 1722.36 139.937 Q1722.52 139.796 1722.71 139.796 Q1723.17 139.796 1723.17 140.382 Q1723.17 140.428 1723.03 140.991 L1706.05 186.29 Q1705.77 187.109 1705.58 187.344 Q1705.42 187.578 1705.14 187.578 Q1704.72 187.578 1704.72 186.992 Z" fill="#000000" fill-rule="nonzero" fill-opacity="1" /><path clip-path="url(#clip130)" d="M1757.44 163.827 Q1757.44 163.968 1757.25 164.507 L1753.46 174.859 Q1753.25 175.468 1753.04 175.586 Q1752.83 175.679 1751.96 175.679 L1729.76 175.679 Q1729.22 175.679 1729.01 175.656 Q1728.8 175.632 1728.63 175.515 Q1728.47 175.398 1728.47 175.141 Q1728.47 174.672 1728.63 174.461 Q1728.82 174.25 1729.03 174.227 Q1729.24 174.204 1729.76 174.204 Q1730.93 174.204 1731.63 174.133 Q1732.33 174.063 1732.78 173.969 Q1733.25 173.852 1733.48 173.524 Q1733.74 173.196 1733.86 172.915 Q1733.97 172.611 1734.14 171.932 L1740.55 146.167 Q1740.74 145.394 1740.74 145.277 Q1740.74 144.832 1740.46 144.715 Q1740.2 144.574 1739.45 144.504 L1737.63 144.41 Q1737.06 144.41 1736.83 144.387 Q1736.62 144.363 1736.46 144.246 Q1736.29 144.129 1736.29 143.872 Q1736.29 143.427 1736.46 143.216 Q1736.64 142.982 1736.78 142.958 Q1736.95 142.911 1737.2 142.911 L1743.58 143.052 L1750.67 142.911 Q1751.45 142.911 1751.45 143.497 Q1751.45 144.153 1751.12 144.293 Q1750.79 144.41 1749.62 144.41 Q1747.37 144.41 1746.34 144.645 Q1745.33 144.879 1745.05 145.277 Q1744.79 145.652 1744.54 146.659 L1738.05 172.564 Q1737.81 173.431 1737.81 173.665 Q1737.81 173.923 1737.93 174.016 Q1738.07 174.087 1738.45 174.133 Q1738.87 174.204 1739.5 174.204 L1744 174.204 Q1745.36 174.204 1746.55 173.993 Q1747.74 173.782 1748.66 173.478 Q1749.6 173.173 1750.44 172.611 Q1751.28 172.049 1751.87 171.557 Q1752.48 171.042 1753.06 170.245 Q1753.67 169.425 1754.02 168.863 Q1754.4 168.278 1754.82 167.341 Q1755.24 166.381 1755.45 165.842 Q1755.68 165.28 1756.04 164.319 Q1756.25 163.827 1756.32 163.687 Q1756.39 163.546 1756.5 163.429 Q1756.65 163.312 1756.86 163.312 Q1757.14 163.312 1757.28 163.476 Q1757.44 163.64 1757.44 163.827 Z" fill="#000000" fill-rule="nonzero" fill-opacity="1" /><path clip-path="url(#clip130)" d="M1774.1 168.395 Q1774.15 167.809 1775.06 167.809 L1804.46 167.809 Q1805.84 167.809 1805.87 168.348 Q1805.87 168.934 1804.55 168.91 L1775.39 168.91 Q1774.1 168.934 1774.1 168.395 M1774.1 159.026 Q1774.1 158.44 1775.11 158.464 L1804.41 158.464 Q1805.84 158.464 1805.87 159.026 Q1805.87 159.565 1804.65 159.565 L1775.06 159.565 Q1774.1 159.565 1774.1 159.026 Z" fill="#000000" fill-rule="nonzero" fill-opacity="1" /><path clip-path="url(#clip130)" d="M1842.6 170.128 Q1842.79 170.339 1842.79 170.55 Q1842.79 170.761 1842.32 171.37 Q1841.88 171.979 1840.92 172.798 Q1839.96 173.618 1838.71 174.391 Q1837.47 175.164 1835.65 175.679 Q1833.82 176.218 1831.9 176.218 Q1828.45 176.218 1826.39 173.759 Q1824.36 171.299 1824.36 167.528 Q1824.36 165.116 1825.15 162.984 Q1825.95 160.829 1827.24 159.307 Q1828.55 157.785 1830.19 156.684 Q1831.85 155.559 1833.58 155.021 Q1835.32 154.482 1836.93 154.482 Q1839.3 154.482 1840.68 155.676 Q1842.06 156.871 1842.06 158.557 Q1842.06 158.956 1841.95 159.447 Q1841.85 159.939 1841.52 160.712 Q1841.22 161.485 1840.42 162.258 Q1839.63 163.008 1838.46 163.5 Q1835.86 164.6 1831.13 164.6 L1828.57 164.6 Q1827.82 167.622 1827.82 169.589 Q1827.82 170.362 1827.96 171.159 Q1828.1 171.932 1828.48 172.915 Q1828.88 173.899 1829.77 174.532 Q1830.68 175.141 1831.99 175.141 Q1832.41 175.141 1832.86 175.117 Q1833.33 175.094 1834.5 174.836 Q1835.69 174.578 1836.75 174.133 Q1837.8 173.688 1839.14 172.728 Q1840.49 171.744 1841.57 170.409 Q1841.95 169.917 1842.2 169.917 Q1842.41 169.917 1842.6 170.128 M1840.47 158.557 Q1840.47 157.269 1839.51 156.403 Q1838.57 155.536 1836.93 155.536 Q1836.42 155.536 1835.79 155.653 Q1835.15 155.77 1834.1 156.262 Q1833.07 156.754 1832.16 157.574 Q1831.24 158.37 1830.33 159.939 Q1829.42 161.485 1828.88 163.546 L1830.84 163.546 Q1831.52 163.546 1832.02 163.546 Q1832.51 163.523 1833.58 163.429 Q1834.69 163.336 1835.48 163.172 Q1836.28 162.984 1837.29 162.61 Q1838.29 162.235 1838.92 161.743 Q1839.58 161.228 1840.03 160.408 Q1840.47 159.588 1840.47 158.557 Z" fill="#000000" fill-rule="nonzero" fill-opacity="1" /><path clip-path="url(#clip130)" d="M1877.5 177.777 Q1877.5 179.777 1876.71 181.515 Q1875.94 183.237 1874.43 184.319 Q1872.94 185.401 1871.06 185.401 Q1868.14 185.401 1865.35 183.073 Q1864.79 182.597 1864.4 182.155 Q1864.01 181.712 1862.33 179.679 Q1862.06 180.154 1861.76 180.597 Q1861.47 181.023 1860.63 181.991 Q1859.79 182.958 1858.92 183.63 Q1858.07 184.303 1856.74 184.86 Q1855.43 185.401 1854.07 185.401 Q1852.63 185.401 1851.4 184.745 Q1850.19 184.073 1849.38 183.007 Q1848.59 181.925 1848.15 180.581 Q1847.73 179.22 1847.73 177.81 Q1847.73 175.81 1848.5 174.088 Q1849.28 172.35 1850.78 171.268 Q1852.28 170.186 1854.17 170.186 Q1857.1 170.186 1859.88 172.498 Q1860.43 172.973 1860.83 173.416 Q1861.22 173.858 1862.89 175.892 Q1863.11 175.531 1863.33 175.203 Q1863.56 174.859 1864.14 174.104 Q1864.71 173.35 1865.38 172.744 Q1866.07 172.137 1866.94 171.514 Q1867.81 170.891 1868.91 170.547 Q1870.01 170.186 1871.16 170.186 Q1872.6 170.186 1873.81 170.858 Q1875.04 171.514 1875.83 172.596 Q1876.63 173.662 1877.06 175.023 Q1877.5 176.367 1877.5 177.777 M1876.76 177.777 Q1876.76 176.613 1876.42 175.482 Q1876.07 174.35 1875.42 173.399 Q1874.78 172.432 1873.73 171.842 Q1872.68 171.252 1871.4 171.252 Q1870.06 171.252 1868.81 171.825 Q1867.58 172.383 1866.61 173.334 Q1865.66 174.285 1865.01 175.17 Q1864.35 176.055 1863.78 177.072 Q1864.07 177.433 1865.33 179.105 Q1866.61 180.777 1867.15 181.368 Q1869.37 183.778 1871.6 183.778 Q1873.73 183.778 1875.24 182.04 Q1876.76 180.286 1876.76 177.777 M1861.45 178.515 Q1861.17 178.171 1859.88 176.498 Q1858.6 174.809 1858.06 174.219 Q1855.83 171.793 1853.63 171.793 Q1851.5 171.793 1849.97 173.547 Q1848.46 175.301 1848.46 177.81 Q1848.46 178.974 1848.81 180.105 Q1849.15 181.237 1849.79 182.187 Q1850.45 183.138 1851.5 183.729 Q1852.55 184.319 1853.83 184.319 Q1854.91 184.319 1855.94 183.925 Q1856.99 183.532 1857.78 182.942 Q1858.56 182.351 1859.3 181.532 Q1860.04 180.712 1860.51 180.007 Q1861.01 179.302 1861.45 178.515 Z" fill="#000000" fill-rule="nonzero" fill-opacity="1" /><path clip-path="url(#clip130)" d="M1927.29 163.008 Q1927.58 163.289 1927.58 163.687 Q1927.58 164.085 1927.29 164.366 Q1927.01 164.647 1926.62 164.647 L1896.59 164.647 Q1896.19 164.647 1895.91 164.366 Q1895.63 164.085 1895.63 163.687 Q1895.63 163.289 1895.91 163.008 Q1896.19 162.727 1896.59 162.727 L1926.62 162.727 Q1927.01 162.727 1927.29 163.008 Z" fill="#000000" fill-rule="nonzero" fill-opacity="1" /><path clip-path="url(#clip130)" d="M1984.02 132.211 Q1984.02 133.85 1981.68 133.85 L1976.2 133.85 Q1975.36 137.739 1975.36 141.486 Q1975.36 145.96 1976.74 149.403 Q1977.02 150.082 1977.02 150.457 Q1977.02 151.16 1976.39 151.722 Q1975.78 152.284 1975.05 152.284 Q1974.44 152.284 1974.05 151.815 Q1973.67 151.347 1973.34 149.871 Q1972.95 148.138 1972.95 146.217 Q1972.95 143.922 1973.32 141.72 Q1973.69 139.495 1974.96 133.85 L1969.55 133.85 L1966.86 144.461 Q1965.9 148.044 1965.57 149.145 Q1965.36 149.801 1965.29 150.012 Q1965.22 150.223 1965.01 150.738 Q1964.82 151.23 1964.68 151.417 Q1964.54 151.581 1964.3 151.839 Q1964.07 152.12 1963.79 152.19 Q1963.51 152.284 1963.15 152.284 Q1962.62 152.284 1962.19 151.933 Q1961.77 151.605 1961.77 150.972 Q1961.77 150.551 1962.15 149.825 Q1966.6 140.221 1968.28 133.85 L1965.57 133.85 Q1961.82 133.85 1959.48 137.551 Q1959.1 138.043 1958.89 138.09 Q1958.8 138.113 1958.7 138.113 Q1958.45 138.113 1958.28 137.996 Q1958.14 137.879 1958.14 137.762 L1958.12 137.645 Q1958.12 137.504 1958.47 136.872 Q1958.85 136.216 1959.55 135.209 Q1960.27 134.202 1961.05 133.335 Q1961.8 132.539 1962.52 132.047 Q1963.27 131.532 1963.97 131.344 Q1964.68 131.157 1965.08 131.11 Q1965.47 131.063 1966.04 131.063 L1982.1 131.063 Q1982.71 131.063 1983.04 131.11 Q1983.37 131.133 1983.7 131.415 Q1984.02 131.672 1984.02 132.211 Z" fill="#000000" fill-rule="nonzero" fill-opacity="1" /><path clip-path="url(#clip130)" d="M2006.16 146.194 Q2006.35 146.405 2006.35 146.616 Q2006.35 146.826 2005.88 147.435 Q2005.44 148.044 2004.48 148.864 Q2003.52 149.684 2002.27 150.457 Q2001.03 151.23 1999.21 151.745 Q1997.38 152.284 1995.46 152.284 Q1991.87 152.284 1989.77 149.918 Q1987.68 147.553 1987.68 144.156 Q1987.68 140.854 1989.53 137.692 Q1991.38 134.506 1994.38 132.539 Q1997.38 130.548 2000.54 130.548 Q2003.05 130.548 2004.62 131.719 Q2006.19 132.89 2006.19 134.67 Q2006.19 136.052 2005.39 136.895 Q2004.59 137.739 2003.52 137.739 Q2002.77 137.739 2002.25 137.317 Q2001.74 136.872 2001.74 136.052 Q2001.74 134.998 2002.6 134.178 Q2002.93 133.85 2003.3 133.71 Q2003.7 133.546 2003.94 133.546 Q2004.17 133.523 2004.71 133.523 Q2004.22 132.609 2003.05 132.117 Q2001.9 131.602 2000.59 131.602 Q1998.64 131.602 1996.79 132.96 Q1994.94 134.295 1993.82 136.403 Q1992.69 138.465 1991.97 141.392 Q1991.24 144.297 1991.24 145.983 Q1991.24 148.302 1992.32 149.754 Q1993.4 151.206 1995.55 151.206 Q1995.97 151.206 1996.42 151.183 Q1996.89 151.16 1998.06 150.902 Q1999.25 150.644 2000.31 150.199 Q2001.36 149.754 2002.7 148.794 Q2004.05 147.81 2005.13 146.475 Q2005.51 145.983 2005.76 145.983 Q2005.97 145.983 2006.16 146.194 Z" fill="#000000" fill-rule="nonzero" fill-opacity="1" /><path clip-path="url(#clip130)" d="M1956.12 165.076 L2013.87 165.076 L2013.87 162.516 L1956.12 162.516  Z" fill="#000000" fill-rule="evenodd" fill-opacity="1"/>
<path clip-path="url(#clip130)" d="M1956.12 192.615 Q1956.12 185.073 1959.96 180.459 Q1963.8 175.821 1968.74 175.821 Q1971.62 175.821 1973.22 177.297 Q1974.83 178.749 1974.83 180.998 Q1974.83 182.239 1974.11 182.778 Q1973.38 183.317 1972.63 183.317 Q1971.77 183.317 1971.09 182.731 Q1970.41 182.145 1970.41 181.091 Q1970.41 178.937 1973.05 178.937 Q1971.81 177.016 1968.84 177.016 Q1967.92 177.016 1966.99 177.297 Q1966.05 177.555 1964.83 178.445 Q1963.61 179.335 1962.68 180.74 Q1961.74 182.145 1961.08 184.792 Q1960.43 187.439 1960.43 190.882 L1960.43 192.03 Q1962.4 187.275 1966.42 187.298 Q1970.45 187.298 1973.24 190.367 Q1976.03 193.435 1976.03 197.979 Q1976.03 202.64 1973.12 205.732 Q1970.22 208.824 1966.14 208.824 Q1964.32 208.824 1962.65 208.051 Q1961.01 207.301 1959.47 205.568 Q1957.95 203.835 1957.03 200.509 Q1956.12 197.183 1956.12 192.615 M1960.52 196.925 Q1960.52 201.633 1961.39 203.881 Q1961.53 204.256 1961.83 204.771 Q1962.16 205.287 1962.7 205.966 Q1963.26 206.622 1964.18 207.067 Q1965.09 207.488 1966.14 207.488 Q1969.35 207.488 1970.9 204.373 Q1971.72 202.64 1971.72 197.932 Q1971.72 193.131 1970.85 191.374 Q1969.38 188.399 1966.38 188.399 Q1964.36 188.399 1962.96 189.781 Q1961.58 191.163 1961.04 193.013 Q1960.52 194.864 1960.52 196.925 Z" fill="#000000" fill-rule="nonzero" fill-opacity="1" /><path clip-path="url(#clip130)" d="M2009.03 195.918 Q2009.03 196.058 2008.85 196.597 L2005.05 206.95 Q2004.84 207.559 2004.63 207.676 Q2004.42 207.77 2003.55 207.77 L1981.35 207.77 Q1980.81 207.77 1980.6 207.746 Q1980.39 207.723 1980.22 207.606 Q1980.06 207.488 1980.06 207.231 Q1980.06 206.762 1980.22 206.552 Q1980.41 206.341 1980.62 206.317 Q1980.83 206.294 1981.35 206.294 Q1982.52 206.294 1983.22 206.224 Q1983.93 206.153 1984.37 206.06 Q1984.84 205.943 1985.07 205.615 Q1985.33 205.287 1985.45 205.006 Q1985.57 204.701 1985.73 204.022 L1992.15 178.257 Q1992.33 177.484 1992.33 177.367 Q1992.33 176.922 1992.05 176.805 Q1991.8 176.665 1991.05 176.594 L1989.22 176.501 Q1988.66 176.501 1988.42 176.477 Q1988.21 176.454 1988.05 176.337 Q1987.88 176.22 1987.88 175.962 Q1987.88 175.517 1988.05 175.306 Q1988.24 175.072 1988.38 175.048 Q1988.54 175.002 1988.8 175.002 L1995.17 175.142 L2002.27 175.002 Q2003.04 175.002 2003.04 175.587 Q2003.04 176.243 2002.71 176.383 Q2002.38 176.501 2001.21 176.501 Q1998.96 176.501 1997.93 176.735 Q1996.93 176.969 1996.64 177.367 Q1996.39 177.742 1996.13 178.749 L1989.64 204.654 Q1989.41 205.521 1989.41 205.755 Q1989.41 206.013 1989.52 206.107 Q1989.66 206.177 1990.04 206.224 Q1990.46 206.294 1991.09 206.294 L1995.59 206.294 Q1996.95 206.294 1998.14 206.083 Q1999.34 205.872 2000.25 205.568 Q2001.19 205.263 2002.03 204.701 Q2002.87 204.139 2003.46 203.647 Q2004.07 203.132 2004.65 202.336 Q2005.26 201.516 2005.61 200.954 Q2005.99 200.368 2006.41 199.431 Q2006.83 198.471 2007.04 197.932 Q2007.28 197.37 2007.63 196.41 Q2007.84 195.918 2007.91 195.777 Q2007.98 195.637 2008.1 195.52 Q2008.24 195.403 2008.45 195.403 Q2008.73 195.403 2008.87 195.566 Q2009.03 195.73 2009.03 195.918 Z" fill="#000000" fill-rule="nonzero" fill-opacity="1" /><path clip-path="url(#clip130)" d="M2019.67 174.906 Q2018.99 174.133 2018.99 173.126 Q2018.99 172.119 2019.64 171.37 Q2020.32 170.597 2021.54 170.597 Q2022.97 170.597 2023.79 171.979 Q2024.61 173.337 2024.61 175.632 Q2024.61 178.115 2023.6 180.411 Q2022.6 182.729 2021.61 183.83 Q2020.63 184.931 2020.23 184.931 Q2019.76 184.931 2019.76 184.416 Q2019.76 184.228 2020.09 183.877 Q2023.53 180.176 2023.56 175.632 Q2023.56 174.906 2023.46 174.906 L2023.34 175 Q2022.53 175.679 2021.54 175.679 Q2020.35 175.679 2019.67 174.906 Z" fill="#000000" fill-rule="nonzero" fill-opacity="1" /><path clip-path="url(#clip130)" d="M2070.89 170.128 Q2071.08 170.339 2071.08 170.55 Q2071.08 170.761 2070.61 171.37 Q2070.17 171.979 2069.21 172.798 Q2068.25 173.618 2067 174.391 Q2065.76 175.164 2063.94 175.679 Q2062.11 176.218 2060.19 176.218 Q2056.61 176.218 2054.5 173.852 Q2052.41 171.487 2052.41 168.09 Q2052.41 164.788 2054.26 161.626 Q2056.11 158.44 2059.11 156.473 Q2062.11 154.482 2065.27 154.482 Q2067.78 154.482 2069.35 155.653 Q2070.92 156.824 2070.92 158.604 Q2070.92 159.986 2070.12 160.829 Q2069.32 161.673 2068.25 161.673 Q2067.5 161.673 2066.98 161.251 Q2066.47 160.806 2066.47 159.986 Q2066.47 158.932 2067.33 158.112 Q2067.66 157.785 2068.04 157.644 Q2068.43 157.48 2068.67 157.48 Q2068.9 157.457 2069.44 157.457 Q2068.95 156.543 2067.78 156.051 Q2066.63 155.536 2065.32 155.536 Q2063.37 155.536 2061.52 156.894 Q2059.67 158.23 2058.55 160.338 Q2057.43 162.399 2056.7 165.327 Q2055.97 168.231 2055.97 169.917 Q2055.97 172.236 2057.05 173.688 Q2058.13 175.141 2060.28 175.141 Q2060.7 175.141 2061.15 175.117 Q2061.62 175.094 2062.79 174.836 Q2063.98 174.578 2065.04 174.133 Q2066.09 173.688 2067.43 172.728 Q2068.79 171.744 2069.86 170.409 Q2070.24 169.917 2070.49 169.917 Q2070.71 169.917 2070.89 170.128 Z" fill="#000000" fill-rule="nonzero" fill-opacity="1" /><path clip-path="url(#clip130)" d="M2086.27 168.395 Q2086.31 167.809 2087.23 167.809 L2116.62 167.809 Q2118 167.809 2118.03 168.348 Q2118.03 168.934 2116.72 168.91 L2087.56 168.91 Q2086.27 168.934 2086.27 168.395 M2086.27 159.026 Q2086.27 158.44 2087.27 158.464 L2116.58 158.464 Q2118 158.464 2118.03 159.026 Q2118.03 159.565 2116.81 159.565 L2087.23 159.565 Q2086.27 159.565 2086.27 159.026 Z" fill="#000000" fill-rule="nonzero" fill-opacity="1" /><path clip-path="url(#clip130)" d="M2136.52 148.298 L2136.52 146.799 Q2142.28 146.799 2145.26 143.731 Q2146.07 143.731 2146.22 143.918 Q2146.36 144.106 2146.36 144.972 L2146.36 171.885 Q2146.36 173.314 2147.06 173.759 Q2147.76 174.204 2150.83 174.204 L2152.35 174.204 L2152.35 175.679 Q2150.67 175.539 2144.58 175.539 Q2138.49 175.539 2136.82 175.679 L2136.82 174.204 L2138.35 174.204 Q2141.37 174.204 2142.09 173.782 Q2142.82 173.337 2142.82 171.885 L2142.82 147.034 Q2140.31 148.298 2136.52 148.298 Z" fill="#000000" fill-rule="nonzero" fill-opacity="1" /><path clip-path="url(#clip130)" d="M2156.12 174.906 Q2155.39 174.133 2155.39 173.126 Q2155.39 172.119 2156.12 171.393 Q2156.85 170.643 2157.95 170.643 Q2159 170.643 2159.7 171.346 Q2160.43 172.025 2160.43 173.15 Q2160.43 174.25 2159.66 174.977 Q2158.91 175.679 2157.95 175.679 Q2156.85 175.679 2156.12 174.906 Z" fill="#000000" fill-rule="nonzero" fill-opacity="1" /><path clip-path="url(#clip130)" d="M2168.59 160.338 Q2168.59 153.287 2170.37 149.446 Q2172.85 143.731 2178.71 143.731 Q2179.95 143.731 2181.24 144.082 Q2182.55 144.41 2184.19 145.699 Q2185.85 146.987 2186.86 149.095 Q2188.78 153.17 2188.78 160.338 Q2188.78 167.341 2187 171.159 Q2184.4 176.733 2178.66 176.733 Q2176.51 176.733 2174.31 175.632 Q2172.13 174.532 2170.75 171.885 Q2168.59 167.926 2168.59 160.338 M2172.57 159.752 Q2172.57 166.99 2173.09 169.87 Q2173.67 172.986 2175.27 174.344 Q2176.88 175.679 2178.66 175.679 Q2180.58 175.679 2182.18 174.25 Q2183.79 172.798 2184.28 169.683 Q2184.82 166.615 2184.8 159.752 Q2184.8 153.077 2184.33 150.406 Q2183.7 147.291 2182.01 146.05 Q2180.35 144.785 2178.66 144.785 Q2178.03 144.785 2177.35 144.972 Q2176.69 145.16 2175.73 145.699 Q2174.77 146.237 2174.02 147.572 Q2173.3 148.907 2172.95 150.922 Q2172.57 153.522 2172.57 159.752 Z" fill="#000000" fill-rule="nonzero" fill-opacity="1" /><path clip-path="url(#clip130)" d="M2192.53 160.338 Q2192.53 153.287 2194.31 149.446 Q2196.8 143.731 2202.65 143.731 Q2203.89 143.731 2205.18 144.082 Q2206.49 144.41 2208.13 145.699 Q2209.79 146.987 2210.8 149.095 Q2212.72 153.17 2212.72 160.338 Q2212.72 167.341 2210.94 171.159 Q2208.34 176.733 2202.6 176.733 Q2200.45 176.733 2198.25 175.632 Q2196.07 174.532 2194.69 171.885 Q2192.53 167.926 2192.53 160.338 M2196.51 159.752 Q2196.51 166.99 2197.03 169.87 Q2197.62 172.986 2199.21 174.344 Q2200.82 175.679 2202.6 175.679 Q2204.52 175.679 2206.12 174.25 Q2207.73 172.798 2208.23 169.683 Q2208.76 166.615 2208.74 159.752 Q2208.74 153.077 2208.27 150.406 Q2207.64 147.291 2205.95 146.05 Q2204.29 144.785 2202.6 144.785 Q2201.97 144.785 2201.29 144.972 Q2200.64 145.16 2199.68 145.699 Q2198.72 146.237 2197.97 147.572 Q2197.24 148.907 2196.89 150.922 Q2196.51 153.522 2196.51 159.752 Z" fill="#000000" fill-rule="nonzero" fill-opacity="1" /><path clip-path="url(#clip130)" d="M2216.47 167.95 Q2216.47 166.521 2217.25 165.982 Q2218.02 165.42 2218.84 165.42 Q2219.94 165.42 2220.57 166.123 Q2221.23 166.802 2221.23 167.762 Q2221.23 168.723 2220.57 169.425 Q2219.94 170.105 2218.84 170.105 Q2218.3 170.105 2218.02 170.011 Q2218.65 172.213 2220.57 173.805 Q2222.52 175.398 2225.07 175.398 Q2228.28 175.398 2230.2 172.283 Q2231.35 170.269 2231.35 165.701 Q2231.35 161.673 2230.48 159.658 Q2229.15 156.59 2226.41 156.59 Q2222.52 156.59 2220.22 159.939 Q2219.94 160.361 2219.61 160.384 Q2219.14 160.384 2219.03 160.127 Q2218.93 159.846 2218.93 159.12 L2218.93 144.926 Q2218.93 143.778 2219.4 143.778 Q2219.59 143.778 2219.99 143.918 Q2223.01 145.253 2226.36 145.277 Q2229.8 145.277 2232.89 143.872 Q2233.13 143.731 2233.27 143.731 Q2233.74 143.731 2233.76 144.27 Q2233.76 144.457 2233.36 145.019 Q2232.99 145.558 2232.17 146.284 Q2231.35 146.987 2230.29 147.666 Q2229.24 148.345 2227.69 148.814 Q2226.17 149.259 2224.48 149.259 Q2222.47 149.259 2220.41 148.626 L2220.41 157.972 Q2222.89 155.536 2226.5 155.536 Q2230.34 155.536 2232.99 158.628 Q2235.63 161.719 2235.63 166.029 Q2235.63 170.55 2232.5 173.641 Q2229.38 176.733 2225.16 176.733 Q2221.32 176.733 2218.89 173.993 Q2216.47 171.252 2216.47 167.95 Z" fill="#000000" fill-rule="nonzero" fill-opacity="1" /><path clip-path="url(#clip130)" d="M2237.14 167.762 L2237.14 166.287 L2251.87 143.778 Q2252.25 143.192 2252.83 143.216 Q2253.37 143.216 2253.49 143.427 Q2253.61 143.637 2253.61 144.457 L2253.61 166.287 L2258.41 166.287 L2258.41 167.762 L2253.61 167.762 L2253.61 171.932 Q2253.61 173.314 2254.17 173.759 Q2254.75 174.204 2257.24 174.204 L2258.24 174.204 L2258.24 175.679 Q2256.28 175.539 2251.73 175.539 Q2247.21 175.539 2245.24 175.679 L2245.24 174.204 L2246.25 174.204 Q2248.73 174.204 2249.32 173.782 Q2249.9 173.337 2249.9 171.932 L2249.9 167.762 L2237.14 167.762 M2238.5 166.287 L2250.19 166.287 L2250.19 148.392 L2238.5 166.287 Z" fill="#000000" fill-rule="nonzero" fill-opacity="1" /><circle clip-path="url(#clip130)" cx="1497.26" cy="247.844" r="20.48" fill="#e26f46" fill-rule="evenodd" fill-opacity="1" stroke="#000000" stroke-opacity="1" stroke-width="4.55111"/>
<path clip-path="url(#clip130)" d="M1613.26 260.194 L1613.26 250.911 L1605.62 250.911 L1605.62 247.069 L1617.89 247.069 L1617.89 261.907 Q1615.18 263.828 1611.92 264.823 Q1608.65 265.796 1604.95 265.796 Q1596.85 265.796 1592.27 261.073 Q1587.71 256.328 1587.71 247.879 Q1587.71 239.407 1592.27 234.685 Q1596.85 229.939 1604.95 229.939 Q1608.33 229.939 1611.36 230.773 Q1614.42 231.606 1616.99 233.226 L1616.99 238.203 Q1614.4 236.004 1611.48 234.893 Q1608.56 233.782 1605.34 233.782 Q1599 233.782 1595.81 237.323 Q1592.64 240.865 1592.64 247.879 Q1592.64 254.87 1595.81 258.411 Q1599 261.953 1605.34 261.953 Q1607.82 261.953 1609.77 261.536 Q1611.71 261.096 1613.26 260.194 Z" fill="#000000" fill-rule="nonzero" fill-opacity="1" /><path clip-path="url(#clip130)" d="M1641.27 243.18 Q1640.55 242.763 1639.7 242.578 Q1638.86 242.37 1637.84 242.37 Q1634.23 242.37 1632.29 244.731 Q1630.37 247.069 1630.37 251.467 L1630.37 265.124 L1626.09 265.124 L1626.09 239.198 L1630.37 239.198 L1630.37 243.226 Q1631.71 240.865 1633.86 239.731 Q1636.02 238.573 1639.09 238.573 Q1639.53 238.573 1640.07 238.643 Q1640.6 238.689 1641.25 238.805 L1641.27 243.18 Z" fill="#000000" fill-rule="nonzero" fill-opacity="1" /><path clip-path="url(#clip130)" d="M1654.74 242.185 Q1651.32 242.185 1649.33 244.87 Q1647.33 247.532 1647.33 252.185 Q1647.33 256.837 1649.3 259.522 Q1651.29 262.184 1654.74 262.184 Q1658.15 262.184 1660.14 259.499 Q1662.13 256.814 1662.13 252.185 Q1662.13 247.578 1660.14 244.893 Q1658.15 242.185 1654.74 242.185 M1654.74 238.573 Q1660.3 238.573 1663.47 242.185 Q1666.64 245.796 1666.64 252.185 Q1666.64 258.55 1663.47 262.184 Q1660.3 265.796 1654.74 265.796 Q1649.16 265.796 1645.99 262.184 Q1642.84 258.55 1642.84 252.185 Q1642.84 245.796 1645.99 242.185 Q1649.16 238.573 1654.74 238.573 Z" fill="#000000" fill-rule="nonzero" fill-opacity="1" /><path clip-path="url(#clip130)" d="M1673.26 254.893 L1673.26 239.198 L1677.52 239.198 L1677.52 254.731 Q1677.52 258.411 1678.96 260.263 Q1680.39 262.092 1683.26 262.092 Q1686.71 262.092 1688.7 259.893 Q1690.71 257.694 1690.71 253.897 L1690.71 239.198 L1694.97 239.198 L1694.97 265.124 L1690.71 265.124 L1690.71 261.143 Q1689.16 263.504 1687.1 264.661 Q1685.07 265.796 1682.36 265.796 Q1677.89 265.796 1675.58 263.018 Q1673.26 260.24 1673.26 254.893 M1683.98 238.573 L1683.98 238.573 Z" fill="#000000" fill-rule="nonzero" fill-opacity="1" /><path clip-path="url(#clip130)" d="M1725.3 249.476 L1725.3 265.124 L1721.04 265.124 L1721.04 249.615 Q1721.04 245.935 1719.6 244.106 Q1718.17 242.277 1715.3 242.277 Q1711.85 242.277 1709.86 244.476 Q1707.87 246.675 1707.87 250.472 L1707.87 265.124 L1703.58 265.124 L1703.58 239.198 L1707.87 239.198 L1707.87 243.226 Q1709.39 240.888 1711.45 239.731 Q1713.54 238.573 1716.25 238.573 Q1720.71 238.573 1723.01 241.351 Q1725.3 244.106 1725.3 249.476 Z" fill="#000000" fill-rule="nonzero" fill-opacity="1" /><path clip-path="url(#clip130)" d="M1750.85 243.134 L1750.85 229.106 L1755.11 229.106 L1755.11 265.124 L1750.85 265.124 L1750.85 261.235 Q1749.51 263.55 1747.45 264.684 Q1745.41 265.796 1742.54 265.796 Q1737.84 265.796 1734.88 262.046 Q1731.94 258.296 1731.94 252.185 Q1731.94 246.073 1734.88 242.323 Q1737.84 238.573 1742.54 238.573 Q1745.41 238.573 1747.45 239.708 Q1749.51 240.819 1750.85 243.134 M1736.34 252.185 Q1736.34 256.884 1738.26 259.569 Q1740.2 262.231 1743.58 262.231 Q1746.96 262.231 1748.91 259.569 Q1750.85 256.884 1750.85 252.185 Q1750.85 247.485 1748.91 244.823 Q1746.96 242.138 1743.58 242.138 Q1740.2 242.138 1738.26 244.823 Q1736.34 247.485 1736.34 252.185 Z" fill="#000000" fill-rule="nonzero" fill-opacity="1" /><path clip-path="url(#clip130)" d="M1795.48 239.962 L1795.48 243.99 Q1793.68 243.064 1791.73 242.601 Q1789.79 242.138 1787.7 242.138 Q1784.53 242.138 1782.94 243.11 Q1781.36 244.083 1781.36 246.027 Q1781.36 247.509 1782.5 248.365 Q1783.63 249.198 1787.06 249.962 L1788.51 250.286 Q1793.05 251.259 1794.95 253.041 Q1796.87 254.8 1796.87 257.972 Q1796.87 261.583 1794 263.689 Q1791.15 265.796 1786.15 265.796 Q1784.07 265.796 1781.8 265.379 Q1779.56 264.985 1777.06 264.175 L1777.06 259.777 Q1779.42 261.004 1781.71 261.629 Q1784 262.231 1786.25 262.231 Q1789.26 262.231 1790.88 261.212 Q1792.5 260.171 1792.5 258.296 Q1792.5 256.559 1791.32 255.634 Q1790.16 254.708 1786.2 253.851 L1784.72 253.504 Q1780.76 252.671 1779 250.958 Q1777.24 249.222 1777.24 246.212 Q1777.24 242.555 1779.83 240.564 Q1782.43 238.573 1787.2 238.573 Q1789.56 238.573 1791.64 238.921 Q1793.72 239.268 1795.48 239.962 Z" fill="#000000" fill-rule="nonzero" fill-opacity="1" /><path clip-path="url(#clip130)" d="M1807.87 231.837 L1807.87 239.198 L1816.64 239.198 L1816.64 242.509 L1807.87 242.509 L1807.87 256.583 Q1807.87 259.754 1808.72 260.657 Q1809.6 261.559 1812.26 261.559 L1816.64 261.559 L1816.64 265.124 L1812.26 265.124 Q1807.33 265.124 1805.46 263.296 Q1803.58 261.444 1803.58 256.583 L1803.58 242.509 L1800.46 242.509 L1800.46 239.198 L1803.58 239.198 L1803.58 231.837 L1807.87 231.837 Z" fill="#000000" fill-rule="nonzero" fill-opacity="1" /><path clip-path="url(#clip130)" d="M1834.02 252.092 Q1828.86 252.092 1826.87 253.272 Q1824.88 254.453 1824.88 257.3 Q1824.88 259.569 1826.36 260.911 Q1827.87 262.231 1830.44 262.231 Q1833.98 262.231 1836.11 259.731 Q1838.26 257.208 1838.26 253.041 L1838.26 252.092 L1834.02 252.092 M1842.52 250.333 L1842.52 265.124 L1838.26 265.124 L1838.26 261.189 Q1836.8 263.55 1834.63 264.684 Q1832.45 265.796 1829.3 265.796 Q1825.32 265.796 1822.96 263.573 Q1820.62 261.328 1820.62 257.578 Q1820.62 253.203 1823.54 250.981 Q1826.48 248.759 1832.29 248.759 L1838.26 248.759 L1838.26 248.342 Q1838.26 245.402 1836.32 243.805 Q1834.39 242.185 1830.9 242.185 Q1828.68 242.185 1826.57 242.717 Q1824.46 243.249 1822.52 244.314 L1822.52 240.379 Q1824.86 239.476 1827.06 239.036 Q1829.26 238.573 1831.34 238.573 Q1836.96 238.573 1839.74 241.49 Q1842.52 244.407 1842.52 250.333 Z" fill="#000000" fill-rule="nonzero" fill-opacity="1" /><path clip-path="url(#clip130)" d="M1855.51 231.837 L1855.51 239.198 L1864.28 239.198 L1864.28 242.509 L1855.51 242.509 L1855.51 256.583 Q1855.51 259.754 1856.36 260.657 Q1857.24 261.559 1859.9 261.559 L1864.28 261.559 L1864.28 265.124 L1859.9 265.124 Q1854.97 265.124 1853.1 263.296 Q1851.22 261.444 1851.22 256.583 L1851.22 242.509 L1848.1 242.509 L1848.1 239.198 L1851.22 239.198 L1851.22 231.837 L1855.51 231.837 Z" fill="#000000" fill-rule="nonzero" fill-opacity="1" /><path clip-path="url(#clip130)" d="M1892.06 251.097 L1892.06 253.18 L1872.47 253.18 Q1872.75 257.578 1875.11 259.893 Q1877.5 262.184 1881.73 262.184 Q1884.19 262.184 1886.48 261.583 Q1888.79 260.981 1891.06 259.777 L1891.06 263.805 Q1888.77 264.777 1886.36 265.286 Q1883.95 265.796 1881.48 265.796 Q1875.27 265.796 1871.64 262.184 Q1868.03 258.573 1868.03 252.416 Q1868.03 246.05 1871.45 242.323 Q1874.9 238.573 1880.74 238.573 Q1885.97 238.573 1889 241.953 Q1892.06 245.31 1892.06 251.097 M1887.8 249.847 Q1887.75 246.351 1885.83 244.268 Q1883.93 242.185 1880.78 242.185 Q1877.22 242.185 1875.07 244.198 Q1872.94 246.212 1872.61 249.87 L1887.8 249.847 Z" fill="#000000" fill-rule="nonzero" fill-opacity="1" /><path clip-path="url(#clip130)" d="M1936.29 251.097 L1936.29 253.18 L1916.71 253.18 Q1916.99 257.578 1919.35 259.893 Q1921.73 262.184 1925.97 262.184 Q1928.42 262.184 1930.71 261.583 Q1933.03 260.981 1935.3 259.777 L1935.3 263.805 Q1933 264.777 1930.6 265.286 Q1928.19 265.796 1925.71 265.796 Q1919.51 265.796 1915.88 262.184 Q1912.26 258.573 1912.26 252.416 Q1912.26 246.05 1915.69 242.323 Q1919.14 238.573 1924.97 238.573 Q1930.2 238.573 1933.24 241.953 Q1936.29 245.31 1936.29 251.097 M1932.03 249.847 Q1931.99 246.351 1930.06 244.268 Q1928.17 242.185 1925.02 242.185 Q1921.45 242.185 1919.3 244.198 Q1917.17 246.212 1916.85 249.87 L1932.03 249.847 Z" fill="#000000" fill-rule="nonzero" fill-opacity="1" /><path clip-path="url(#clip130)" d="M1964.83 249.476 L1964.83 265.124 L1960.57 265.124 L1960.57 249.615 Q1960.57 245.935 1959.14 244.106 Q1957.7 242.277 1954.83 242.277 Q1951.38 242.277 1949.39 244.476 Q1947.4 246.675 1947.4 250.472 L1947.4 265.124 L1943.12 265.124 L1943.12 239.198 L1947.4 239.198 L1947.4 243.226 Q1948.93 240.888 1950.99 239.731 Q1953.07 238.573 1955.78 238.573 Q1960.25 238.573 1962.54 241.351 Q1964.83 244.106 1964.83 249.476 Z" fill="#000000" fill-rule="nonzero" fill-opacity="1" /><path clip-path="url(#clip130)" d="M1995.5 251.097 L1995.5 253.18 L1975.92 253.18 Q1976.2 257.578 1978.56 259.893 Q1980.94 262.184 1985.18 262.184 Q1987.63 262.184 1989.93 261.583 Q1992.24 260.981 1994.51 259.777 L1994.51 263.805 Q1992.22 264.777 1989.81 265.286 Q1987.4 265.796 1984.93 265.796 Q1978.72 265.796 1975.09 262.184 Q1971.48 258.573 1971.48 252.416 Q1971.48 246.05 1974.9 242.323 Q1978.35 238.573 1984.19 238.573 Q1989.42 238.573 1992.45 241.953 Q1995.5 245.31 1995.5 251.097 M1991.25 249.847 Q1991.2 246.351 1989.28 244.268 Q1987.38 242.185 1984.23 242.185 Q1980.67 242.185 1978.51 244.198 Q1976.38 246.212 1976.06 249.87 L1991.25 249.847 Z" fill="#000000" fill-rule="nonzero" fill-opacity="1" /><path clip-path="url(#clip130)" d="M2017.52 243.18 Q2016.8 242.763 2015.94 242.578 Q2015.11 242.37 2014.09 242.37 Q2010.48 242.37 2008.54 244.731 Q2006.62 247.069 2006.62 251.467 L2006.62 265.124 L2002.33 265.124 L2002.33 239.198 L2006.62 239.198 L2006.62 243.226 Q2007.96 240.865 2010.11 239.731 Q2012.26 238.573 2015.34 238.573 Q2015.78 238.573 2016.31 238.643 Q2016.85 238.689 2017.5 238.805 L2017.52 243.18 Z" fill="#000000" fill-rule="nonzero" fill-opacity="1" /><path clip-path="url(#clip130)" d="M2038.21 251.86 Q2038.21 247.231 2036.29 244.685 Q2034.39 242.138 2030.94 242.138 Q2027.52 242.138 2025.6 244.685 Q2023.7 247.231 2023.7 251.86 Q2023.7 256.467 2025.6 259.013 Q2027.52 261.559 2030.94 261.559 Q2034.39 261.559 2036.29 259.013 Q2038.21 256.467 2038.21 251.86 M2042.47 261.907 Q2042.47 268.527 2039.53 271.745 Q2036.59 274.985 2030.53 274.985 Q2028.28 274.985 2026.29 274.638 Q2024.3 274.314 2022.43 273.62 L2022.43 269.476 Q2024.3 270.495 2026.13 270.981 Q2027.96 271.467 2029.86 271.467 Q2034.05 271.467 2036.13 269.268 Q2038.21 267.092 2038.21 262.671 L2038.21 260.564 Q2036.89 262.856 2034.83 263.99 Q2032.77 265.124 2029.9 265.124 Q2025.13 265.124 2022.22 261.49 Q2019.3 257.856 2019.3 251.86 Q2019.3 245.842 2022.22 242.208 Q2025.13 238.573 2029.9 238.573 Q2032.77 238.573 2034.83 239.708 Q2036.89 240.842 2038.21 243.134 L2038.21 239.198 L2042.47 239.198 L2042.47 261.907 Z" fill="#000000" fill-rule="nonzero" fill-opacity="1" /><path clip-path="url(#clip130)" d="M2062.03 267.532 Q2060.23 272.161 2058.51 273.573 Q2056.8 274.985 2053.93 274.985 L2050.53 274.985 L2050.53 271.421 L2053.03 271.421 Q2054.79 271.421 2055.76 270.587 Q2056.73 269.754 2057.91 266.652 L2058.68 264.708 L2048.19 239.198 L2052.7 239.198 L2060.8 259.476 L2068.91 239.198 L2073.42 239.198 L2062.03 267.532 Z" fill="#000000" fill-rule="nonzero" fill-opacity="1" /><path clip-path="url(#clip130)" d="M2111.43 243.134 L2111.43 229.106 L2115.69 229.106 L2115.69 265.124 L2111.43 265.124 L2111.43 261.235 Q2110.09 263.55 2108.03 264.684 Q2105.99 265.796 2103.12 265.796 Q2098.42 265.796 2095.46 262.046 Q2092.52 258.296 2092.52 252.185 Q2092.52 246.073 2095.46 242.323 Q2098.42 238.573 2103.12 238.573 Q2105.99 238.573 2108.03 239.708 Q2110.09 240.819 2111.43 243.134 M2096.92 252.185 Q2096.92 256.884 2098.84 259.569 Q2100.78 262.231 2104.16 262.231 Q2107.54 262.231 2109.49 259.569 Q2111.43 256.884 2111.43 252.185 Q2111.43 247.485 2109.49 244.823 Q2107.54 242.138 2104.16 242.138 Q2100.78 242.138 2098.84 244.823 Q2096.92 247.485 2096.92 252.185 Z" fill="#000000" fill-rule="nonzero" fill-opacity="1" /><path clip-path="url(#clip130)" d="M2146.64 251.097 L2146.64 253.18 L2127.05 253.18 Q2127.33 257.578 2129.69 259.893 Q2132.08 262.184 2136.31 262.184 Q2138.77 262.184 2141.06 261.583 Q2143.37 260.981 2145.64 259.777 L2145.64 263.805 Q2143.35 264.777 2140.94 265.286 Q2138.54 265.796 2136.06 265.796 Q2129.86 265.796 2126.22 262.184 Q2122.61 258.573 2122.61 252.416 Q2122.61 246.05 2126.04 242.323 Q2129.49 238.573 2135.32 238.573 Q2140.55 238.573 2143.58 241.953 Q2146.64 245.31 2146.64 251.097 M2142.38 249.847 Q2142.33 246.351 2140.41 244.268 Q2138.51 242.185 2135.36 242.185 Q2131.8 242.185 2129.65 244.198 Q2127.52 246.212 2127.19 249.87 L2142.38 249.847 Z" fill="#000000" fill-rule="nonzero" fill-opacity="1" /><path clip-path="url(#clip130)" d="M2175.18 249.476 L2175.18 265.124 L2170.92 265.124 L2170.92 249.615 Q2170.92 245.935 2169.48 244.106 Q2168.05 242.277 2165.18 242.277 Q2161.73 242.277 2159.74 244.476 Q2157.75 246.675 2157.75 250.472 L2157.75 265.124 L2153.47 265.124 L2153.47 239.198 L2157.75 239.198 L2157.75 243.226 Q2159.28 240.888 2161.34 239.731 Q2163.42 238.573 2166.13 238.573 Q2170.6 238.573 2172.89 241.351 Q2175.18 244.106 2175.18 249.476 Z" fill="#000000" fill-rule="nonzero" fill-opacity="1" /><path clip-path="url(#clip130)" d="M2200.2 239.962 L2200.2 243.99 Q2198.4 243.064 2196.45 242.601 Q2194.51 242.138 2192.42 242.138 Q2189.25 242.138 2187.66 243.11 Q2186.08 244.083 2186.08 246.027 Q2186.08 247.509 2187.22 248.365 Q2188.35 249.198 2191.78 249.962 L2193.23 250.286 Q2197.77 251.259 2199.67 253.041 Q2201.59 254.8 2201.59 257.972 Q2201.59 261.583 2198.72 263.689 Q2195.87 265.796 2190.87 265.796 Q2188.79 265.796 2186.52 265.379 Q2184.28 264.985 2181.78 264.175 L2181.78 259.777 Q2184.14 261.004 2186.43 261.629 Q2188.72 262.231 2190.97 262.231 Q2193.98 262.231 2195.6 261.212 Q2197.22 260.171 2197.22 258.296 Q2197.22 256.559 2196.04 255.634 Q2194.88 254.708 2190.92 253.851 L2189.44 253.504 Q2185.48 252.671 2183.72 250.958 Q2181.96 249.222 2181.96 246.212 Q2181.96 242.555 2184.55 240.564 Q2187.15 238.573 2191.92 238.573 Q2194.28 238.573 2196.36 238.921 Q2198.44 239.268 2200.2 239.962 Z" fill="#000000" fill-rule="nonzero" fill-opacity="1" /><path clip-path="url(#clip130)" d="M2208.37 239.198 L2212.63 239.198 L2212.63 265.124 L2208.37 265.124 L2208.37 239.198 M2208.37 229.106 L2212.63 229.106 L2212.63 234.499 L2208.37 234.499 L2208.37 229.106 Z" fill="#000000" fill-rule="nonzero" fill-opacity="1" /><path clip-path="url(#clip130)" d="M2225.76 231.837 L2225.76 239.198 L2234.53 239.198 L2234.53 242.509 L2225.76 242.509 L2225.76 256.583 Q2225.76 259.754 2226.61 260.657 Q2227.49 261.559 2230.16 261.559 L2234.53 261.559 L2234.53 265.124 L2230.16 265.124 Q2225.23 265.124 2223.35 263.296 Q2221.48 261.444 2221.48 256.583 L2221.48 242.509 L2218.35 242.509 L2218.35 239.198 L2221.48 239.198 L2221.48 231.837 L2225.76 231.837 Z" fill="#000000" fill-rule="nonzero" fill-opacity="1" /><path clip-path="url(#clip130)" d="M2250.92 267.532 Q2249.11 272.161 2247.4 273.573 Q2245.69 274.985 2242.82 274.985 L2239.42 274.985 L2239.42 271.421 L2241.92 271.421 Q2243.67 271.421 2244.65 270.587 Q2245.62 269.754 2246.8 266.652 L2247.56 264.708 L2237.08 239.198 L2241.59 239.198 L2249.69 259.476 L2257.79 239.198 L2262.31 239.198 L2250.92 267.532 Z" fill="#000000" fill-rule="nonzero" fill-opacity="1" /></svg>
