<?xml version="1.0" encoding="utf-8"?>
<svg xmlns="http://www.w3.org/2000/svg" xmlns:xlink="http://www.w3.org/1999/xlink" width="600" height="400" viewBox="0 0 2400 1600">
<defs>
  <clipPath id="clip120">
    <rect x="0" y="0" width="2400" height="1600"/>
  </clipPath>
</defs>
<path clip-path="url(#clip120)" d="M0 1600 L2400 1600 L2400 8.88178e-14 L0 8.88178e-14  Z" fill="#ffffff" fill-rule="evenodd" fill-opacity="1"/>
<defs>
  <clipPath id="clip121">
    <rect x="480" y="0" width="1681" height="1600"/>
  </clipPath>
</defs>
<path clip-path="url(#clip120)" d="M318.014 1415.93 L2352.76 1415.93 L2352.76 47.2441 L318.014 47.2441  Z" fill="#ffffff" fill-rule="evenodd" fill-opacity="1"/>
<defs>
  <clipPath id="clip122">
    <rect x="318" y="47" width="2036" height="1370"/>
  </clipPath>
</defs>
<polyline clip-path="url(#clip122)" style="stroke:#000000; stroke-linecap:round; stroke-linejoin:round; stroke-width:2; stroke-opacity:0.1; fill:none" points="657.138,1415.93 657.138,47.2441 "/>
<polyline clip-path="url(#clip122)" style="stroke:#000000; stroke-linecap:round; stroke-linejoin:round; stroke-width:2; stroke-opacity:0.1; fill:none" points="1117.83,1415.93 1117.83,47.2441 "/>
<polyline clip-path="url(#clip122)" style="stroke:#000000; stroke-linecap:round; stroke-linejoin:round; stroke-width:2; stroke-opacity:0.1; fill:none" points="1578.53,1415.93 1578.53,47.2441 "/>
<polyline clip-path="url(#clip122)" style="stroke:#000000; stroke-linecap:round; stroke-linejoin:round; stroke-width:2; stroke-opacity:0.1; fill:none" points="2039.23,1415.93 2039.23,47.2441 "/>
<polyline clip-path="url(#clip122)" style="stroke:#000000; stroke-linecap:round; stroke-linejoin:round; stroke-width:2; stroke-opacity:0.1; fill:none" points="318.014,1355.14 2352.76,1355.14 "/>
<polyline clip-path="url(#clip122)" style="stroke:#000000; stroke-linecap:round; stroke-linejoin:round; stroke-width:2; stroke-opacity:0.1; fill:none" points="318.014,1123.88 2352.76,1123.88 "/>
<polyline clip-path="url(#clip122)" style="stroke:#000000; stroke-linecap:round; stroke-linejoin:round; stroke-width:2; stroke-opacity:0.1; fill:none" points="318.014,892.618 2352.76,892.618 "/>
<polyline clip-path="url(#clip122)" style="stroke:#000000; stroke-linecap:round; stroke-linejoin:round; stroke-width:2; stroke-opacity:0.1; fill:none" points="318.014,661.355 2352.76,661.355 "/>
<polyline clip-path="url(#clip122)" style="stroke:#000000; stroke-linecap:round; stroke-linejoin:round; stroke-width:2; stroke-opacity:0.1; fill:none" points="318.014,430.092 2352.76,430.092 "/>
<polyline clip-path="url(#clip122)" style="stroke:#000000; stroke-linecap:round; stroke-linejoin:round; stroke-width:2; stroke-opacity:0.1; fill:none" points="318.014,198.828 2352.76,198.828 "/>
<polyline clip-path="url(#clip120)" style="stroke:#000000; stroke-linecap:round; stroke-linejoin:round; stroke-width:4; stroke-opacity:1; fill:none" points="318.014,1415.93 2352.76,1415.93 "/>
<polyline clip-path="url(#clip120)" style="stroke:#000000; stroke-linecap:round; stroke-linejoin:round; stroke-width:4; stroke-opacity:1; fill:none" points="657.138,1415.93 657.138,1397.04 "/>
<polyline clip-path="url(#clip120)" style="stroke:#000000; stroke-linecap:round; stroke-linejoin:round; stroke-width:4; stroke-opacity:1; fill:none" points="1117.83,1415.93 1117.83,1397.04 "/>
<polyline clip-path="url(#clip120)" style="stroke:#000000; stroke-linecap:round; stroke-linejoin:round; stroke-width:4; stroke-opacity:1; fill:none" points="1578.53,1415.93 1578.53,1397.04 "/>
<polyline clip-path="url(#clip120)" style="stroke:#000000; stroke-linecap:round; stroke-linejoin:round; stroke-width:4; stroke-opacity:1; fill:none" points="2039.23,1415.93 2039.23,1397.04 "/>
<path clip-path="url(#clip120)" d="M604.36 1446.85 Q600.749 1446.85 598.92 1450.42 Q597.115 1453.96 597.115 1461.09 Q597.115 1468.19 598.92 1471.76 Q600.749 1475.3 604.36 1475.3 Q607.994 1475.3 609.8 1471.76 Q611.629 1468.19 611.629 1461.09 Q611.629 1453.96 609.8 1450.42 Q607.994 1446.85 604.36 1446.85 M604.36 1443.15 Q610.17 1443.15 613.226 1447.75 Q616.304 1452.34 616.304 1461.09 Q616.304 1469.81 613.226 1474.42 Q610.17 1479 604.36 1479 Q598.55 1479 595.471 1474.42 Q592.416 1469.81 592.416 1461.09 Q592.416 1452.34 595.471 1447.75 Q598.55 1443.15 604.36 1443.15 Z" fill="#000000" fill-rule="nonzero" fill-opacity="1" /><path clip-path="url(#clip120)" d="M624.522 1472.45 L629.406 1472.45 L629.406 1478.33 L624.522 1478.33 L624.522 1472.45 Z" fill="#000000" fill-rule="nonzero" fill-opacity="1" /><path clip-path="url(#clip120)" d="M649.591 1446.85 Q645.98 1446.85 644.152 1450.42 Q642.346 1453.96 642.346 1461.09 Q642.346 1468.19 644.152 1471.76 Q645.98 1475.3 649.591 1475.3 Q653.226 1475.3 655.031 1471.76 Q656.86 1468.19 656.86 1461.09 Q656.86 1453.96 655.031 1450.42 Q653.226 1446.85 649.591 1446.85 M649.591 1443.15 Q655.401 1443.15 658.457 1447.75 Q661.536 1452.34 661.536 1461.09 Q661.536 1469.81 658.457 1474.42 Q655.401 1479 649.591 1479 Q643.781 1479 640.702 1474.42 Q637.647 1469.81 637.647 1461.09 Q637.647 1452.34 640.702 1447.75 Q643.781 1443.15 649.591 1443.15 Z" fill="#000000" fill-rule="nonzero" fill-opacity="1" /><path clip-path="url(#clip120)" d="M670.563 1474.4 L678.202 1474.4 L678.202 1448.03 L669.892 1449.7 L669.892 1445.44 L678.156 1443.77 L682.832 1443.77 L682.832 1474.4 L690.471 1474.4 L690.471 1478.33 L670.563 1478.33 L670.563 1474.4 Z" fill="#000000" fill-rule="nonzero" fill-opacity="1" /><path clip-path="url(#clip120)" d="M709.915 1446.85 Q706.304 1446.85 704.475 1450.42 Q702.67 1453.96 702.67 1461.09 Q702.67 1468.19 704.475 1471.76 Q706.304 1475.3 709.915 1475.3 Q713.549 1475.3 715.355 1471.76 Q717.184 1468.19 717.184 1461.09 Q717.184 1453.96 715.355 1450.42 Q713.549 1446.85 709.915 1446.85 M709.915 1443.15 Q715.725 1443.15 718.781 1447.75 Q721.859 1452.34 721.859 1461.09 Q721.859 1469.81 718.781 1474.42 Q715.725 1479 709.915 1479 Q704.105 1479 701.026 1474.42 Q697.971 1469.81 697.971 1461.09 Q697.971 1452.34 701.026 1447.75 Q704.105 1443.15 709.915 1443.15 Z" fill="#000000" fill-rule="nonzero" fill-opacity="1" /><path clip-path="url(#clip120)" d="M1065.55 1446.85 Q1061.94 1446.85 1060.11 1450.42 Q1058.31 1453.96 1058.31 1461.09 Q1058.31 1468.19 1060.11 1471.76 Q1061.94 1475.3 1065.55 1475.3 Q1069.19 1475.3 1070.99 1471.76 Q1072.82 1468.19 1072.82 1461.09 Q1072.82 1453.96 1070.99 1450.42 Q1069.19 1446.85 1065.55 1446.85 M1065.55 1443.15 Q1071.36 1443.15 1074.42 1447.75 Q1077.5 1452.34 1077.5 1461.09 Q1077.5 1469.81 1074.42 1474.42 Q1071.36 1479 1065.55 1479 Q1059.74 1479 1056.67 1474.42 Q1053.61 1469.81 1053.61 1461.09 Q1053.61 1452.34 1056.67 1447.75 Q1059.74 1443.15 1065.55 1443.15 Z" fill="#000000" fill-rule="nonzero" fill-opacity="1" /><path clip-path="url(#clip120)" d="M1085.72 1472.45 L1090.6 1472.45 L1090.6 1478.33 L1085.72 1478.33 L1085.72 1472.45 Z" fill="#000000" fill-rule="nonzero" fill-opacity="1" /><path clip-path="url(#clip120)" d="M1110.79 1446.85 Q1107.17 1446.85 1105.35 1450.42 Q1103.54 1453.96 1103.54 1461.09 Q1103.54 1468.19 1105.35 1471.76 Q1107.17 1475.3 1110.79 1475.3 Q1114.42 1475.3 1116.23 1471.76 Q1118.05 1468.19 1118.05 1461.09 Q1118.05 1453.96 1116.23 1450.42 Q1114.42 1446.85 1110.79 1446.85 M1110.79 1443.15 Q1116.6 1443.15 1119.65 1447.75 Q1122.73 1452.34 1122.73 1461.09 Q1122.73 1469.81 1119.65 1474.42 Q1116.6 1479 1110.79 1479 Q1104.98 1479 1101.9 1474.42 Q1098.84 1469.81 1098.84 1461.09 Q1098.84 1452.34 1101.9 1447.75 Q1104.98 1443.15 1110.79 1443.15 Z" fill="#000000" fill-rule="nonzero" fill-opacity="1" /><path clip-path="url(#clip120)" d="M1131.76 1474.4 L1139.4 1474.4 L1139.4 1448.03 L1131.09 1449.7 L1131.09 1445.44 L1139.35 1443.77 L1144.03 1443.77 L1144.03 1474.4 L1151.66 1474.4 L1151.66 1478.33 L1131.76 1478.33 L1131.76 1474.4 Z" fill="#000000" fill-rule="nonzero" fill-opacity="1" /><path clip-path="url(#clip120)" d="M1161.16 1443.77 L1179.51 1443.77 L1179.51 1447.71 L1165.44 1447.71 L1165.44 1456.18 Q1166.46 1455.83 1167.47 1455.67 Q1168.49 1455.49 1169.51 1455.49 Q1175.3 1455.49 1178.68 1458.66 Q1182.06 1461.83 1182.06 1467.24 Q1182.06 1472.82 1178.59 1475.93 Q1175.11 1479 1168.79 1479 Q1166.62 1479 1164.35 1478.63 Q1162.1 1478.26 1159.7 1477.52 L1159.7 1472.82 Q1161.78 1473.96 1164 1474.51 Q1166.22 1475.07 1168.7 1475.07 Q1172.71 1475.07 1175.04 1472.96 Q1177.38 1470.86 1177.38 1467.24 Q1177.38 1463.63 1175.04 1461.53 Q1172.71 1459.42 1168.7 1459.42 Q1166.83 1459.42 1164.95 1459.84 Q1163.1 1460.25 1161.16 1461.13 L1161.16 1443.77 Z" fill="#000000" fill-rule="nonzero" fill-opacity="1" /><path clip-path="url(#clip120)" d="M1525.75 1446.85 Q1522.14 1446.85 1520.31 1450.42 Q1518.51 1453.96 1518.51 1461.09 Q1518.51 1468.19 1520.31 1471.76 Q1522.14 1475.3 1525.75 1475.3 Q1529.39 1475.3 1531.19 1471.76 Q1533.02 1468.19 1533.02 1461.09 Q1533.02 1453.96 1531.19 1450.42 Q1529.39 1446.85 1525.75 1446.85 M1525.75 1443.15 Q1531.56 1443.15 1534.62 1447.75 Q1537.7 1452.34 1537.7 1461.09 Q1537.7 1469.81 1534.62 1474.42 Q1531.56 1479 1525.75 1479 Q1519.94 1479 1516.86 1474.42 Q1513.81 1469.81 1513.81 1461.09 Q1513.81 1452.34 1516.86 1447.75 Q1519.94 1443.15 1525.75 1443.15 Z" fill="#000000" fill-rule="nonzero" fill-opacity="1" /><path clip-path="url(#clip120)" d="M1545.91 1472.45 L1550.8 1472.45 L1550.8 1478.33 L1545.91 1478.33 L1545.91 1472.45 Z" fill="#000000" fill-rule="nonzero" fill-opacity="1" /><path clip-path="url(#clip120)" d="M1570.98 1446.85 Q1567.37 1446.85 1565.54 1450.42 Q1563.74 1453.96 1563.74 1461.09 Q1563.74 1468.19 1565.54 1471.76 Q1567.37 1475.3 1570.98 1475.3 Q1574.62 1475.3 1576.42 1471.76 Q1578.25 1468.19 1578.25 1461.09 Q1578.25 1453.96 1576.42 1450.42 Q1574.62 1446.85 1570.98 1446.85 M1570.98 1443.15 Q1576.79 1443.15 1579.85 1447.75 Q1582.93 1452.34 1582.93 1461.09 Q1582.93 1469.81 1579.85 1474.42 Q1576.79 1479 1570.98 1479 Q1565.17 1479 1562.1 1474.42 Q1559.04 1469.81 1559.04 1461.09 Q1559.04 1452.34 1562.1 1447.75 Q1565.17 1443.15 1570.98 1443.15 Z" fill="#000000" fill-rule="nonzero" fill-opacity="1" /><path clip-path="url(#clip120)" d="M1595.17 1474.4 L1611.49 1474.4 L1611.49 1478.33 L1589.55 1478.33 L1589.55 1474.4 Q1592.21 1471.64 1596.79 1467.01 Q1601.4 1462.36 1602.58 1461.02 Q1604.83 1458.49 1605.71 1456.76 Q1606.61 1455 1606.61 1453.31 Q1606.61 1450.56 1604.66 1448.82 Q1602.74 1447.08 1599.64 1447.08 Q1597.44 1447.08 1594.99 1447.85 Q1592.56 1448.61 1589.78 1450.16 L1589.78 1445.44 Q1592.6 1444.31 1595.06 1443.73 Q1597.51 1443.15 1599.55 1443.15 Q1604.92 1443.15 1608.11 1445.83 Q1611.31 1448.52 1611.31 1453.01 Q1611.31 1455.14 1610.5 1457.06 Q1609.71 1458.96 1607.6 1461.55 Q1607.03 1462.22 1603.92 1465.44 Q1600.82 1468.63 1595.17 1474.4 Z" fill="#000000" fill-rule="nonzero" fill-opacity="1" /><path clip-path="url(#clip120)" d="M1631.31 1446.85 Q1627.7 1446.85 1625.87 1450.42 Q1624.06 1453.96 1624.06 1461.09 Q1624.06 1468.19 1625.87 1471.76 Q1627.7 1475.3 1631.31 1475.3 Q1634.94 1475.3 1636.75 1471.76 Q1638.58 1468.19 1638.58 1461.09 Q1638.58 1453.96 1636.75 1450.42 Q1634.94 1446.85 1631.31 1446.85 M1631.31 1443.15 Q1637.12 1443.15 1640.17 1447.75 Q1643.25 1452.34 1643.25 1461.09 Q1643.25 1469.81 1640.17 1474.42 Q1637.12 1479 1631.31 1479 Q1625.5 1479 1622.42 1474.42 Q1619.36 1469.81 1619.36 1461.09 Q1619.36 1452.34 1622.42 1447.75 Q1625.5 1443.15 1631.31 1443.15 Z" fill="#000000" fill-rule="nonzero" fill-opacity="1" /><path clip-path="url(#clip120)" d="M1986.95 1446.85 Q1983.34 1446.85 1981.51 1450.42 Q1979.7 1453.96 1979.7 1461.09 Q1979.7 1468.19 1981.51 1471.76 Q1983.34 1475.3 1986.95 1475.3 Q1990.58 1475.3 1992.39 1471.76 Q1994.22 1468.19 1994.22 1461.09 Q1994.22 1453.96 1992.39 1450.42 Q1990.58 1446.85 1986.95 1446.85 M1986.95 1443.15 Q1992.76 1443.15 1995.81 1447.75 Q1998.89 1452.34 1998.89 1461.09 Q1998.89 1469.81 1995.81 1474.42 Q1992.76 1479 1986.95 1479 Q1981.14 1479 1978.06 1474.42 Q1975 1469.81 1975 1461.09 Q1975 1452.34 1978.06 1447.75 Q1981.14 1443.15 1986.95 1443.15 Z" fill="#000000" fill-rule="nonzero" fill-opacity="1" /><path clip-path="url(#clip120)" d="M2007.11 1472.45 L2011.99 1472.45 L2011.99 1478.33 L2007.11 1478.33 L2007.11 1472.45 Z" fill="#000000" fill-rule="nonzero" fill-opacity="1" /><path clip-path="url(#clip120)" d="M2032.18 1446.85 Q2028.57 1446.85 2026.74 1450.42 Q2024.93 1453.96 2024.93 1461.09 Q2024.93 1468.19 2026.74 1471.76 Q2028.57 1475.3 2032.18 1475.3 Q2035.81 1475.3 2037.62 1471.76 Q2039.45 1468.19 2039.45 1461.09 Q2039.45 1453.96 2037.62 1450.42 Q2035.81 1446.85 2032.18 1446.85 M2032.18 1443.15 Q2037.99 1443.15 2041.04 1447.75 Q2044.12 1452.34 2044.12 1461.09 Q2044.12 1469.81 2041.04 1474.42 Q2037.99 1479 2032.18 1479 Q2026.37 1479 2023.29 1474.42 Q2020.23 1469.81 2020.23 1461.09 Q2020.23 1452.34 2023.29 1447.75 Q2026.37 1443.15 2032.18 1443.15 Z" fill="#000000" fill-rule="nonzero" fill-opacity="1" /><path clip-path="url(#clip120)" d="M2056.37 1474.4 L2072.69 1474.4 L2072.69 1478.33 L2050.74 1478.33 L2050.74 1474.4 Q2053.4 1471.64 2057.99 1467.01 Q2062.59 1462.36 2063.77 1461.02 Q2066.02 1458.49 2066.9 1456.76 Q2067.8 1455 2067.8 1453.31 Q2067.8 1450.56 2065.86 1448.82 Q2063.94 1447.08 2060.84 1447.08 Q2058.64 1447.08 2056.18 1447.85 Q2053.75 1448.61 2050.97 1450.16 L2050.97 1445.44 Q2053.8 1444.31 2056.25 1443.73 Q2058.71 1443.15 2060.74 1443.15 Q2066.11 1443.15 2069.31 1445.83 Q2072.5 1448.52 2072.5 1453.01 Q2072.5 1455.14 2071.69 1457.06 Q2070.9 1458.96 2068.8 1461.55 Q2068.22 1462.22 2065.12 1465.44 Q2062.02 1468.63 2056.37 1474.4 Z" fill="#000000" fill-rule="nonzero" fill-opacity="1" /><path clip-path="url(#clip120)" d="M2082.55 1443.77 L2100.9 1443.77 L2100.9 1447.71 L2086.83 1447.71 L2086.83 1456.18 Q2087.85 1455.83 2088.87 1455.67 Q2089.89 1455.49 2090.9 1455.49 Q2096.69 1455.49 2100.07 1458.66 Q2103.45 1461.83 2103.45 1467.24 Q2103.45 1472.82 2099.98 1475.93 Q2096.51 1479 2090.19 1479 Q2088.01 1479 2085.74 1478.63 Q2083.5 1478.26 2081.09 1477.52 L2081.09 1472.82 Q2083.17 1473.96 2085.4 1474.51 Q2087.62 1475.07 2090.09 1475.07 Q2094.1 1475.07 2096.44 1472.96 Q2098.77 1470.86 2098.77 1467.24 Q2098.77 1463.63 2096.44 1461.53 Q2094.1 1459.42 2090.09 1459.42 Q2088.22 1459.42 2086.34 1459.84 Q2084.49 1460.25 2082.55 1461.13 L2082.55 1443.77 Z" fill="#000000" fill-rule="nonzero" fill-opacity="1" /><path clip-path="url(#clip120)" d="M1266.83 1523.86 L1266.83 1521.8 Q1274.75 1521.8 1278.84 1517.58 Q1279.97 1517.58 1280.16 1517.83 Q1280.35 1518.09 1280.35 1519.28 L1280.35 1556.29 Q1280.35 1558.25 1281.32 1558.86 Q1282.29 1559.48 1286.5 1559.48 L1288.6 1559.48 L1288.6 1561.51 Q1286.28 1561.31 1277.91 1561.31 Q1269.53 1561.31 1267.25 1561.51 L1267.25 1559.48 L1269.34 1559.48 Q1273.49 1559.48 1274.49 1558.9 Q1275.49 1558.28 1275.49 1556.29 L1275.49 1522.12 Q1272.04 1523.86 1266.83 1523.86 Z" fill="#000000" fill-rule="nonzero" fill-opacity="1" /><path clip-path="url(#clip120)" d="M1299.49 1577.06 Q1299.49 1576.74 1299.75 1576.03 L1323.03 1513.81 Q1323.03 1513.74 1323.19 1513.39 Q1323.36 1513.04 1323.45 1512.81 Q1323.55 1512.55 1323.74 1512.36 Q1323.97 1512.17 1324.23 1512.17 Q1324.87 1512.17 1324.87 1512.97 Q1324.87 1513.04 1324.68 1513.81 L1301.33 1576.09 Q1300.94 1577.22 1300.68 1577.54 Q1300.46 1577.87 1300.07 1577.87 Q1299.49 1577.87 1299.49 1577.06 Z" fill="#000000" fill-rule="nonzero" fill-opacity="1" /><path clip-path="url(#clip120)" d="M1371.99 1545.21 Q1371.99 1545.4 1371.74 1546.14 L1366.52 1560.38 Q1366.23 1561.22 1365.94 1561.38 Q1365.65 1561.51 1364.46 1561.51 L1333.93 1561.51 Q1333.19 1561.51 1332.9 1561.47 Q1332.61 1561.44 1332.38 1561.28 Q1332.16 1561.12 1332.16 1560.76 Q1332.16 1560.12 1332.38 1559.83 Q1332.64 1559.54 1332.93 1559.51 Q1333.22 1559.48 1333.93 1559.48 Q1335.54 1559.48 1336.5 1559.38 Q1337.47 1559.28 1338.08 1559.15 Q1338.73 1558.99 1339.05 1558.54 Q1339.4 1558.09 1339.56 1557.7 Q1339.72 1557.29 1339.95 1556.35 L1348.77 1520.93 Q1349.03 1519.86 1349.03 1519.7 Q1349.03 1519.09 1348.64 1518.93 Q1348.29 1518.74 1347.26 1518.64 L1344.75 1518.51 Q1343.97 1518.51 1343.65 1518.48 Q1343.36 1518.45 1343.14 1518.28 Q1342.91 1518.12 1342.91 1517.77 Q1342.91 1517.16 1343.14 1516.87 Q1343.39 1516.55 1343.59 1516.51 Q1343.81 1516.45 1344.17 1516.45 L1352.93 1516.64 L1362.69 1516.45 Q1363.75 1516.45 1363.75 1517.25 Q1363.75 1518.16 1363.3 1518.35 Q1362.85 1518.51 1361.24 1518.51 Q1358.15 1518.51 1356.73 1518.83 Q1355.34 1519.15 1354.96 1519.7 Q1354.6 1520.22 1354.25 1521.6 L1345.33 1557.22 Q1345.01 1558.41 1345.01 1558.74 Q1345.01 1559.09 1345.17 1559.22 Q1345.36 1559.32 1345.87 1559.38 Q1346.45 1559.48 1347.32 1559.48 L1353.51 1559.48 Q1355.38 1559.48 1357.02 1559.19 Q1358.66 1558.9 1359.92 1558.48 Q1361.2 1558.06 1362.36 1557.29 Q1363.52 1556.51 1364.33 1555.84 Q1365.17 1555.13 1365.97 1554.03 Q1366.81 1552.91 1367.29 1552.13 Q1367.81 1551.33 1368.39 1550.04 Q1368.97 1548.72 1369.26 1547.98 Q1369.58 1547.21 1370.06 1545.89 Q1370.35 1545.21 1370.45 1545.02 Q1370.54 1544.82 1370.71 1544.66 Q1370.9 1544.5 1371.19 1544.5 Q1371.58 1544.5 1371.77 1544.73 Q1371.99 1544.95 1371.99 1545.21 Z" fill="#000000" fill-rule="nonzero" fill-opacity="1" /><path clip-path="url(#clip120)" d="M1378.65 1526.02 Q1378.65 1525.18 1378.72 1524.94 Q1378.81 1524.69 1379.17 1524.31 L1388.03 1514.43 Q1392.87 1508.98 1392.87 1504.22 Q1392.87 1501.13 1391.25 1498.92 Q1389.65 1496.71 1386.7 1496.71 Q1384.67 1496.71 1382.95 1497.95 Q1381.24 1499.19 1380.45 1501.4 Q1380.59 1501.36 1381.06 1501.36 Q1382.21 1501.36 1382.84 1502.08 Q1383.5 1502.8 1383.5 1503.77 Q1383.5 1505.01 1382.68 1505.62 Q1381.89 1506.2 1381.11 1506.2 Q1380.79 1506.2 1380.36 1506.13 Q1379.96 1506.07 1379.3 1505.44 Q1378.65 1504.78 1378.65 1503.63 Q1378.65 1500.41 1381.08 1497.84 Q1383.54 1495.27 1387.28 1495.27 Q1391.52 1495.27 1394.29 1497.79 Q1397.09 1500.3 1397.09 1504.22 Q1397.09 1505.59 1396.66 1506.86 Q1396.26 1508.1 1395.69 1509.07 Q1395.15 1510.03 1393.66 1511.59 Q1392.17 1513.15 1390.98 1514.25 Q1389.78 1515.36 1387.1 1517.7 L1382.21 1522.46 L1390.53 1522.46 Q1394.59 1522.46 1394.9 1522.1 Q1395.35 1521.44 1395.92 1517.99 L1397.09 1517.99 L1395.78 1526.02 L1378.65 1526.02 Z" fill="#000000" fill-rule="nonzero" fill-opacity="1" /><polyline clip-path="url(#clip120)" style="stroke:#000000; stroke-linecap:round; stroke-linejoin:round; stroke-width:4; stroke-opacity:1; fill:none" points="318.014,1415.93 318.014,47.2441 "/>
<polyline clip-path="url(#clip120)" style="stroke:#000000; stroke-linecap:round; stroke-linejoin:round; stroke-width:4; stroke-opacity:1; fill:none" points="318.014,1355.14 336.912,1355.14 "/>
<polyline clip-path="url(#clip120)" style="stroke:#000000; stroke-linecap:round; stroke-linejoin:round; stroke-width:4; stroke-opacity:1; fill:none" points="318.014,1123.88 336.912,1123.88 "/>
<polyline clip-path="url(#clip120)" style="stroke:#000000; stroke-linecap:round; stroke-linejoin:round; stroke-width:4; stroke-opacity:1; fill:none" points="318.014,892.618 336.912,892.618 "/>
<polyline clip-path="url(#clip120)" style="stroke:#000000; stroke-linecap:round; stroke-linejoin:round; stroke-width:4; stroke-opacity:1; fill:none" points="318.014,661.355 336.912,661.355 "/>
<polyline clip-path="url(#clip120)" style="stroke:#000000; stroke-linecap:round; stroke-linejoin:round; stroke-width:4; stroke-opacity:1; fill:none" points="318.014,430.092 336.912,430.092 "/>
<polyline clip-path="url(#clip120)" style="stroke:#000000; stroke-linecap:round; stroke-linejoin:round; stroke-width:4; stroke-opacity:1; fill:none" points="318.014,198.828 336.912,198.828 "/>
<path clip-path="url(#clip120)" d="M115.649 1355.6 L145.325 1355.6 L145.325 1359.53 L115.649 1359.53 L115.649 1355.6 Z" fill="#000000" fill-rule="nonzero" fill-opacity="1" /><path clip-path="url(#clip120)" d="M165.417 1340.94 Q161.806 1340.94 159.978 1344.51 Q158.172 1348.05 158.172 1355.18 Q158.172 1362.29 159.978 1365.85 Q161.806 1369.39 165.417 1369.39 Q169.052 1369.39 170.857 1365.85 Q172.686 1362.29 172.686 1355.18 Q172.686 1348.05 170.857 1344.51 Q169.052 1340.94 165.417 1340.94 M165.417 1337.24 Q171.227 1337.24 174.283 1341.85 Q177.362 1346.43 177.362 1355.18 Q177.362 1363.91 174.283 1368.51 Q171.227 1373.1 165.417 1373.1 Q159.607 1373.1 156.528 1368.51 Q153.473 1363.91 153.473 1355.18 Q153.473 1346.43 156.528 1341.85 Q159.607 1337.24 165.417 1337.24 Z" fill="#000000" fill-rule="nonzero" fill-opacity="1" /><path clip-path="url(#clip120)" d="M185.579 1366.54 L190.463 1366.54 L190.463 1372.42 L185.579 1372.42 L185.579 1366.54 Z" fill="#000000" fill-rule="nonzero" fill-opacity="1" /><path clip-path="url(#clip120)" d="M200.787 1371.71 L200.787 1367.45 Q202.547 1368.28 204.352 1368.72 Q206.158 1369.16 207.894 1369.16 Q212.524 1369.16 214.954 1366.06 Q217.408 1362.93 217.755 1356.59 Q216.412 1358.58 214.352 1359.65 Q212.292 1360.71 209.792 1360.71 Q204.607 1360.71 201.575 1357.59 Q198.565 1354.44 198.565 1349 Q198.565 1343.67 201.713 1340.46 Q204.862 1337.24 210.093 1337.24 Q216.088 1337.24 219.236 1341.85 Q222.408 1346.43 222.408 1355.18 Q222.408 1363.35 218.519 1368.23 Q214.653 1373.1 208.102 1373.1 Q206.343 1373.1 204.537 1372.75 Q202.732 1372.4 200.787 1371.71 M210.093 1357.05 Q213.241 1357.05 215.07 1354.9 Q216.922 1352.75 216.922 1349 Q216.922 1345.27 215.07 1343.12 Q213.241 1340.94 210.093 1340.94 Q206.945 1340.94 205.093 1343.12 Q203.264 1345.27 203.264 1349 Q203.264 1352.75 205.093 1354.9 Q206.945 1357.05 210.093 1357.05 Z" fill="#000000" fill-rule="nonzero" fill-opacity="1" /><path clip-path="url(#clip120)" d="M244.977 1353.79 Q248.334 1354.51 250.209 1356.78 Q252.107 1359.04 252.107 1362.38 Q252.107 1367.49 248.588 1370.29 Q245.07 1373.1 238.588 1373.1 Q236.412 1373.1 234.097 1372.66 Q231.806 1372.24 229.352 1371.38 L229.352 1366.87 Q231.297 1368 233.611 1368.58 Q235.926 1369.16 238.449 1369.16 Q242.847 1369.16 245.139 1367.42 Q247.454 1365.69 247.454 1362.38 Q247.454 1359.32 245.301 1357.61 Q243.172 1355.87 239.352 1355.87 L235.324 1355.87 L235.324 1352.03 L239.537 1352.03 Q242.986 1352.03 244.815 1350.67 Q246.644 1349.28 246.644 1346.68 Q246.644 1344.02 244.746 1342.61 Q242.871 1341.17 239.352 1341.17 Q237.431 1341.17 235.232 1341.59 Q233.033 1342.01 230.394 1342.89 L230.394 1338.72 Q233.056 1337.98 235.371 1337.61 Q237.709 1337.24 239.769 1337.24 Q245.093 1337.24 248.195 1339.67 Q251.296 1342.08 251.296 1346.2 Q251.296 1349.07 249.653 1351.06 Q248.009 1353.03 244.977 1353.79 Z" fill="#000000" fill-rule="nonzero" fill-opacity="1" /><path clip-path="url(#clip120)" d="M259.792 1337.86 L282.014 1337.86 L282.014 1339.86 L269.468 1372.42 L264.583 1372.42 L276.389 1341.8 L259.792 1341.8 L259.792 1337.86 Z" fill="#000000" fill-rule="nonzero" fill-opacity="1" /><path clip-path="url(#clip120)" d="M114.584 1124.33 L144.26 1124.33 L144.26 1128.27 L114.584 1128.27 L114.584 1124.33 Z" fill="#000000" fill-rule="nonzero" fill-opacity="1" /><path clip-path="url(#clip120)" d="M164.352 1109.68 Q160.741 1109.68 158.913 1113.24 Q157.107 1116.79 157.107 1123.92 Q157.107 1131.02 158.913 1134.59 Q160.741 1138.13 164.352 1138.13 Q167.987 1138.13 169.792 1134.59 Q171.621 1131.02 171.621 1123.92 Q171.621 1116.79 169.792 1113.24 Q167.987 1109.68 164.352 1109.68 M164.352 1105.98 Q170.163 1105.98 173.218 1110.58 Q176.297 1115.17 176.297 1123.92 Q176.297 1132.64 173.218 1137.25 Q170.163 1141.83 164.352 1141.83 Q158.542 1141.83 155.464 1137.25 Q152.408 1132.64 152.408 1123.92 Q152.408 1115.17 155.464 1110.58 Q158.542 1105.98 164.352 1105.98 Z" fill="#000000" fill-rule="nonzero" fill-opacity="1" /><path clip-path="url(#clip120)" d="M184.514 1135.28 L189.399 1135.28 L189.399 1141.16 L184.514 1141.16 L184.514 1135.28 Z" fill="#000000" fill-rule="nonzero" fill-opacity="1" /><path clip-path="url(#clip120)" d="M199.723 1140.44 L199.723 1136.18 Q201.482 1137.02 203.287 1137.46 Q205.093 1137.9 206.829 1137.9 Q211.459 1137.9 213.889 1134.8 Q216.343 1131.67 216.69 1125.33 Q215.348 1127.32 213.287 1128.38 Q211.227 1129.45 208.727 1129.45 Q203.542 1129.45 200.51 1126.32 Q197.5 1123.18 197.5 1117.74 Q197.5 1112.41 200.649 1109.19 Q203.797 1105.98 209.028 1105.98 Q215.024 1105.98 218.172 1110.58 Q221.343 1115.17 221.343 1123.92 Q221.343 1132.09 217.454 1136.97 Q213.588 1141.83 207.037 1141.83 Q205.278 1141.83 203.473 1141.49 Q201.667 1141.14 199.723 1140.44 M209.028 1125.79 Q212.176 1125.79 214.005 1123.64 Q215.857 1121.49 215.857 1117.74 Q215.857 1114.01 214.005 1111.86 Q212.176 1109.68 209.028 1109.68 Q205.88 1109.68 204.028 1111.86 Q202.2 1114.01 202.2 1117.74 Q202.2 1121.49 204.028 1123.64 Q205.88 1125.79 209.028 1125.79 Z" fill="#000000" fill-rule="nonzero" fill-opacity="1" /><path clip-path="url(#clip120)" d="M243.912 1122.53 Q247.269 1123.24 249.144 1125.51 Q251.042 1127.78 251.042 1131.11 Q251.042 1136.23 247.523 1139.03 Q244.005 1141.83 237.523 1141.83 Q235.347 1141.83 233.033 1141.39 Q230.741 1140.98 228.287 1140.12 L228.287 1135.61 Q230.232 1136.74 232.547 1137.32 Q234.861 1137.9 237.384 1137.9 Q241.783 1137.9 244.074 1136.16 Q246.389 1134.43 246.389 1131.11 Q246.389 1128.06 244.236 1126.35 Q242.107 1124.61 238.287 1124.61 L234.26 1124.61 L234.26 1120.77 L238.472 1120.77 Q241.922 1120.77 243.75 1119.4 Q245.579 1118.01 245.579 1115.42 Q245.579 1112.76 243.681 1111.35 Q241.806 1109.91 238.287 1109.91 Q236.366 1109.91 234.167 1110.33 Q231.968 1110.74 229.329 1111.62 L229.329 1107.46 Q231.991 1106.72 234.306 1106.35 Q236.644 1105.98 238.704 1105.98 Q244.028 1105.98 247.13 1108.41 Q250.232 1110.81 250.232 1114.93 Q250.232 1117.8 248.588 1119.8 Q246.945 1121.76 243.912 1122.53 Z" fill="#000000" fill-rule="nonzero" fill-opacity="1" /><path clip-path="url(#clip120)" d="M270.486 1122.02 Q267.338 1122.02 265.486 1124.17 Q263.658 1126.32 263.658 1130.07 Q263.658 1133.8 265.486 1135.98 Q267.338 1138.13 270.486 1138.13 Q273.634 1138.13 275.463 1135.98 Q277.315 1133.8 277.315 1130.07 Q277.315 1126.32 275.463 1124.17 Q273.634 1122.02 270.486 1122.02 M279.769 1107.37 L279.769 1111.62 Q278.009 1110.79 276.204 1110.35 Q274.421 1109.91 272.662 1109.91 Q268.032 1109.91 265.579 1113.04 Q263.148 1116.16 262.801 1122.48 Q264.167 1120.47 266.227 1119.4 Q268.287 1118.31 270.764 1118.31 Q275.972 1118.31 278.981 1121.49 Q282.014 1124.63 282.014 1130.07 Q282.014 1135.4 278.866 1138.61 Q275.718 1141.83 270.486 1141.83 Q264.491 1141.83 261.32 1137.25 Q258.148 1132.64 258.148 1123.92 Q258.148 1115.72 262.037 1110.86 Q265.926 1105.98 272.477 1105.98 Q274.236 1105.98 276.019 1106.32 Q277.824 1106.67 279.769 1107.37 Z" fill="#000000" fill-rule="nonzero" fill-opacity="1" /><path clip-path="url(#clip120)" d="M115.742 893.069 L145.417 893.069 L145.417 897.005 L115.742 897.005 L115.742 893.069 Z" fill="#000000" fill-rule="nonzero" fill-opacity="1" /><path clip-path="url(#clip120)" d="M165.51 878.417 Q161.899 878.417 160.07 881.981 Q158.265 885.523 158.265 892.653 Q158.265 899.759 160.07 903.324 Q161.899 906.866 165.51 906.866 Q169.144 906.866 170.95 903.324 Q172.778 899.759 172.778 892.653 Q172.778 885.523 170.95 881.981 Q169.144 878.417 165.51 878.417 M165.51 874.713 Q171.32 874.713 174.376 879.319 Q177.454 883.903 177.454 892.653 Q177.454 901.38 174.376 905.986 Q171.32 910.569 165.51 910.569 Q159.7 910.569 156.621 905.986 Q153.566 901.38 153.566 892.653 Q153.566 883.903 156.621 879.319 Q159.7 874.713 165.51 874.713 Z" fill="#000000" fill-rule="nonzero" fill-opacity="1" /><path clip-path="url(#clip120)" d="M185.672 904.018 L190.556 904.018 L190.556 909.898 L185.672 909.898 L185.672 904.018 Z" fill="#000000" fill-rule="nonzero" fill-opacity="1" /><path clip-path="url(#clip120)" d="M200.88 909.18 L200.88 904.921 Q202.639 905.755 204.445 906.194 Q206.25 906.634 207.987 906.634 Q212.616 906.634 215.047 903.532 Q217.5 900.407 217.848 894.065 Q216.505 896.055 214.445 897.12 Q212.385 898.185 209.885 898.185 Q204.699 898.185 201.667 895.06 Q198.658 891.912 198.658 886.472 Q198.658 881.148 201.806 877.931 Q204.954 874.713 210.186 874.713 Q216.181 874.713 219.329 879.319 Q222.5 883.903 222.5 892.653 Q222.5 900.824 218.611 905.708 Q214.746 910.569 208.195 910.569 Q206.436 910.569 204.63 910.222 Q202.824 909.875 200.88 909.18 M210.186 894.528 Q213.334 894.528 215.162 892.375 Q217.014 890.222 217.014 886.472 Q217.014 882.745 215.162 880.593 Q213.334 878.417 210.186 878.417 Q207.037 878.417 205.186 880.593 Q203.357 882.745 203.357 886.472 Q203.357 890.222 205.186 892.375 Q207.037 894.528 210.186 894.528 Z" fill="#000000" fill-rule="nonzero" fill-opacity="1" /><path clip-path="url(#clip120)" d="M245.07 891.264 Q248.426 891.981 250.301 894.25 Q252.199 896.518 252.199 899.852 Q252.199 904.967 248.681 907.768 Q245.162 910.569 238.681 910.569 Q236.505 910.569 234.19 910.129 Q231.898 909.713 229.445 908.856 L229.445 904.342 Q231.389 905.477 233.704 906.055 Q236.019 906.634 238.542 906.634 Q242.94 906.634 245.232 904.898 Q247.546 903.162 247.546 899.852 Q247.546 896.796 245.394 895.083 Q243.264 893.347 239.445 893.347 L235.417 893.347 L235.417 889.505 L239.63 889.505 Q243.079 889.505 244.908 888.139 Q246.736 886.75 246.736 884.157 Q246.736 881.495 244.838 880.083 Q242.963 878.648 239.445 878.648 Q237.523 878.648 235.324 879.065 Q233.125 879.481 230.486 880.361 L230.486 876.194 Q233.148 875.454 235.463 875.083 Q237.801 874.713 239.861 874.713 Q245.185 874.713 248.287 877.144 Q251.389 879.551 251.389 883.671 Q251.389 886.542 249.746 888.532 Q248.102 890.5 245.07 891.264 Z" fill="#000000" fill-rule="nonzero" fill-opacity="1" /><path clip-path="url(#clip120)" d="M261.111 875.338 L279.468 875.338 L279.468 879.273 L265.394 879.273 L265.394 887.745 Q266.412 887.398 267.431 887.236 Q268.449 887.051 269.468 887.051 Q275.255 887.051 278.634 890.222 Q282.014 893.393 282.014 898.81 Q282.014 904.389 278.542 907.491 Q275.069 910.569 268.75 910.569 Q266.574 910.569 264.306 910.199 Q262.06 909.829 259.653 909.088 L259.653 904.389 Q261.736 905.523 263.958 906.079 Q266.181 906.634 268.657 906.634 Q272.662 906.634 275 904.528 Q277.338 902.421 277.338 898.81 Q277.338 895.199 275 893.093 Q272.662 890.986 268.657 890.986 Q266.782 890.986 264.907 891.403 Q263.056 891.819 261.111 892.699 L261.111 875.338 Z" fill="#000000" fill-rule="nonzero" fill-opacity="1" /><path clip-path="url(#clip120)" d="M114.26 661.806 L143.936 661.806 L143.936 665.741 L114.26 665.741 L114.26 661.806 Z" fill="#000000" fill-rule="nonzero" fill-opacity="1" /><path clip-path="url(#clip120)" d="M164.028 647.153 Q160.417 647.153 158.589 650.718 Q156.783 654.26 156.783 661.389 Q156.783 668.496 158.589 672.061 Q160.417 675.602 164.028 675.602 Q167.663 675.602 169.468 672.061 Q171.297 668.496 171.297 661.389 Q171.297 654.26 169.468 650.718 Q167.663 647.153 164.028 647.153 M164.028 643.45 Q169.839 643.45 172.894 648.056 Q175.973 652.64 175.973 661.389 Q175.973 670.116 172.894 674.723 Q169.839 679.306 164.028 679.306 Q158.218 679.306 155.14 674.723 Q152.084 670.116 152.084 661.389 Q152.084 652.64 155.14 648.056 Q158.218 643.45 164.028 643.45 Z" fill="#000000" fill-rule="nonzero" fill-opacity="1" /><path clip-path="url(#clip120)" d="M184.19 672.755 L189.075 672.755 L189.075 678.635 L184.19 678.635 L184.19 672.755 Z" fill="#000000" fill-rule="nonzero" fill-opacity="1" /><path clip-path="url(#clip120)" d="M199.399 677.917 L199.399 673.658 Q201.158 674.491 202.963 674.931 Q204.769 675.371 206.505 675.371 Q211.135 675.371 213.565 672.269 Q216.019 669.144 216.366 662.802 Q215.024 664.792 212.963 665.857 Q210.903 666.922 208.403 666.922 Q203.218 666.922 200.186 663.797 Q197.176 660.649 197.176 655.209 Q197.176 649.885 200.325 646.667 Q203.473 643.45 208.704 643.45 Q214.699 643.45 217.848 648.056 Q221.019 652.64 221.019 661.389 Q221.019 669.561 217.13 674.445 Q213.264 679.306 206.713 679.306 Q204.954 679.306 203.149 678.959 Q201.343 678.612 199.399 677.917 M208.704 663.264 Q211.852 663.264 213.681 661.112 Q215.533 658.959 215.533 655.209 Q215.533 651.482 213.681 649.329 Q211.852 647.153 208.704 647.153 Q205.556 647.153 203.704 649.329 Q201.875 651.482 201.875 655.209 Q201.875 658.959 203.704 661.112 Q205.556 663.264 208.704 663.264 Z" fill="#000000" fill-rule="nonzero" fill-opacity="1" /><path clip-path="url(#clip120)" d="M243.588 660.001 Q246.945 660.718 248.82 662.987 Q250.718 665.255 250.718 668.589 Q250.718 673.704 247.199 676.505 Q243.681 679.306 237.199 679.306 Q235.023 679.306 232.709 678.866 Q230.417 678.45 227.963 677.593 L227.963 673.079 Q229.908 674.214 232.222 674.792 Q234.537 675.371 237.06 675.371 Q241.459 675.371 243.75 673.635 Q246.065 671.899 246.065 668.589 Q246.065 665.533 243.912 663.82 Q241.783 662.084 237.963 662.084 L233.935 662.084 L233.935 658.241 L238.148 658.241 Q241.597 658.241 243.426 656.876 Q245.255 655.487 245.255 652.894 Q245.255 650.232 243.357 648.82 Q241.482 647.385 237.963 647.385 Q236.042 647.385 233.843 647.802 Q231.644 648.218 229.005 649.098 L229.005 644.931 Q231.667 644.191 233.982 643.82 Q236.32 643.45 238.38 643.45 Q243.704 643.45 246.806 645.88 Q249.908 648.288 249.908 652.408 Q249.908 655.278 248.264 657.269 Q246.621 659.237 243.588 660.001 Z" fill="#000000" fill-rule="nonzero" fill-opacity="1" /><path clip-path="url(#clip120)" d="M272.431 648.149 L260.625 666.598 L272.431 666.598 L272.431 648.149 M271.204 644.075 L277.083 644.075 L277.083 666.598 L282.014 666.598 L282.014 670.487 L277.083 670.487 L277.083 678.635 L272.431 678.635 L272.431 670.487 L256.829 670.487 L256.829 665.973 L271.204 644.075 Z" fill="#000000" fill-rule="nonzero" fill-opacity="1" /><path clip-path="url(#clip120)" d="M115.394 430.543 L145.07 430.543 L145.07 434.478 L115.394 434.478 L115.394 430.543 Z" fill="#000000" fill-rule="nonzero" fill-opacity="1" /><path clip-path="url(#clip120)" d="M165.163 415.89 Q161.552 415.89 159.723 419.455 Q157.917 422.997 157.917 430.126 Q157.917 437.233 159.723 440.798 Q161.552 444.339 165.163 444.339 Q168.797 444.339 170.602 440.798 Q172.431 437.233 172.431 430.126 Q172.431 422.997 170.602 419.455 Q168.797 415.89 165.163 415.89 M165.163 412.187 Q170.973 412.187 174.028 416.793 Q177.107 421.376 177.107 430.126 Q177.107 438.853 174.028 443.46 Q170.973 448.043 165.163 448.043 Q159.353 448.043 156.274 443.46 Q153.218 438.853 153.218 430.126 Q153.218 421.376 156.274 416.793 Q159.353 412.187 165.163 412.187 Z" fill="#000000" fill-rule="nonzero" fill-opacity="1" /><path clip-path="url(#clip120)" d="M185.325 441.492 L190.209 441.492 L190.209 447.372 L185.325 447.372 L185.325 441.492 Z" fill="#000000" fill-rule="nonzero" fill-opacity="1" /><path clip-path="url(#clip120)" d="M200.533 446.654 L200.533 442.395 Q202.292 443.228 204.098 443.668 Q205.903 444.108 207.639 444.108 Q212.269 444.108 214.699 441.006 Q217.153 437.881 217.5 431.538 Q216.158 433.529 214.098 434.594 Q212.037 435.659 209.537 435.659 Q204.352 435.659 201.32 432.534 Q198.311 429.386 198.311 423.946 Q198.311 418.622 201.459 415.404 Q204.607 412.187 209.838 412.187 Q215.834 412.187 218.982 416.793 Q222.153 421.376 222.153 430.126 Q222.153 438.298 218.264 443.182 Q214.399 448.043 207.848 448.043 Q206.088 448.043 204.283 447.696 Q202.477 447.348 200.533 446.654 M209.838 432.001 Q212.986 432.001 214.815 429.848 Q216.667 427.696 216.667 423.946 Q216.667 420.219 214.815 418.066 Q212.986 415.89 209.838 415.89 Q206.69 415.89 204.838 418.066 Q203.01 420.219 203.01 423.946 Q203.01 427.696 204.838 429.848 Q206.69 432.001 209.838 432.001 Z" fill="#000000" fill-rule="nonzero" fill-opacity="1" /><path clip-path="url(#clip120)" d="M244.722 428.737 Q248.079 429.455 249.954 431.723 Q251.852 433.992 251.852 437.325 Q251.852 442.441 248.334 445.242 Q244.815 448.043 238.334 448.043 Q236.158 448.043 233.843 447.603 Q231.551 447.186 229.098 446.33 L229.098 441.816 Q231.042 442.95 233.357 443.529 Q235.672 444.108 238.195 444.108 Q242.593 444.108 244.884 442.372 Q247.199 440.635 247.199 437.325 Q247.199 434.27 245.046 432.557 Q242.917 430.821 239.097 430.821 L235.07 430.821 L235.07 426.978 L239.283 426.978 Q242.732 426.978 244.56 425.612 Q246.389 424.224 246.389 421.631 Q246.389 418.969 244.491 417.557 Q242.616 416.122 239.097 416.122 Q237.176 416.122 234.977 416.538 Q232.778 416.955 230.139 417.835 L230.139 413.668 Q232.801 412.927 235.116 412.557 Q237.454 412.187 239.514 412.187 Q244.838 412.187 247.94 414.617 Q251.042 417.024 251.042 421.145 Q251.042 424.015 249.398 426.006 Q247.755 427.974 244.722 428.737 Z" fill="#000000" fill-rule="nonzero" fill-opacity="1" /><path clip-path="url(#clip120)" d="M274.884 428.737 Q278.241 429.455 280.116 431.723 Q282.014 433.992 282.014 437.325 Q282.014 442.441 278.495 445.242 Q274.977 448.043 268.495 448.043 Q266.32 448.043 264.005 447.603 Q261.713 447.186 259.259 446.33 L259.259 441.816 Q261.204 442.95 263.519 443.529 Q265.833 444.108 268.357 444.108 Q272.755 444.108 275.046 442.372 Q277.361 440.635 277.361 437.325 Q277.361 434.27 275.208 432.557 Q273.079 430.821 269.259 430.821 L265.232 430.821 L265.232 426.978 L269.445 426.978 Q272.894 426.978 274.722 425.612 Q276.551 424.224 276.551 421.631 Q276.551 418.969 274.653 417.557 Q272.778 416.122 269.259 416.122 Q267.338 416.122 265.139 416.538 Q262.94 416.955 260.301 417.835 L260.301 413.668 Q262.963 412.927 265.278 412.557 Q267.616 412.187 269.676 412.187 Q275 412.187 278.102 414.617 Q281.204 417.024 281.204 421.145 Q281.204 424.015 279.56 426.006 Q277.917 427.974 274.884 428.737 Z" fill="#000000" fill-rule="nonzero" fill-opacity="1" /><path clip-path="url(#clip120)" d="M116.343 199.28 L146.019 199.28 L146.019 203.215 L116.343 203.215 L116.343 199.28 Z" fill="#000000" fill-rule="nonzero" fill-opacity="1" /><path clip-path="url(#clip120)" d="M166.112 184.627 Q162.501 184.627 160.672 188.192 Q158.866 191.733 158.866 198.863 Q158.866 205.969 160.672 209.534 Q162.501 213.076 166.112 213.076 Q169.746 213.076 171.552 209.534 Q173.38 205.969 173.38 198.863 Q173.38 191.733 171.552 188.192 Q169.746 184.627 166.112 184.627 M166.112 180.923 Q171.922 180.923 174.977 185.53 Q178.056 190.113 178.056 198.863 Q178.056 207.59 174.977 212.196 Q171.922 216.78 166.112 216.78 Q160.302 216.78 157.223 212.196 Q154.167 207.59 154.167 198.863 Q154.167 190.113 157.223 185.53 Q160.302 180.923 166.112 180.923 Z" fill="#000000" fill-rule="nonzero" fill-opacity="1" /><path clip-path="url(#clip120)" d="M186.274 210.229 L191.158 210.229 L191.158 216.108 L186.274 216.108 L186.274 210.229 Z" fill="#000000" fill-rule="nonzero" fill-opacity="1" /><path clip-path="url(#clip120)" d="M201.482 215.391 L201.482 211.132 Q203.241 211.965 205.047 212.405 Q206.852 212.844 208.588 212.844 Q213.218 212.844 215.649 209.743 Q218.102 206.618 218.449 200.275 Q217.107 202.266 215.047 203.331 Q212.986 204.395 210.486 204.395 Q205.301 204.395 202.269 201.27 Q199.26 198.122 199.26 192.683 Q199.26 187.358 202.408 184.141 Q205.556 180.923 210.787 180.923 Q216.783 180.923 219.931 185.53 Q223.102 190.113 223.102 198.863 Q223.102 207.034 219.213 211.919 Q215.348 216.78 208.797 216.78 Q207.037 216.78 205.232 216.432 Q203.426 216.085 201.482 215.391 M210.787 200.738 Q213.936 200.738 215.764 198.585 Q217.616 196.433 217.616 192.683 Q217.616 188.956 215.764 186.803 Q213.936 184.627 210.787 184.627 Q207.639 184.627 205.787 186.803 Q203.959 188.956 203.959 192.683 Q203.959 196.433 205.787 198.585 Q207.639 200.738 210.787 200.738 Z" fill="#000000" fill-rule="nonzero" fill-opacity="1" /><path clip-path="url(#clip120)" d="M245.671 197.474 Q249.028 198.192 250.903 200.46 Q252.801 202.729 252.801 206.062 Q252.801 211.178 249.283 213.979 Q245.764 216.78 239.283 216.78 Q237.107 216.78 234.792 216.34 Q232.5 215.923 230.047 215.067 L230.047 210.553 Q231.991 211.687 234.306 212.266 Q236.621 212.844 239.144 212.844 Q243.542 212.844 245.834 211.108 Q248.148 209.372 248.148 206.062 Q248.148 203.007 245.996 201.294 Q243.866 199.557 240.047 199.557 L236.019 199.557 L236.019 195.715 L240.232 195.715 Q243.681 195.715 245.509 194.349 Q247.338 192.96 247.338 190.368 Q247.338 187.706 245.44 186.294 Q243.565 184.858 240.047 184.858 Q238.125 184.858 235.926 185.275 Q233.727 185.692 231.088 186.571 L231.088 182.405 Q233.75 181.664 236.065 181.294 Q238.403 180.923 240.463 180.923 Q245.787 180.923 248.889 183.354 Q251.991 185.761 251.991 189.882 Q251.991 192.752 250.347 194.743 Q248.704 196.71 245.671 197.474 Z" fill="#000000" fill-rule="nonzero" fill-opacity="1" /><path clip-path="url(#clip120)" d="M265.695 212.173 L282.014 212.173 L282.014 216.108 L260.07 216.108 L260.07 212.173 Q262.732 209.419 267.315 204.789 Q271.921 200.136 273.102 198.794 Q275.347 196.27 276.227 194.534 Q277.13 192.775 277.13 191.085 Q277.13 188.331 275.185 186.595 Q273.264 184.858 270.162 184.858 Q267.963 184.858 265.509 185.622 Q263.079 186.386 260.301 187.937 L260.301 183.215 Q263.125 182.081 265.579 181.502 Q268.032 180.923 270.07 180.923 Q275.44 180.923 278.634 183.609 Q281.829 186.294 281.829 190.784 Q281.829 192.914 281.019 194.835 Q280.231 196.733 278.125 199.326 Q277.546 199.997 274.444 203.215 Q271.343 206.409 265.695 212.173 Z" fill="#000000" fill-rule="nonzero" fill-opacity="1" /><path clip-path="url(#clip120)" d="M23.0249 744.316 L34.4257 745.636 Q35.4563 745.733 35.7784 745.894 Q36.0682 746.055 36.0682 746.57 Q36.0682 747.343 35.2953 747.343 Q34.9732 747.343 34.1037 747.214 Q32.3324 747.021 30.5288 747.021 Q28.4999 747.021 27.2438 747.407 Q25.9556 747.762 25.0216 748.792 Q24.0877 749.823 23.7012 751.723 Q23.2825 753.623 23.2825 756.65 L23.2825 765.346 Q23.2825 767.472 23.669 767.987 Q24.0554 768.47 25.859 768.921 L42.606 773.14 L42.606 767.15 Q42.606 762.963 41.3822 761.32 Q40.1584 759.678 36.2615 758.647 Q35.6496 758.486 35.4241 758.422 Q35.1665 758.325 35.0376 758.164 Q34.8766 757.971 34.8766 757.649 Q34.8766 757.359 35.0699 757.166 Q35.2309 756.972 35.4241 756.908 L35.6174 756.844 Q35.9394 756.844 36.6801 757.037 L50.9795 760.676 Q51.9457 760.934 52.1712 761.095 Q52.3644 761.224 52.3644 761.675 Q52.3644 761.997 52.139 762.222 Q51.9135 762.447 51.5593 762.447 Q51.1728 762.383 50.8507 762.254 Q48.8862 761.803 47.6301 761.803 Q46.825 761.803 46.3419 761.964 Q45.8588 762.125 45.4401 762.673 Q45.0215 763.22 44.8282 764.348 Q44.635 765.475 44.635 767.278 L44.635 773.655 L61.06 777.745 L62.5737 778.035 Q63.25 778.035 63.5076 777.681 Q63.7653 777.294 63.8941 775.909 Q64.0551 773.848 64.0551 772.496 Q64.0551 770.821 64.1195 770.628 Q64.3128 770.241 64.8281 770.241 Q65.4078 770.241 65.7298 770.499 Q66.0197 770.757 66.0519 770.982 Q66.0841 771.207 66.0841 771.626 L65.8909 781.449 L66.0841 790.144 Q66.0841 791.143 65.2789 791.143 Q64.667 791.143 64.4094 790.885 Q64.1195 790.628 64.0873 790.338 Q64.0551 790.048 64.0551 789.307 Q64.0551 787.697 63.9585 786.731 Q63.8619 785.764 63.7331 785.153 Q63.572 784.508 63.1212 784.186 Q62.6703 783.832 62.2838 783.671 Q61.8651 783.51 60.9312 783.285 L26.0522 774.589 Q24.8606 774.267 24.4741 774.267 Q24.0554 774.267 23.7978 774.557 Q23.5402 774.814 23.4435 775.523 Q23.3147 776.232 23.3147 776.811 Q23.2825 777.359 23.2825 778.55 Q23.2825 779.323 23.2503 779.645 Q23.2181 779.935 23.0571 780.161 Q22.896 780.386 22.5418 780.386 Q21.64 780.386 21.4468 780 Q21.2213 779.581 21.2213 778.422 L21.2213 746.087 Q21.2213 744.799 21.5112 744.509 Q21.7688 744.187 23.0249 744.316 Z" fill="#000000" fill-rule="nonzero" fill-opacity="1" /><path clip-path="url(#clip120)" d="M81.6395 749.164 Q81.3175 749.164 80.6089 748.907 L18.3872 725.622 Q18.3228 725.622 17.9685 725.461 Q17.6143 725.3 17.3888 725.203 Q17.1312 725.107 16.938 724.913 Q16.7447 724.688 16.7447 724.43 Q16.7447 723.786 17.5499 723.786 Q17.6143 723.786 18.3872 723.979 L80.6734 747.329 Q81.8006 747.715 82.1226 747.973 Q82.4447 748.198 82.4447 748.585 Q82.4447 749.164 81.6395 749.164 Z" fill="#000000" fill-rule="nonzero" fill-opacity="1" /><path clip-path="url(#clip120)" d="M49.7879 676.662 Q49.9812 676.662 50.7219 676.919 L64.9569 682.137 Q65.7942 682.427 65.9553 682.716 Q66.0841 683.006 66.0841 684.198 L66.0841 714.729 Q66.0841 715.47 66.0519 715.76 Q66.0197 716.05 65.8587 716.275 Q65.6976 716.5 65.3434 716.5 Q64.6992 716.5 64.4094 716.275 Q64.1195 716.017 64.0873 715.727 Q64.0551 715.438 64.0551 714.729 Q64.0551 713.119 63.9585 712.153 Q63.8619 711.186 63.7331 710.575 Q63.572 709.93 63.1212 709.608 Q62.6703 709.254 62.2838 709.093 Q61.8651 708.932 60.9312 708.707 L25.5047 699.882 Q24.4419 699.625 24.2809 699.625 Q23.669 699.625 23.5079 700.011 Q23.3147 700.365 23.2181 701.396 L23.0893 703.908 Q23.0893 704.681 23.0571 705.003 Q23.0249 705.293 22.8638 705.518 Q22.7028 705.744 22.3485 705.744 Q21.7366 705.744 21.4468 705.518 Q21.1247 705.261 21.0925 705.067 Q21.0281 704.842 21.0281 704.488 L21.2213 695.728 L21.0281 685.969 Q21.0281 684.906 21.8332 684.906 Q22.735 684.906 22.9282 685.357 Q23.0893 685.808 23.0893 687.418 Q23.0893 690.51 23.4113 691.927 Q23.7334 693.312 24.2809 693.699 Q24.7962 694.053 26.181 694.407 L61.8007 703.328 Q62.9923 703.65 63.3144 703.65 Q63.6687 703.65 63.7975 703.489 Q63.8941 703.296 63.9585 702.781 Q64.0551 702.201 64.0551 701.331 L64.0551 695.148 Q64.0551 693.28 63.7653 691.637 Q63.4754 689.995 63.0567 688.739 Q62.6381 687.451 61.8651 686.291 Q61.0922 685.132 60.4159 684.327 Q59.7073 683.489 58.6123 682.684 Q57.4851 681.847 56.7122 681.364 Q55.907 680.848 54.6188 680.269 Q53.2984 679.689 52.5576 679.399 Q51.7847 679.077 50.4643 678.594 Q49.7879 678.304 49.5947 678.208 Q49.4015 678.111 49.2404 677.95 Q49.0794 677.757 49.0794 677.467 Q49.0794 677.08 49.3048 676.887 Q49.5303 676.662 49.7879 676.662 Z" fill="#000000" fill-rule="nonzero" fill-opacity="1" /><polyline clip-path="url(#clip122)" style="stroke:#009af9; stroke-linecap:round; stroke-linejoin:round; stroke-width:4; stroke-opacity:1; fill:none" stroke-dasharray="16, 10" points="2295.17,1374.76 1616.14,918.866 1175.42,622.972 873.267,420.109 657.138,275.002 497.226,167.639 375.601,85.9806 "/>
<circle clip-path="url(#clip122)" cx="2295.17" cy="1377.2" r="14.4" fill="#e26f46" fill-rule="evenodd" fill-opacity="1" stroke="#000000" stroke-opacity="1" stroke-width="3.2"/>
<circle clip-path="url(#clip122)" cx="1616.14" cy="916.946" r="14.4" fill="#e26f46" fill-rule="evenodd" fill-opacity="1" stroke="#000000" stroke-opacity="1" stroke-width="3.2"/>
<circle clip-path="url(#clip122)" cx="1175.42" cy="620.785" r="14.4" fill="#e26f46" fill-rule="evenodd" fill-opacity="1" stroke="#000000" stroke-opacity="1" stroke-width="3.2"/>
<circle clip-path="url(#clip122)" cx="873.267" cy="418.828" r="14.4" fill="#e26f46" fill-rule="evenodd" fill-opacity="1" stroke="#000000" stroke-opacity="1" stroke-width="3.2"/>
<circle clip-path="url(#clip122)" cx="657.138" cy="274.89" r="14.4" fill="#e26f46" fill-rule="evenodd" fill-opacity="1" stroke="#000000" stroke-opacity="1" stroke-width="3.2"/>
<circle clip-path="url(#clip122)" cx="497.226" cy="168.663" r="14.4" fill="#e26f46" fill-rule="evenodd" fill-opacity="1" stroke="#000000" stroke-opacity="1" stroke-width="3.2"/>
<circle clip-path="url(#clip122)" cx="375.601" cy="88.0204" r="14.4" fill="#e26f46" fill-rule="evenodd" fill-opacity="1" stroke="#000000" stroke-opacity="1" stroke-width="3.2"/>
<path clip-path="url(#clip120)" d="M1503.99 408.421 L2284.93 408.421 L2284.93 92.867 L1503.99 92.867  Z" fill="#000000" fill-rule="evenodd" fill-opacity="0"/>
<polyline clip-path="url(#clip120)" style="stroke:#000000; stroke-linecap:round; stroke-linejoin:round; stroke-width:4; stroke-opacity:0; fill:none" points="1503.99,408.421 2284.93,408.421 2284.93,92.867 1503.99,92.867 1503.99,408.421 "/>
<polyline clip-path="url(#clip120)" style="stroke:#009af9; stroke-linecap:round; stroke-linejoin:round; stroke-width:4; stroke-opacity:1; fill:none" stroke-dasharray="16, 10" points="1526.59,198.052 1662.24,198.052 "/>
<path clip-path="url(#clip120)" d="M1684.85 167.443 L1704.71 167.443 L1704.71 171.378 L1689.53 171.378 L1689.53 181.563 L1703.23 181.563 L1703.23 185.498 L1689.53 185.498 L1689.53 202.003 L1684.85 202.003 L1684.85 167.443 Z" fill="#000000" fill-rule="nonzero" fill-opacity="1" /><path clip-path="url(#clip120)" d="M1708.49 176.077 L1712.75 176.077 L1712.75 202.003 L1708.49 202.003 L1708.49 176.077 M1708.49 165.984 L1712.75 165.984 L1712.75 171.378 L1708.49 171.378 L1708.49 165.984 Z" fill="#000000" fill-rule="nonzero" fill-opacity="1" /><path clip-path="url(#clip120)" d="M1725.87 168.716 L1725.87 176.077 L1734.64 176.077 L1734.64 179.387 L1725.87 179.387 L1725.87 193.461 Q1725.87 196.632 1726.73 197.535 Q1727.61 198.438 1730.27 198.438 L1734.64 198.438 L1734.64 202.003 L1730.27 202.003 Q1725.34 202.003 1723.46 200.174 Q1721.59 198.322 1721.59 193.461 L1721.59 179.387 L1718.46 179.387 L1718.46 176.077 L1721.59 176.077 L1721.59 168.716 L1725.87 168.716 Z" fill="#000000" fill-rule="nonzero" fill-opacity="1" /><path clip-path="url(#clip120)" d="M1741.33 196.123 L1746.22 196.123 L1746.22 202.003 L1741.33 202.003 L1741.33 196.123 M1741.33 177.489 L1746.22 177.489 L1746.22 183.369 L1741.33 183.369 L1741.33 177.489 Z" fill="#000000" fill-rule="nonzero" fill-opacity="1" /><path clip-path="url(#clip120)" d="M1780.27 170.687 L1779.31 178.978 Q1779.24 179.728 1779.13 179.962 Q1779.01 180.173 1778.63 180.173 Q1778.07 180.173 1778.07 179.611 Q1778.07 179.377 1778.17 178.744 Q1778.31 177.456 1778.31 176.144 Q1778.31 174.669 1778.03 173.755 Q1777.77 172.818 1777.02 172.139 Q1776.27 171.46 1774.89 171.179 Q1773.5 170.874 1771.3 170.874 L1764.98 170.874 Q1763.43 170.874 1763.06 171.155 Q1762.71 171.436 1762.38 172.748 L1759.31 184.928 L1763.67 184.928 Q1766.71 184.928 1767.91 184.038 Q1769.1 183.148 1769.85 180.314 Q1769.97 179.869 1770.01 179.705 Q1770.09 179.517 1770.2 179.424 Q1770.34 179.306 1770.58 179.306 Q1770.79 179.306 1770.93 179.447 Q1771.07 179.564 1771.12 179.705 L1771.16 179.845 Q1771.16 180.079 1771.02 180.618 L1768.38 191.018 Q1768.19 191.72 1768.07 191.884 Q1767.98 192.025 1767.65 192.025 Q1767.41 192.025 1767.25 191.861 Q1767.09 191.697 1767.09 191.439 Q1767.13 191.158 1767.23 190.924 Q1767.56 189.495 1767.56 188.582 Q1767.56 187.996 1767.44 187.645 Q1767.32 187.293 1766.92 186.989 Q1766.52 186.684 1765.71 186.544 Q1764.89 186.403 1763.57 186.403 L1758.94 186.403 L1755.96 198.349 L1755.75 199.45 Q1755.75 199.942 1756.01 200.129 Q1756.29 200.316 1757.3 200.41 Q1758.8 200.527 1759.78 200.527 Q1761 200.527 1761.14 200.574 Q1761.42 200.715 1761.42 201.089 Q1761.42 201.511 1761.23 201.745 Q1761.04 201.956 1760.88 201.979 Q1760.72 202.003 1760.41 202.003 L1753.27 201.862 L1746.94 202.003 Q1746.22 202.003 1746.22 201.417 Q1746.22 200.972 1746.4 200.785 Q1746.59 200.574 1746.8 200.551 Q1747.01 200.527 1747.55 200.527 Q1748.72 200.527 1749.43 200.457 Q1750.13 200.387 1750.57 200.293 Q1751.04 200.176 1751.28 199.848 Q1751.53 199.52 1751.65 199.239 Q1751.77 198.934 1751.93 198.255 L1758.26 172.889 Q1758.49 172.022 1758.49 171.741 Q1758.49 171.436 1758.28 171.249 Q1758.09 171.062 1757.58 170.991 Q1757.06 170.898 1756.64 170.898 Q1756.24 170.874 1755.38 170.874 Q1754.81 170.874 1754.58 170.851 Q1754.37 170.827 1754.2 170.71 Q1754.04 170.593 1754.04 170.336 Q1754.04 169.68 1754.32 169.539 Q1754.63 169.375 1755.47 169.375 L1778.99 169.375 Q1779.92 169.375 1780.13 169.586 Q1780.37 169.773 1780.27 170.687 Z" fill="#000000" fill-rule="nonzero" fill-opacity="1" /><path clip-path="url(#clip120)" d="M1776.74 213.316 Q1776.74 213.082 1776.93 212.566 L1793.86 167.314 Q1793.86 167.267 1793.98 167.01 Q1794.1 166.752 1794.17 166.588 Q1794.24 166.401 1794.38 166.26 Q1794.54 166.12 1794.73 166.12 Q1795.2 166.12 1795.2 166.705 Q1795.2 166.752 1795.06 167.314 L1778.08 212.613 Q1777.79 213.433 1777.61 213.667 Q1777.44 213.901 1777.16 213.901 Q1776.74 213.901 1776.74 213.316 Z" fill="#000000" fill-rule="nonzero" fill-opacity="1" /><path clip-path="url(#clip120)" d="M1829.46 190.151 Q1829.46 190.292 1829.28 190.83 L1825.48 201.183 Q1825.27 201.792 1825.06 201.909 Q1824.85 202.003 1823.98 202.003 L1801.78 202.003 Q1801.24 202.003 1801.03 201.979 Q1800.82 201.956 1800.65 201.839 Q1800.49 201.722 1800.49 201.464 Q1800.49 200.996 1800.65 200.785 Q1800.84 200.574 1801.05 200.551 Q1801.26 200.527 1801.78 200.527 Q1802.95 200.527 1803.65 200.457 Q1804.35 200.387 1804.8 200.293 Q1805.27 200.176 1805.5 199.848 Q1805.76 199.52 1805.88 199.239 Q1805.99 198.934 1806.16 198.255 L1812.58 172.49 Q1812.76 171.718 1812.76 171.6 Q1812.76 171.155 1812.48 171.038 Q1812.22 170.898 1811.48 170.827 L1809.65 170.734 Q1809.09 170.734 1808.85 170.71 Q1808.64 170.687 1808.48 170.57 Q1808.31 170.453 1808.31 170.195 Q1808.31 169.75 1808.48 169.539 Q1808.66 169.305 1808.81 169.282 Q1808.97 169.235 1809.23 169.235 L1815.6 169.375 L1822.69 169.235 Q1823.47 169.235 1823.47 169.82 Q1823.47 170.476 1823.14 170.617 Q1822.81 170.734 1821.64 170.734 Q1819.39 170.734 1818.36 170.968 Q1817.35 171.202 1817.07 171.6 Q1816.82 171.975 1816.56 172.982 L1810.07 198.888 Q1809.84 199.754 1809.84 199.988 Q1809.84 200.246 1809.95 200.34 Q1810.09 200.41 1810.47 200.457 Q1810.89 200.527 1811.52 200.527 L1816.02 200.527 Q1817.38 200.527 1818.57 200.316 Q1819.77 200.106 1820.68 199.801 Q1821.62 199.497 1822.46 198.934 Q1823.3 198.372 1823.89 197.88 Q1824.5 197.365 1825.08 196.569 Q1825.69 195.749 1826.04 195.187 Q1826.42 194.601 1826.84 193.664 Q1827.26 192.704 1827.47 192.165 Q1827.71 191.603 1828.06 190.643 Q1828.27 190.151 1828.34 190.01 Q1828.41 189.87 1828.53 189.753 Q1828.67 189.636 1828.88 189.636 Q1829.16 189.636 1829.3 189.8 Q1829.46 189.964 1829.46 190.151 Z" fill="#000000" fill-rule="nonzero" fill-opacity="1" /><path clip-path="url(#clip120)" d="M1846.13 194.718 Q1846.17 194.133 1847.09 194.133 L1876.48 194.133 Q1877.86 194.133 1877.89 194.672 Q1877.89 195.257 1876.58 195.234 L1847.41 195.234 Q1846.13 195.257 1846.13 194.718 M1846.13 185.349 Q1846.13 184.764 1847.13 184.787 L1876.43 184.787 Q1877.86 184.787 1877.89 185.349 Q1877.89 185.888 1876.67 185.888 L1847.09 185.888 Q1846.13 185.888 1846.13 185.349 Z" fill="#000000" fill-rule="nonzero" fill-opacity="1" /><path clip-path="url(#clip120)" d="M1941.35 189.331 Q1941.63 189.612 1941.63 190.01 Q1941.63 190.409 1941.35 190.69 Q1941.07 190.971 1940.67 190.971 L1910.64 190.971 Q1910.24 190.971 1909.96 190.69 Q1909.68 190.409 1909.68 190.01 Q1909.68 189.612 1909.96 189.331 Q1910.24 189.05 1910.64 189.05 L1940.67 189.05 Q1941.07 189.05 1941.35 189.331 Z" fill="#000000" fill-rule="nonzero" fill-opacity="1" /><path clip-path="url(#clip120)" d="M1959.93 186.661 Q1959.93 179.611 1961.71 175.77 Q1964.2 170.055 1970.05 170.055 Q1971.29 170.055 1972.58 170.406 Q1973.89 170.734 1975.53 172.022 Q1977.2 173.31 1978.2 175.418 Q1980.12 179.494 1980.12 186.661 Q1980.12 193.664 1978.34 197.482 Q1975.74 203.057 1970.01 203.057 Q1967.85 203.057 1965.65 201.956 Q1963.47 200.855 1962.09 198.208 Q1959.93 194.25 1959.93 186.661 M1963.92 186.075 Q1963.92 193.313 1964.43 196.194 Q1965.02 199.309 1966.61 200.668 Q1968.23 202.003 1970.01 202.003 Q1971.93 202.003 1973.52 200.574 Q1975.14 199.122 1975.63 196.007 Q1976.17 192.938 1976.14 186.075 Q1976.14 179.4 1975.67 176.73 Q1975.04 173.615 1973.36 172.373 Q1971.69 171.109 1970.01 171.109 Q1969.37 171.109 1968.69 171.296 Q1968.04 171.483 1967.08 172.022 Q1966.12 172.561 1965.37 173.896 Q1964.64 175.231 1964.29 177.245 Q1963.92 179.845 1963.92 186.075 Z" fill="#000000" fill-rule="nonzero" fill-opacity="1" /><path clip-path="url(#clip120)" d="M1984.41 201.23 Q1983.68 200.457 1983.68 199.45 Q1983.68 198.443 1984.41 197.716 Q1985.14 196.967 1986.24 196.967 Q1987.29 196.967 1987.99 197.67 Q1988.72 198.349 1988.72 199.473 Q1988.72 200.574 1987.95 201.3 Q1987.2 202.003 1986.24 202.003 Q1985.14 202.003 1984.41 201.23 Z" fill="#000000" fill-rule="nonzero" fill-opacity="1" /><path clip-path="url(#clip120)" d="M1996.88 180.852 Q1996.88 178.299 1997.63 176.566 Q1998.38 174.809 1999.95 173.076 Q2002.83 170.055 2007 170.055 Q2008.78 170.055 2010.35 170.804 Q2011.94 171.554 2013.44 173.263 Q2014.96 174.95 2015.88 178.299 Q2016.79 181.625 2016.79 186.216 Q2016.79 193.641 2013.18 198.349 Q2009.6 203.057 2004.75 203.057 Q2001.68 203.057 1999.88 201.675 Q1998.08 200.269 1998.08 197.88 Q1998.08 196.639 1998.78 196.124 Q1999.48 195.585 2000.28 195.585 Q2001.14 195.585 2001.82 196.171 Q2002.5 196.733 2002.5 197.787 Q2002.5 198.653 2001.94 199.333 Q2001.4 199.988 2000 199.988 Q2001.38 201.722 2004.7 201.722 Q2005.9 201.722 2007.09 201.183 Q2008.29 200.621 2009.58 199.286 Q2010.89 197.927 2011.68 195.093 Q2012.48 192.259 2012.48 188.277 L2012.48 186.755 Q2010.56 191.556 2006.48 191.556 Q2002.46 191.556 1999.67 188.465 Q1996.88 185.373 1996.88 180.852 M2001.19 180.899 Q2001.19 185.654 2002.06 187.411 Q2003.53 190.432 2006.53 190.432 Q2009.46 190.432 2010.91 187.832 Q2012.39 185.209 2012.39 181.813 Q2012.39 177.105 2011.61 175.044 Q2010.19 171.249 2007 171.249 Q2003.84 171.249 2002.2 174.271 Q2001.19 176.051 2001.19 180.899 Z" fill="#000000" fill-rule="nonzero" fill-opacity="1" /><path clip-path="url(#clip120)" d="M2020.82 195.538 Q2020.82 194.109 2021.64 193.43 Q2022.46 192.751 2023.52 192.751 Q2024.62 192.751 2025.39 193.477 Q2026.19 194.18 2026.19 195.421 Q2026.19 196.756 2025.25 197.506 Q2024.34 198.255 2023.03 198.068 Q2024.17 199.988 2026.28 200.855 Q2028.41 201.722 2030.38 201.722 Q2032.44 201.722 2034.1 199.942 Q2035.79 198.161 2035.79 193.805 Q2035.79 190.104 2034.34 187.973 Q2032.91 185.841 2030.08 185.841 L2027.97 185.841 Q2027.24 185.841 2027.03 185.771 Q2026.82 185.701 2026.82 185.303 Q2026.82 184.834 2027.55 184.74 Q2028.27 184.74 2029.42 184.6 Q2032.21 184.506 2033.68 182.094 Q2035.02 179.845 2035.02 176.636 Q2035.02 173.708 2033.61 172.49 Q2032.23 171.249 2030.43 171.249 Q2028.74 171.249 2026.89 171.952 Q2025.04 172.654 2024.03 174.224 Q2027.01 174.224 2027.01 176.636 Q2027.01 177.69 2026.33 178.393 Q2025.67 179.072 2024.57 179.072 Q2023.52 179.072 2022.81 178.416 Q2022.11 177.737 2022.11 176.589 Q2022.11 173.849 2024.55 171.952 Q2027.01 170.055 2030.61 170.055 Q2034.17 170.055 2036.8 171.928 Q2039.44 173.802 2039.44 176.683 Q2039.44 179.517 2037.57 181.836 Q2035.7 184.155 2032.72 185.115 Q2036.38 185.841 2038.55 188.324 Q2040.73 190.783 2040.73 193.805 Q2040.73 197.552 2037.78 200.316 Q2034.83 203.057 2030.52 203.057 Q2026.54 203.057 2023.68 200.902 Q2020.82 198.747 2020.82 195.538 Z" fill="#000000" fill-rule="nonzero" fill-opacity="1" /><path clip-path="url(#clip120)" d="M2089.55 189.331 Q2089.83 189.612 2089.83 190.01 Q2089.83 190.409 2089.55 190.69 Q2089.26 190.971 2088.87 190.971 L2058.84 190.971 Q2058.44 190.971 2058.16 190.69 Q2057.88 190.409 2057.88 190.01 Q2057.88 189.612 2058.16 189.331 Q2058.44 189.05 2058.84 189.05 L2088.87 189.05 Q2089.26 189.05 2089.55 189.331 Z" fill="#000000" fill-rule="nonzero" fill-opacity="1" /><path clip-path="url(#clip120)" d="M2144.28 158.019 Q2144.28 159.658 2141.93 159.658 L2136.45 159.658 Q2135.61 163.546 2135.61 167.294 Q2135.61 171.768 2136.99 175.211 Q2137.27 175.89 2137.27 176.265 Q2137.27 176.968 2136.64 177.53 Q2136.03 178.092 2135.3 178.092 Q2134.7 178.092 2134.3 177.623 Q2133.92 177.155 2133.59 175.679 Q2133.2 173.946 2133.2 172.025 Q2133.2 169.73 2133.57 167.528 Q2133.95 165.303 2135.21 159.658 L2129.8 159.658 L2127.11 170.269 Q2126.15 173.852 2125.82 174.953 Q2125.61 175.609 2125.54 175.82 Q2125.47 176.031 2125.26 176.546 Q2125.07 177.038 2124.93 177.225 Q2124.79 177.389 2124.55 177.647 Q2124.32 177.928 2124.04 177.998 Q2123.76 178.092 2123.41 178.092 Q2122.87 178.092 2122.45 177.74 Q2122.02 177.413 2122.02 176.78 Q2122.02 176.359 2122.4 175.632 Q2126.85 166.029 2128.54 159.658 L2125.82 159.658 Q2122.07 159.658 2119.73 163.359 Q2119.35 163.851 2119.14 163.898 Q2119.05 163.921 2118.96 163.921 Q2118.7 163.921 2118.53 163.804 Q2118.39 163.687 2118.39 163.57 L2118.37 163.453 Q2118.37 163.312 2118.72 162.68 Q2119.1 162.024 2119.8 161.017 Q2120.52 160.01 2121.3 159.143 Q2122.05 158.347 2122.77 157.855 Q2123.52 157.339 2124.23 157.152 Q2124.93 156.965 2125.33 156.918 Q2125.72 156.871 2126.29 156.871 L2142.35 156.871 Q2142.96 156.871 2143.29 156.918 Q2143.62 156.941 2143.95 157.222 Q2144.28 157.48 2144.28 158.019 Z" fill="#000000" fill-rule="nonzero" fill-opacity="1" /><path clip-path="url(#clip120)" d="M2147.93 162.211 Q2147.93 155.161 2149.71 151.32 Q2152.2 145.605 2158.05 145.605 Q2159.29 145.605 2160.58 145.956 Q2161.89 146.284 2163.53 147.572 Q2165.19 148.861 2166.2 150.969 Q2168.12 155.044 2168.12 162.211 Q2168.12 169.215 2166.34 173.033 Q2163.74 178.607 2158 178.607 Q2155.85 178.607 2153.65 177.506 Q2151.47 176.405 2150.09 173.759 Q2147.93 169.8 2147.93 162.211 M2151.91 161.626 Q2151.91 168.863 2152.43 171.744 Q2153.02 174.859 2154.61 176.218 Q2156.22 177.553 2158 177.553 Q2159.92 177.553 2161.52 176.124 Q2163.13 174.672 2163.63 171.557 Q2164.16 168.489 2164.14 161.626 Q2164.14 154.95 2163.67 152.28 Q2163.04 149.165 2161.35 147.924 Q2159.69 146.659 2158 146.659 Q2157.37 146.659 2156.69 146.846 Q2156.04 147.034 2155.08 147.572 Q2154.12 148.111 2153.37 149.446 Q2152.64 150.781 2152.29 152.796 Q2151.91 155.395 2151.91 161.626 Z" fill="#000000" fill-rule="nonzero" fill-opacity="1" /><path clip-path="url(#clip120)" d="M2172.41 176.78 Q2171.68 176.007 2171.68 175 Q2171.68 173.993 2172.41 173.267 Q2173.13 172.517 2174.24 172.517 Q2175.29 172.517 2175.99 173.22 Q2176.72 173.899 2176.72 175.023 Q2176.72 176.124 2175.95 176.85 Q2175.2 177.553 2174.24 177.553 Q2173.13 177.553 2172.41 176.78 Z" fill="#000000" fill-rule="nonzero" fill-opacity="1" /><path clip-path="url(#clip120)" d="M2184.88 177.553 Q2184.88 176.686 2184.95 176.429 Q2185.04 176.171 2185.42 175.773 L2194.62 165.514 Q2199.66 159.846 2199.66 154.904 Q2199.66 151.695 2197.97 149.399 Q2196.31 147.104 2193.24 147.104 Q2191.13 147.104 2189.35 148.392 Q2187.57 149.68 2186.75 151.976 Q2186.89 151.929 2187.39 151.929 Q2188.58 151.929 2189.24 152.678 Q2189.92 153.428 2189.92 154.435 Q2189.92 155.723 2189.07 156.356 Q2188.25 156.965 2187.43 156.965 Q2187.1 156.965 2186.66 156.894 Q2186.24 156.824 2185.56 156.168 Q2184.88 155.489 2184.88 154.295 Q2184.88 150.945 2187.41 148.275 Q2189.96 145.605 2193.85 145.605 Q2198.25 145.605 2201.13 148.228 Q2204.04 150.828 2204.04 154.904 Q2204.04 156.332 2203.59 157.644 Q2203.17 158.932 2202.59 159.939 Q2202.02 160.947 2200.48 162.563 Q2198.93 164.179 2197.69 165.327 Q2196.45 166.474 2193.66 168.91 L2188.58 173.852 L2197.22 173.852 Q2201.44 173.852 2201.77 173.478 Q2202.24 172.798 2202.82 169.215 L2204.04 169.215 L2202.68 177.553 L2184.88 177.553 Z" fill="#000000" fill-rule="nonzero" fill-opacity="1" /><path clip-path="url(#clip120)" d="M2208.82 162.399 Q2208.82 154.857 2212.66 150.242 Q2216.5 145.605 2221.45 145.605 Q2224.33 145.605 2225.92 147.08 Q2227.54 148.533 2227.54 150.781 Q2227.54 152.023 2226.81 152.561 Q2226.08 153.1 2225.33 153.1 Q2224.47 153.1 2223.79 152.514 Q2223.11 151.929 2223.11 150.875 Q2223.11 148.72 2225.76 148.72 Q2224.51 146.799 2221.54 146.799 Q2220.63 146.799 2219.69 147.08 Q2218.75 147.338 2217.53 148.228 Q2216.32 149.118 2215.38 150.524 Q2214.44 151.929 2213.79 154.576 Q2213.13 157.222 2213.13 160.665 L2213.13 161.813 Q2215.1 157.058 2219.13 157.082 Q2223.16 157.082 2225.94 160.15 Q2228.73 163.219 2228.73 167.762 Q2228.73 172.424 2225.83 175.515 Q2222.92 178.607 2218.85 178.607 Q2217.02 178.607 2215.36 177.834 Q2213.72 177.085 2212.17 175.351 Q2210.65 173.618 2209.74 170.292 Q2208.82 166.966 2208.82 162.399 M2213.22 166.708 Q2213.22 171.416 2214.09 173.665 Q2214.23 174.04 2214.54 174.555 Q2214.86 175.07 2215.4 175.75 Q2215.97 176.405 2216.88 176.85 Q2217.79 177.272 2218.85 177.272 Q2222.06 177.272 2223.6 174.157 Q2224.42 172.424 2224.42 167.716 Q2224.42 162.914 2223.55 161.157 Q2222.08 158.183 2219.08 158.183 Q2217.07 158.183 2215.66 159.565 Q2214.28 160.947 2213.74 162.797 Q2213.22 164.647 2213.22 166.708 Z" fill="#000000" fill-rule="nonzero" fill-opacity="1" /><path clip-path="url(#clip120)" d="M2231.72 154.997 L2233.29 145.136 L2234.49 145.136 Q2234.63 145.722 2234.86 145.98 Q2235.12 146.237 2236.48 146.448 Q2237.86 146.659 2240.65 146.659 L2252.29 146.659 Q2252.29 147.76 2251.87 148.345 L2245.38 157.457 Q2243.32 160.338 2242.4 165.654 Q2241.87 169.215 2241.89 173.524 L2241.89 175.96 Q2241.89 178.607 2239.66 178.607 Q2237.46 178.607 2237.46 175.96 Q2237.46 166.802 2243.36 157.925 Q2244 157.012 2246.32 153.756 Q2248.66 150.5 2248.75 150.36 L2238.82 150.36 Q2234.46 150.36 2234.11 150.641 Q2233.64 151.062 2232.92 154.997 L2231.72 154.997 Z" fill="#000000" fill-rule="nonzero" fill-opacity="1" /><path clip-path="url(#clip120)" d="M2118.37 191.4 L2257.2 191.4 L2257.2 188.84 L2118.37 188.84  Z" fill="#000000" fill-rule="evenodd" fill-opacity="1"/>
<path clip-path="url(#clip120)" d="M2147.37 234.443 Q2147.37 226.901 2151.21 222.286 Q2155.05 217.649 2159.99 217.649 Q2162.88 217.649 2164.47 219.124 Q2166.08 220.577 2166.08 222.825 Q2166.08 224.067 2165.36 224.605 Q2164.63 225.144 2163.88 225.144 Q2163.02 225.144 2162.34 224.558 Q2161.66 223.973 2161.66 222.919 Q2161.66 220.764 2164.3 220.764 Q2163.06 218.843 2160.09 218.843 Q2159.17 218.843 2158.24 219.124 Q2157.3 219.382 2156.08 220.272 Q2154.87 221.162 2153.93 222.567 Q2152.99 223.973 2152.34 226.62 Q2151.68 229.266 2151.68 232.709 L2151.68 233.857 Q2153.65 229.102 2157.68 229.126 Q2161.7 229.126 2164.49 232.194 Q2167.28 235.262 2167.28 239.806 Q2167.28 244.467 2164.37 247.559 Q2161.47 250.651 2157.39 250.651 Q2155.57 250.651 2153.9 249.878 Q2152.27 249.129 2150.72 247.395 Q2149.2 245.662 2148.28 242.336 Q2147.37 239.01 2147.37 234.443 M2151.77 238.752 Q2151.77 243.46 2152.64 245.709 Q2152.78 246.084 2153.08 246.599 Q2153.41 247.114 2153.95 247.793 Q2154.51 248.449 2155.43 248.894 Q2156.34 249.316 2157.39 249.316 Q2160.6 249.316 2162.15 246.201 Q2162.97 244.467 2162.97 239.76 Q2162.97 234.958 2162.1 233.201 Q2160.63 230.227 2157.63 230.227 Q2155.61 230.227 2154.21 231.609 Q2152.83 232.99 2152.29 234.841 Q2151.77 236.691 2151.77 238.752 Z" fill="#000000" fill-rule="nonzero" fill-opacity="1" /><path clip-path="url(#clip120)" d="M2200.09 237.745 Q2200.09 237.886 2199.91 238.424 L2196.11 248.777 Q2195.9 249.386 2195.69 249.503 Q2195.48 249.597 2194.61 249.597 L2172.41 249.597 Q2171.87 249.597 2171.66 249.574 Q2171.45 249.55 2171.28 249.433 Q2171.12 249.316 2171.12 249.058 Q2171.12 248.59 2171.28 248.379 Q2171.47 248.168 2171.68 248.145 Q2171.89 248.121 2172.41 248.121 Q2173.58 248.121 2174.28 248.051 Q2174.98 247.981 2175.43 247.887 Q2175.9 247.77 2176.13 247.442 Q2176.39 247.114 2176.51 246.833 Q2176.62 246.529 2176.79 245.849 L2183.21 220.085 Q2183.39 219.312 2183.39 219.195 Q2183.39 218.75 2183.11 218.632 Q2182.85 218.492 2182.11 218.422 L2180.28 218.328 Q2179.72 218.328 2179.48 218.305 Q2179.27 218.281 2179.11 218.164 Q2178.94 218.047 2178.94 217.789 Q2178.94 217.344 2179.11 217.133 Q2179.29 216.899 2179.43 216.876 Q2179.6 216.829 2179.86 216.829 L2186.23 216.97 L2193.32 216.829 Q2194.1 216.829 2194.1 217.415 Q2194.1 218.07 2193.77 218.211 Q2193.44 218.328 2192.27 218.328 Q2190.02 218.328 2188.99 218.562 Q2187.98 218.796 2187.7 219.195 Q2187.45 219.569 2187.19 220.577 L2180.7 246.482 Q2180.47 247.348 2180.47 247.583 Q2180.47 247.84 2180.58 247.934 Q2180.72 248.004 2181.1 248.051 Q2181.52 248.121 2182.15 248.121 L2186.65 248.121 Q2188.01 248.121 2189.2 247.911 Q2190.4 247.7 2191.31 247.395 Q2192.25 247.091 2193.09 246.529 Q2193.93 245.966 2194.52 245.475 Q2195.13 244.959 2195.71 244.163 Q2196.32 243.343 2196.67 242.781 Q2197.05 242.195 2197.47 241.259 Q2197.89 240.298 2198.1 239.76 Q2198.34 239.197 2198.69 238.237 Q2198.9 237.745 2198.97 237.605 Q2199.04 237.464 2199.16 237.347 Q2199.3 237.23 2199.51 237.23 Q2199.79 237.23 2199.93 237.394 Q2200.09 237.558 2200.09 237.745 Z" fill="#000000" fill-rule="nonzero" fill-opacity="1" /><path clip-path="url(#clip120)" d="M2204.93 223.788 Q2204.93 223.182 2204.98 223.001 Q2205.04 222.821 2205.3 222.542 L2211.75 215.361 Q2215.27 211.393 2215.27 207.934 Q2215.27 205.688 2214.09 204.081 Q2212.93 202.474 2210.78 202.474 Q2209.31 202.474 2208.06 203.376 Q2206.81 204.277 2206.24 205.884 Q2206.34 205.851 2206.68 205.851 Q2207.52 205.851 2207.98 206.376 Q2208.45 206.901 2208.45 207.606 Q2208.45 208.508 2207.86 208.95 Q2207.29 209.377 2206.71 209.377 Q2206.48 209.377 2206.17 209.327 Q2205.88 209.278 2205.4 208.819 Q2204.93 208.344 2204.93 207.507 Q2204.93 205.163 2206.7 203.294 Q2208.49 201.425 2211.21 201.425 Q2214.29 201.425 2216.31 203.261 Q2218.34 205.081 2218.34 207.934 Q2218.34 208.934 2218.03 209.852 Q2217.73 210.754 2217.32 211.459 Q2216.93 212.164 2215.85 213.295 Q2214.76 214.426 2213.9 215.23 Q2213.03 216.033 2211.08 217.738 L2207.52 221.198 L2213.57 221.198 Q2216.52 221.198 2216.75 220.936 Q2217.08 220.46 2217.49 217.952 L2218.34 217.952 L2217.39 223.788 L2204.93 223.788 Z" fill="#000000" fill-rule="nonzero" fill-opacity="1" /><circle clip-path="url(#clip120)" cx="1594.42" cy="303.236" r="20.48" fill="#e26f46" fill-rule="evenodd" fill-opacity="1" stroke="#000000" stroke-opacity="1" stroke-width="4.55111"/>
<path clip-path="url(#clip120)" d="M1684.85 285.956 L1704.71 285.956 L1704.71 289.891 L1689.53 289.891 L1689.53 300.076 L1703.23 300.076 L1703.23 304.012 L1689.53 304.012 L1689.53 320.516 L1684.85 320.516 L1684.85 285.956 Z" fill="#000000" fill-rule="nonzero" fill-opacity="1" /><path clip-path="url(#clip120)" d="M1723.51 298.572 Q1722.79 298.155 1721.94 297.97 Q1721.1 297.762 1720.08 297.762 Q1716.47 297.762 1714.53 300.123 Q1712.61 302.461 1712.61 306.859 L1712.61 320.516 L1708.32 320.516 L1708.32 294.59 L1712.61 294.59 L1712.61 298.618 Q1713.95 296.257 1716.1 295.123 Q1718.25 293.965 1721.33 293.965 Q1721.77 293.965 1722.31 294.035 Q1722.84 294.081 1723.49 294.197 L1723.51 298.572 Z" fill="#000000" fill-rule="nonzero" fill-opacity="1" /><path clip-path="url(#clip120)" d="M1749.11 306.488 L1749.11 308.572 L1729.53 308.572 Q1729.81 312.97 1732.17 315.285 Q1734.55 317.576 1738.79 317.576 Q1741.24 317.576 1743.53 316.974 Q1745.85 316.373 1748.12 315.169 L1748.12 319.197 Q1745.82 320.169 1743.42 320.678 Q1741.01 321.187 1738.53 321.187 Q1732.33 321.187 1728.69 317.576 Q1725.08 313.965 1725.08 307.808 Q1725.08 301.442 1728.51 297.715 Q1731.96 293.965 1737.79 293.965 Q1743.02 293.965 1746.06 297.345 Q1749.11 300.701 1749.11 306.488 M1744.85 305.238 Q1744.81 301.743 1742.88 299.66 Q1740.99 297.576 1737.84 297.576 Q1734.27 297.576 1732.12 299.59 Q1729.99 301.604 1729.67 305.262 L1744.85 305.238 Z" fill="#000000" fill-rule="nonzero" fill-opacity="1" /><path clip-path="url(#clip120)" d="M1778.28 306.488 L1778.28 308.572 L1758.69 308.572 Q1758.97 312.97 1761.33 315.285 Q1763.72 317.576 1767.95 317.576 Q1770.41 317.576 1772.7 316.974 Q1775.01 316.373 1777.28 315.169 L1777.28 319.197 Q1774.99 320.169 1772.58 320.678 Q1770.18 321.187 1767.7 321.187 Q1761.5 321.187 1757.86 317.576 Q1754.25 313.965 1754.25 307.808 Q1754.25 301.442 1757.68 297.715 Q1761.12 293.965 1766.96 293.965 Q1772.19 293.965 1775.22 297.345 Q1778.28 300.701 1778.28 306.488 M1774.02 305.238 Q1773.97 301.743 1772.05 299.66 Q1770.15 297.576 1767 297.576 Q1763.44 297.576 1761.29 299.59 Q1759.16 301.604 1758.83 305.262 L1774.02 305.238 Z" fill="#000000" fill-rule="nonzero" fill-opacity="1" /><path clip-path="url(#clip120)" d="M1822.51 306.488 L1822.51 308.572 L1802.93 308.572 Q1803.21 312.97 1805.57 315.285 Q1807.95 317.576 1812.19 317.576 Q1814.64 317.576 1816.93 316.974 Q1819.25 316.373 1821.52 315.169 L1821.52 319.197 Q1819.23 320.169 1816.82 320.678 Q1814.41 321.187 1811.93 321.187 Q1805.73 321.187 1802.1 317.576 Q1798.49 313.965 1798.49 307.808 Q1798.49 301.442 1801.91 297.715 Q1805.36 293.965 1811.19 293.965 Q1816.43 293.965 1819.46 297.345 Q1822.51 300.701 1822.51 306.488 M1818.25 305.238 Q1818.21 301.743 1816.29 299.66 Q1814.39 297.576 1811.24 297.576 Q1807.68 297.576 1805.52 299.59 Q1803.39 301.604 1803.07 305.262 L1818.25 305.238 Z" fill="#000000" fill-rule="nonzero" fill-opacity="1" /><path clip-path="url(#clip120)" d="M1851.05 304.868 L1851.05 320.516 L1846.8 320.516 L1846.8 305.007 Q1846.8 301.326 1845.36 299.498 Q1843.93 297.669 1841.06 297.669 Q1837.61 297.669 1835.62 299.868 Q1833.62 302.067 1833.62 305.863 L1833.62 320.516 L1829.34 320.516 L1829.34 294.59 L1833.62 294.59 L1833.62 298.618 Q1835.15 296.28 1837.21 295.123 Q1839.3 293.965 1842 293.965 Q1846.47 293.965 1848.76 296.743 Q1851.05 299.498 1851.05 304.868 Z" fill="#000000" fill-rule="nonzero" fill-opacity="1" /><path clip-path="url(#clip120)" d="M1881.73 306.488 L1881.73 308.572 L1862.14 308.572 Q1862.42 312.97 1864.78 315.285 Q1867.17 317.576 1871.4 317.576 Q1873.86 317.576 1876.15 316.974 Q1878.46 316.373 1880.73 315.169 L1880.73 319.197 Q1878.44 320.169 1876.03 320.678 Q1873.62 321.187 1871.15 321.187 Q1864.94 321.187 1861.31 317.576 Q1857.7 313.965 1857.7 307.808 Q1857.7 301.442 1861.12 297.715 Q1864.57 293.965 1870.41 293.965 Q1875.64 293.965 1878.67 297.345 Q1881.73 300.701 1881.73 306.488 M1877.47 305.238 Q1877.42 301.743 1875.5 299.66 Q1873.6 297.576 1870.45 297.576 Q1866.89 297.576 1864.74 299.59 Q1862.61 301.604 1862.28 305.262 L1877.47 305.238 Z" fill="#000000" fill-rule="nonzero" fill-opacity="1" /><path clip-path="url(#clip120)" d="M1903.74 298.572 Q1903.02 298.155 1902.17 297.97 Q1901.33 297.762 1900.31 297.762 Q1896.7 297.762 1894.76 300.123 Q1892.84 302.461 1892.84 306.859 L1892.84 320.516 L1888.55 320.516 L1888.55 294.59 L1892.84 294.59 L1892.84 298.618 Q1894.18 296.257 1896.33 295.123 Q1898.49 293.965 1901.56 293.965 Q1902 293.965 1902.54 294.035 Q1903.07 294.081 1903.72 294.197 L1903.74 298.572 Z" fill="#000000" fill-rule="nonzero" fill-opacity="1" /><path clip-path="url(#clip120)" d="M1924.43 307.252 Q1924.43 302.623 1922.51 300.076 Q1920.61 297.53 1917.17 297.53 Q1913.74 297.53 1911.82 300.076 Q1909.92 302.623 1909.92 307.252 Q1909.92 311.859 1911.82 314.405 Q1913.74 316.951 1917.17 316.951 Q1920.61 316.951 1922.51 314.405 Q1924.43 311.859 1924.43 307.252 M1928.69 317.299 Q1928.69 323.919 1925.75 327.136 Q1922.81 330.377 1916.75 330.377 Q1914.5 330.377 1912.51 330.03 Q1910.52 329.706 1908.65 329.011 L1908.65 324.868 Q1910.52 325.886 1912.35 326.373 Q1914.18 326.859 1916.08 326.859 Q1920.27 326.859 1922.35 324.66 Q1924.43 322.484 1924.43 318.062 L1924.43 315.956 Q1923.11 318.248 1921.05 319.382 Q1918.99 320.516 1916.12 320.516 Q1911.36 320.516 1908.44 316.882 Q1905.52 313.248 1905.52 307.252 Q1905.52 301.234 1908.44 297.6 Q1911.36 293.965 1916.12 293.965 Q1918.99 293.965 1921.05 295.1 Q1923.11 296.234 1924.43 298.525 L1924.43 294.59 L1928.69 294.59 L1928.69 317.299 Z" fill="#000000" fill-rule="nonzero" fill-opacity="1" /><path clip-path="url(#clip120)" d="M1948.25 322.924 Q1946.45 327.553 1944.74 328.965 Q1943.02 330.377 1940.15 330.377 L1936.75 330.377 L1936.75 326.812 L1939.25 326.812 Q1941.01 326.812 1941.98 325.979 Q1942.95 325.146 1944.13 322.044 L1944.9 320.099 L1934.41 294.59 L1938.92 294.59 L1947.03 314.868 L1955.13 294.59 L1959.64 294.59 L1948.25 322.924 Z" fill="#000000" fill-rule="nonzero" fill-opacity="1" /><path clip-path="url(#clip120)" d="M1997.65 298.525 L1997.65 284.498 L2001.91 284.498 L2001.91 320.516 L1997.65 320.516 L1997.65 316.627 Q1996.31 318.942 1994.25 320.076 Q1992.21 321.187 1989.34 321.187 Q1984.64 321.187 1981.68 317.437 Q1978.74 313.687 1978.74 307.576 Q1978.74 301.465 1981.68 297.715 Q1984.64 293.965 1989.34 293.965 Q1992.21 293.965 1994.25 295.1 Q1996.31 296.211 1997.65 298.525 M1983.14 307.576 Q1983.14 312.275 1985.06 314.961 Q1987 317.623 1990.38 317.623 Q1993.76 317.623 1995.71 314.961 Q1997.65 312.275 1997.65 307.576 Q1997.65 302.877 1995.71 300.215 Q1993.76 297.53 1990.38 297.53 Q1987 297.53 1985.06 300.215 Q1983.14 302.877 1983.14 307.576 Z" fill="#000000" fill-rule="nonzero" fill-opacity="1" /><path clip-path="url(#clip120)" d="M2032.86 306.488 L2032.86 308.572 L2013.28 308.572 Q2013.55 312.97 2015.92 315.285 Q2018.3 317.576 2022.54 317.576 Q2024.99 317.576 2027.28 316.974 Q2029.6 316.373 2031.86 315.169 L2031.86 319.197 Q2029.57 320.169 2027.17 320.678 Q2024.76 321.187 2022.28 321.187 Q2016.08 321.187 2012.44 317.576 Q2008.83 313.965 2008.83 307.808 Q2008.83 301.442 2012.26 297.715 Q2015.71 293.965 2021.54 293.965 Q2026.77 293.965 2029.8 297.345 Q2032.86 300.701 2032.86 306.488 M2028.6 305.238 Q2028.55 301.743 2026.63 299.66 Q2024.73 297.576 2021.59 297.576 Q2018.02 297.576 2015.87 299.59 Q2013.74 301.604 2013.42 305.262 L2028.6 305.238 Z" fill="#000000" fill-rule="nonzero" fill-opacity="1" /><path clip-path="url(#clip120)" d="M2061.4 304.868 L2061.4 320.516 L2057.14 320.516 L2057.14 305.007 Q2057.14 301.326 2055.71 299.498 Q2054.27 297.669 2051.4 297.669 Q2047.95 297.669 2045.96 299.868 Q2043.97 302.067 2043.97 305.863 L2043.97 320.516 L2039.69 320.516 L2039.69 294.59 L2043.97 294.59 L2043.97 298.618 Q2045.5 296.28 2047.56 295.123 Q2049.64 293.965 2052.35 293.965 Q2056.82 293.965 2059.11 296.743 Q2061.4 299.498 2061.4 304.868 Z" fill="#000000" fill-rule="nonzero" fill-opacity="1" /><path clip-path="url(#clip120)" d="M2086.42 295.354 L2086.42 299.382 Q2084.62 298.456 2082.67 297.993 Q2080.73 297.53 2078.65 297.53 Q2075.48 297.53 2073.88 298.502 Q2072.3 299.475 2072.3 301.419 Q2072.3 302.9 2073.44 303.757 Q2074.57 304.59 2078 305.354 L2079.46 305.678 Q2083.99 306.65 2085.89 308.433 Q2087.81 310.192 2087.81 313.363 Q2087.81 316.974 2084.94 319.081 Q2082.1 321.187 2077.1 321.187 Q2075.01 321.187 2072.74 320.771 Q2070.5 320.377 2068 319.567 L2068 315.169 Q2070.36 316.396 2072.65 317.021 Q2074.94 317.623 2077.19 317.623 Q2080.2 317.623 2081.82 316.604 Q2083.44 315.562 2083.44 313.687 Q2083.44 311.951 2082.26 311.025 Q2081.1 310.099 2077.14 309.243 L2075.66 308.896 Q2071.7 308.062 2069.94 306.35 Q2068.18 304.613 2068.18 301.604 Q2068.18 297.947 2070.78 295.956 Q2073.37 293.965 2078.14 293.965 Q2080.5 293.965 2082.58 294.313 Q2084.66 294.66 2086.42 295.354 Z" fill="#000000" fill-rule="nonzero" fill-opacity="1" /><path clip-path="url(#clip120)" d="M2094.6 294.59 L2098.85 294.59 L2098.85 320.516 L2094.6 320.516 L2094.6 294.59 M2094.6 284.498 L2098.85 284.498 L2098.85 289.891 L2094.6 289.891 L2094.6 284.498 Z" fill="#000000" fill-rule="nonzero" fill-opacity="1" /><path clip-path="url(#clip120)" d="M2111.98 287.229 L2111.98 294.59 L2120.75 294.59 L2120.75 297.9 L2111.98 297.9 L2111.98 311.974 Q2111.98 315.146 2112.84 316.049 Q2113.72 316.951 2116.38 316.951 L2120.75 316.951 L2120.75 320.516 L2116.38 320.516 Q2111.45 320.516 2109.57 318.687 Q2107.7 316.836 2107.7 311.974 L2107.7 297.9 L2104.57 297.9 L2104.57 294.59 L2107.7 294.59 L2107.7 287.229 L2111.98 287.229 Z" fill="#000000" fill-rule="nonzero" fill-opacity="1" /><path clip-path="url(#clip120)" d="M2137.14 322.924 Q2135.34 327.553 2133.62 328.965 Q2131.91 330.377 2129.04 330.377 L2125.64 330.377 L2125.64 326.812 L2128.14 326.812 Q2129.9 326.812 2130.87 325.979 Q2131.84 325.146 2133.02 322.044 L2133.78 320.099 L2123.3 294.59 L2127.81 294.59 L2135.91 314.868 L2144.02 294.59 L2148.53 294.59 L2137.14 322.924 Z" fill="#000000" fill-rule="nonzero" fill-opacity="1" /></svg>
