<?xml version="1.0" encoding="utf-8"?>
<svg xmlns="http://www.w3.org/2000/svg" xmlns:xlink="http://www.w3.org/1999/xlink" width="600" height="400" viewBox="0 0 2400 1600">
<defs>
  <clipPath id="clip780">
    <rect x="0" y="0" width="2400" height="1600"/>
  </clipPath>
</defs>
<path clip-path="url(#clip780)" d="M0 1600 L2400 1600 L2400 8.88178e-14 L0 8.88178e-14  Z" fill="#ffffff" fill-rule="evenodd" fill-opacity="1"/>
<defs>
  <clipPath id="clip781">
    <rect x="280" y="47" width="2074" height="1335"/>
  </clipPath>
</defs>
<path clip-path="url(#clip780)" d="M280.19 1381.61 L2352.76 1381.61 L2352.76 47.2441 L280.19 47.2441  Z" fill="#ffffff" fill-rule="evenodd" fill-opacity="1"/>
<polyline clip-path="url(#clip781)" style="stroke:#000000; stroke-linecap:round; stroke-linejoin:round; stroke-width:2; stroke-opacity:0.1; fill:none" points="-312.903,1381.61 -312.903,47.2441 "/>
<polyline clip-path="url(#clip781)" style="stroke:#000000; stroke-linecap:round; stroke-linejoin:round; stroke-width:2; stroke-opacity:0.1; fill:none" points="2294.1,1381.61 2294.1,47.2441 "/>
<polyline clip-path="url(#clip781)" style="stroke:#000000; stroke-linecap:round; stroke-linejoin:round; stroke-width:2; stroke-opacity:0.1; fill:none" points="1602.45,1381.61 1602.45,47.2441 "/>
<polyline clip-path="url(#clip781)" style="stroke:#000000; stroke-linecap:round; stroke-linejoin:round; stroke-width:2; stroke-opacity:0.1; fill:none" points="1153.54,1381.61 1153.54,47.2441 "/>
<polyline clip-path="url(#clip781)" style="stroke:#000000; stroke-linecap:round; stroke-linejoin:round; stroke-width:2; stroke-opacity:0.1; fill:none" points="845.764,1381.61 845.764,47.2441 "/>
<polyline clip-path="url(#clip781)" style="stroke:#000000; stroke-linecap:round; stroke-linejoin:round; stroke-width:2; stroke-opacity:0.1; fill:none" points="625.618,1381.61 625.618,47.2441 "/>
<polyline clip-path="url(#clip781)" style="stroke:#000000; stroke-linecap:round; stroke-linejoin:round; stroke-width:2; stroke-opacity:0.1; fill:none" points="462.734,1381.61 462.734,47.2441 "/>
<polyline clip-path="url(#clip781)" style="stroke:#000000; stroke-linecap:round; stroke-linejoin:round; stroke-width:2; stroke-opacity:0.1; fill:none" points="338.848,1381.61 338.848,47.2441 "/>
<polyline clip-path="url(#clip781)" style="stroke:#000000; stroke-linecap:round; stroke-linejoin:round; stroke-width:2; stroke-opacity:0.1; fill:none" points="280.19,1310.44 2352.76,1310.44 "/>
<polyline clip-path="url(#clip781)" style="stroke:#000000; stroke-linecap:round; stroke-linejoin:round; stroke-width:2; stroke-opacity:0.1; fill:none" points="280.19,1084.97 2352.76,1084.97 "/>
<polyline clip-path="url(#clip781)" style="stroke:#000000; stroke-linecap:round; stroke-linejoin:round; stroke-width:2; stroke-opacity:0.1; fill:none" points="280.19,859.508 2352.76,859.508 "/>
<polyline clip-path="url(#clip781)" style="stroke:#000000; stroke-linecap:round; stroke-linejoin:round; stroke-width:2; stroke-opacity:0.1; fill:none" points="280.19,634.045 2352.76,634.045 "/>
<polyline clip-path="url(#clip781)" style="stroke:#000000; stroke-linecap:round; stroke-linejoin:round; stroke-width:2; stroke-opacity:0.1; fill:none" points="280.19,408.581 2352.76,408.581 "/>
<polyline clip-path="url(#clip781)" style="stroke:#000000; stroke-linecap:round; stroke-linejoin:round; stroke-width:2; stroke-opacity:0.1; fill:none" points="280.19,183.117 2352.76,183.117 "/>
<polyline clip-path="url(#clip780)" style="stroke:#000000; stroke-linecap:round; stroke-linejoin:round; stroke-width:4; stroke-opacity:1; fill:none" points="280.19,1381.61 2352.76,1381.61 "/>
<polyline clip-path="url(#clip780)" style="stroke:#000000; stroke-linecap:round; stroke-linejoin:round; stroke-width:4; stroke-opacity:1; fill:none" points="-312.903,1381.61 -312.903,1362.71 "/>
<polyline clip-path="url(#clip780)" style="stroke:#000000; stroke-linecap:round; stroke-linejoin:round; stroke-width:4; stroke-opacity:1; fill:none" points="2294.1,1381.61 2294.1,1362.71 "/>
<polyline clip-path="url(#clip780)" style="stroke:#000000; stroke-linecap:round; stroke-linejoin:round; stroke-width:4; stroke-opacity:1; fill:none" points="1602.45,1381.61 1602.45,1362.71 "/>
<polyline clip-path="url(#clip780)" style="stroke:#000000; stroke-linecap:round; stroke-linejoin:round; stroke-width:4; stroke-opacity:1; fill:none" points="1153.54,1381.61 1153.54,1362.71 "/>
<polyline clip-path="url(#clip780)" style="stroke:#000000; stroke-linecap:round; stroke-linejoin:round; stroke-width:4; stroke-opacity:1; fill:none" points="845.764,1381.61 845.764,1362.71 "/>
<polyline clip-path="url(#clip780)" style="stroke:#000000; stroke-linecap:round; stroke-linejoin:round; stroke-width:4; stroke-opacity:1; fill:none" points="625.618,1381.61 625.618,1362.71 "/>
<polyline clip-path="url(#clip780)" style="stroke:#000000; stroke-linecap:round; stroke-linejoin:round; stroke-width:4; stroke-opacity:1; fill:none" points="462.734,1381.61 462.734,1362.71 "/>
<polyline clip-path="url(#clip780)" style="stroke:#000000; stroke-linecap:round; stroke-linejoin:round; stroke-width:4; stroke-opacity:1; fill:none" points="338.848,1381.61 338.848,1362.71 "/>
<path clip-path="url(#clip780)" d="M-324.778 1426.68 Q-324.778 1419.63 -322.998 1415.79 Q-320.515 1410.08 -314.659 1410.08 Q-313.418 1410.08 -312.13 1410.43 Q-310.818 1410.76 -309.178 1412.05 Q-307.515 1413.33 -306.508 1415.44 Q-304.588 1419.52 -304.588 1426.68 Q-304.588 1433.69 -306.368 1437.51 Q-308.968 1443.08 -314.706 1443.08 Q-316.861 1443.08 -319.063 1441.98 Q-321.241 1440.88 -322.623 1438.23 Q-324.778 1434.27 -324.778 1426.68 M-320.796 1426.1 Q-320.796 1433.34 -320.281 1436.22 Q-319.695 1439.33 -318.102 1440.69 Q-316.486 1442.03 -314.706 1442.03 Q-312.785 1442.03 -311.193 1440.6 Q-309.577 1439.15 -309.085 1436.03 Q-308.546 1432.96 -308.569 1426.1 Q-308.569 1419.42 -309.038 1416.75 Q-309.67 1413.64 -311.357 1412.4 Q-313.02 1411.13 -314.706 1411.13 Q-315.338 1411.13 -316.018 1411.32 Q-316.674 1411.51 -317.634 1412.05 Q-318.594 1412.58 -319.344 1413.92 Q-320.07 1415.25 -320.421 1417.27 Q-320.796 1419.87 -320.796 1426.1 Z" fill="#000000" fill-rule="nonzero" fill-opacity="1" /><path clip-path="url(#clip780)" d="M2286.49 1405.07 L2286.49 1403.57 Q2292.25 1403.57 2295.22 1400.5 Q2296.04 1400.5 2296.18 1400.69 Q2296.33 1400.88 2296.33 1401.74 L2296.33 1428.66 Q2296.33 1430.08 2297.03 1430.53 Q2297.73 1430.97 2300.8 1430.97 L2302.32 1430.97 L2302.32 1432.45 Q2300.63 1432.31 2294.55 1432.31 Q2288.46 1432.31 2286.79 1432.45 L2286.79 1430.97 L2288.31 1430.97 Q2291.34 1430.97 2292.06 1430.55 Q2292.79 1430.11 2292.79 1428.66 L2292.79 1403.8 Q2290.28 1405.07 2286.49 1405.07 Z" fill="#000000" fill-rule="nonzero" fill-opacity="1" /><path clip-path="url(#clip780)" d="M2272.49 1445.25 L2320.83 1445.25 L2320.83 1442.69 L2272.49 1442.69  Z" fill="#000000" fill-rule="evenodd" fill-opacity="1"/>
<path clip-path="url(#clip780)" d="M2272.49 1487.48 Q2272.49 1479.94 2276.33 1475.32 Q2280.17 1470.69 2285.11 1470.69 Q2287.99 1470.69 2289.59 1472.16 Q2291.2 1473.61 2291.2 1475.86 Q2291.2 1477.1 2290.48 1477.64 Q2289.75 1478.18 2289 1478.18 Q2288.13 1478.18 2287.45 1477.6 Q2286.78 1477.01 2286.78 1475.96 Q2286.78 1473.8 2289.42 1473.8 Q2288.18 1471.88 2285.21 1471.88 Q2284.29 1471.88 2283.36 1472.16 Q2282.42 1472.42 2281.2 1473.31 Q2279.98 1474.2 2279.05 1475.6 Q2278.11 1477.01 2277.45 1479.66 Q2276.8 1482.3 2276.8 1485.75 L2276.8 1486.89 Q2278.76 1482.14 2282.79 1482.16 Q2286.82 1482.16 2289.61 1485.23 Q2292.4 1488.3 2292.4 1492.84 Q2292.4 1497.5 2289.49 1500.6 Q2286.59 1503.69 2282.51 1503.69 Q2280.69 1503.69 2279.02 1502.92 Q2277.38 1502.17 2275.84 1500.43 Q2274.31 1498.7 2273.4 1495.37 Q2272.49 1492.05 2272.49 1487.48 M2276.89 1491.79 Q2276.89 1496.5 2277.76 1498.75 Q2277.9 1499.12 2278.2 1499.64 Q2278.53 1500.15 2279.07 1500.83 Q2279.63 1501.49 2280.55 1501.93 Q2281.46 1502.35 2282.51 1502.35 Q2285.72 1502.35 2287.27 1499.24 Q2288.09 1497.5 2288.09 1492.8 Q2288.09 1488 2287.22 1486.24 Q2285.74 1483.26 2282.75 1483.26 Q2280.73 1483.26 2279.33 1484.65 Q2277.95 1486.03 2277.41 1487.88 Q2276.89 1489.73 2276.89 1491.79 Z" fill="#000000" fill-rule="nonzero" fill-opacity="1" /><path clip-path="url(#clip780)" d="M2297.31 1477.64 Q2297.31 1477.03 2297.36 1476.85 Q2297.43 1476.67 2297.69 1476.39 L2304.13 1469.21 Q2307.66 1465.24 2307.66 1461.78 Q2307.66 1459.54 2306.48 1457.93 Q2305.31 1456.32 2303.16 1456.32 Q2301.69 1456.32 2300.44 1457.23 Q2299.2 1458.13 2298.62 1459.73 Q2298.72 1459.7 2299.07 1459.7 Q2299.9 1459.7 2300.36 1460.23 Q2300.84 1460.75 2300.84 1461.46 Q2300.84 1462.36 2300.25 1462.8 Q2299.67 1463.23 2299.1 1463.23 Q2298.87 1463.23 2298.56 1463.18 Q2298.26 1463.13 2297.79 1462.67 Q2297.31 1462.19 2297.31 1461.36 Q2297.31 1459.01 2299.08 1457.14 Q2300.87 1455.27 2303.59 1455.27 Q2306.67 1455.27 2308.69 1457.11 Q2310.72 1458.93 2310.72 1461.78 Q2310.72 1462.78 2310.41 1463.7 Q2310.12 1464.6 2309.71 1465.31 Q2309.31 1466.01 2308.23 1467.15 Q2307.15 1468.28 2306.28 1469.08 Q2305.41 1469.88 2303.46 1471.59 L2299.9 1475.05 L2305.95 1475.05 Q2308.9 1475.05 2309.13 1474.79 Q2309.46 1474.31 2309.87 1471.8 L2310.72 1471.8 L2309.77 1477.64 L2297.31 1477.64 Z" fill="#000000" fill-rule="nonzero" fill-opacity="1" /><path clip-path="url(#clip780)" d="M1594.51 1405.07 L1594.51 1403.57 Q1600.27 1403.57 1603.24 1400.5 Q1604.06 1400.5 1604.2 1400.69 Q1604.34 1400.88 1604.34 1401.74 L1604.34 1428.66 Q1604.34 1430.08 1605.05 1430.53 Q1605.75 1430.97 1608.82 1430.97 L1610.34 1430.97 L1610.34 1432.45 Q1608.65 1432.31 1602.56 1432.31 Q1596.47 1432.31 1594.81 1432.45 L1594.81 1430.97 L1596.33 1430.97 Q1599.35 1430.97 1600.08 1430.55 Q1600.81 1430.11 1600.81 1428.66 L1600.81 1403.8 Q1598.3 1405.07 1594.51 1405.07 Z" fill="#000000" fill-rule="nonzero" fill-opacity="1" /><path clip-path="url(#clip780)" d="M1580.51 1445.25 L1629.5 1445.25 L1629.5 1442.69 L1580.51 1442.69  Z" fill="#000000" fill-rule="evenodd" fill-opacity="1"/>
<path clip-path="url(#clip780)" d="M1580.51 1480.53 L1582.08 1470.67 L1583.27 1470.67 Q1583.41 1471.26 1583.64 1471.51 Q1583.9 1471.77 1585.26 1471.98 Q1586.64 1472.19 1589.43 1472.19 L1601.07 1472.19 Q1601.07 1473.29 1600.65 1473.88 L1594.16 1482.99 Q1592.1 1485.87 1591.19 1491.19 Q1590.65 1494.75 1590.67 1499.06 L1590.67 1501.49 Q1590.67 1504.14 1588.45 1504.14 Q1586.24 1504.14 1586.24 1501.49 Q1586.24 1492.34 1592.15 1483.46 Q1592.78 1482.55 1595.1 1479.29 Q1597.44 1476.03 1597.53 1475.89 L1587.6 1475.89 Q1583.25 1475.89 1582.9 1476.18 Q1582.43 1476.6 1581.7 1480.53 L1580.51 1480.53 Z" fill="#000000" fill-rule="nonzero" fill-opacity="1" /><path clip-path="url(#clip780)" d="M1605.99 1477.64 Q1605.99 1477.03 1606.03 1476.85 Q1606.1 1476.67 1606.36 1476.39 L1612.81 1469.21 Q1616.33 1465.24 1616.33 1461.78 Q1616.33 1459.54 1615.15 1457.93 Q1613.99 1456.32 1611.84 1456.32 Q1610.36 1456.32 1609.12 1457.23 Q1607.87 1458.13 1607.3 1459.73 Q1607.4 1459.7 1607.74 1459.7 Q1608.58 1459.7 1609.04 1460.23 Q1609.51 1460.75 1609.51 1461.46 Q1609.51 1462.36 1608.92 1462.8 Q1608.35 1463.23 1607.77 1463.23 Q1607.54 1463.23 1607.23 1463.18 Q1606.94 1463.13 1606.46 1462.67 Q1605.99 1462.19 1605.99 1461.36 Q1605.99 1459.01 1607.76 1457.14 Q1609.54 1455.27 1612.27 1455.27 Q1615.35 1455.27 1617.36 1457.11 Q1619.4 1458.93 1619.4 1461.78 Q1619.4 1462.78 1619.09 1463.7 Q1618.79 1464.6 1618.38 1465.31 Q1617.99 1466.01 1616.91 1467.15 Q1615.82 1468.28 1614.95 1469.08 Q1614.09 1469.88 1612.13 1471.59 L1608.58 1475.05 L1614.63 1475.05 Q1617.58 1475.05 1617.81 1474.79 Q1618.13 1474.31 1618.54 1471.8 L1619.4 1471.8 L1618.45 1477.64 L1605.99 1477.64 Z" fill="#000000" fill-rule="nonzero" fill-opacity="1" /><path clip-path="url(#clip780)" d="M1145.92 1405.07 L1145.92 1403.57 Q1151.69 1403.57 1154.66 1400.5 Q1155.48 1400.5 1155.62 1400.69 Q1155.76 1400.88 1155.76 1401.74 L1155.76 1428.66 Q1155.76 1430.08 1156.46 1430.53 Q1157.17 1430.97 1160.24 1430.97 L1161.76 1430.97 L1161.76 1432.45 Q1160.07 1432.31 1153.98 1432.31 Q1147.89 1432.31 1146.23 1432.45 L1146.23 1430.97 L1147.75 1430.97 Q1150.77 1430.97 1151.5 1430.55 Q1152.23 1430.11 1152.23 1428.66 L1152.23 1403.8 Q1149.72 1405.07 1145.92 1405.07 Z" fill="#000000" fill-rule="nonzero" fill-opacity="1" /><path clip-path="url(#clip780)" d="M1131.92 1445.25 L1180.27 1445.25 L1180.27 1442.69 L1131.92 1442.69  Z" fill="#000000" fill-rule="evenodd" fill-opacity="1"/>
<path clip-path="url(#clip780)" d="M1131.92 1495.4 Q1131.92 1490.03 1138.83 1486.57 Q1135.86 1484.55 1135.32 1483.97 Q1133.21 1481.62 1133.21 1478.7 Q1133.21 1475.35 1135.74 1473.03 Q1138.3 1470.69 1141.9 1470.69 Q1145.35 1470.69 1147.95 1472.68 Q1150.55 1474.67 1150.55 1477.83 Q1150.55 1482.28 1144.74 1485.28 Q1148.58 1487.67 1149.49 1488.67 Q1151.83 1491.27 1151.83 1494.58 Q1151.83 1498.42 1148.88 1501.07 Q1145.93 1503.69 1141.86 1503.69 Q1137.87 1503.69 1134.9 1501.37 Q1131.92 1499.05 1131.92 1495.4 M1134.31 1495.4 Q1134.31 1498.37 1136.54 1500.36 Q1138.79 1502.35 1141.9 1502.35 Q1144.92 1502.35 1147.17 1500.62 Q1149.44 1498.89 1149.44 1496.31 Q1149.44 1495.3 1149.09 1494.44 Q1148.77 1493.57 1148.09 1492.89 Q1147.43 1492.19 1147.01 1491.88 Q1146.61 1491.56 1145.84 1491.02 L1139.94 1487.29 Q1134.31 1490.41 1134.31 1495.4 M1135.32 1476.82 Q1135.32 1479.12 1137.73 1480.71 L1143.68 1484.55 Q1148.44 1481.76 1148.44 1477.83 Q1148.44 1475.28 1146.49 1473.59 Q1144.55 1471.88 1141.86 1471.88 Q1139.21 1471.88 1137.27 1473.29 Q1135.32 1474.67 1135.32 1476.82 Z" fill="#000000" fill-rule="nonzero" fill-opacity="1" /><path clip-path="url(#clip780)" d="M1156.75 1477.64 Q1156.75 1477.03 1156.8 1476.85 Q1156.86 1476.67 1157.12 1476.39 L1163.57 1469.21 Q1167.09 1465.24 1167.09 1461.78 Q1167.09 1459.54 1165.91 1457.93 Q1164.75 1456.32 1162.6 1456.32 Q1161.13 1456.32 1159.88 1457.23 Q1158.63 1458.13 1158.06 1459.73 Q1158.16 1459.7 1158.5 1459.7 Q1159.34 1459.7 1159.8 1460.23 Q1160.27 1460.75 1160.27 1461.46 Q1160.27 1462.36 1159.68 1462.8 Q1159.11 1463.23 1158.54 1463.23 Q1158.31 1463.23 1157.99 1463.18 Q1157.7 1463.13 1157.22 1462.67 Q1156.75 1462.19 1156.75 1461.36 Q1156.75 1459.01 1158.52 1457.14 Q1160.31 1455.27 1163.03 1455.27 Q1166.11 1455.27 1168.13 1457.11 Q1170.16 1458.93 1170.16 1461.78 Q1170.16 1462.78 1169.85 1463.7 Q1169.55 1464.6 1169.14 1465.31 Q1168.75 1466.01 1167.67 1467.15 Q1166.59 1468.28 1165.72 1469.08 Q1164.85 1469.88 1162.9 1471.59 L1159.34 1475.05 L1165.39 1475.05 Q1168.34 1475.05 1168.57 1474.79 Q1168.9 1474.31 1169.31 1471.8 L1170.16 1471.8 L1169.21 1477.64 L1156.75 1477.64 Z" fill="#000000" fill-rule="nonzero" fill-opacity="1" /><path clip-path="url(#clip780)" d="M838.154 1405.07 L838.154 1403.57 Q843.916 1403.57 846.89 1400.5 Q847.71 1400.5 847.851 1400.69 Q847.991 1400.88 847.991 1401.74 L847.991 1428.66 Q847.991 1430.08 848.694 1430.53 Q849.397 1430.97 852.465 1430.97 L853.987 1430.97 L853.987 1432.45 Q852.301 1432.31 846.211 1432.31 Q840.121 1432.31 838.458 1432.45 L838.458 1430.97 L839.981 1430.97 Q843.002 1430.97 843.728 1430.55 Q844.454 1430.11 844.454 1428.66 L844.454 1403.8 Q841.948 1405.07 838.154 1405.07 Z" fill="#000000" fill-rule="nonzero" fill-opacity="1" /><path clip-path="url(#clip780)" d="M824.154 1445.25 L872.495 1445.25 L872.495 1442.69 L824.154 1442.69  Z" fill="#000000" fill-rule="evenodd" fill-opacity="1"/>
<path clip-path="url(#clip780)" d="M824.154 1481.48 Q824.154 1478.93 824.903 1477.2 Q825.653 1475.44 827.222 1473.71 Q830.103 1470.69 834.272 1470.69 Q836.052 1470.69 837.622 1471.44 Q839.214 1472.19 840.713 1473.9 Q842.236 1475.58 843.149 1478.93 Q844.063 1482.26 844.063 1486.85 Q844.063 1494.27 840.456 1498.98 Q836.872 1503.69 832.024 1503.69 Q828.955 1503.69 827.152 1502.31 Q825.348 1500.9 825.348 1498.51 Q825.348 1497.27 826.051 1496.76 Q826.754 1496.22 827.55 1496.22 Q828.417 1496.22 829.096 1496.8 Q829.775 1497.36 829.775 1498.42 Q829.775 1499.28 829.213 1499.96 Q828.674 1500.62 827.269 1500.62 Q828.651 1502.35 831.977 1502.35 Q833.171 1502.35 834.366 1501.81 Q835.561 1501.25 836.849 1499.92 Q838.16 1498.56 838.957 1495.72 Q839.753 1492.89 839.753 1488.91 L839.753 1487.39 Q837.833 1492.19 833.757 1492.19 Q829.728 1492.19 826.941 1489.1 Q824.154 1486 824.154 1481.48 M828.464 1481.53 Q828.464 1486.29 829.33 1488.04 Q830.806 1491.06 833.804 1491.06 Q836.732 1491.06 838.184 1488.46 Q839.659 1485.84 839.659 1482.44 Q839.659 1477.74 838.887 1475.68 Q837.458 1471.88 834.272 1471.88 Q831.11 1471.88 829.471 1474.9 Q828.464 1476.68 828.464 1481.53 Z" fill="#000000" fill-rule="nonzero" fill-opacity="1" /><path clip-path="url(#clip780)" d="M848.977 1477.64 Q848.977 1477.03 849.026 1476.85 Q849.092 1476.67 849.354 1476.39 L855.798 1469.21 Q859.323 1465.24 859.323 1461.78 Q859.323 1459.54 858.142 1457.93 Q856.978 1456.32 854.83 1456.32 Q853.355 1456.32 852.109 1457.23 Q850.862 1458.13 850.289 1459.73 Q850.387 1459.7 850.731 1459.7 Q851.567 1459.7 852.027 1460.23 Q852.502 1460.75 852.502 1461.46 Q852.502 1462.36 851.912 1462.8 Q851.338 1463.23 850.764 1463.23 Q850.535 1463.23 850.223 1463.18 Q849.928 1463.13 849.452 1462.67 Q848.977 1462.19 848.977 1461.36 Q848.977 1459.01 850.748 1457.14 Q852.535 1455.27 855.256 1455.27 Q858.339 1455.27 860.356 1457.11 Q862.389 1458.93 862.389 1461.78 Q862.389 1462.78 862.077 1463.7 Q861.782 1464.6 861.372 1465.31 Q860.979 1466.01 859.896 1467.15 Q858.814 1468.28 857.945 1469.08 Q857.076 1469.88 855.125 1471.59 L851.567 1475.05 L857.617 1475.05 Q860.569 1475.05 860.798 1474.79 Q861.126 1474.31 861.536 1471.8 L862.389 1471.8 L861.438 1477.64 L848.977 1477.64 Z" fill="#000000" fill-rule="nonzero" fill-opacity="1" /><path clip-path="url(#clip780)" d="M617.991 1405.07 L617.991 1403.57 Q623.753 1403.57 626.728 1400.5 Q627.548 1400.5 627.688 1400.69 Q627.829 1400.88 627.829 1401.74 L627.829 1428.66 Q627.829 1430.08 628.532 1430.53 Q629.234 1430.97 632.303 1430.97 L633.825 1430.97 L633.825 1432.45 Q632.139 1432.31 626.049 1432.31 Q619.959 1432.31 618.296 1432.45 L618.296 1430.97 L619.818 1430.97 Q622.84 1430.97 623.566 1430.55 Q624.292 1430.11 624.292 1428.66 L624.292 1403.8 Q621.786 1405.07 617.991 1405.07 Z" fill="#000000" fill-rule="nonzero" fill-opacity="1" /><path clip-path="url(#clip780)" d="M591.991 1445.25 L664.364 1445.25 L664.364 1442.69 L591.991 1442.69  Z" fill="#000000" fill-rule="evenodd" fill-opacity="1"/>
<path clip-path="url(#clip780)" d="M591.991 1475.25 L591.991 1473.75 Q597.753 1473.75 600.728 1470.69 Q601.548 1470.69 601.688 1470.87 Q601.829 1471.06 601.829 1471.93 L601.829 1498.84 Q601.829 1500.27 602.532 1500.71 Q603.234 1501.16 606.303 1501.16 L607.825 1501.16 L607.825 1502.63 Q606.139 1502.49 600.049 1502.49 Q593.959 1502.49 592.296 1502.63 L592.296 1501.16 L593.818 1501.16 Q596.84 1501.16 597.566 1500.74 Q598.292 1500.29 598.292 1498.84 L598.292 1473.99 Q595.786 1475.25 591.991 1475.25 Z" fill="#000000" fill-rule="nonzero" fill-opacity="1" /><path clip-path="url(#clip780)" d="M615.741 1487.29 Q615.741 1480.24 617.522 1476.4 Q620.004 1470.69 625.86 1470.69 Q627.101 1470.69 628.39 1471.04 Q629.701 1471.37 631.341 1472.65 Q633.004 1473.94 634.011 1476.05 Q635.932 1480.13 635.932 1487.29 Q635.932 1494.3 634.151 1498.11 Q631.552 1503.69 625.813 1503.69 Q623.658 1503.69 621.456 1502.59 Q619.278 1501.49 617.896 1498.84 Q615.741 1494.88 615.741 1487.29 M619.723 1486.71 Q619.723 1493.94 620.239 1496.83 Q620.824 1499.94 622.417 1501.3 Q624.033 1502.63 625.813 1502.63 Q627.734 1502.63 629.326 1501.21 Q630.943 1499.75 631.434 1496.64 Q631.973 1493.57 631.95 1486.71 Q631.95 1480.03 631.481 1477.36 Q630.849 1474.25 629.162 1473 Q627.499 1471.74 625.813 1471.74 Q625.181 1471.74 624.501 1471.93 Q623.846 1472.11 622.885 1472.65 Q621.925 1473.19 621.175 1474.53 Q620.449 1475.86 620.098 1477.88 Q619.723 1480.48 619.723 1486.71 Z" fill="#000000" fill-rule="nonzero" fill-opacity="1" /><path clip-path="url(#clip780)" d="M640.846 1477.64 Q640.846 1477.03 640.895 1476.85 Q640.961 1476.67 641.223 1476.39 L647.666 1469.21 Q651.191 1465.24 651.191 1461.78 Q651.191 1459.54 650.011 1457.93 Q648.847 1456.32 646.699 1456.32 Q645.223 1456.32 643.977 1457.23 Q642.731 1458.13 642.157 1459.73 Q642.256 1459.7 642.6 1459.7 Q643.436 1459.7 643.895 1460.23 Q644.371 1460.75 644.371 1461.46 Q644.371 1462.36 643.781 1462.8 Q643.207 1463.23 642.633 1463.23 Q642.403 1463.23 642.092 1463.18 Q641.797 1463.13 641.321 1462.67 Q640.846 1462.19 640.846 1461.36 Q640.846 1459.01 642.617 1457.14 Q644.404 1455.27 647.125 1455.27 Q650.208 1455.27 652.224 1457.11 Q654.257 1458.93 654.257 1461.78 Q654.257 1462.78 653.946 1463.7 Q653.651 1464.6 653.241 1465.31 Q652.847 1466.01 651.765 1467.15 Q650.683 1468.28 649.814 1469.08 Q648.945 1469.88 646.994 1471.59 L643.436 1475.05 L649.486 1475.05 Q652.438 1475.05 652.667 1474.79 Q652.995 1474.31 653.405 1471.8 L654.257 1471.8 L653.307 1477.64 L640.846 1477.64 Z" fill="#000000" fill-rule="nonzero" fill-opacity="1" /><path clip-path="url(#clip780)" d="M455.264 1405.07 L455.264 1403.57 Q461.026 1403.57 464.001 1400.5 Q464.82 1400.5 464.961 1400.69 Q465.101 1400.88 465.101 1401.74 L465.101 1428.66 Q465.101 1430.08 465.804 1430.53 Q466.507 1430.97 469.575 1430.97 L471.098 1430.97 L471.098 1432.45 Q469.411 1432.31 463.321 1432.31 Q457.231 1432.31 455.568 1432.45 L455.568 1430.97 L457.091 1430.97 Q460.112 1430.97 460.839 1430.55 Q461.565 1430.11 461.565 1428.66 L461.565 1403.8 Q459.058 1405.07 455.264 1405.07 Z" fill="#000000" fill-rule="nonzero" fill-opacity="1" /><path clip-path="url(#clip780)" d="M431.264 1445.25 L499.324 1445.25 L499.324 1442.69 L431.264 1442.69  Z" fill="#000000" fill-rule="evenodd" fill-opacity="1"/>
<path clip-path="url(#clip780)" d="M431.264 1475.25 L431.264 1473.75 Q437.026 1473.75 440.001 1470.69 Q440.82 1470.69 440.961 1470.87 Q441.101 1471.06 441.101 1471.93 L441.101 1498.84 Q441.101 1500.27 441.804 1500.71 Q442.507 1501.16 445.575 1501.16 L447.098 1501.16 L447.098 1502.63 Q445.411 1502.49 439.321 1502.49 Q433.231 1502.49 431.568 1502.63 L431.568 1501.16 L433.091 1501.16 Q436.112 1501.16 436.839 1500.74 Q437.565 1500.29 437.565 1498.84 L437.565 1473.99 Q435.058 1475.25 431.264 1475.25 Z" fill="#000000" fill-rule="nonzero" fill-opacity="1" /><path clip-path="url(#clip780)" d="M455.014 1475.25 L455.014 1473.75 Q460.776 1473.75 463.751 1470.69 Q464.57 1470.69 464.711 1470.87 Q464.851 1471.06 464.851 1471.93 L464.851 1498.84 Q464.851 1500.27 465.554 1500.71 Q466.257 1501.16 469.325 1501.16 L470.848 1501.16 L470.848 1502.63 Q469.161 1502.49 463.071 1502.49 Q456.981 1502.49 455.318 1502.63 L455.318 1501.16 L456.841 1501.16 Q459.862 1501.16 460.589 1500.74 Q461.315 1500.29 461.315 1498.84 L461.315 1473.99 Q458.808 1475.25 455.014 1475.25 Z" fill="#000000" fill-rule="nonzero" fill-opacity="1" /><path clip-path="url(#clip780)" d="M475.806 1477.64 Q475.806 1477.03 475.855 1476.85 Q475.921 1476.67 476.183 1476.39 L482.626 1469.21 Q486.152 1465.24 486.152 1461.78 Q486.152 1459.54 484.971 1457.93 Q483.807 1456.32 481.659 1456.32 Q480.183 1456.32 478.937 1457.23 Q477.691 1458.13 477.117 1459.73 Q477.216 1459.7 477.56 1459.7 Q478.396 1459.7 478.855 1460.23 Q479.331 1460.75 479.331 1461.46 Q479.331 1462.36 478.741 1462.8 Q478.167 1463.23 477.593 1463.23 Q477.363 1463.23 477.052 1463.18 Q476.757 1463.13 476.281 1462.67 Q475.806 1462.19 475.806 1461.36 Q475.806 1459.01 477.577 1457.14 Q479.364 1455.27 482.085 1455.27 Q485.168 1455.27 487.184 1457.11 Q489.218 1458.93 489.218 1461.78 Q489.218 1462.78 488.906 1463.7 Q488.611 1464.6 488.201 1465.31 Q487.807 1466.01 486.725 1467.15 Q485.643 1468.28 484.774 1469.08 Q483.905 1469.88 481.954 1471.59 L478.396 1475.05 L484.446 1475.05 Q487.398 1475.05 487.627 1474.79 Q487.955 1474.31 488.365 1471.8 L489.218 1471.8 L488.267 1477.64 L475.806 1477.64 Z" fill="#000000" fill-rule="nonzero" fill-opacity="1" /><path clip-path="url(#clip780)" d="M330.729 1405.07 L330.729 1403.57 Q336.491 1403.57 339.466 1400.5 Q340.285 1400.5 340.426 1400.69 Q340.567 1400.88 340.567 1401.74 L340.567 1428.66 Q340.567 1430.08 341.269 1430.53 Q341.972 1430.97 345.04 1430.97 L346.563 1430.97 L346.563 1432.45 Q344.876 1432.31 338.786 1432.31 Q332.697 1432.31 331.034 1432.45 L331.034 1430.97 L332.556 1430.97 Q335.578 1430.97 336.304 1430.55 Q337.03 1430.11 337.03 1428.66 L337.03 1403.8 Q334.524 1405.07 330.729 1405.07 Z" fill="#000000" fill-rule="nonzero" fill-opacity="1" /><path clip-path="url(#clip780)" d="M305.729 1445.25 L377.086 1445.25 L377.086 1442.69 L305.729 1442.69  Z" fill="#000000" fill-rule="evenodd" fill-opacity="1"/>
<path clip-path="url(#clip780)" d="M305.729 1475.25 L305.729 1473.75 Q311.491 1473.75 314.466 1470.69 Q315.285 1470.69 315.426 1470.87 Q315.567 1471.06 315.567 1471.93 L315.567 1498.84 Q315.567 1500.27 316.269 1500.71 Q316.972 1501.16 320.04 1501.16 L321.563 1501.16 L321.563 1502.63 Q319.876 1502.49 313.786 1502.49 Q307.697 1502.49 306.034 1502.63 L306.034 1501.16 L307.556 1501.16 Q310.578 1501.16 311.304 1500.74 Q312.03 1500.29 312.03 1498.84 L312.03 1473.99 Q309.524 1475.25 305.729 1475.25 Z" fill="#000000" fill-rule="nonzero" fill-opacity="1" /><path clip-path="url(#clip780)" d="M329.479 1502.63 Q329.479 1501.77 329.549 1501.51 Q329.643 1501.25 330.018 1500.85 L339.223 1490.6 Q344.259 1484.93 344.259 1479.98 Q344.259 1476.78 342.572 1474.48 Q340.909 1472.19 337.841 1472.19 Q335.733 1472.19 333.953 1473.47 Q332.173 1474.76 331.353 1477.06 Q331.493 1477.01 331.985 1477.01 Q333.18 1477.01 333.836 1477.76 Q334.515 1478.51 334.515 1479.52 Q334.515 1480.8 333.672 1481.44 Q332.852 1482.05 332.032 1482.05 Q331.704 1482.05 331.259 1481.98 Q330.838 1481.91 330.158 1481.25 Q329.479 1480.57 329.479 1479.38 Q329.479 1476.03 332.009 1473.36 Q334.562 1470.69 338.45 1470.69 Q342.853 1470.69 345.734 1473.31 Q348.639 1475.91 348.639 1479.98 Q348.639 1481.41 348.194 1482.73 Q347.772 1484.01 347.186 1485.02 Q346.624 1486.03 345.078 1487.64 Q343.533 1489.26 342.291 1490.41 Q341.05 1491.56 338.263 1493.99 L333.18 1498.93 L341.823 1498.93 Q346.039 1498.93 346.367 1498.56 Q346.835 1497.88 347.421 1494.3 L348.639 1494.3 L347.28 1502.63 L329.479 1502.63 Z" fill="#000000" fill-rule="nonzero" fill-opacity="1" /><path clip-path="url(#clip780)" d="M353.568 1477.64 Q353.568 1477.03 353.617 1476.85 Q353.683 1476.67 353.945 1476.39 L360.388 1469.21 Q363.914 1465.24 363.914 1461.78 Q363.914 1459.54 362.733 1457.93 Q361.569 1456.32 359.421 1456.32 Q357.946 1456.32 356.699 1457.23 Q355.453 1458.13 354.88 1459.73 Q354.978 1459.7 355.322 1459.7 Q356.158 1459.7 356.617 1460.23 Q357.093 1460.75 357.093 1461.46 Q357.093 1462.36 356.503 1462.8 Q355.929 1463.23 355.355 1463.23 Q355.125 1463.23 354.814 1463.18 Q354.519 1463.13 354.043 1462.67 Q353.568 1462.19 353.568 1461.36 Q353.568 1459.01 355.339 1457.14 Q357.126 1455.27 359.847 1455.27 Q362.93 1455.27 364.946 1457.11 Q366.98 1458.93 366.98 1461.78 Q366.98 1462.78 366.668 1463.7 Q366.373 1464.6 365.963 1465.31 Q365.57 1466.01 364.487 1467.15 Q363.405 1468.28 362.536 1469.08 Q361.667 1469.88 359.716 1471.59 L356.158 1475.05 L362.208 1475.05 Q365.16 1475.05 365.389 1474.79 Q365.717 1474.31 366.127 1471.8 L366.98 1471.8 L366.029 1477.64 L353.568 1477.64 Z" fill="#000000" fill-rule="nonzero" fill-opacity="1" /><path clip-path="url(#clip780)" d="M1247.91 1541.02 L1247.91 1538.96 Q1255.84 1538.96 1259.93 1534.74 Q1261.05 1534.74 1261.25 1535 Q1261.44 1535.25 1261.44 1536.45 L1261.44 1573.45 Q1261.44 1575.41 1262.41 1576.03 Q1263.37 1576.64 1267.59 1576.64 L1269.69 1576.64 L1269.69 1578.67 Q1267.37 1578.47 1258.99 1578.47 Q1250.62 1578.47 1248.33 1578.67 L1248.33 1576.64 L1250.43 1576.64 Q1254.58 1576.64 1255.58 1576.06 Q1256.58 1575.45 1256.58 1573.45 L1256.58 1539.28 Q1253.13 1541.02 1247.91 1541.02 Z" fill="#000000" fill-rule="nonzero" fill-opacity="1" /><path clip-path="url(#clip780)" d="M1280.58 1594.22 Q1280.58 1593.9 1280.84 1593.19 L1304.12 1530.97 Q1304.12 1530.91 1304.28 1530.55 Q1304.44 1530.2 1304.54 1529.97 Q1304.64 1529.71 1304.83 1529.52 Q1305.06 1529.33 1305.31 1529.33 Q1305.96 1529.33 1305.96 1530.13 Q1305.96 1530.2 1305.76 1530.97 L1282.41 1593.26 Q1282.03 1594.38 1281.77 1594.71 Q1281.55 1595.03 1281.16 1595.03 Q1280.58 1595.03 1280.58 1594.22 Z" fill="#000000" fill-rule="nonzero" fill-opacity="1" /><path clip-path="url(#clip780)" d="M1353.08 1562.37 Q1353.08 1562.56 1352.82 1563.3 L1347.61 1577.54 Q1347.32 1578.38 1347.03 1578.54 Q1346.74 1578.67 1345.55 1578.67 L1315.01 1578.67 Q1314.27 1578.67 1313.98 1578.63 Q1313.69 1578.6 1313.47 1578.44 Q1313.24 1578.28 1313.24 1577.93 Q1313.24 1577.28 1313.47 1576.99 Q1313.73 1576.7 1314.02 1576.67 Q1314.31 1576.64 1315.01 1576.64 Q1316.62 1576.64 1317.59 1576.54 Q1318.56 1576.44 1319.17 1576.32 Q1319.81 1576.15 1320.14 1575.7 Q1320.49 1575.25 1320.65 1574.87 Q1320.81 1574.45 1321.04 1573.51 L1329.86 1538.09 Q1330.12 1537.02 1330.12 1536.86 Q1330.12 1536.25 1329.73 1536.09 Q1329.38 1535.9 1328.35 1535.8 L1325.84 1535.67 Q1325.06 1535.67 1324.74 1535.64 Q1324.45 1535.61 1324.23 1535.45 Q1324 1535.29 1324 1534.93 Q1324 1534.32 1324.23 1534.03 Q1324.48 1533.71 1324.68 1533.68 Q1324.9 1533.61 1325.26 1533.61 L1334.02 1533.8 L1343.77 1533.61 Q1344.84 1533.61 1344.84 1534.42 Q1344.84 1535.32 1344.39 1535.51 Q1343.94 1535.67 1342.33 1535.67 Q1339.23 1535.67 1337.82 1535.99 Q1336.43 1536.32 1336.04 1536.86 Q1335.69 1537.38 1335.34 1538.76 L1326.42 1574.38 Q1326.09 1575.58 1326.09 1575.9 Q1326.09 1576.25 1326.25 1576.38 Q1326.45 1576.48 1326.96 1576.54 Q1327.54 1576.64 1328.41 1576.64 L1334.6 1576.64 Q1336.46 1576.64 1338.11 1576.35 Q1339.75 1576.06 1341 1575.64 Q1342.29 1575.22 1343.45 1574.45 Q1344.61 1573.68 1345.42 1573 Q1346.25 1572.29 1347.06 1571.2 Q1347.9 1570.07 1348.38 1569.3 Q1348.9 1568.49 1349.47 1567.2 Q1350.05 1565.88 1350.34 1565.14 Q1350.67 1564.37 1351.15 1563.05 Q1351.44 1562.37 1351.54 1562.18 Q1351.63 1561.98 1351.79 1561.82 Q1351.99 1561.66 1352.28 1561.66 Q1352.66 1561.66 1352.86 1561.89 Q1353.08 1562.11 1353.08 1562.37 Z" fill="#000000" fill-rule="nonzero" fill-opacity="1" /><path clip-path="url(#clip780)" d="M1359.74 1543.18 Q1359.74 1542.35 1359.8 1542.1 Q1359.89 1541.85 1360.25 1541.47 L1369.11 1531.59 Q1373.96 1526.14 1373.96 1521.38 Q1373.96 1518.29 1372.34 1516.08 Q1370.74 1513.87 1367.78 1513.87 Q1365.76 1513.87 1364.04 1515.11 Q1362.33 1516.35 1361.54 1518.56 Q1361.68 1518.52 1362.15 1518.52 Q1363.3 1518.52 1363.93 1519.24 Q1364.58 1519.96 1364.58 1520.93 Q1364.58 1522.17 1363.77 1522.78 Q1362.98 1523.36 1362.19 1523.36 Q1361.88 1523.36 1361.45 1523.3 Q1361.04 1523.23 1360.39 1522.6 Q1359.74 1521.94 1359.74 1520.79 Q1359.74 1517.57 1362.17 1515 Q1364.63 1512.43 1368.37 1512.43 Q1372.61 1512.43 1375.38 1514.96 Q1378.18 1517.46 1378.18 1521.38 Q1378.18 1522.76 1377.75 1524.02 Q1377.34 1525.26 1376.78 1526.23 Q1376.24 1527.2 1374.75 1528.75 Q1373.26 1530.31 1372.07 1531.41 Q1370.87 1532.52 1368.19 1534.86 L1363.3 1539.62 L1371.62 1539.62 Q1375.67 1539.62 1375.99 1539.26 Q1376.44 1538.6 1377.01 1535.15 L1378.18 1535.15 L1376.87 1543.18 L1359.74 1543.18 Z" fill="#000000" fill-rule="nonzero" fill-opacity="1" /><polyline clip-path="url(#clip780)" style="stroke:#000000; stroke-linecap:round; stroke-linejoin:round; stroke-width:4; stroke-opacity:1; fill:none" points="280.19,1381.61 280.19,47.2441 "/>
<polyline clip-path="url(#clip780)" style="stroke:#000000; stroke-linecap:round; stroke-linejoin:round; stroke-width:4; stroke-opacity:1; fill:none" points="280.19,1310.44 299.088,1310.44 "/>
<polyline clip-path="url(#clip780)" style="stroke:#000000; stroke-linecap:round; stroke-linejoin:round; stroke-width:4; stroke-opacity:1; fill:none" points="280.19,1084.97 299.088,1084.97 "/>
<polyline clip-path="url(#clip780)" style="stroke:#000000; stroke-linecap:round; stroke-linejoin:round; stroke-width:4; stroke-opacity:1; fill:none" points="280.19,859.508 299.088,859.508 "/>
<polyline clip-path="url(#clip780)" style="stroke:#000000; stroke-linecap:round; stroke-linejoin:round; stroke-width:4; stroke-opacity:1; fill:none" points="280.19,634.045 299.088,634.045 "/>
<polyline clip-path="url(#clip780)" style="stroke:#000000; stroke-linecap:round; stroke-linejoin:round; stroke-width:4; stroke-opacity:1; fill:none" points="280.19,408.581 299.088,408.581 "/>
<polyline clip-path="url(#clip780)" style="stroke:#000000; stroke-linecap:round; stroke-linejoin:round; stroke-width:4; stroke-opacity:1; fill:none" points="280.19,183.117 299.088,183.117 "/>
<path clip-path="url(#clip780)" d="M127.917 1296.23 Q124.306 1296.23 122.478 1299.8 Q120.672 1303.34 120.672 1310.47 Q120.672 1317.58 122.478 1321.14 Q124.306 1324.68 127.917 1324.68 Q131.552 1324.68 133.357 1321.14 Q135.186 1317.58 135.186 1310.47 Q135.186 1303.34 133.357 1299.8 Q131.552 1296.23 127.917 1296.23 M127.917 1292.53 Q133.728 1292.53 136.783 1297.14 Q139.862 1301.72 139.862 1310.47 Q139.862 1319.2 136.783 1323.8 Q133.728 1328.39 127.917 1328.39 Q122.107 1328.39 119.029 1323.8 Q115.973 1319.2 115.973 1310.47 Q115.973 1301.72 119.029 1297.14 Q122.107 1292.53 127.917 1292.53 Z" fill="#000000" fill-rule="nonzero" fill-opacity="1" /><path clip-path="url(#clip780)" d="M148.079 1321.84 L152.964 1321.84 L152.964 1327.72 L148.079 1327.72 L148.079 1321.84 Z" fill="#000000" fill-rule="nonzero" fill-opacity="1" /><path clip-path="url(#clip780)" d="M167.177 1323.78 L183.496 1323.78 L183.496 1327.72 L161.552 1327.72 L161.552 1323.78 Q164.214 1321.03 168.797 1316.4 Q173.403 1311.74 174.584 1310.4 Q176.829 1307.88 177.709 1306.14 Q178.612 1304.38 178.612 1302.69 Q178.612 1299.94 176.667 1298.2 Q174.746 1296.47 171.644 1296.47 Q169.445 1296.47 166.991 1297.23 Q164.561 1297.99 161.783 1299.54 L161.783 1294.82 Q164.607 1293.69 167.061 1293.11 Q169.514 1292.53 171.552 1292.53 Q176.922 1292.53 180.116 1295.22 Q183.311 1297.9 183.311 1302.39 Q183.311 1304.52 182.501 1306.44 Q181.713 1308.34 179.607 1310.93 Q179.028 1311.6 175.926 1314.82 Q172.825 1318.02 167.177 1323.78 Z" fill="#000000" fill-rule="nonzero" fill-opacity="1" /><path clip-path="url(#clip780)" d="M193.45 1327 L193.45 1322.74 Q195.209 1323.57 197.014 1324.01 Q198.82 1324.45 200.556 1324.45 Q205.186 1324.45 207.616 1321.35 Q210.07 1318.23 210.417 1311.88 Q209.074 1313.87 207.014 1314.94 Q204.954 1316 202.454 1316 Q197.269 1316 194.237 1312.88 Q191.227 1309.73 191.227 1304.29 Q191.227 1298.97 194.375 1295.75 Q197.524 1292.53 202.755 1292.53 Q208.75 1292.53 211.899 1297.14 Q215.07 1301.72 215.07 1310.47 Q215.07 1318.64 211.181 1323.53 Q207.315 1328.39 200.764 1328.39 Q199.005 1328.39 197.2 1328.04 Q195.394 1327.69 193.45 1327 M202.755 1312.35 Q205.903 1312.35 207.732 1310.19 Q209.584 1308.04 209.584 1304.29 Q209.584 1300.56 207.732 1298.41 Q205.903 1296.23 202.755 1296.23 Q199.607 1296.23 197.755 1298.41 Q195.926 1300.56 195.926 1304.29 Q195.926 1308.04 197.755 1310.19 Q199.607 1312.35 202.755 1312.35 Z" fill="#000000" fill-rule="nonzero" fill-opacity="1" /><path clip-path="url(#clip780)" d="M224.283 1323.78 L231.922 1323.78 L231.922 1297.42 L223.611 1299.08 L223.611 1294.82 L231.875 1293.16 L236.551 1293.16 L236.551 1323.78 L244.19 1323.78 L244.19 1327.72 L224.283 1327.72 L224.283 1323.78 Z" fill="#000000" fill-rule="nonzero" fill-opacity="1" /><path clip-path="url(#clip780)" d="M128.288 1070.77 Q124.677 1070.77 122.848 1074.34 Q121.043 1077.88 121.043 1085.01 Q121.043 1092.11 122.848 1095.68 Q124.677 1099.22 128.288 1099.22 Q131.922 1099.22 133.728 1095.68 Q135.556 1092.11 135.556 1085.01 Q135.556 1077.88 133.728 1074.34 Q131.922 1070.77 128.288 1070.77 M128.288 1067.07 Q134.098 1067.07 137.154 1071.67 Q140.232 1076.26 140.232 1085.01 Q140.232 1093.73 137.154 1098.34 Q134.098 1102.92 128.288 1102.92 Q122.478 1102.92 119.399 1098.34 Q116.343 1093.73 116.343 1085.01 Q116.343 1076.26 119.399 1071.67 Q122.478 1067.07 128.288 1067.07 Z" fill="#000000" fill-rule="nonzero" fill-opacity="1" /><path clip-path="url(#clip780)" d="M148.45 1096.37 L153.334 1096.37 L153.334 1102.25 L148.45 1102.25 L148.45 1096.37 Z" fill="#000000" fill-rule="nonzero" fill-opacity="1" /><path clip-path="url(#clip780)" d="M167.547 1098.32 L183.866 1098.32 L183.866 1102.25 L161.922 1102.25 L161.922 1098.32 Q164.584 1095.56 169.167 1090.93 Q173.774 1086.28 174.954 1084.94 Q177.2 1082.41 178.079 1080.68 Q178.982 1078.92 178.982 1077.23 Q178.982 1074.47 177.038 1072.74 Q175.116 1071 172.014 1071 Q169.815 1071 167.362 1071.77 Q164.931 1072.53 162.153 1074.08 L162.153 1069.36 Q164.977 1068.22 167.431 1067.65 Q169.885 1067.07 171.922 1067.07 Q177.292 1067.07 180.487 1069.75 Q183.681 1072.44 183.681 1076.93 Q183.681 1079.06 182.871 1080.98 Q182.084 1082.88 179.977 1085.47 Q179.399 1086.14 176.297 1089.36 Q173.195 1092.55 167.547 1098.32 Z" fill="#000000" fill-rule="nonzero" fill-opacity="1" /><path clip-path="url(#clip780)" d="M193.82 1101.53 L193.82 1097.28 Q195.579 1098.11 197.385 1098.55 Q199.19 1098.99 200.926 1098.99 Q205.556 1098.99 207.987 1095.89 Q210.44 1092.76 210.787 1086.42 Q209.445 1088.41 207.385 1089.47 Q205.324 1090.54 202.824 1090.54 Q197.639 1090.54 194.607 1087.41 Q191.598 1084.27 191.598 1078.83 Q191.598 1073.5 194.746 1070.28 Q197.894 1067.07 203.125 1067.07 Q209.121 1067.07 212.269 1071.67 Q215.44 1076.26 215.44 1085.01 Q215.44 1093.18 211.551 1098.06 Q207.686 1102.92 201.135 1102.92 Q199.375 1102.92 197.57 1102.58 Q195.764 1102.23 193.82 1101.53 M203.125 1086.88 Q206.274 1086.88 208.102 1084.73 Q209.954 1082.58 209.954 1078.83 Q209.954 1075.1 208.102 1072.95 Q206.274 1070.77 203.125 1070.77 Q199.977 1070.77 198.125 1072.95 Q196.297 1075.1 196.297 1078.83 Q196.297 1082.58 198.125 1084.73 Q199.977 1086.88 203.125 1086.88 Z" fill="#000000" fill-rule="nonzero" fill-opacity="1" /><path clip-path="url(#clip780)" d="M227.871 1098.32 L244.19 1098.32 L244.19 1102.25 L222.246 1102.25 L222.246 1098.32 Q224.908 1095.56 229.491 1090.93 Q234.097 1086.28 235.278 1084.94 Q237.523 1082.41 238.403 1080.68 Q239.306 1078.92 239.306 1077.23 Q239.306 1074.47 237.361 1072.74 Q235.44 1071 232.338 1071 Q230.139 1071 227.685 1071.77 Q225.255 1072.53 222.477 1074.08 L222.477 1069.36 Q225.301 1068.22 227.755 1067.65 Q230.209 1067.07 232.246 1067.07 Q237.616 1067.07 240.81 1069.75 Q244.005 1072.44 244.005 1076.93 Q244.005 1079.06 243.195 1080.98 Q242.408 1082.88 240.301 1085.47 Q239.722 1086.14 236.621 1089.36 Q233.519 1092.55 227.871 1098.32 Z" fill="#000000" fill-rule="nonzero" fill-opacity="1" /><path clip-path="url(#clip780)" d="M127.339 845.307 Q123.728 845.307 121.899 848.872 Q120.093 852.414 120.093 859.543 Q120.093 866.65 121.899 870.214 Q123.728 873.756 127.339 873.756 Q130.973 873.756 132.779 870.214 Q134.607 866.65 134.607 859.543 Q134.607 852.414 132.779 848.872 Q130.973 845.307 127.339 845.307 M127.339 841.603 Q133.149 841.603 136.204 846.21 Q139.283 850.793 139.283 859.543 Q139.283 868.27 136.204 872.876 Q133.149 877.46 127.339 877.46 Q121.529 877.46 118.45 872.876 Q115.394 868.27 115.394 859.543 Q115.394 850.793 118.45 846.21 Q121.529 841.603 127.339 841.603 Z" fill="#000000" fill-rule="nonzero" fill-opacity="1" /><path clip-path="url(#clip780)" d="M147.501 870.909 L152.385 870.909 L152.385 876.788 L147.501 876.788 L147.501 870.909 Z" fill="#000000" fill-rule="nonzero" fill-opacity="1" /><path clip-path="url(#clip780)" d="M166.598 872.853 L182.917 872.853 L182.917 876.788 L160.973 876.788 L160.973 872.853 Q163.635 870.099 168.218 865.469 Q172.825 860.816 174.005 859.474 Q176.251 856.951 177.13 855.214 Q178.033 853.455 178.033 851.765 Q178.033 849.011 176.089 847.275 Q174.167 845.539 171.065 845.539 Q168.866 845.539 166.413 846.302 Q163.982 847.066 161.204 848.617 L161.204 843.895 Q164.028 842.761 166.482 842.182 Q168.936 841.603 170.973 841.603 Q176.343 841.603 179.538 844.289 Q182.732 846.974 182.732 851.465 Q182.732 853.594 181.922 855.515 Q181.135 857.414 179.028 860.006 Q178.45 860.677 175.348 863.895 Q172.246 867.089 166.598 872.853 Z" fill="#000000" fill-rule="nonzero" fill-opacity="1" /><path clip-path="url(#clip780)" d="M192.871 876.071 L192.871 871.812 Q194.63 872.645 196.436 873.085 Q198.241 873.525 199.977 873.525 Q204.607 873.525 207.037 870.423 Q209.491 867.298 209.838 860.955 Q208.496 862.946 206.436 864.011 Q204.375 865.076 201.875 865.076 Q196.69 865.076 193.658 861.951 Q190.649 858.802 190.649 853.363 Q190.649 848.039 193.797 844.821 Q196.945 841.603 202.176 841.603 Q208.172 841.603 211.32 846.21 Q214.491 850.793 214.491 859.543 Q214.491 867.714 210.602 872.599 Q206.737 877.46 200.186 877.46 Q198.426 877.46 196.621 877.113 Q194.815 876.765 192.871 876.071 M202.176 861.418 Q205.324 861.418 207.153 859.265 Q209.005 857.113 209.005 853.363 Q209.005 849.636 207.153 847.483 Q205.324 845.307 202.176 845.307 Q199.028 845.307 197.176 847.483 Q195.348 849.636 195.348 853.363 Q195.348 857.113 197.176 859.265 Q199.028 861.418 202.176 861.418 Z" fill="#000000" fill-rule="nonzero" fill-opacity="1" /><path clip-path="url(#clip780)" d="M237.06 858.154 Q240.417 858.872 242.292 861.14 Q244.19 863.409 244.19 866.742 Q244.19 871.858 240.672 874.659 Q237.153 877.46 230.672 877.46 Q228.496 877.46 226.181 877.02 Q223.889 876.603 221.436 875.747 L221.436 871.233 Q223.38 872.367 225.695 872.946 Q228.01 873.525 230.533 873.525 Q234.931 873.525 237.222 871.788 Q239.537 870.052 239.537 866.742 Q239.537 863.687 237.384 861.974 Q235.255 860.238 231.435 860.238 L227.408 860.238 L227.408 856.395 L231.621 856.395 Q235.07 856.395 236.898 855.029 Q238.727 853.64 238.727 851.048 Q238.727 848.386 236.829 846.974 Q234.954 845.539 231.435 845.539 Q229.514 845.539 227.315 845.955 Q225.116 846.372 222.477 847.252 L222.477 843.085 Q225.139 842.344 227.454 841.974 Q229.792 841.603 231.852 841.603 Q237.176 841.603 240.278 844.034 Q243.38 846.441 243.38 850.562 Q243.38 853.432 241.736 855.423 Q240.093 857.39 237.06 858.154 Z" fill="#000000" fill-rule="nonzero" fill-opacity="1" /><path clip-path="url(#clip780)" d="M126.205 619.843 Q122.593 619.843 120.765 623.408 Q118.959 626.95 118.959 634.079 Q118.959 641.186 120.765 644.751 Q122.593 648.292 126.205 648.292 Q129.839 648.292 131.644 644.751 Q133.473 641.186 133.473 634.079 Q133.473 626.95 131.644 623.408 Q129.839 619.843 126.205 619.843 M126.205 616.14 Q132.015 616.14 135.07 620.746 Q138.149 625.33 138.149 634.079 Q138.149 642.806 135.07 647.413 Q132.015 651.996 126.205 651.996 Q120.394 651.996 117.316 647.413 Q114.26 642.806 114.26 634.079 Q114.26 625.33 117.316 620.746 Q120.394 616.14 126.205 616.14 Z" fill="#000000" fill-rule="nonzero" fill-opacity="1" /><path clip-path="url(#clip780)" d="M146.366 645.445 L151.251 645.445 L151.251 651.325 L146.366 651.325 L146.366 645.445 Z" fill="#000000" fill-rule="nonzero" fill-opacity="1" /><path clip-path="url(#clip780)" d="M165.464 647.39 L181.783 647.39 L181.783 651.325 L159.839 651.325 L159.839 647.39 Q162.501 644.635 167.084 640.005 Q171.69 635.353 172.871 634.01 Q175.116 631.487 175.996 629.751 Q176.899 627.992 176.899 626.302 Q176.899 623.547 174.954 621.811 Q173.033 620.075 169.931 620.075 Q167.732 620.075 165.278 620.839 Q162.848 621.603 160.07 623.154 L160.07 618.431 Q162.894 617.297 165.348 616.718 Q167.802 616.14 169.839 616.14 Q175.209 616.14 178.403 618.825 Q181.598 621.51 181.598 626.001 Q181.598 628.13 180.788 630.052 Q180.001 631.95 177.894 634.542 Q177.315 635.214 174.214 638.431 Q171.112 641.626 165.464 647.39 Z" fill="#000000" fill-rule="nonzero" fill-opacity="1" /><path clip-path="url(#clip780)" d="M191.737 650.607 L191.737 646.348 Q193.496 647.181 195.301 647.621 Q197.107 648.061 198.843 648.061 Q203.473 648.061 205.903 644.959 Q208.357 641.834 208.704 635.491 Q207.362 637.482 205.301 638.547 Q203.241 639.612 200.741 639.612 Q195.556 639.612 192.524 636.487 Q189.514 633.339 189.514 627.899 Q189.514 622.575 192.663 619.357 Q195.811 616.14 201.042 616.14 Q207.037 616.14 210.186 620.746 Q213.357 625.33 213.357 634.079 Q213.357 642.251 209.468 647.135 Q205.602 651.996 199.051 651.996 Q197.292 651.996 195.487 651.649 Q193.681 651.302 191.737 650.607 M201.042 635.954 Q204.19 635.954 206.019 633.802 Q207.871 631.649 207.871 627.899 Q207.871 624.172 206.019 622.019 Q204.19 619.843 201.042 619.843 Q197.894 619.843 196.042 622.019 Q194.213 624.172 194.213 627.899 Q194.213 631.649 196.042 633.802 Q197.894 635.954 201.042 635.954 Z" fill="#000000" fill-rule="nonzero" fill-opacity="1" /><path clip-path="url(#clip780)" d="M234.607 620.839 L222.801 639.288 L234.607 639.288 L234.607 620.839 M233.38 616.765 L239.259 616.765 L239.259 639.288 L244.19 639.288 L244.19 643.177 L239.259 643.177 L239.259 651.325 L234.607 651.325 L234.607 643.177 L219.005 643.177 L219.005 638.663 L233.38 616.765 Z" fill="#000000" fill-rule="nonzero" fill-opacity="1" /><path clip-path="url(#clip780)" d="M127.686 394.38 Q124.075 394.38 122.246 397.945 Q120.441 401.486 120.441 408.616 Q120.441 415.722 122.246 419.287 Q124.075 422.829 127.686 422.829 Q131.32 422.829 133.126 419.287 Q134.954 415.722 134.954 408.616 Q134.954 401.486 133.126 397.945 Q131.32 394.38 127.686 394.38 M127.686 390.676 Q133.496 390.676 136.552 395.283 Q139.63 399.866 139.63 408.616 Q139.63 417.343 136.552 421.949 Q133.496 426.532 127.686 426.532 Q121.876 426.532 118.797 421.949 Q115.742 417.343 115.742 408.616 Q115.742 399.866 118.797 395.283 Q121.876 390.676 127.686 390.676 Z" fill="#000000" fill-rule="nonzero" fill-opacity="1" /><path clip-path="url(#clip780)" d="M147.848 419.981 L152.732 419.981 L152.732 425.861 L147.848 425.861 L147.848 419.981 Z" fill="#000000" fill-rule="nonzero" fill-opacity="1" /><path clip-path="url(#clip780)" d="M166.945 421.926 L183.264 421.926 L183.264 425.861 L161.32 425.861 L161.32 421.926 Q163.982 419.171 168.565 414.542 Q173.172 409.889 174.352 408.546 Q176.598 406.023 177.477 404.287 Q178.38 402.528 178.38 400.838 Q178.38 398.083 176.436 396.347 Q174.514 394.611 171.413 394.611 Q169.214 394.611 166.76 395.375 Q164.329 396.139 161.552 397.69 L161.552 392.968 Q164.376 391.833 166.829 391.255 Q169.283 390.676 171.32 390.676 Q176.69 390.676 179.885 393.361 Q183.079 396.046 183.079 400.537 Q183.079 402.667 182.269 404.588 Q181.482 406.486 179.376 409.079 Q178.797 409.75 175.695 412.968 Q172.593 416.162 166.945 421.926 Z" fill="#000000" fill-rule="nonzero" fill-opacity="1" /><path clip-path="url(#clip780)" d="M193.218 425.143 L193.218 420.884 Q194.977 421.718 196.783 422.157 Q198.588 422.597 200.325 422.597 Q204.954 422.597 207.385 419.495 Q209.838 416.37 210.186 410.028 Q208.843 412.019 206.783 413.083 Q204.723 414.148 202.223 414.148 Q197.037 414.148 194.005 411.023 Q190.996 407.875 190.996 402.435 Q190.996 397.111 194.144 393.894 Q197.292 390.676 202.524 390.676 Q208.519 390.676 211.667 395.283 Q214.838 399.866 214.838 408.616 Q214.838 416.787 210.949 421.671 Q207.084 426.532 200.533 426.532 Q198.774 426.532 196.968 426.185 Q195.163 425.838 193.218 425.143 M202.524 410.491 Q205.672 410.491 207.5 408.338 Q209.352 406.185 209.352 402.435 Q209.352 398.708 207.5 396.556 Q205.672 394.38 202.524 394.38 Q199.375 394.38 197.524 396.556 Q195.695 398.708 195.695 402.435 Q195.695 406.185 197.524 408.338 Q199.375 410.491 202.524 410.491 Z" fill="#000000" fill-rule="nonzero" fill-opacity="1" /><path clip-path="url(#clip780)" d="M223.287 391.301 L241.644 391.301 L241.644 395.236 L227.57 395.236 L227.57 403.708 Q228.588 403.361 229.607 403.199 Q230.625 403.014 231.644 403.014 Q237.431 403.014 240.81 406.185 Q244.19 409.357 244.19 414.773 Q244.19 420.352 240.718 423.454 Q237.246 426.532 230.926 426.532 Q228.75 426.532 226.482 426.162 Q224.236 425.792 221.829 425.051 L221.829 420.352 Q223.912 421.486 226.135 422.042 Q228.357 422.597 230.834 422.597 Q234.838 422.597 237.176 420.491 Q239.514 418.384 239.514 414.773 Q239.514 411.162 237.176 409.056 Q234.838 406.949 230.834 406.949 Q228.959 406.949 227.084 407.366 Q225.232 407.782 223.287 408.662 L223.287 391.301 Z" fill="#000000" fill-rule="nonzero" fill-opacity="1" /><path clip-path="url(#clip780)" d="M126.529 168.916 Q122.918 168.916 121.089 172.481 Q119.283 176.022 119.283 183.152 Q119.283 190.259 121.089 193.823 Q122.918 197.365 126.529 197.365 Q130.163 197.365 131.968 193.823 Q133.797 190.259 133.797 183.152 Q133.797 176.022 131.968 172.481 Q130.163 168.916 126.529 168.916 M126.529 165.212 Q132.339 165.212 135.394 169.819 Q138.473 174.402 138.473 183.152 Q138.473 191.879 135.394 196.485 Q132.339 201.069 126.529 201.069 Q120.718 201.069 117.64 196.485 Q114.584 191.879 114.584 183.152 Q114.584 174.402 117.64 169.819 Q120.718 165.212 126.529 165.212 Z" fill="#000000" fill-rule="nonzero" fill-opacity="1" /><path clip-path="url(#clip780)" d="M146.691 194.518 L151.575 194.518 L151.575 200.397 L146.691 200.397 L146.691 194.518 Z" fill="#000000" fill-rule="nonzero" fill-opacity="1" /><path clip-path="url(#clip780)" d="M165.788 196.462 L182.107 196.462 L182.107 200.397 L160.163 200.397 L160.163 196.462 Q162.825 193.708 167.408 189.078 Q172.014 184.425 173.195 183.083 Q175.44 180.559 176.32 178.823 Q177.223 177.064 177.223 175.374 Q177.223 172.62 175.278 170.884 Q173.357 169.148 170.255 169.148 Q168.056 169.148 165.602 169.911 Q163.172 170.675 160.394 172.226 L160.394 167.504 Q163.218 166.37 165.672 165.791 Q168.126 165.212 170.163 165.212 Q175.533 165.212 178.727 167.898 Q181.922 170.583 181.922 175.073 Q181.922 177.203 181.112 179.124 Q180.325 181.022 178.218 183.615 Q177.639 184.286 174.538 187.504 Q171.436 190.698 165.788 196.462 Z" fill="#000000" fill-rule="nonzero" fill-opacity="1" /><path clip-path="url(#clip780)" d="M192.061 199.68 L192.061 195.421 Q193.82 196.254 195.625 196.694 Q197.431 197.133 199.167 197.133 Q203.797 197.133 206.227 194.032 Q208.681 190.907 209.028 184.564 Q207.686 186.555 205.625 187.62 Q203.565 188.684 201.065 188.684 Q195.88 188.684 192.848 185.559 Q189.838 182.411 189.838 176.972 Q189.838 171.648 192.987 168.43 Q196.135 165.212 201.366 165.212 Q207.362 165.212 210.51 169.819 Q213.681 174.402 213.681 183.152 Q213.681 191.323 209.792 196.208 Q205.926 201.069 199.375 201.069 Q197.616 201.069 195.811 200.721 Q194.005 200.374 192.061 199.68 M201.366 185.027 Q204.514 185.027 206.343 182.874 Q208.195 180.722 208.195 176.972 Q208.195 173.245 206.343 171.092 Q204.514 168.916 201.366 168.916 Q198.218 168.916 196.366 171.092 Q194.538 173.245 194.538 176.972 Q194.538 180.722 196.366 182.874 Q198.218 185.027 201.366 185.027 Z" fill="#000000" fill-rule="nonzero" fill-opacity="1" /><path clip-path="url(#clip780)" d="M232.662 181.254 Q229.514 181.254 227.662 183.407 Q225.834 185.559 225.834 189.309 Q225.834 193.036 227.662 195.212 Q229.514 197.365 232.662 197.365 Q235.81 197.365 237.639 195.212 Q239.491 193.036 239.491 189.309 Q239.491 185.559 237.639 183.407 Q235.81 181.254 232.662 181.254 M241.945 166.601 L241.945 170.86 Q240.185 170.027 238.38 169.587 Q236.597 169.148 234.838 169.148 Q230.209 169.148 227.755 172.273 Q225.324 175.397 224.977 181.717 Q226.343 179.703 228.403 178.638 Q230.463 177.55 232.94 177.55 Q238.148 177.55 241.158 180.722 Q244.19 183.87 244.19 189.309 Q244.19 194.633 241.042 197.851 Q237.894 201.069 232.662 201.069 Q226.667 201.069 223.496 196.485 Q220.324 191.879 220.324 183.152 Q220.324 174.958 224.213 170.097 Q228.102 165.212 234.653 165.212 Q236.412 165.212 238.195 165.56 Q240 165.907 241.945 166.601 Z" fill="#000000" fill-rule="nonzero" fill-opacity="1" /><path clip-path="url(#clip780)" d="M23.0249 727.154 L34.4257 728.474 Q35.4563 728.571 35.7784 728.732 Q36.0682 728.893 36.0682 729.408 Q36.0682 730.181 35.2953 730.181 Q34.9732 730.181 34.1037 730.052 Q32.3324 729.859 30.5288 729.859 Q28.4999 729.859 27.2438 730.246 Q25.9556 730.6 25.0216 731.63 Q24.0877 732.661 23.7012 734.561 Q23.2825 736.461 23.2825 739.489 L23.2825 748.184 Q23.2825 750.31 23.669 750.825 Q24.0554 751.308 25.859 751.759 L42.606 755.978 L42.606 749.988 Q42.606 745.801 41.3822 744.159 Q40.1584 742.516 36.2615 741.485 Q35.6496 741.324 35.4241 741.26 Q35.1665 741.163 35.0376 741.002 Q34.8766 740.809 34.8766 740.487 Q34.8766 740.197 35.0699 740.004 Q35.2309 739.811 35.4241 739.746 L35.6174 739.682 Q35.9394 739.682 36.6801 739.875 L50.9795 743.514 Q51.9457 743.772 52.1712 743.933 Q52.3644 744.062 52.3644 744.513 Q52.3644 744.835 52.139 745.06 Q51.9135 745.286 51.5593 745.286 Q51.1728 745.221 50.8507 745.092 Q48.8862 744.642 47.6301 744.642 Q46.825 744.642 46.3419 744.803 Q45.8588 744.964 45.4401 745.511 Q45.0215 746.059 44.8282 747.186 Q44.635 748.313 44.635 750.117 L44.635 756.493 L61.06 760.584 L62.5737 760.873 Q63.25 760.873 63.5076 760.519 Q63.7653 760.133 63.8941 758.748 Q64.0551 756.687 64.0551 755.334 Q64.0551 753.659 64.1195 753.466 Q64.3128 753.08 64.8281 753.08 Q65.4078 753.08 65.7298 753.337 Q66.0197 753.595 66.0519 753.82 Q66.0841 754.046 66.0841 754.464 L65.8909 764.287 L66.0841 772.983 Q66.0841 773.981 65.2789 773.981 Q64.667 773.981 64.4094 773.724 Q64.1195 773.466 64.0873 773.176 Q64.0551 772.886 64.0551 772.145 Q64.0551 770.535 63.9585 769.569 Q63.8619 768.603 63.7331 767.991 Q63.572 767.347 63.1212 767.025 Q62.6703 766.67 62.2838 766.509 Q61.8651 766.348 60.9312 766.123 L26.0522 757.427 Q24.8606 757.105 24.4741 757.105 Q24.0554 757.105 23.7978 757.395 Q23.5402 757.653 23.4435 758.361 Q23.3147 759.07 23.3147 759.65 Q23.2825 760.197 23.2825 761.389 Q23.2825 762.162 23.2503 762.484 Q23.2181 762.774 23.0571 762.999 Q22.896 763.224 22.5418 763.224 Q21.64 763.224 21.4468 762.838 Q21.2213 762.419 21.2213 761.26 L21.2213 728.925 Q21.2213 727.637 21.5112 727.347 Q21.7688 727.025 23.0249 727.154 Z" fill="#000000" fill-rule="nonzero" fill-opacity="1" /><path clip-path="url(#clip780)" d="M81.6395 732.003 Q81.3175 732.003 80.6089 731.745 L18.3872 708.46 Q18.3228 708.46 17.9685 708.299 Q17.6143 708.138 17.3888 708.042 Q17.1312 707.945 16.938 707.752 Q16.7447 707.526 16.7447 707.269 Q16.7447 706.625 17.5499 706.625 Q17.6143 706.625 18.3872 706.818 L80.6734 730.167 Q81.8006 730.553 82.1226 730.811 Q82.4447 731.037 82.4447 731.423 Q82.4447 732.003 81.6395 732.003 Z" fill="#000000" fill-rule="nonzero" fill-opacity="1" /><path clip-path="url(#clip780)" d="M49.7879 659.5 Q49.9812 659.5 50.7219 659.758 L64.9569 664.975 Q65.7942 665.265 65.9553 665.555 Q66.0841 665.845 66.0841 667.036 L66.0841 697.567 Q66.0841 698.308 66.0519 698.598 Q66.0197 698.888 65.8587 699.113 Q65.6976 699.339 65.3434 699.339 Q64.6992 699.339 64.4094 699.113 Q64.1195 698.856 64.0873 698.566 Q64.0551 698.276 64.0551 697.567 Q64.0551 695.957 63.9585 694.991 Q63.8619 694.025 63.7331 693.413 Q63.572 692.769 63.1212 692.447 Q62.6703 692.092 62.2838 691.931 Q61.8651 691.77 60.9312 691.545 L25.5047 682.72 Q24.4419 682.463 24.2809 682.463 Q23.669 682.463 23.5079 682.849 Q23.3147 683.204 23.2181 684.234 L23.0893 686.746 Q23.0893 687.519 23.0571 687.841 Q23.0249 688.131 22.8638 688.356 Q22.7028 688.582 22.3485 688.582 Q21.7366 688.582 21.4468 688.356 Q21.1247 688.099 21.0925 687.906 Q21.0281 687.68 21.0281 687.326 L21.2213 678.566 L21.0281 668.808 Q21.0281 667.745 21.8332 667.745 Q22.735 667.745 22.9282 668.196 Q23.0893 668.646 23.0893 670.257 Q23.0893 673.349 23.4113 674.766 Q23.7334 676.15 24.2809 676.537 Q24.7962 676.891 26.181 677.245 L61.8007 686.166 Q62.9923 686.489 63.3144 686.489 Q63.6687 686.489 63.7975 686.327 Q63.8941 686.134 63.9585 685.619 Q64.0551 685.039 64.0551 684.17 L64.0551 677.986 Q64.0551 676.118 63.7653 674.476 Q63.4754 672.833 63.0567 671.577 Q62.6381 670.289 61.8651 669.13 Q61.0922 667.97 60.4159 667.165 Q59.7073 666.328 58.6123 665.523 Q57.4851 664.685 56.7122 664.202 Q55.907 663.687 54.6188 663.107 Q53.2984 662.527 52.5576 662.238 Q51.7847 661.915 50.4643 661.432 Q49.7879 661.143 49.5947 661.046 Q49.4015 660.949 49.2404 660.788 Q49.0794 660.595 49.0794 660.305 Q49.0794 659.919 49.3048 659.725 Q49.5303 659.5 49.7879 659.5 Z" fill="#000000" fill-rule="nonzero" fill-opacity="1" /><polyline clip-path="url(#clip781)" style="stroke:#009af9; stroke-linecap:round; stroke-linejoin:round; stroke-width:4; stroke-opacity:1; fill:none" stroke-dasharray="16, 10" points="2294.1,1341.47 1602.45,897.008 1153.54,608.534 845.764,410.758 625.618,269.29 462.734,164.62 338.848,85.0091 "/>
<circle clip-path="url(#clip781)" cx="2294.1" cy="1343.84" r="14.4" fill="#e26f46" fill-rule="evenodd" fill-opacity="1" stroke="#000000" stroke-opacity="1" stroke-width="3.2"/>
<circle clip-path="url(#clip781)" cx="1602.45" cy="895.136" r="14.4" fill="#e26f46" fill-rule="evenodd" fill-opacity="1" stroke="#000000" stroke-opacity="1" stroke-width="3.2"/>
<circle clip-path="url(#clip781)" cx="1153.54" cy="606.402" r="14.4" fill="#e26f46" fill-rule="evenodd" fill-opacity="1" stroke="#000000" stroke-opacity="1" stroke-width="3.2"/>
<circle clip-path="url(#clip781)" cx="845.764" cy="409.51" r="14.4" fill="#e26f46" fill-rule="evenodd" fill-opacity="1" stroke="#000000" stroke-opacity="1" stroke-width="3.2"/>
<circle clip-path="url(#clip781)" cx="625.618" cy="269.181" r="14.4" fill="#e26f46" fill-rule="evenodd" fill-opacity="1" stroke="#000000" stroke-opacity="1" stroke-width="3.2"/>
<circle clip-path="url(#clip781)" cx="462.734" cy="165.618" r="14.4" fill="#e26f46" fill-rule="evenodd" fill-opacity="1" stroke="#000000" stroke-opacity="1" stroke-width="3.2"/>
<circle clip-path="url(#clip781)" cx="338.848" cy="86.9978" r="14.4" fill="#e26f46" fill-rule="evenodd" fill-opacity="1" stroke="#000000" stroke-opacity="1" stroke-width="3.2"/>
<path clip-path="url(#clip780)" d="M1378.42 372.402 L2283.67 372.402 L2283.67 91.7229 L1378.42 91.7229  Z" fill="#000000" fill-rule="evenodd" fill-opacity="0"/>
<polyline clip-path="url(#clip780)" style="stroke:#000000; stroke-linecap:round; stroke-linejoin:round; stroke-width:4; stroke-opacity:0; fill:none" points="1378.42,372.402 2283.67,372.402 2283.67,91.7229 1378.42,91.7229 1378.42,372.402 "/>
<polyline clip-path="url(#clip780)" style="stroke:#009af9; stroke-linecap:round; stroke-linejoin:round; stroke-width:4; stroke-opacity:1; fill:none" stroke-dasharray="16, 10" points="1401.45,185.282 1539.62,185.282 "/>
<path clip-path="url(#clip780)" d="M1562.65 148.861 L1582.51 148.861 L1582.51 152.796 L1567.32 152.796 L1567.32 162.981 L1581.03 162.981 L1581.03 166.917 L1567.32 166.917 L1567.32 183.421 L1562.65 183.421 L1562.65 148.861 Z" fill="#000000" fill-rule="nonzero" fill-opacity="1" /><path clip-path="url(#clip780)" d="M1586.28 157.495 L1590.54 157.495 L1590.54 183.421 L1586.28 183.421 L1586.28 157.495 M1586.28 147.403 L1590.54 147.403 L1590.54 152.796 L1586.28 152.796 L1586.28 147.403 Z" fill="#000000" fill-rule="nonzero" fill-opacity="1" /><path clip-path="url(#clip780)" d="M1603.67 150.134 L1603.67 157.495 L1612.44 157.495 L1612.44 160.806 L1603.67 160.806 L1603.67 174.88 Q1603.67 178.051 1604.52 178.954 Q1605.4 179.856 1608.06 179.856 L1612.44 179.856 L1612.44 183.421 L1608.06 183.421 Q1603.13 183.421 1601.26 181.592 Q1599.38 179.741 1599.38 174.88 L1599.38 160.806 L1596.26 160.806 L1596.26 157.495 L1599.38 157.495 L1599.38 150.134 L1603.67 150.134 Z" fill="#000000" fill-rule="nonzero" fill-opacity="1" /><path clip-path="url(#clip780)" d="M1619.13 177.542 L1624.01 177.542 L1624.01 183.421 L1619.13 183.421 L1619.13 177.542 M1619.13 158.907 L1624.01 158.907 L1624.01 164.787 L1619.13 164.787 L1619.13 158.907 Z" fill="#000000" fill-rule="nonzero" fill-opacity="1" /><path clip-path="url(#clip780)" d="M1678.67 152.105 L1677.71 160.397 Q1677.64 161.146 1677.52 161.381 Q1677.41 161.591 1677.03 161.591 Q1676.47 161.591 1676.47 161.029 Q1676.47 160.795 1676.56 160.163 Q1676.7 158.874 1676.7 157.563 Q1676.7 156.087 1676.42 155.174 Q1676.16 154.237 1675.42 153.558 Q1674.67 152.878 1673.28 152.597 Q1671.9 152.293 1669.7 152.293 L1663.38 152.293 Q1661.83 152.293 1661.46 152.574 Q1661.1 152.855 1660.78 154.167 L1657.71 166.346 L1662.06 166.346 Q1665.11 166.346 1666.3 165.456 Q1667.5 164.566 1668.25 161.732 Q1668.37 161.287 1668.41 161.123 Q1668.48 160.936 1668.6 160.842 Q1668.74 160.725 1668.97 160.725 Q1669.19 160.725 1669.33 160.865 Q1669.47 160.982 1669.51 161.123 L1669.56 161.264 Q1669.56 161.498 1669.42 162.036 L1666.77 172.436 Q1666.59 173.139 1666.47 173.303 Q1666.37 173.443 1666.05 173.443 Q1665.81 173.443 1665.65 173.279 Q1665.48 173.115 1665.48 172.858 Q1665.53 172.577 1665.62 172.342 Q1665.95 170.914 1665.95 170 Q1665.95 169.415 1665.84 169.063 Q1665.72 168.712 1665.32 168.407 Q1664.92 168.103 1664.1 167.962 Q1663.28 167.822 1661.97 167.822 L1657.33 167.822 L1654.36 179.767 L1654.15 180.868 Q1654.15 181.36 1654.41 181.547 Q1654.69 181.735 1655.69 181.828 Q1657.19 181.946 1658.18 181.946 Q1659.39 181.946 1659.53 181.992 Q1659.82 182.133 1659.82 182.508 Q1659.82 182.929 1659.63 183.163 Q1659.44 183.374 1659.28 183.398 Q1659.11 183.421 1658.81 183.421 L1651.67 183.281 L1645.34 183.421 Q1644.61 183.421 1644.61 182.836 Q1644.61 182.391 1644.8 182.203 Q1644.99 181.992 1645.2 181.969 Q1645.41 181.946 1645.95 181.946 Q1647.12 181.946 1647.82 181.875 Q1648.53 181.805 1648.97 181.711 Q1649.44 181.594 1649.67 181.266 Q1649.93 180.938 1650.05 180.657 Q1650.17 180.353 1650.33 179.674 L1656.65 154.307 Q1656.89 153.44 1656.89 153.159 Q1656.89 152.855 1656.68 152.667 Q1656.49 152.48 1655.97 152.41 Q1655.46 152.316 1655.04 152.316 Q1654.64 152.293 1653.77 152.293 Q1653.21 152.293 1652.98 152.269 Q1652.77 152.246 1652.6 152.129 Q1652.44 152.012 1652.44 151.754 Q1652.44 151.098 1652.72 150.958 Q1653.02 150.794 1653.87 150.794 L1677.38 150.794 Q1678.32 150.794 1678.53 151.004 Q1678.76 151.192 1678.67 152.105 Z" fill="#000000" fill-rule="nonzero" fill-opacity="1" /><path clip-path="url(#clip780)" d="M1675.14 194.734 Q1675.14 194.5 1675.32 193.985 L1692.26 148.732 Q1692.26 148.686 1692.38 148.428 Q1692.49 148.17 1692.56 148.006 Q1692.63 147.819 1692.77 147.678 Q1692.94 147.538 1693.13 147.538 Q1693.59 147.538 1693.59 148.124 Q1693.59 148.17 1693.45 148.732 L1676.47 194.032 Q1676.19 194.851 1676 195.086 Q1675.84 195.32 1675.56 195.32 Q1675.14 195.32 1675.14 194.734 Z" fill="#000000" fill-rule="nonzero" fill-opacity="1" /><path clip-path="url(#clip780)" d="M1727.86 171.569 Q1727.86 171.71 1727.67 172.249 L1723.88 182.601 Q1723.67 183.21 1723.46 183.327 Q1723.25 183.421 1722.38 183.421 L1700.18 183.421 Q1699.64 183.421 1699.43 183.398 Q1699.22 183.374 1699.05 183.257 Q1698.89 183.14 1698.89 182.882 Q1698.89 182.414 1699.05 182.203 Q1699.24 181.992 1699.45 181.969 Q1699.66 181.946 1700.18 181.946 Q1701.35 181.946 1702.05 181.875 Q1702.75 181.805 1703.2 181.711 Q1703.67 181.594 1703.9 181.266 Q1704.16 180.938 1704.27 180.657 Q1704.39 180.353 1704.56 179.674 L1710.97 153.909 Q1711.16 153.136 1711.16 153.019 Q1711.16 152.574 1710.88 152.457 Q1710.62 152.316 1709.87 152.246 L1708.05 152.152 Q1707.48 152.152 1707.25 152.129 Q1707.04 152.105 1706.87 151.988 Q1706.71 151.871 1706.71 151.613 Q1706.71 151.168 1706.87 150.958 Q1707.06 150.723 1707.2 150.7 Q1707.37 150.653 1707.62 150.653 L1713.99 150.794 L1721.09 150.653 Q1721.86 150.653 1721.86 151.239 Q1721.86 151.895 1721.54 152.035 Q1721.21 152.152 1720.04 152.152 Q1717.79 152.152 1716.76 152.386 Q1715.75 152.621 1715.47 153.019 Q1715.21 153.394 1714.96 154.401 L1708.47 180.306 Q1708.23 181.173 1708.23 181.407 Q1708.23 181.664 1708.35 181.758 Q1708.49 181.828 1708.87 181.875 Q1709.29 181.946 1709.92 181.946 L1714.42 181.946 Q1715.77 181.946 1716.97 181.735 Q1718.16 181.524 1719.08 181.219 Q1720.01 180.915 1720.86 180.353 Q1721.7 179.791 1722.29 179.299 Q1722.9 178.783 1723.48 177.987 Q1724.09 177.167 1724.44 176.605 Q1724.82 176.02 1725.24 175.083 Q1725.66 174.122 1725.87 173.584 Q1726.1 173.022 1726.46 172.061 Q1726.67 171.569 1726.74 171.429 Q1726.81 171.288 1726.92 171.171 Q1727.06 171.054 1727.28 171.054 Q1727.56 171.054 1727.7 171.218 Q1727.86 171.382 1727.86 171.569 Z" fill="#000000" fill-rule="nonzero" fill-opacity="1" /><path clip-path="url(#clip780)" d="M1744.52 176.137 Q1744.57 175.551 1745.48 175.551 L1774.88 175.551 Q1776.26 175.551 1776.28 176.09 Q1776.28 176.675 1774.97 176.652 L1745.81 176.652 Q1744.52 176.675 1744.52 176.137 M1744.52 166.768 Q1744.52 166.182 1745.53 166.206 L1774.83 166.206 Q1776.26 166.206 1776.28 166.768 Q1776.28 167.306 1775.07 167.306 L1745.48 167.306 Q1744.52 167.306 1744.52 166.768 Z" fill="#000000" fill-rule="nonzero" fill-opacity="1" /><path clip-path="url(#clip780)" d="M1818.69 152.902 Q1818.69 154.19 1817.87 154.986 Q1817.07 155.783 1816.07 155.783 Q1815.34 155.783 1814.8 155.338 Q1814.29 154.893 1814.29 154.12 Q1814.29 153.323 1814.9 152.48 Q1815.5 151.637 1816.89 151.52 Q1815.97 150.653 1814.52 150.653 Q1813.79 150.653 1813.19 151.122 Q1812.6 151.567 1812.27 152.293 Q1811.92 153.042 1811.12 157.282 Q1810.87 158.664 1810.63 159.999 Q1810.4 161.334 1810.12 162.739 L1814.1 162.739 Q1814.61 162.739 1814.82 162.763 Q1815.04 162.786 1815.2 162.903 Q1815.39 163.02 1815.39 163.278 Q1815.39 163.934 1815.08 164.098 Q1814.8 164.238 1813.96 164.238 L1809.84 164.238 L1806.95 179.439 Q1806.88 179.884 1806.58 181.29 Q1806.3 182.672 1805.62 184.944 Q1804.94 187.239 1804.26 188.597 Q1803.89 189.37 1803.39 190.097 Q1802.93 190.846 1802.25 191.596 Q1801.57 192.345 1800.68 192.79 Q1799.79 193.259 1798.85 193.259 Q1797.26 193.259 1796.02 192.369 Q1794.78 191.478 1794.78 189.956 Q1794.78 188.668 1795.57 187.871 Q1796.39 187.075 1797.4 187.075 Q1798.12 187.075 1798.64 187.52 Q1799.18 187.965 1799.18 188.738 Q1799.18 189.066 1799.06 189.441 Q1798.94 189.815 1798.69 190.237 Q1798.43 190.682 1797.87 190.987 Q1797.3 191.291 1796.53 191.338 Q1797.45 192.205 1798.85 192.205 Q1799.3 192.205 1799.69 192.017 Q1800.09 191.853 1800.42 191.432 Q1800.77 191.01 1801.03 190.588 Q1801.29 190.19 1801.54 189.417 Q1801.8 188.668 1801.97 188.106 Q1802.13 187.543 1802.34 186.536 Q1802.57 185.529 1802.69 184.92 Q1802.81 184.335 1803.02 183.187 L1806.6 164.238 L1803.44 164.238 Q1802.88 164.238 1802.65 164.215 Q1802.43 164.191 1802.27 164.074 Q1802.11 163.934 1802.11 163.653 Q1802.11 163.208 1802.29 163.02 Q1802.5 162.809 1802.74 162.786 Q1802.97 162.739 1803.54 162.739 L1806.86 162.739 Q1807.99 156.813 1808.43 155.221 Q1808.95 153.534 1809.74 152.363 Q1810.54 151.168 1811.43 150.606 Q1812.32 150.044 1813.04 149.833 Q1813.79 149.599 1814.52 149.599 Q1816.16 149.599 1817.42 150.489 Q1818.69 151.356 1818.69 152.902 Z" fill="#000000" fill-rule="nonzero" fill-opacity="1" /><path clip-path="url(#clip780)" d="M1853.34 194.722 Q1853.34 196.722 1852.55 198.46 Q1851.78 200.182 1850.28 201.264 Q1848.78 202.346 1846.9 202.346 Q1843.98 202.346 1841.19 200.018 Q1840.64 199.542 1840.24 199.1 Q1839.85 198.657 1838.18 196.624 Q1837.9 197.099 1837.6 197.542 Q1837.31 197.968 1836.47 198.936 Q1835.63 199.903 1834.77 200.575 Q1833.91 201.248 1832.58 201.805 Q1831.27 202.346 1829.91 202.346 Q1828.47 202.346 1827.24 201.69 Q1826.03 201.018 1825.22 199.952 Q1824.44 198.87 1823.99 197.526 Q1823.57 196.165 1823.57 194.755 Q1823.57 192.755 1824.34 191.033 Q1825.12 189.295 1826.62 188.213 Q1828.13 187.131 1830.01 187.131 Q1832.95 187.131 1835.72 189.443 Q1836.27 189.918 1836.67 190.361 Q1837.06 190.803 1838.73 192.837 Q1838.95 192.476 1839.18 192.148 Q1839.41 191.804 1839.98 191.049 Q1840.55 190.295 1841.23 189.689 Q1841.91 189.082 1842.78 188.459 Q1843.65 187.836 1844.75 187.492 Q1845.85 187.131 1847 187.131 Q1848.44 187.131 1849.65 187.803 Q1850.88 188.459 1851.67 189.541 Q1852.47 190.607 1852.9 191.968 Q1853.34 193.312 1853.34 194.722 M1852.6 194.722 Q1852.6 193.558 1852.26 192.427 Q1851.92 191.295 1851.26 190.344 Q1850.62 189.377 1849.57 188.787 Q1848.52 188.197 1847.24 188.197 Q1845.9 188.197 1844.65 188.77 Q1843.42 189.328 1842.46 190.279 Q1841.5 191.23 1840.85 192.115 Q1840.19 193 1839.62 194.017 Q1839.91 194.378 1841.18 196.05 Q1842.46 197.722 1843 198.313 Q1845.21 200.723 1847.44 200.723 Q1849.57 200.723 1851.08 198.985 Q1852.6 197.231 1852.6 194.722 M1837.29 195.46 Q1837.01 195.116 1835.72 193.443 Q1834.44 191.754 1833.9 191.164 Q1831.67 188.738 1829.47 188.738 Q1827.34 188.738 1825.81 190.492 Q1824.3 192.246 1824.3 194.755 Q1824.3 195.919 1824.65 197.05 Q1824.99 198.182 1825.63 199.132 Q1826.29 200.083 1827.34 200.674 Q1828.39 201.264 1829.67 201.264 Q1830.75 201.264 1831.78 200.87 Q1832.83 200.477 1833.62 199.887 Q1834.4 199.296 1835.14 198.477 Q1835.88 197.657 1836.36 196.952 Q1836.85 196.247 1837.29 195.46 Z" fill="#000000" fill-rule="nonzero" fill-opacity="1" /><path clip-path="url(#clip780)" d="M1903.14 170.75 Q1903.42 171.031 1903.42 171.429 Q1903.42 171.827 1903.14 172.108 Q1902.85 172.389 1902.46 172.389 L1872.43 172.389 Q1872.03 172.389 1871.75 172.108 Q1871.47 171.827 1871.47 171.429 Q1871.47 171.031 1871.75 170.75 Q1872.03 170.469 1872.43 170.469 L1902.46 170.469 Q1902.85 170.469 1903.14 170.75 Z" fill="#000000" fill-rule="nonzero" fill-opacity="1" /><path clip-path="url(#clip780)" d="M1971.87 139.953 Q1971.87 141.592 1969.52 141.592 L1964.04 141.592 Q1963.2 145.48 1963.2 149.228 Q1963.2 153.702 1964.58 157.145 Q1964.86 157.824 1964.86 158.199 Q1964.86 158.902 1964.23 159.464 Q1963.62 160.026 1962.89 160.026 Q1962.29 160.026 1961.89 159.557 Q1961.51 159.089 1961.18 157.613 Q1960.79 155.88 1960.79 153.959 Q1960.79 151.664 1961.16 149.462 Q1961.54 147.237 1962.8 141.592 L1957.39 141.592 L1954.7 152.203 Q1953.74 155.786 1953.41 156.887 Q1953.2 157.543 1953.13 157.754 Q1953.06 157.965 1952.85 158.48 Q1952.66 158.972 1952.52 159.159 Q1952.38 159.323 1952.14 159.581 Q1951.91 159.862 1951.63 159.932 Q1951.35 160.026 1951 160.026 Q1950.46 160.026 1950.04 159.674 Q1949.61 159.347 1949.61 158.714 Q1949.61 158.293 1949.99 157.566 Q1954.44 147.963 1956.13 141.592 L1953.41 141.592 Q1949.66 141.592 1947.32 145.293 Q1946.94 145.785 1946.73 145.832 Q1946.64 145.855 1946.55 145.855 Q1946.29 145.855 1946.12 145.738 Q1945.98 145.621 1945.98 145.504 L1945.96 145.387 Q1945.96 145.246 1946.31 144.614 Q1946.69 143.958 1947.39 142.951 Q1948.12 141.944 1948.89 141.077 Q1949.64 140.281 1950.36 139.789 Q1951.11 139.274 1951.82 139.086 Q1952.52 138.899 1952.92 138.852 Q1953.31 138.805 1953.88 138.805 L1969.94 138.805 Q1970.55 138.805 1970.88 138.852 Q1971.21 138.875 1971.54 139.156 Q1971.87 139.414 1971.87 139.953 Z" fill="#000000" fill-rule="nonzero" fill-opacity="1" /><path clip-path="url(#clip780)" d="M1994 153.936 Q1994.19 154.147 1994.19 154.358 Q1994.19 154.568 1993.72 155.177 Q1993.28 155.786 1992.32 156.606 Q1991.36 157.426 1990.11 158.199 Q1988.87 158.972 1987.05 159.487 Q1985.22 160.026 1983.3 160.026 Q1979.72 160.026 1977.61 157.66 Q1975.52 155.294 1975.52 151.898 Q1975.52 148.596 1977.37 145.434 Q1979.22 142.248 1982.22 140.281 Q1985.22 138.29 1988.38 138.29 Q1990.89 138.29 1992.46 139.461 Q1994.03 140.632 1994.03 142.412 Q1994.03 143.794 1993.23 144.637 Q1992.43 145.48 1991.36 145.48 Q1990.61 145.48 1990.09 145.059 Q1989.58 144.614 1989.58 143.794 Q1989.58 142.74 1990.44 141.92 Q1990.77 141.592 1991.15 141.452 Q1991.54 141.288 1991.78 141.288 Q1992.01 141.264 1992.55 141.264 Q1992.06 140.351 1990.89 139.859 Q1989.74 139.344 1988.43 139.344 Q1986.48 139.344 1984.63 140.702 Q1982.78 142.037 1981.66 144.145 Q1980.54 146.207 1979.81 149.134 Q1979.08 152.039 1979.08 153.725 Q1979.08 156.044 1980.16 157.496 Q1981.24 158.948 1983.39 158.948 Q1983.81 158.948 1984.26 158.925 Q1984.73 158.902 1985.9 158.644 Q1987.09 158.386 1988.15 157.941 Q1989.2 157.496 1990.54 156.536 Q1991.9 155.552 1992.97 154.217 Q1993.35 153.725 1993.6 153.725 Q1993.82 153.725 1994 153.936 Z" fill="#000000" fill-rule="nonzero" fill-opacity="1" /><path clip-path="url(#clip780)" d="M1931.96 172.818 L2013.04 172.818 L2013.04 170.258 L1931.96 170.258  Z" fill="#000000" fill-rule="evenodd" fill-opacity="1"/>
<path clip-path="url(#clip780)" d="M1931.96 215.861 Q1931.96 208.319 1935.8 203.705 Q1939.64 199.067 1944.58 199.067 Q1947.47 199.067 1949.06 200.543 Q1950.67 201.995 1950.67 204.243 Q1950.67 205.485 1949.95 206.024 Q1949.22 206.562 1948.47 206.562 Q1947.61 206.562 1946.93 205.977 Q1946.25 205.391 1946.25 204.337 Q1946.25 202.182 1948.89 202.182 Q1947.65 200.262 1944.68 200.262 Q1943.77 200.262 1942.83 200.543 Q1941.89 200.8 1940.67 201.69 Q1939.46 202.581 1938.52 203.986 Q1937.58 205.391 1936.93 208.038 Q1936.27 210.685 1936.27 214.128 L1936.27 215.275 Q1938.24 210.521 1942.27 210.544 Q1946.29 210.544 1949.08 213.612 Q1951.87 216.681 1951.87 221.225 Q1951.87 225.886 1948.96 228.978 Q1946.06 232.069 1941.98 232.069 Q1940.16 232.069 1938.5 231.296 Q1936.86 230.547 1935.31 228.814 Q1933.79 227.08 1932.87 223.754 Q1931.96 220.428 1931.96 215.861 M1936.36 220.171 Q1936.36 224.879 1937.23 227.127 Q1937.37 227.502 1937.68 228.017 Q1938 228.533 1938.54 229.212 Q1939.1 229.868 1940.02 230.313 Q1940.93 230.734 1941.98 230.734 Q1945.19 230.734 1946.74 227.619 Q1947.56 225.886 1947.56 221.178 Q1947.56 216.376 1946.69 214.62 Q1945.22 211.645 1942.22 211.645 Q1940.2 211.645 1938.8 213.027 Q1937.42 214.409 1936.88 216.259 Q1936.36 218.11 1936.36 220.171 Z" fill="#000000" fill-rule="nonzero" fill-opacity="1" /><path clip-path="url(#clip780)" d="M1984.68 219.164 Q1984.68 219.304 1984.5 219.843 L1980.7 230.196 Q1980.49 230.805 1980.28 230.922 Q1980.07 231.015 1979.2 231.015 L1957 231.015 Q1956.46 231.015 1956.25 230.992 Q1956.04 230.969 1955.87 230.851 Q1955.71 230.734 1955.71 230.477 Q1955.71 230.008 1955.87 229.797 Q1956.06 229.587 1956.27 229.563 Q1956.48 229.54 1957 229.54 Q1958.17 229.54 1958.87 229.469 Q1959.57 229.399 1960.02 229.306 Q1960.49 229.188 1960.72 228.86 Q1960.98 228.533 1961.1 228.252 Q1961.21 227.947 1961.38 227.268 L1967.8 201.503 Q1967.98 200.73 1967.98 200.613 Q1967.98 200.168 1967.7 200.051 Q1967.44 199.91 1966.7 199.84 L1964.87 199.746 Q1964.31 199.746 1964.07 199.723 Q1963.86 199.7 1963.7 199.582 Q1963.53 199.465 1963.53 199.208 Q1963.53 198.763 1963.7 198.552 Q1963.88 198.318 1964.03 198.294 Q1964.19 198.247 1964.45 198.247 L1970.82 198.388 L1977.91 198.247 Q1978.69 198.247 1978.69 198.833 Q1978.69 199.489 1978.36 199.629 Q1978.03 199.746 1976.86 199.746 Q1974.61 199.746 1973.58 199.981 Q1972.57 200.215 1972.29 200.613 Q1972.04 200.988 1971.78 201.995 L1965.29 227.9 Q1965.06 228.767 1965.06 229.001 Q1965.06 229.259 1965.17 229.352 Q1965.31 229.423 1965.69 229.469 Q1966.11 229.54 1966.74 229.54 L1971.24 229.54 Q1972.6 229.54 1973.79 229.329 Q1974.99 229.118 1975.9 228.814 Q1976.84 228.509 1977.68 227.947 Q1978.52 227.385 1979.11 226.893 Q1979.72 226.378 1980.3 225.581 Q1980.91 224.762 1981.26 224.199 Q1981.64 223.614 1982.06 222.677 Q1982.48 221.717 1982.69 221.178 Q1982.93 220.616 1983.28 219.655 Q1983.49 219.164 1983.56 219.023 Q1983.63 218.883 1983.75 218.765 Q1983.89 218.648 1984.1 218.648 Q1984.38 218.648 1984.52 218.812 Q1984.68 218.976 1984.68 219.164 Z" fill="#000000" fill-rule="nonzero" fill-opacity="1" /><path clip-path="url(#clip780)" d="M1989.52 205.207 Q1989.52 204.6 1989.57 204.42 Q1989.63 204.239 1989.89 203.961 L1996.34 196.779 Q1999.86 192.812 1999.86 189.352 Q1999.86 187.106 1998.68 185.499 Q1997.52 183.892 1995.37 183.892 Q1993.9 183.892 1992.65 184.794 Q1991.4 185.696 1990.83 187.303 Q1990.93 187.27 1991.27 187.27 Q1992.11 187.27 1992.57 187.795 Q1993.04 188.319 1993.04 189.024 Q1993.04 189.926 1992.45 190.369 Q1991.88 190.795 1991.3 190.795 Q1991.08 190.795 1990.76 190.746 Q1990.47 190.697 1989.99 190.237 Q1989.52 189.762 1989.52 188.926 Q1989.52 186.581 1991.29 184.712 Q1993.08 182.843 1995.8 182.843 Q1998.88 182.843 2000.9 184.679 Q2002.93 186.499 2002.93 189.352 Q2002.93 190.352 2002.62 191.27 Q2002.32 192.172 2001.91 192.877 Q2001.52 193.582 2000.44 194.714 Q1999.36 195.845 1998.49 196.648 Q1997.62 197.452 1995.67 199.157 L1992.11 202.616 L1998.16 202.616 Q2001.11 202.616 2001.34 202.354 Q2001.67 201.878 2002.08 199.37 L2002.93 199.37 L2001.98 205.207 L1989.52 205.207 Z" fill="#000000" fill-rule="nonzero" fill-opacity="1" /><path clip-path="url(#clip780)" d="M2018.84 182.648 Q2018.16 181.875 2018.16 180.868 Q2018.16 179.861 2018.81 179.111 Q2019.49 178.338 2020.71 178.338 Q2022.14 178.338 2022.96 179.72 Q2023.78 181.079 2023.78 183.374 Q2023.78 185.857 2022.77 188.152 Q2021.76 190.471 2020.78 191.572 Q2019.8 192.673 2019.4 192.673 Q2018.93 192.673 2018.93 192.158 Q2018.93 191.97 2019.26 191.619 Q2022.7 187.918 2022.72 183.374 Q2022.72 182.648 2022.63 182.648 L2022.51 182.742 Q2021.69 183.421 2020.71 183.421 Q2019.51 183.421 2018.84 182.648 Z" fill="#000000" fill-rule="nonzero" fill-opacity="1" /><path clip-path="url(#clip780)" d="M2070.06 177.87 Q2070.25 178.081 2070.25 178.292 Q2070.25 178.502 2069.78 179.111 Q2069.33 179.72 2068.37 180.54 Q2067.41 181.36 2066.17 182.133 Q2064.93 182.906 2063.1 183.421 Q2061.28 183.96 2059.36 183.96 Q2055.77 183.96 2053.66 181.594 Q2051.58 179.229 2051.58 175.832 Q2051.58 172.53 2053.43 169.368 Q2055.28 166.182 2058.28 164.215 Q2061.28 162.224 2064.44 162.224 Q2066.95 162.224 2068.51 163.395 Q2070.08 164.566 2070.08 166.346 Q2070.08 167.728 2069.29 168.571 Q2068.49 169.415 2067.41 169.415 Q2066.66 169.415 2066.15 168.993 Q2065.63 168.548 2065.63 167.728 Q2065.63 166.674 2066.5 165.854 Q2066.83 165.526 2067.2 165.386 Q2067.6 165.222 2067.84 165.222 Q2068.07 165.198 2068.61 165.198 Q2068.12 164.285 2066.95 163.793 Q2065.8 163.278 2064.49 163.278 Q2062.54 163.278 2060.69 164.636 Q2058.84 165.971 2057.72 168.079 Q2056.59 170.141 2055.87 173.068 Q2055.14 175.973 2055.14 177.659 Q2055.14 179.978 2056.22 181.43 Q2057.3 182.882 2059.45 182.882 Q2059.87 182.882 2060.32 182.859 Q2060.79 182.836 2061.96 182.578 Q2063.15 182.32 2064.2 181.875 Q2065.26 181.43 2066.59 180.47 Q2067.95 179.486 2069.03 178.151 Q2069.4 177.659 2069.66 177.659 Q2069.87 177.659 2070.06 177.87 Z" fill="#000000" fill-rule="nonzero" fill-opacity="1" /><path clip-path="url(#clip780)" d="M2085.43 176.137 Q2085.48 175.551 2086.39 175.551 L2115.79 175.551 Q2117.17 175.551 2117.19 176.09 Q2117.19 176.675 2115.88 176.652 L2086.72 176.652 Q2085.43 176.675 2085.43 176.137 M2085.43 166.768 Q2085.43 166.182 2086.44 166.206 L2115.74 166.206 Q2117.17 166.206 2117.19 166.768 Q2117.19 167.306 2115.98 167.306 L2086.39 167.306 Q2085.43 167.306 2085.43 166.768 Z" fill="#000000" fill-rule="nonzero" fill-opacity="1" /><path clip-path="url(#clip780)" d="M2135.69 168.079 Q2135.69 161.029 2137.47 157.188 Q2139.95 151.473 2145.8 151.473 Q2147.05 151.473 2148.33 151.824 Q2149.65 152.152 2151.29 153.44 Q2152.95 154.729 2153.96 156.837 Q2155.88 160.912 2155.88 168.079 Q2155.88 175.083 2154.1 178.901 Q2151.5 184.475 2145.76 184.475 Q2143.6 184.475 2141.4 183.374 Q2139.22 182.273 2137.84 179.627 Q2135.69 175.668 2135.69 168.079 M2139.67 167.494 Q2139.67 174.731 2140.18 177.612 Q2140.77 180.728 2142.36 182.086 Q2143.98 183.421 2145.76 183.421 Q2147.68 183.421 2149.27 181.992 Q2150.89 180.54 2151.38 177.425 Q2151.92 174.357 2151.89 167.494 Q2151.89 160.818 2151.43 158.148 Q2150.79 155.033 2149.11 153.792 Q2147.44 152.527 2145.76 152.527 Q2145.13 152.527 2144.45 152.714 Q2143.79 152.902 2142.83 153.44 Q2141.87 153.979 2141.12 155.314 Q2140.39 156.649 2140.04 158.664 Q2139.67 161.264 2139.67 167.494 Z" fill="#000000" fill-rule="nonzero" fill-opacity="1" /><path clip-path="url(#clip780)" d="M2160.16 182.648 Q2159.44 181.875 2159.44 180.868 Q2159.44 179.861 2160.16 179.135 Q2160.89 178.385 2161.99 178.385 Q2163.04 178.385 2163.75 179.088 Q2164.47 179.767 2164.47 180.892 Q2164.47 181.992 2163.7 182.718 Q2162.95 183.421 2161.99 183.421 Q2160.89 183.421 2160.16 182.648 Z" fill="#000000" fill-rule="nonzero" fill-opacity="1" /><path clip-path="url(#clip780)" d="M2172.63 175.692 Q2172.63 174.263 2173.41 173.724 Q2174.18 173.162 2175 173.162 Q2176.1 173.162 2176.73 173.865 Q2177.39 174.544 2177.39 175.504 Q2177.39 176.465 2176.73 177.167 Q2176.1 177.847 2175 177.847 Q2174.46 177.847 2174.18 177.753 Q2174.81 179.955 2176.73 181.547 Q2178.68 183.14 2181.23 183.14 Q2184.44 183.14 2186.36 180.025 Q2187.51 178.011 2187.51 173.443 Q2187.51 169.415 2186.64 167.4 Q2185.3 164.332 2182.56 164.332 Q2178.68 164.332 2176.38 167.681 Q2176.1 168.103 2175.77 168.126 Q2175.3 168.126 2175.19 167.869 Q2175.09 167.588 2175.09 166.861 L2175.09 152.667 Q2175.09 151.52 2175.56 151.52 Q2175.75 151.52 2176.15 151.66 Q2179.17 152.995 2182.52 153.019 Q2185.96 153.019 2189.05 151.613 Q2189.29 151.473 2189.43 151.473 Q2189.9 151.473 2189.92 152.012 Q2189.92 152.199 2189.52 152.761 Q2189.15 153.3 2188.33 154.026 Q2187.51 154.729 2186.45 155.408 Q2185.4 156.087 2183.85 156.556 Q2182.33 157.001 2180.64 157.001 Q2178.63 157.001 2176.57 156.368 L2176.57 165.714 Q2179.05 163.278 2182.66 163.278 Q2186.5 163.278 2189.15 166.37 Q2191.79 169.461 2191.79 173.771 Q2191.79 178.292 2188.65 181.383 Q2185.54 184.475 2181.32 184.475 Q2177.48 184.475 2175.05 181.735 Q2172.63 178.994 2172.63 175.692 Z" fill="#000000" fill-rule="nonzero" fill-opacity="1" /><path clip-path="url(#clip780)" d="M2194.8 156.04 L2194.8 154.541 Q2200.56 154.541 2203.54 151.473 Q2204.36 151.473 2204.5 151.66 Q2204.64 151.848 2204.64 152.714 L2204.64 179.627 Q2204.64 181.055 2205.34 181.5 Q2206.05 181.946 2209.11 181.946 L2210.64 181.946 L2210.64 183.421 Q2208.95 183.281 2202.86 183.281 Q2196.77 183.281 2195.11 183.421 L2195.11 181.946 L2196.63 181.946 Q2199.65 181.946 2200.38 181.524 Q2201.1 181.079 2201.1 179.627 L2201.1 154.775 Q2198.6 156.04 2194.8 156.04 Z" fill="#000000" fill-rule="nonzero" fill-opacity="1" /><path clip-path="url(#clip780)" d="M2212.95 168.079 Q2212.95 161.029 2214.73 157.188 Q2217.21 151.473 2223.07 151.473 Q2224.31 151.473 2225.6 151.824 Q2226.91 152.152 2228.55 153.44 Q2230.21 154.729 2231.22 156.837 Q2233.14 160.912 2233.14 168.079 Q2233.14 175.083 2231.36 178.901 Q2228.76 184.475 2223.02 184.475 Q2220.87 184.475 2218.66 183.374 Q2216.49 182.273 2215.1 179.627 Q2212.95 175.668 2212.95 168.079 M2216.93 167.494 Q2216.93 174.731 2217.45 177.612 Q2218.03 180.728 2219.63 182.086 Q2221.24 183.421 2223.02 183.421 Q2224.94 183.421 2226.53 181.992 Q2228.15 180.54 2228.64 177.425 Q2229.18 174.357 2229.16 167.494 Q2229.16 160.818 2228.69 158.148 Q2228.06 155.033 2226.37 153.792 Q2224.71 152.527 2223.02 152.527 Q2222.39 152.527 2221.71 152.714 Q2221.05 152.902 2220.09 153.44 Q2219.13 153.979 2218.38 155.314 Q2217.66 156.649 2217.31 158.664 Q2216.93 161.264 2216.93 167.494 Z" fill="#000000" fill-rule="nonzero" fill-opacity="1" /><path clip-path="url(#clip780)" d="M2236.89 162.271 Q2236.89 159.718 2237.64 157.984 Q2238.39 156.228 2239.96 154.494 Q2242.84 151.473 2247.01 151.473 Q2248.79 151.473 2250.36 152.222 Q2251.95 152.972 2253.45 154.682 Q2254.97 156.368 2255.89 159.718 Q2256.8 163.044 2256.8 167.634 Q2256.8 175.059 2253.19 179.767 Q2249.61 184.475 2244.76 184.475 Q2241.69 184.475 2239.89 183.093 Q2238.09 181.688 2238.09 179.299 Q2238.09 178.057 2238.79 177.542 Q2239.49 177.003 2240.29 177.003 Q2241.15 177.003 2241.83 177.589 Q2242.51 178.151 2242.51 179.205 Q2242.51 180.072 2241.95 180.751 Q2241.41 181.407 2240.01 181.407 Q2241.39 183.14 2244.71 183.14 Q2245.91 183.14 2247.1 182.601 Q2248.3 182.039 2249.59 180.704 Q2250.9 179.346 2251.69 176.512 Q2252.49 173.677 2252.49 169.696 L2252.49 168.173 Q2250.57 172.975 2246.5 172.975 Q2242.47 172.975 2239.68 169.883 Q2236.89 166.791 2236.89 162.271 M2241.2 162.318 Q2241.2 167.072 2242.07 168.829 Q2243.54 171.85 2246.54 171.85 Q2249.47 171.85 2250.92 169.251 Q2252.4 166.627 2252.4 163.231 Q2252.4 158.523 2251.62 156.462 Q2250.2 152.667 2247.01 152.667 Q2243.85 152.667 2242.21 155.689 Q2241.2 157.469 2241.2 162.318 Z" fill="#000000" fill-rule="nonzero" fill-opacity="1" /><circle clip-path="url(#clip780)" cx="1470.53" cy="278.842" r="20.48" fill="#e26f46" fill-rule="evenodd" fill-opacity="1" stroke="#000000" stroke-opacity="1" stroke-width="4.55111"/>
<path clip-path="url(#clip780)" d="M1562.65 261.562 L1582.51 261.562 L1582.51 265.497 L1567.32 265.497 L1567.32 275.682 L1581.03 275.682 L1581.03 279.617 L1567.32 279.617 L1567.32 296.122 L1562.65 296.122 L1562.65 261.562 Z" fill="#000000" fill-rule="nonzero" fill-opacity="1" /><path clip-path="url(#clip780)" d="M1601.3 274.178 Q1600.59 273.761 1599.73 273.576 Q1598.9 273.367 1597.88 273.367 Q1594.27 273.367 1592.32 275.729 Q1590.4 278.067 1590.4 282.465 L1590.4 296.122 L1586.12 296.122 L1586.12 270.196 L1590.4 270.196 L1590.4 274.224 Q1591.74 271.863 1593.9 270.729 Q1596.05 269.571 1599.13 269.571 Q1599.57 269.571 1600.1 269.641 Q1600.63 269.687 1601.28 269.803 L1601.3 274.178 Z" fill="#000000" fill-rule="nonzero" fill-opacity="1" /><path clip-path="url(#clip780)" d="M1626.91 282.094 L1626.91 284.178 L1607.32 284.178 Q1607.6 288.576 1609.96 290.891 Q1612.35 293.182 1616.58 293.182 Q1619.04 293.182 1621.33 292.58 Q1623.64 291.978 1625.91 290.775 L1625.91 294.803 Q1623.62 295.775 1621.21 296.284 Q1618.8 296.793 1616.33 296.793 Q1610.12 296.793 1606.49 293.182 Q1602.88 289.571 1602.88 283.414 Q1602.88 277.048 1606.3 273.321 Q1609.75 269.571 1615.59 269.571 Q1620.82 269.571 1623.85 272.951 Q1626.91 276.307 1626.91 282.094 M1622.65 280.844 Q1622.6 277.349 1620.68 275.266 Q1618.78 273.182 1615.63 273.182 Q1612.07 273.182 1609.92 275.196 Q1607.79 277.21 1607.46 280.867 L1622.65 280.844 Z" fill="#000000" fill-rule="nonzero" fill-opacity="1" /><path clip-path="url(#clip780)" d="M1656.07 282.094 L1656.07 284.178 L1636.49 284.178 Q1636.77 288.576 1639.13 290.891 Q1641.51 293.182 1645.75 293.182 Q1648.2 293.182 1650.49 292.58 Q1652.81 291.978 1655.08 290.775 L1655.08 294.803 Q1652.79 295.775 1650.38 296.284 Q1647.97 296.793 1645.49 296.793 Q1639.29 296.793 1635.66 293.182 Q1632.05 289.571 1632.05 283.414 Q1632.05 277.048 1635.47 273.321 Q1638.92 269.571 1644.75 269.571 Q1649.99 269.571 1653.02 272.951 Q1656.07 276.307 1656.07 282.094 M1651.81 280.844 Q1651.77 277.349 1649.85 275.266 Q1647.95 273.182 1644.8 273.182 Q1641.24 273.182 1639.08 275.196 Q1636.95 277.21 1636.63 280.867 L1651.81 280.844 Z" fill="#000000" fill-rule="nonzero" fill-opacity="1" /><path clip-path="url(#clip780)" d="M1700.31 282.094 L1700.31 284.178 L1680.73 284.178 Q1681 288.576 1683.36 290.891 Q1685.75 293.182 1689.98 293.182 Q1692.44 293.182 1694.73 292.58 Q1697.05 291.978 1699.31 290.775 L1699.31 294.803 Q1697.02 295.775 1694.61 296.284 Q1692.21 296.793 1689.73 296.793 Q1683.53 296.793 1679.89 293.182 Q1676.28 289.571 1676.28 283.414 Q1676.28 277.048 1679.71 273.321 Q1683.16 269.571 1688.99 269.571 Q1694.22 269.571 1697.25 272.951 Q1700.31 276.307 1700.31 282.094 M1696.05 280.844 Q1696 277.349 1694.08 275.266 Q1692.18 273.182 1689.04 273.182 Q1685.47 273.182 1683.32 275.196 Q1681.19 277.21 1680.86 280.867 L1696.05 280.844 Z" fill="#000000" fill-rule="nonzero" fill-opacity="1" /><path clip-path="url(#clip780)" d="M1728.85 280.474 L1728.85 296.122 L1724.59 296.122 L1724.59 280.613 Q1724.59 276.932 1723.16 275.104 Q1721.72 273.275 1718.85 273.275 Q1715.4 273.275 1713.41 275.474 Q1711.42 277.673 1711.42 281.469 L1711.42 296.122 L1707.14 296.122 L1707.14 270.196 L1711.42 270.196 L1711.42 274.224 Q1712.95 271.886 1715.01 270.729 Q1717.09 269.571 1719.8 269.571 Q1724.27 269.571 1726.56 272.349 Q1728.85 275.104 1728.85 280.474 Z" fill="#000000" fill-rule="nonzero" fill-opacity="1" /><path clip-path="url(#clip780)" d="M1759.52 282.094 L1759.52 284.178 L1739.94 284.178 Q1740.22 288.576 1742.58 290.891 Q1744.96 293.182 1749.2 293.182 Q1751.65 293.182 1753.94 292.58 Q1756.26 291.978 1758.53 290.775 L1758.53 294.803 Q1756.23 295.775 1753.83 296.284 Q1751.42 296.793 1748.94 296.793 Q1742.74 296.793 1739.11 293.182 Q1735.49 289.571 1735.49 283.414 Q1735.49 277.048 1738.92 273.321 Q1742.37 269.571 1748.2 269.571 Q1753.43 269.571 1756.47 272.951 Q1759.52 276.307 1759.52 282.094 M1755.26 280.844 Q1755.22 277.349 1753.29 275.266 Q1751.4 273.182 1748.25 273.182 Q1744.68 273.182 1742.53 275.196 Q1740.4 277.21 1740.08 280.867 L1755.26 280.844 Z" fill="#000000" fill-rule="nonzero" fill-opacity="1" /><path clip-path="url(#clip780)" d="M1781.54 274.178 Q1780.82 273.761 1779.96 273.576 Q1779.13 273.367 1778.11 273.367 Q1774.5 273.367 1772.55 275.729 Q1770.63 278.067 1770.63 282.465 L1770.63 296.122 L1766.35 296.122 L1766.35 270.196 L1770.63 270.196 L1770.63 274.224 Q1771.98 271.863 1774.13 270.729 Q1776.28 269.571 1779.36 269.571 Q1779.8 269.571 1780.33 269.641 Q1780.86 269.687 1781.51 269.803 L1781.54 274.178 Z" fill="#000000" fill-rule="nonzero" fill-opacity="1" /><path clip-path="url(#clip780)" d="M1802.23 282.858 Q1802.23 278.229 1800.31 275.682 Q1798.41 273.136 1794.96 273.136 Q1791.54 273.136 1789.61 275.682 Q1787.72 278.229 1787.72 282.858 Q1787.72 287.465 1789.61 290.011 Q1791.54 292.557 1794.96 292.557 Q1798.41 292.557 1800.31 290.011 Q1802.23 287.465 1802.23 282.858 M1806.49 292.904 Q1806.49 299.525 1803.55 302.742 Q1800.61 305.983 1794.54 305.983 Q1792.3 305.983 1790.31 305.636 Q1788.32 305.312 1786.44 304.617 L1786.44 300.474 Q1788.32 301.492 1790.15 301.978 Q1791.98 302.465 1793.87 302.465 Q1798.06 302.465 1800.15 300.265 Q1802.23 298.09 1802.23 293.668 L1802.23 291.562 Q1800.91 293.853 1798.85 294.988 Q1796.79 296.122 1793.92 296.122 Q1789.15 296.122 1786.23 292.488 Q1783.32 288.854 1783.32 282.858 Q1783.32 276.84 1786.23 273.205 Q1789.15 269.571 1793.92 269.571 Q1796.79 269.571 1798.85 270.705 Q1800.91 271.84 1802.23 274.131 L1802.23 270.196 L1806.49 270.196 L1806.49 292.904 Z" fill="#000000" fill-rule="nonzero" fill-opacity="1" /><path clip-path="url(#clip780)" d="M1826.05 298.529 Q1824.24 303.159 1822.53 304.571 Q1820.82 305.983 1817.95 305.983 L1814.54 305.983 L1814.54 302.418 L1817.04 302.418 Q1818.8 302.418 1819.78 301.585 Q1820.75 300.752 1821.93 297.65 L1822.69 295.705 L1812.21 270.196 L1816.72 270.196 L1824.82 290.474 L1832.92 270.196 L1837.44 270.196 L1826.05 298.529 Z" fill="#000000" fill-rule="nonzero" fill-opacity="1" /><path clip-path="url(#clip780)" d="M1875.45 274.131 L1875.45 260.104 L1879.71 260.104 L1879.71 296.122 L1875.45 296.122 L1875.45 292.233 Q1874.1 294.548 1872.04 295.682 Q1870.01 296.793 1867.14 296.793 Q1862.44 296.793 1859.47 293.043 Q1856.54 289.293 1856.54 283.182 Q1856.54 277.071 1859.47 273.321 Q1862.44 269.571 1867.14 269.571 Q1870.01 269.571 1872.04 270.705 Q1874.1 271.817 1875.45 274.131 M1860.93 283.182 Q1860.93 287.881 1862.85 290.566 Q1864.8 293.228 1868.18 293.228 Q1871.56 293.228 1873.5 290.566 Q1875.45 287.881 1875.45 283.182 Q1875.45 278.483 1873.5 275.821 Q1871.56 273.136 1868.18 273.136 Q1864.8 273.136 1862.85 275.821 Q1860.93 278.483 1860.93 283.182 Z" fill="#000000" fill-rule="nonzero" fill-opacity="1" /><path clip-path="url(#clip780)" d="M1910.66 282.094 L1910.66 284.178 L1891.07 284.178 Q1891.35 288.576 1893.71 290.891 Q1896.09 293.182 1900.33 293.182 Q1902.78 293.182 1905.08 292.58 Q1907.39 291.978 1909.66 290.775 L1909.66 294.803 Q1907.37 295.775 1904.96 296.284 Q1902.55 296.793 1900.08 296.793 Q1893.87 296.793 1890.24 293.182 Q1886.63 289.571 1886.63 283.414 Q1886.63 277.048 1890.05 273.321 Q1893.5 269.571 1899.34 269.571 Q1904.57 269.571 1907.6 272.951 Q1910.66 276.307 1910.66 282.094 M1906.4 280.844 Q1906.35 277.349 1904.43 275.266 Q1902.53 273.182 1899.38 273.182 Q1895.82 273.182 1893.66 275.196 Q1891.53 277.21 1891.21 280.867 L1906.4 280.844 Z" fill="#000000" fill-rule="nonzero" fill-opacity="1" /><path clip-path="url(#clip780)" d="M1939.2 280.474 L1939.2 296.122 L1934.94 296.122 L1934.94 280.613 Q1934.94 276.932 1933.5 275.104 Q1932.07 273.275 1929.2 273.275 Q1925.75 273.275 1923.76 275.474 Q1921.77 277.673 1921.77 281.469 L1921.77 296.122 L1917.48 296.122 L1917.48 270.196 L1921.77 270.196 L1921.77 274.224 Q1923.29 271.886 1925.35 270.729 Q1927.44 269.571 1930.15 269.571 Q1934.61 269.571 1936.9 272.349 Q1939.2 275.104 1939.2 280.474 Z" fill="#000000" fill-rule="nonzero" fill-opacity="1" /><path clip-path="url(#clip780)" d="M1964.22 270.96 L1964.22 274.988 Q1962.41 274.062 1960.47 273.599 Q1958.53 273.136 1956.44 273.136 Q1953.27 273.136 1951.67 274.108 Q1950.1 275.08 1950.1 277.025 Q1950.1 278.506 1951.23 279.363 Q1952.37 280.196 1955.79 280.96 L1957.25 281.284 Q1961.79 282.256 1963.69 284.039 Q1965.61 285.798 1965.61 288.969 Q1965.61 292.58 1962.74 294.687 Q1959.89 296.793 1954.89 296.793 Q1952.81 296.793 1950.54 296.377 Q1948.29 295.983 1945.79 295.173 L1945.79 290.775 Q1948.15 292.002 1950.45 292.627 Q1952.74 293.228 1954.98 293.228 Q1957.99 293.228 1959.61 292.21 Q1961.23 291.168 1961.23 289.293 Q1961.23 287.557 1960.05 286.631 Q1958.9 285.705 1954.94 284.849 L1953.46 284.502 Q1949.5 283.668 1947.74 281.955 Q1945.98 280.219 1945.98 277.21 Q1945.98 273.553 1948.57 271.562 Q1951.16 269.571 1955.93 269.571 Q1958.29 269.571 1960.38 269.918 Q1962.46 270.266 1964.22 270.96 Z" fill="#000000" fill-rule="nonzero" fill-opacity="1" /><path clip-path="url(#clip780)" d="M1972.39 270.196 L1976.65 270.196 L1976.65 296.122 L1972.39 296.122 L1972.39 270.196 M1972.39 260.104 L1976.65 260.104 L1976.65 265.497 L1972.39 265.497 L1972.39 260.104 Z" fill="#000000" fill-rule="nonzero" fill-opacity="1" /><path clip-path="url(#clip780)" d="M1989.78 262.835 L1989.78 270.196 L1998.55 270.196 L1998.55 273.506 L1989.78 273.506 L1989.78 287.58 Q1989.78 290.752 1990.63 291.654 Q1991.51 292.557 1994.17 292.557 L1998.55 292.557 L1998.55 296.122 L1994.17 296.122 Q1989.24 296.122 1987.37 294.293 Q1985.49 292.441 1985.49 287.58 L1985.49 273.506 L1982.37 273.506 L1982.37 270.196 L1985.49 270.196 L1985.49 262.835 L1989.78 262.835 Z" fill="#000000" fill-rule="nonzero" fill-opacity="1" /><path clip-path="url(#clip780)" d="M2014.94 298.529 Q2013.13 303.159 2011.42 304.571 Q2009.71 305.983 2006.84 305.983 L2003.43 305.983 L2003.43 302.418 L2005.93 302.418 Q2007.69 302.418 2008.66 301.585 Q2009.64 300.752 2010.82 297.65 L2011.58 295.705 L2001.09 270.196 L2005.61 270.196 L2013.71 290.474 L2021.81 270.196 L2026.33 270.196 L2014.94 298.529 Z" fill="#000000" fill-rule="nonzero" fill-opacity="1" /></svg>
